<?xml version="1.0" encoding="UTF-8"?><svg id="uuid-c1a4d7c6-ff98-45d7-bfd3-5e97b60a5132" xmlns="http://www.w3.org/2000/svg" xmlns:xlink="http://www.w3.org/1999/xlink" viewBox="0 0 218.9 309"><defs><clipPath id="uuid-fb2c47af-a025-4d55-be58-6e72d0f98c5a"><path d="M158.9,124h0c33.14,0,60,26.86,60,60h0c0,33.14-26.86,60-60,60h0c-33.14,0-60-26.86-60-60h0c0-33.14,26.86-60,60-60Z" style="fill:none; stroke-width:0px;"/></clipPath></defs><path d="M15.75,296.03c4.5-11,15-21,8,3-7.75,26.57,12.61-14.22,19-15.5,5-1-16.5,33,3.5,19.5" style="fill:none; stroke:#83db83; stroke-linecap:round; stroke-linejoin:round; stroke-width:2px;"/><rect x="168" y="44" width="8.49" height="8.49" rx="2" ry="2" style="fill:#70b2ff; stroke-width:0px;"/><circle cx="31" cy="31" r="29" style="fill:none; stroke:#ffd652; stroke-width:4px;"/><g style="clip-path:url(#uuid-fb2c47af-a025-4d55-be58-6e72d0f98c5a);"><path d="M158.9,124h0c33.14,0,60,26.86,60,60h0c0,33.14-26.86,60-60,60h0c-33.14,0-60-26.86-60-60h0c0-33.14,26.86-60,60-60Z" style="fill:#ffebe0; stroke-width:0px;"/><path d="M169.17,144.51s-6.13-5.15-12.67-5.15c-8.44,0-18.12,5.54-20.15,17.72-1.47,8.8,3.79,10.08-9.55,22.61-8.21,7.71-4.91,12.08-4.91,12.08,23.76,11.24,48.32,12.69,73.59,4.93,0,0,3.16-6.36-7.21-19.78-2.62-3.38-2.39-15.61-2.68-20.19-.59-8.11-7.05-13.13-16.43-12.21h0Z" style="fill:#3f8ae0; stroke-width:0px;"/><path d="M215.79,260.44c-.76-3.64-9.45-26.87-10.21-29.5-1.03-3.56-2.96-6.8-5.59-9.41-2.63-2.62-5.89-4.52-9.45-5.53l-22.24-6.33-9.53,1.95-11.37-1.95-20.39,6.33c-3.57,1.01-6.82,2.92-9.46,5.53-2.63,2.61-4.55,5.85-5.59,9.41-.76,2.62-9.67,27.81-10.44,31.45,17.03,8.37,69.56,15.33,114.27-1.96h0Z" style="fill:#73b4ff; stroke-width:0px;"/><path d="M166.75,193.3c-2.45-3.15-5.43-5.84-8.82-7.94-3.39,2.1-6.38,4.79-8.82,7.94-.09,6.68,1.05,15.22-5,17.36,3,3.4,8.38,12.4,13.81,12.35,5.43.05,10.82-8.95,13.83-12.35-6.05-2.15-4.9-10.68-5-17.36h0Z" style="fill:#ffb487; stroke-width:0px;"/><path d="M148.84,200.64c5.66.97,14.95.47,17.98-4.01-.23-.61-.4-1.25-.51-1.89-1.61-2.29-3.51-4.37-5.64-6.19-.59.32-1.2.67-1.84,1.04l-4.42,3.02c-1.77,1.39-3.53,2.33-5.23,4.13,0,.25-.05.56-.09.9-.09,1-.16,2.02-.25,3.01Z" style="fill:#d47455; stroke-width:0px;"/><path d="M143.84,173.32c-8.26-6.42-11.22,7.77-.9,8.89.67-2.9,1.4-5.8.9-8.89Z" style="fill:#ffb487; stroke-width:0px;"/><path d="M141.41,176.74c-.2,0-.38-.14-.42-.34-.03-.22-.11-.44-.22-.63-.36-.59-1.05-.9-1.73-.77-.24.02-.45-.16-.48-.4-.02-.24.15-.44.39-.47,1.01-.16,2.01.3,2.55,1.16.17.28.29.59.34.92.04.23-.1.46-.34.51h-.09s0,0,0,0Z" style="fill:#393b52; stroke-width:0px;"/><path d="M142.72,182.62c-.07-2.99.31-15.5,2.21-18.35,7.45-11.18,19.05-2.38,24.99-2.22,1.58.04,2.54-.19,3.09-.96.82,11.29.7,24.04.58,24.04-1.34,7.35-6.14,14.6-16.65,14.31-.39,0-.79-.02-1.2-.06-9.8-.79-13.07-11.1-13.02-16.77Z" style="fill:#ffb487; stroke-width:0px;"/><path d="M170.65,172.79c-.07,0-.14-.02-.21-.05-2.1-1.15-4.59-1.37-6.87-.6-.22.09-.48-.02-.57-.24-.09-.22.02-.47.24-.56,2.52-.89,5.29-.64,7.61.67.21.12.28.38.17.59-.08.13-.23.21-.38.2h0ZM154.25,171.38c-.06,0-.11,0-.17,0-2.19-.97-4.63-1.24-6.99-.76-.23.07-.47-.06-.54-.29,0,0,0,0,0-.01-.07-.23.07-.47.29-.53,2.54-.55,5.19-.27,7.57.79.11.04.19.13.23.24.04.11.04.23,0,.33-.08.15-.23.24-.4.23h0ZM168.07,177.56c.1-1.46-.63-2.7-1.64-2.77-1.01-.07-1.91,1.05-2.02,2.52-.1,1.46.63,2.7,1.64,2.77,1.01.07,1.91-1.05,2.02-2.52Z" style="fill:#393b52; stroke-width:0px;"/><path d="M170.65,174.23c-.18.38-.4.73-.67,1.05-.28.34-.6.64-.95.91-.37.27-.78.5-1.21.67-.45.18-.92.31-1.4.39h-.05c-.65.11-1.27-.32-1.38-.98-.11-.66.33-1.28.99-1.38.19-.03.39-.02.57.04.31.11.63.19.96.22.35.05.7.05,1.05,0,.37-.06.73-.16,1.08-.31.37-.16.71-.36,1.02-.61ZM152.33,176.27c.1-1.46-.63-2.7-1.64-2.77-1.01-.07-1.91,1.05-2.02,2.52-.1,1.46.63,2.7,1.64,2.77,1.01.07,1.91-1.05,2.02-2.51Z" style="fill:#393b52; stroke-width:0px;"/><path d="M147.06,171.8c.43.64,1.02,1.16,1.71,1.51.31.16.65.28.99.35.32.07.65.1.98.09.66.03,1.18.58,1.15,1.24-.02.62-.52,1.13-1.15,1.15-.2,0-.39-.05-.56-.14h-.05c-.43-.22-.84-.49-1.21-.8-.36-.29-.68-.64-.94-1.01-.25-.36-.46-.75-.62-1.16-.16-.39-.26-.81-.31-1.23h0ZM157.57,184.98h-.11c-.49-.13-2.1-.67-2.44-1.7-.14-.5,0-1.04.36-1.42,1.38-1.94,2-4.31,1.74-6.68,0-.06,0-.11.01-.17.02-.05.04-.11.07-.15.04-.04.08-.08.13-.11.21-.12.48-.04.6.17.03.05.04.1.05.16.29,2.6-.4,5.22-1.93,7.35-.28.34-.22.53-.2.6.13.41.88.87,1.84,1.12.23.06.37.3.31.53-.06.18-.23.3-.42.29h0Z" style="fill:#393b52; stroke-width:0px;"/><path d="M157.12,190.63c-1.35.01-2.68-.33-3.85-1-.4-.26-.52-.79-.27-1.2.26-.4.79-.52,1.2-.27.13.08,3.1,1.86,6.73-.46.19-.13.43-.17.66-.12.47.1.76.56.66,1.03,0,0,0,0,0,0-.05.22-.19.42-.38.54-1.41.93-3.06,1.44-4.75,1.46h0Z" style="fill:#e34450; stroke-width:0px;"/><path d="M173.48,175.76c9.19-5,9.79,9.48-.56,8.92-.19-2.97-.43-5.96.56-8.92Z" style="fill:#ffb487; stroke-width:0px;"/><path d="M175.38,179.53c-.05,0-.11-.01-.16-.03-.22-.09-.33-.33-.25-.56,0,0,0,0,0,0,.45-1.32,1.87-2.02,3.19-1.58.23.07.37.3.31.53-.06.23-.3.37-.54.31-.65-.25-1.38-.06-1.83.47-.15.17-.26.37-.32.58-.06.17-.22.28-.4.28h0Z" style="fill:#393b52; stroke-width:0px;"/><path d="M149.73,180.9h-.53c-3.49-.28-6.08-3.33-5.8-6.82,0,0,0,0,0,0,.14-1.67.94-3.22,2.22-4.31,2.67-2.26,6.67-1.93,8.93.73,1.66,1.95,1.98,4.71.81,6.99-1.09,2.11-3.26,3.43-5.63,3.42ZM149.73,169.1c-1.37,0-2.69.52-3.71,1.45-1.01.93-1.63,2.2-1.75,3.57-.12,1.44.35,2.88,1.29,3.98.94,1.1,2.28,1.79,3.73,1.91,1.46.13,2.9-.33,4.01-1.28,2.3-1.94,2.59-5.38.65-7.68,0,0-.01-.02-.02-.02-1.05-1.24-2.59-1.94-4.21-1.93h.01,0ZM167.07,182.32h-.52c-1.68-.14-3.23-.93-4.32-2.22-1.09-1.28-1.63-2.94-1.49-4.61.14-1.67.94-3.22,2.22-4.31,1.28-1.09,2.94-1.62,4.62-1.49,1.68.14,3.23.94,4.32,2.22,1.09,1.28,1.62,2.94,1.48,4.61-.14,1.58-.86,3.05-2.03,4.12-1.17,1.07-2.7,1.67-4.29,1.67h0ZM167.07,170.53c-1.37,0-2.69.52-3.71,1.45-1.01.93-1.63,2.2-1.75,3.57-.13,1.45.33,2.9,1.28,4.01.94,1.11,2.28,1.8,3.73,1.92,1.45.12,2.88-.35,3.99-1.28,1.11-.94,1.79-2.27,1.91-3.72.12-1.44-.35-2.88-1.29-3.98-.94-1.1-2.28-1.79-3.73-1.91-.15-.04-.3-.05-.46-.05h0Z" style="fill:#fff; stroke-width:0px;"/><path d="M161.12,175.94c-2.09-2.79-5.39-.98-5.53-.9l-.43-.76s4.1-2.28,6.69,1.13l-.73.52h0Z" style="fill:#fff; stroke-width:0px;"/><path d="M158.76,225.86c15.6,0,28.85-3.85,33.71-9.2-.63-.25-1.28-.47-1.93-.67l-22.24-6.33-9.53,1.95-11.37-1.95-20.39,6.33c-.66.18-1.31.41-1.94.67,4.85,5.36,18.11,9.2,33.7,9.2Z" style="fill:#ffb487; stroke-width:0px;"/><path d="M168.48,147.36v-.53c0-.18,0-.38-.04-.57-.03-.39-.09-.77-.16-1.15-.15-.76-.37-1.51-.67-2.22-.57-1.44-1.51-2.71-2.72-3.69-1.28-.98-2.77-1.64-4.36-1.92-1.64-.3-3.31-.37-4.96-.21,1.66-.36,3.35-.48,5.04-.37,1.75.11,3.45.64,4.94,1.55.76.47,1.46,1.05,2.07,1.7.61.67,1.13,1.41,1.57,2.2.43.79.78,1.62,1.04,2.48.13.43.25.86.34,1.34.05.22.09.44.13.67s.07.44.09.73h-2.31s0,0,0,0Z" style="fill:#3f8ae0; stroke-width:0px;"/></g><path d="M110.1,175.25l-15.65-10.07c-.79-.51-1.19-.76-1.59-.68-.4.09-.66.49-1.17,1.28l-10.07,15.65c-1.11,1.73-1.67,2.59-1.29,3.14.38.55,1.39.33,3.39-.1l25.72-5.58c2.01-.43,3.01-.65,3.13-1.31.12-.66-.75-1.21-2.47-2.32h0Z" style="fill:#ff6680; stroke-width:0px;"/></svg>