<svg xmlns="http://www.w3.org/2000/svg" xmlns:xlink="http://www.w3.org/1999/xlink" xml:space="preserve" viewBox="0 0 360 164"><path fill="#393B52" d="M28 40h2.89l6.17-20h-2.89L28 40zm6.94 0h2.89L44 20h-2.89l-6.17 20z"/><path fill="#83DB83" fill-rule="evenodd" d="M100.09 42.17c-.1.46-.29 1.08-.54 1.82-.31.9-.7 1.93-1.12 3.02l-.19.49c-.48 1.27-.98 2.6-1.4 3.86-.41 1.26-.76 2.48-.91 3.54-.08.5-.1 1.01-.07 1.51.04.46.15.94.43 1.35.29.44.73.73 1.27.85.51.11 1.07.05 1.63-.11 1.12-.31 2.57-1.09 4.41-2.35a.9.9 0 0 0 .24-1.25c0-.01-.01-.01-.01-.02a.937.937 0 0 0-1.29-.22c-1.79 1.24-3.04 1.87-3.85 2.09-.4.11-.63.11-.74.08-.08-.02-.1-.04-.12-.07-.04-.06-.11-.21-.13-.5-.02-.37 0-.74.06-1.1.13-.9.43-2.01.84-3.24.4-1.22.89-2.52 1.37-3.78l.19-.49c.42-1.09.82-2.14 1.14-3.07.36-1.04.65-2.03.72-2.75.03-.33.03-.82-.22-1.22-.16-.25-.39-.44-.67-.53-.25-.08-.51-.09-.77-.03-.49.1-.94.37-1.35.67-.42.31-.85.72-1.29 1.18-.88.92-1.84 2.14-2.82 3.49-1.34 1.83-2.77 3.96-4.1 5.95-.61.91-1.21 1.8-1.76 2.61-.89 1.31-1.69 2.42-2.33 3.22-.07.08-.13.16-.19.23.16-1 .51-2.52 1.14-4.7 1.27-4.47 1.79-7.46 1.73-9.28-.03-.88-.19-1.7-.66-2.24-.26-.3-.61-.5-1.01-.56-.36-.05-.72 0-1.05.14-.6.23-1.2.71-1.75 1.26-.56.57-1.15 1.29-1.71 2.1-1.14 1.62-2.26 3.68-3.1 5.78-.18.46.04.99.51 1.18h.01a.933.933 0 0 0 1.2-.51c.79-1.98 1.85-3.91 2.9-5.42.53-.75 1.04-1.38 1.51-1.86.49-.49.86-.75 1.1-.84.01 0 .02-.01.04-.01.06.12.15.42.17 1.04.05 1.53-.39 4.3-1.66 8.74-.71 2.47-1.11 4.21-1.24 5.35-.06.55-.08 1.06.02 1.46.05.21.16.49.41.71.28.25.63.33.94.29.24-.03.46-.12.67-.25.18-.11.34-.24.49-.38.31-.28.64-.66.99-1.08.7-.86 1.53-2.03 2.43-3.34.58-.84 1.18-1.74 1.8-2.67 1.32-1.97 2.71-4.04 4.03-5.84.97-1.32 1.88-2.47 2.68-3.31.33-.45.68-.77.98-.99zM86.42 58.56z" clip-rule="evenodd"/><path fill="#FFD652" fill-rule="evenodd" d="M312 61.5c9.67 0 17.5-7.83 17.5-17.5s-7.83-17.5-17.5-17.5-17.5 7.83-17.5 17.5 7.83 17.5 17.5 17.5zm0 2.5c11.05 0 20-8.95 20-20s-8.95-20-20-20-20 8.95-20 20 8.95 20 20 20z" clip-rule="evenodd"/><defs><path id="a" d="M180 44c19.88 0 36 16.12 36 36s-16.12 36-36 36-36-16.12-36-36 16.12-36 36-36z"/></defs><clipPath id="b"><use xlink:href="#a" overflow="visible"/></clipPath><g clip-path="url(#b)"><path fill="#FFA000" fill-opacity=".16" d="M180 44c19.88 0 36 16.12 36 36s-16.12 36-36 36-36-16.12-36-36 16.12-36 36-36z"/><path fill="#3F8AE0" d="M186.16 56.31s-3.68-3.09-7.6-3.09c-5.06 0-10.87 3.33-12.09 10.63-.88 5.28 2.27 6.05-5.73 13.56-4.93 4.63-2.95 7.25-2.95 7.25 14.26 6.74 28.99 7.61 44.16 2.96 0 0 1.9-3.81-4.32-11.87-1.57-2.03-1.43-9.37-1.61-12.11-.36-4.87-4.23-7.88-9.86-7.33z"/><path fill="#73B4FF" d="M214.13 125.86c-.46-2.18-5.67-16.12-6.12-17.7a13.144 13.144 0 0 0-9.02-8.97l-13.34-3.8-5.72 1.17-6.82-1.17-12.24 3.8c-2.14.61-4.09 1.75-5.68 3.32a13.09 13.09 0 0 0-3.35 5.65c-.46 1.57-5.8 16.68-6.26 18.87 10.21 5.03 41.73 9.21 68.55-1.17z"/><path fill="#FFB487" d="M184.71 85.58c-1.47-1.89-3.26-3.5-5.29-4.76a20.202 20.202 0 0 0-5.29 4.76c-.06 4.01.63 9.13-3 10.42 1.8 2.04 5.03 7.44 8.29 7.41 3.26.03 6.49-5.37 8.3-7.41-3.64-1.29-2.95-6.41-3.01-10.42z"/><path fill="#D47455" d="M173.96 89.99c3.4.58 8.97.29 10.79-2.4-.14-.37-.24-.75-.31-1.13a19.86 19.86 0 0 0-3.38-3.71c-.35.19-.72.4-1.1.62l-2.65 1.82c-1.06.83-2.12 1.4-3.13 2.48 0 .15-.03.34-.05.54-.07.58-.12 1.18-.17 1.78z"/><path fill="#FFB487" d="M170.96 73.6c-4.95-3.85-6.73 4.66-.54 5.33.4-1.74.84-3.48.54-5.33z"/><path fill="#393B52" d="M169.51 75.65c-.12 0-.23-.09-.25-.21-.08-.54-.58-.92-1.12-.85-.02 0-.04.01-.05.01a.274.274 0 0 1-.29-.24c-.01-.14.09-.27.23-.29.82-.13 1.6.43 1.73 1.25.03.14-.06.28-.2.31l-.05.02z"/><path fill="#FFB487" d="M170.29 79.17c-.04-1.79.18-9.3 1.32-11.01 4.47-6.71 11.43-1.43 15-1.33.95.02 1.52-.12 1.85-.58.49 6.77.42 14.43.35 14.43-.8 4.41-3.68 8.76-9.99 8.59-.24 0-.48-.01-.72-.04-5.88-.47-7.84-6.66-7.81-10.06z"/><path fill="#393B52" d="M187.05 73.28c-.04 0-.09-.01-.12-.03a5.155 5.155 0 0 0-4.12-.36c-.13.05-.29-.01-.34-.14-.05-.13.01-.28.15-.34 1.51-.53 3.17-.39 4.57.4.12.07.17.23.1.35a.33.33 0 0 1-.24.12zm-9.84-.85a.17.17 0 0 1-.1 0 7.012 7.012 0 0 0-4.19-.46.257.257 0 0 1-.32-.18c-.04-.14.04-.28.18-.32a7.3 7.3 0 0 1 4.54.48c.06.03.11.08.14.14.01.03.02.07.02.1s-.01.07-.02.1c-.06.09-.15.14-.25.14zm8.29 3.71c.06-.88-.38-1.62-.99-1.66s-1.15.63-1.21 1.51c-.06.88.38 1.62.99 1.66s1.15-.64 1.21-1.51z"/><path fill="#393B52" d="M187.05 74.14c-.11.23-.24.44-.4.63-.17.2-.36.39-.57.54-.22.16-.47.3-.73.4-.27.11-.55.19-.84.23h-.03a.715.715 0 1 1-.24-1.41.82.82 0 0 1 .35.02c.18.07.38.11.57.13.21.03.42.03.63 0 .22-.03.44-.1.65-.19.21-.08.42-.21.61-.35zm-10.99 1.22c.06-.88-.38-1.62-.99-1.67s-1.15.63-1.21 1.51c-.06.88.38 1.62.99 1.66s1.14-.62 1.21-1.5z"/><path fill="#393B52" d="M172.89 72.68c.26.38.61.7 1.03.91.37.18.77.27 1.18.26.4 0 .72.32.72.72 0 .29-.17.55-.44.67-.2.08-.42.07-.61-.03h-.03c-.26-.13-.5-.29-.73-.48a3.3 3.3 0 0 1-.57-.61 3.29 3.29 0 0 1-.37-.69c-.08-.25-.15-.5-.18-.75zm6.31 7.91h-.07c-.29-.08-1.26-.4-1.46-1.02-.08-.3 0-.62.22-.85a5.78 5.78 0 0 0 1.04-4.01c0-.03 0-.07.01-.1.03-.1.11-.18.22-.19.14-.02.27.08.29.23a6.37 6.37 0 0 1-1.16 4.41c-.17.21-.13.32-.12.36.08.25.53.52 1.1.67.14.04.22.18.18.32-.03.11-.14.18-.25.18z"/><path fill="#E34450" d="M178.93 83.98c-.81.01-1.61-.2-2.31-.6a.517.517 0 0 1-.16-.72c.07-.12.19-.2.33-.23.13-.03.28-.01.39.07.08.05 1.86 1.11 4.04-.28a.517.517 0 0 1 .7.74c-.04.05-.09.1-.14.14-.85.56-1.84.86-2.85.88z"/><path fill="#FFB487" d="M188.75 75.05c5.51-3 5.88 5.69-.34 5.35-.11-1.78-.26-3.57.34-5.35z"/><path fill="#393B52" d="M189.89 77.32c-.03 0-.07-.01-.1-.02a.26.26 0 0 1-.15-.33c.27-.79 1.12-1.21 1.91-.95.14.04.22.18.18.32-.04.14-.18.22-.32.18a.984.984 0 0 0-1.27.57c-.01.02-.01.04-.02.06-.03.1-.13.17-.23.17z"/><path fill="#FFF" d="M174.5 78.14h-.32c-1-.08-1.94-.56-2.59-1.33a3.8 3.8 0 0 1 .43-5.35l.01-.01a3.805 3.805 0 0 1 5.85 4.63 3.788 3.788 0 0 1-3.38 2.06zm0-7.08c-.82 0-1.62.31-2.22.87-.61.56-.98 1.32-1.05 2.14-.14 1.8 1.2 3.39 3.01 3.53.87.08 1.74-.2 2.41-.77a3.277 3.277 0 0 0 .39-4.61l-.01-.01a3.38 3.38 0 0 0-2.53-1.15zm10.4 7.93h-.31a3.777 3.777 0 0 1-2.59-1.33c-.66-.76-.98-1.76-.89-2.76.08-1 .56-1.93 1.33-2.59a3.83 3.83 0 0 1 2.77-.89c2.09.17 3.65 2 3.48 4.09v.01a3.78 3.78 0 0 1-1.22 2.47c-.7.64-1.62 1-2.57 1zm0-7.07c-1.82 0-3.29 1.48-3.29 3.29a3.27 3.27 0 0 0 .79 2.12c.56.67 1.37 1.08 2.24 1.15a3.29 3.29 0 0 0 3.54-3c.14-1.8-1.2-3.39-3.01-3.53a.626.626 0 0 0-.27-.03z"/><path fill="#FFF" d="M181.33 75.16c-1.26-1.68-3.24-.58-3.32-.54l-.26-.45c.02 0 2.46-1.37 4.01.68l-.43.31z"/><path fill="#FFB487" d="M179.91 105.12c9.36 0 17.31-2.31 20.22-5.52-.38-.15-.77-.28-1.16-.4l-13.34-3.8-5.72 1.17-6.82-1.17-12.24 3.8c-.4.11-.78.24-1.16.4 2.92 3.21 10.87 5.52 20.22 5.52z"/><path fill="#3F8AE0" d="M185.75 58.02v-.32c0-.11 0-.23-.02-.34-.02-.23-.05-.46-.1-.69-.09-.46-.22-.9-.4-1.33-.34-.87-.9-1.63-1.63-2.21-.77-.59-1.66-.99-2.62-1.15-.98-.18-1.98-.22-2.98-.12.99-.22 2.01-.29 3.03-.22 1.05.07 2.07.38 2.97.93.46.28.87.63 1.24 1.02.36.4.68.84.94 1.32.26.47.47.97.63 1.49.08.26.15.52.2.8.03.13.05.26.08.4.02.14.04.26.05.44l-1.39-.02z"/></g><path fill="#FF6680" d="m154.41 66.5-8.55-5.34c-.88-.55-1.32-.82-1.76-.72-.44.1-.72.54-1.27 1.42l-5.34 8.55c-1.2 1.92-1.79 2.87-1.37 3.47s1.53.34 3.73-.16l13.89-3.21c2.2-.51 3.3-.76 3.42-1.49.12-.72-.83-1.32-2.75-2.52z"/><path fill="#70B2FF" d="M252 51c0-.93 0-1.4.15-1.76.2-.49.59-.88 1.08-1.08.37-.16.84-.16 1.77-.16s1.4 0 1.76.15c.49.2.88.59 1.08 1.08.16.37.16.84.16 1.77s0 1.4-.15 1.76c-.2.49-.59.88-1.08 1.08-.37.16-.84.16-1.77.16s-1.4 0-1.76-.15c-.49-.2-.88-.59-1.08-1.08-.16-.37-.16-.84-.16-1.77z"/><path fill="#3F8AE0" d="M278 84c-.69 0-1.25.56-1.25 1.25v7.5h-7.5a1.25 1.25 0 0 0 0 2.5h7.5v7.5a1.25 1.25 0 0 0 2.5 0v-7.5h7.5a1.25 1.25 0 0 0 0-2.5h-7.5v-7.5c0-.69-.56-1.25-1.25-1.25z"/><path fill="#70B2FF" d="m65.52 123.17 5.66-5.66a4.008 4.008 0 0 1 5.66 0l5.66 5.66a4.008 4.008 0 0 1 0 5.66l-5.66 5.66a4.008 4.008 0 0 1-5.66 0l-5.66-5.66a4.008 4.008 0 0 1 0-5.66z"/></svg>