<?xml version="1.0" standalone="no"?>
<!DOCTYPE svg PUBLIC "-//W3C//DTD SVG 20010904//EN"
 "http://www.w3.org/TR/2001/REC-SVG-20010904/DTD/svg10.dtd">
<svg version="1.0" xmlns="http://www.w3.org/2000/svg"
 width="2048.000000pt" height="2048.000000pt" viewBox="0 0 2048.000000 2048.000000"
 preserveAspectRatio="xMidYMid meet">
<metadata>
Created by potrace 1.14, written by Peter Selinger 2001-2017
</metadata>
<g transform="translate(0.000000,2048.000000) scale(0.100000,-0.100000)"
fill="#000000" stroke="none">
<path d="M9930 18400 c0 -7 -7 -10 -15 -6 -10 3 -15 -1 -16 -12 0 -11 -2 -12
-6 -4 -4 10 -8 10 -19 1 -11 -9 -14 -9 -14 0 0 8 -6 9 -17 3 -10 -5 -29 -6
-43 -3 -32 9 -80 2 -80 -11 0 -6 -6 -5 -15 2 -8 7 -15 8 -15 2 0 -5 -11 -12
-25 -14 -14 -3 -25 -1 -25 3 0 8 -11 6 -50 -8 -8 -3 -24 -6 -35 -7 -11 -1 -24
-4 -30 -7 -5 -3 -22 -5 -37 -4 -16 0 -28 -3 -28 -9 0 -5 -3 -6 -7 -3 -3 4 -12
2 -20 -4 -10 -9 -13 -8 -13 1 0 10 -3 10 -15 0 -8 -7 -36 -14 -62 -15 -26 -2
-49 -8 -51 -15 -3 -8 -8 -8 -17 0 -9 8 -15 8 -20 0 -3 -6 -11 -8 -16 -5 -5 4
-9 1 -9 -6 0 -7 -3 -9 -7 -6 -3 4 -12 2 -20 -4 -10 -9 -13 -8 -13 0 0 7 -5 9
-10 6 -6 -4 -8 -10 -5 -15 3 -4 -5 -6 -17 -2 -13 3 -19 1 -15 -5 5 -7 0 -9
-13 -6 -12 3 -20 0 -20 -7 0 -10 -3 -10 -14 -1 -11 9 -16 9 -22 0 -5 -8 -3 -9
6 -4 8 5 11 4 6 -3 -4 -6 -13 -9 -20 -6 -8 3 -17 0 -21 -6 -6 -9 -10 -9 -16 1
-7 11 -9 10 -9 -3 0 -11 -5 -15 -15 -12 -8 4 -15 2 -15 -4 0 -6 -10 -8 -22 -4
-12 3 -19 1 -15 -4 3 -5 -2 -10 -11 -11 -9 -1 -28 -4 -41 -9 -19 -5 -22 -4
-16 6 5 9 4 11 -4 6 -6 -4 -9 -12 -6 -17 4 -5 -3 -9 -15 -9 -12 0 -18 -4 -15
-10 3 -5 1 -10 -4 -10 -6 0 -11 6 -11 13 0 9 -3 8 -9 -2 -5 -7 -14 -10 -20 -7
-6 4 -11 0 -11 -9 0 -9 -4 -14 -9 -10 -5 3 -12 1 -16 -5 -4 -6 -11 -8 -16 -5
-5 4 -9 1 -9 -4 0 -6 -5 -11 -11 -11 -5 0 -7 6 -4 13 4 6 0 4 -8 -5 -8 -10
-18 -14 -22 -10 -5 4 -5 -1 -2 -10 4 -12 2 -15 -8 -11 -8 3 -12 10 -9 17 3 6
-1 3 -9 -6 -8 -10 -17 -15 -20 -11 -4 3 -7 1 -7 -7 0 -10 -4 -10 -17 1 -9 8
-14 9 -10 3 8 -14 -20 -27 -35 -17 -7 3 -8 1 -4 -5 12 -20 -3 -33 -25 -21 -17
9 -21 7 -26 -10 -4 -17 -8 -19 -19 -10 -11 9 -14 8 -14 -6 0 -12 -6 -16 -20
-12 -11 3 -18 0 -17 -7 1 -6 -6 -10 -15 -10 -10 1 -18 -2 -18 -7 0 -5 -7 -9
-16 -9 -9 0 -12 -5 -8 -12 4 -7 3 -8 -4 -4 -6 4 -25 0 -42 -9 -34 -18 -41 -31
-7 -15 21 11 22 11 2 -5 -11 -9 -31 -15 -45 -13 -16 2 -24 -2 -22 -10 1 -6 -2
-12 -8 -12 -5 0 -10 -8 -11 -17 0 -17 -1 -17 -7 -1 -7 17 -32 11 -35 -8 -1 -5
-7 -8 -13 -6 -6 1 -18 -6 -25 -15 -13 -17 -13 -17 6 -3 15 11 17 11 8 0 -7 -7
-22 -15 -34 -17 -11 -2 -30 -13 -41 -26 -11 -12 -17 -17 -14 -10 4 6 2 14 -3
17 -5 4 -8 -5 -6 -19 2 -20 -1 -23 -11 -15 -9 8 -15 7 -21 -2 -4 -7 -15 -13
-23 -13 -8 0 -14 -6 -12 -13 1 -8 -2 -10 -8 -7 -6 4 -21 -1 -33 -12 -21 -18
-21 -18 -7 2 14 18 13 19 -1 8 -9 -7 -19 -9 -24 -5 -4 4 -3 -2 3 -14 10 -19 9
-21 -14 -16 -14 2 -24 1 -23 -4 4 -21 -2 -26 -18 -13 -10 7 -15 10 -11 5 4 -5
1 -15 -7 -22 -17 -17 -29 -18 -19 -2 4 7 3 8 -4 4 -6 -4 -8 -14 -5 -24 6 -15
5 -16 -12 -2 -10 8 -16 11 -13 5 3 -5 0 -16 -8 -23 -11 -10 -14 -10 -14 0 0 6
-6 3 -14 -8 -8 -10 -23 -19 -33 -19 -10 0 -18 -5 -18 -12 0 -6 -4 -15 -9 -20
-5 -5 -6 -3 -2 5 4 7 1 12 -9 12 -10 0 -13 -5 -9 -12 5 -8 2 -9 -10 -5 -10 4
-15 3 -11 -3 3 -6 1 -10 -5 -10 -6 0 -9 -4 -5 -9 3 -5 0 -13 -6 -17 -8 -4 -9
-3 -5 4 13 22 -21 12 -38 -10 -9 -13 -15 -18 -12 -13 3 6 0 17 -5 25 -9 13
-10 13 -8 0 3 -27 -1 -44 -8 -37 -3 4 -12 -1 -19 -12 -7 -10 -24 -18 -36 -17
-28 3 -50 -12 -41 -28 3 -6 -4 -2 -18 9 -18 15 -20 16 -10 3 11 -15 11 -18 -2
-18 -8 0 -22 -10 -31 -22 -9 -13 -14 -17 -10 -10 4 10 -3 9 -27 -3 -39 -20
-52 -31 -26 -22 12 4 16 3 11 -4 -3 -6 -15 -9 -25 -6 -10 3 -17 0 -16 -7 1 -6
-7 -11 -18 -11 -11 -1 -19 -6 -18 -12 1 -6 -8 -10 -23 -8 -13 1 -23 0 -20 -2
3 -3 -1 -11 -7 -18 -9 -10 -15 -10 -26 -1 -12 9 -12 7 -1 -14 12 -23 12 -24
-3 -11 -15 12 -21 9 -19 -9 0 -3 -8 -7 -19 -7 -11 -1 -29 -12 -40 -25 -11 -13
-18 -18 -15 -11 4 6 1 15 -5 19 -7 4 -9 3 -6 -3 4 -6 -1 -19 -9 -29 -9 -10
-13 -12 -9 -4 6 13 5 13 -7 0 -7 -9 -23 -15 -36 -14 -16 1 -20 -2 -12 -11 8
-9 4 -12 -15 -10 -14 2 -27 -1 -31 -6 -3 -5 -10 -6 -16 -3 -7 4 -8 2 -4 -5 6
-9 12 -9 24 1 15 12 16 11 3 -4 -7 -10 -24 -18 -37 -18 -13 0 -23 -5 -22 -11
2 -6 -6 -12 -18 -13 -19 -2 -30 -11 -87 -64 -17 -16 -18 -16 -12 3 6 18 5 18
-7 4 -7 -9 -23 -19 -36 -23 -12 -4 -22 -15 -23 -24 0 -10 -3 -12 -6 -5 -7 18
-43 -2 -43 -24 0 -12 -3 -13 -15 -3 -12 10 -16 9 -21 -4 -3 -9 -16 -16 -28
-16 -17 0 -19 -2 -6 -11 12 -8 9 -10 -13 -6 -23 4 -25 2 -15 -11 10 -13 10
-14 1 -8 -8 4 -13 2 -13 -6 0 -10 -2 -10 -9 1 -6 9 -11 10 -15 2 -4 -6 -4 -16
0 -22 5 -8 1 -8 -14 0 -25 13 -43 14 -22 1 12 -7 8 -11 -18 -16 -24 -5 -30 -9
-20 -15 9 -6 7 -9 -9 -9 -13 0 -23 -5 -23 -11 0 -7 -9 -9 -21 -6 -16 4 -18 3
-9 -8 9 -11 6 -13 -15 -11 -16 2 -31 -4 -39 -16 -8 -11 -22 -18 -32 -16 -11 2
-18 -2 -17 -9 2 -7 -2 -13 -7 -13 -6 0 -10 -8 -11 -17 0 -17 -1 -17 -7 -1 -7
17 -32 11 -35 -8 -1 -5 -6 -8 -11 -6 -15 5 -47 -31 -41 -46 5 -13 3 -13 -11
-1 -14 11 -18 11 -21 1 -3 -6 -9 -10 -14 -6 -8 5 -13 -10 -10 -29 1 -5 -3 -6
-9 -2 -6 3 -8 12 -4 18 3 7 -1 4 -10 -7 -9 -12 -22 -16 -33 -12 -16 5 -16 4 1
-9 23 -18 14 -20 -16 -4 -15 8 -19 8 -14 0 12 -19 -4 -33 -22 -19 -12 10 -14
10 -8 1 4 -7 2 -13 -3 -13 -6 0 -11 -8 -11 -17 0 -15 -2 -16 -10 -3 -9 14 -14
7 -11 -13 1 -4 -7 -3 -18 2 -15 8 -18 7 -17 -6 0 -10 -8 -17 -22 -18 -12 -1
-28 -10 -36 -20 -7 -10 -18 -15 -25 -11 -7 5 -10 2 -9 -6 2 -7 -6 -13 -17 -13
-11 -1 -19 -7 -17 -14 1 -7 -2 -10 -8 -6 -5 3 -10 0 -10 -7 0 -10 -2 -10 -9 1
-6 9 -11 10 -15 2 -4 -6 -4 -16 0 -22 4 -7 -1 -7 -16 1 -12 6 -24 9 -28 6 -3
-3 0 -6 7 -6 7 0 9 -5 6 -10 -4 -6 -10 -8 -15 -5 -4 3 -14 -3 -21 -12 -12 -14
-12 -16 1 -8 13 7 13 6 2 -7 -8 -10 -21 -14 -34 -10 -16 4 -19 2 -13 -9 5 -8
-2 -5 -16 6 -22 19 -23 19 -9 1 14 -18 13 -19 -4 -13 -16 6 -17 5 -6 -8 7 -9
9 -15 4 -14 -21 4 -35 -2 -28 -12 4 -7 -1 -7 -16 1 -12 7 -20 8 -16 2 3 -5 -2
-16 -11 -23 -12 -10 -14 -10 -9 -1 4 6 3 12 -3 12 -6 0 -15 -9 -21 -20 -6 -11
-18 -20 -26 -20 -8 0 -12 -5 -8 -11 4 -8 0 -8 -15 0 -18 10 -20 9 -14 -6 5
-13 3 -15 -11 -10 -13 5 -19 1 -23 -12 -3 -13 -10 -18 -21 -14 -12 5 -14 2 -8
-13 6 -15 5 -17 -6 -6 -10 10 -16 8 -31 -10 -10 -13 -16 -17 -12 -11 4 9 1 11
-9 7 -9 -3 -16 -13 -16 -22 0 -12 -3 -13 -12 -4 -15 15 -32 16 -23 2 3 -5 1
-10 -5 -10 -6 0 -9 -4 -6 -9 4 -5 -4 -7 -16 -4 -17 3 -19 2 -10 -5 10 -7 5
-11 -20 -17 -18 -4 -37 -7 -41 -6 -5 1 -5 -4 -1 -10 5 -8 2 -10 -9 -6 -16 6
-41 -15 -30 -26 3 -4 -1 -7 -10 -7 -9 0 -19 -5 -23 -12 -5 -7 -3 -8 6 -3 9 5
11 4 6 -3 -5 -9 -13 -9 -27 -2 -15 9 -21 7 -27 -7 -4 -10 -14 -18 -22 -18 -8
0 -14 -6 -12 -14 2 -11 0 -12 -11 -3 -19 16 -30 3 -14 -16 10 -13 9 -14 -12
-3 -15 8 -21 9 -17 2 11 -17 -24 -26 -35 -10 -8 11 -9 9 -7 -6 2 -12 -3 -20
-12 -20 -20 0 -60 -41 -52 -51 4 -5 -1 -2 -10 5 -13 10 -18 10 -18 2 0 -7 -5
-9 -12 -5 -7 5 -9 2 -5 -8 4 -12 1 -14 -15 -10 -18 4 -20 2 -14 -14 5 -15 4
-16 -5 -7 -9 9 -16 6 -33 -11 -11 -12 -16 -15 -11 -6 6 9 0 6 -11 -6 -12 -13
-25 -20 -28 -17 -3 4 -13 -2 -22 -13 -8 -10 -13 -14 -10 -7 4 6 2 14 -4 18 -5
3 -10 -1 -10 -9 0 -9 -7 -16 -15 -16 -14 0 -20 -12 -16 -33 1 -5 -3 -6 -9 -2
-6 4 -18 1 -27 -7 -14 -11 -16 -11 -9 2 4 8 -2 4 -14 -10 -12 -14 -19 -18 -15
-10 4 10 2 9 -8 -2 -11 -14 -17 -15 -28 -5 -7 7 -11 8 -7 3 9 -11 -14 -36 -26
-28 -5 3 -7 -2 -3 -11 8 -20 -4 -22 -22 -4 -8 6 -11 7 -8 2 3 -6 -3 -17 -15
-24 -16 -10 -19 -10 -13 1 3 7 0 5 -8 -4 -8 -10 -18 -14 -22 -10 -5 4 -6 0 -2
-9 4 -12 0 -16 -16 -15 -13 1 -21 -4 -19 -12 1 -8 -2 -11 -8 -7 -5 3 -10 1
-10 -6 0 -8 -5 -8 -18 2 -9 7 -14 10 -10 5 9 -11 -28 -50 -40 -42 -5 3 -16 -2
-23 -11 -12 -14 -12 -16 0 -8 10 5 12 4 7 -4 -4 -6 -16 -9 -27 -6 -11 4 -19 2
-19 -5 0 -7 -7 -10 -15 -6 -9 3 -15 0 -15 -9 0 -7 -4 -17 -10 -20 -6 -4 -7 1
-3 11 4 12 3 15 -5 10 -7 -4 -12 -15 -12 -24 0 -15 -2 -15 -10 -2 -8 13 -10
12 -10 -4 0 -16 -2 -17 -17 -5 -11 10 -14 10 -9 2 12 -21 -3 -36 -22 -21 -12
10 -14 10 -8 1 4 -7 2 -13 -3 -13 -6 0 -11 -8 -11 -17 0 -15 -2 -16 -10 -3 -9
14 -14 7 -11 -13 1 -4 -7 -3 -18 2 -15 8 -18 7 -17 -7 1 -10 -6 -17 -19 -17
-11 0 -19 -6 -17 -13 2 -10 -2 -10 -19 -1 -12 6 -19 7 -16 2 7 -12 -16 -30
-35 -27 -11 1 -15 -3 -11 -14 5 -11 3 -13 -7 -7 -10 6 -12 4 -7 -9 6 -14 3
-15 -13 -6 -16 9 -20 8 -20 -7 0 -15 -2 -16 -10 -3 -8 13 -10 13 -10 -1 0 -23
-24 -41 -38 -29 -7 6 -10 7 -8 4 8 -10 -18 -32 -31 -27 -7 3 -13 0 -13 -7 0
-7 -7 -10 -15 -6 -9 3 -15 0 -15 -9 0 -7 -9 -17 -20 -20 -11 -4 -18 -12 -14
-18 3 -7 -2 -3 -10 7 -15 19 -22 12 -17 -16 0 -5 -2 -7 -7 -6 -4 1 -18 -4 -31
-11 -18 -10 -22 -10 -16 0 5 8 4 10 -3 5 -7 -4 -12 -15 -12 -24 0 -15 -2 -15
-10 -2 -8 12 -10 10 -10 -10 0 -18 -3 -21 -9 -11 -7 11 -10 11 -17 0 -5 -8
-16 -14 -24 -14 -8 0 -14 -5 -13 -11 1 -7 -6 -10 -17 -7 -12 3 -20 0 -20 -7 0
-7 -7 -10 -16 -6 -10 4 -13 2 -8 -6 5 -8 2 -9 -11 -4 -16 6 -16 4 -4 -11 8 -9
9 -14 2 -10 -6 4 -13 2 -15 -5 -2 -6 -12 -12 -21 -14 -9 -1 -15 1 -12 5 2 4
-2 8 -9 8 -8 0 -12 -6 -9 -14 5 -11 -8 -18 -29 -14 -4 0 -12 -9 -18 -20 -7
-12 -18 -18 -26 -15 -8 3 -14 1 -14 -5 0 -6 -5 -7 -10 -4 -6 4 -9 1 -8 -7 2
-7 -3 -12 -10 -10 -13 2 -72 -25 -72 -34 0 -2 9 0 19 6 11 5 23 10 28 10 4 -1
-9 -10 -30 -21 -21 -11 -41 -18 -45 -15 -5 3 -14 0 -22 -6 -12 -8 -12 -9 3 -4
11 3 16 2 12 -4 -3 -6 -15 -10 -27 -10 -13 0 -18 -5 -15 -13 3 -8 -1 -14 -8
-14 -7 0 -11 7 -8 16 2 9 -2 6 -9 -7 -8 -12 -18 -19 -23 -15 -4 4 -6 1 -2 -9
4 -11 1 -15 -11 -14 -9 2 -28 -9 -41 -23 -13 -14 -20 -20 -17 -13 4 6 2 12 -5
12 -7 0 -9 -8 -6 -21 5 -17 3 -19 -6 -10 -9 9 -16 6 -30 -11 -10 -13 -16 -18
-13 -11 4 6 1 15 -5 19 -8 4 -9 3 -5 -4 4 -7 0 -12 -11 -13 -10 0 -13 -3 -5
-6 20 -8 13 -26 -9 -20 -16 4 -18 3 -9 -8 8 -9 6 -14 -5 -19 -11 -4 -14 -2 -9
7 5 9 4 9 -5 1 -7 -6 -13 -20 -14 -31 0 -11 -7 -20 -14 -20 -10 0 -10 4 0 16
11 14 10 14 -6 2 -10 -8 -15 -21 -12 -29 3 -10 0 -12 -10 -8 -8 3 -15 1 -15
-5 0 -6 -7 -17 -15 -26 -8 -8 -13 -18 -10 -22 2 -5 -7 -7 -20 -5 -22 2 -23 0
-14 -18 10 -18 9 -19 -13 -7 -21 11 -22 11 -9 -4 11 -14 11 -18 -3 -23 -9 -3
-13 -10 -10 -15 3 -5 -3 -6 -12 -2 -13 5 -16 3 -11 -10 4 -10 2 -16 -6 -14 -7
1 -10 -5 -9 -13 2 -8 0 -12 -4 -7 -4 4 -20 -5 -36 -20 -23 -22 -25 -29 -15
-42 9 -12 9 -13 0 -7 -8 4 -13 2 -13 -4 0 -6 -4 -9 -8 -6 -5 3 -9 0 -10 -7 -2
-27 -8 -43 -25 -67 -10 -14 -20 -24 -22 -22 -14 7 -18 0 -5 -8 13 -9 12 -13
-9 -30 -13 -12 -18 -20 -10 -20 7 0 3 -7 -9 -16 -17 -12 -20 -19 -12 -29 8
-10 8 -15 -1 -21 -8 -5 -9 -3 -4 7 8 12 6 12 -8 0 -14 -11 -15 -16 -5 -29 7
-9 8 -13 3 -10 -6 4 -17 3 -25 -3 -12 -7 -12 -9 -1 -9 11 0 11 -3 1 -15 -6 -8
-9 -19 -5 -24 4 -7 -1 -8 -12 -4 -16 6 -17 5 -3 -12 9 -11 10 -16 3 -11 -9 5
-13 0 -13 -14 0 -12 -4 -19 -8 -16 -5 3 -9 -1 -9 -9 0 -8 4 -12 9 -9 16 10 8
-5 -14 -27 -13 -12 -16 -18 -8 -14 13 8 13 7 1 -8 -10 -12 -10 -17 -2 -17 8 0
7 -5 -3 -15 -8 -8 -13 -24 -11 -35 2 -11 0 -18 -6 -15 -5 4 -9 -5 -9 -19 0
-14 -6 -26 -12 -26 -9 0 -8 -4 2 -10 13 -9 13 -10 0 -10 -13 0 -13 -1 0 -10
10 -6 11 -10 3 -10 -8 0 -13 -14 -13 -35 0 -19 -4 -35 -9 -35 -6 0 -8 -9 -6
-20 2 -11 1 -20 -3 -20 -4 0 -6 -126 -4 -280 2 -212 6 -280 15 -280 8 0 7 -4
-3 -10 -10 -6 -11 -10 -2 -10 7 0 12 -13 12 -30 0 -17 5 -30 13 -30 8 0 7 -4
-3 -10 -10 -6 -11 -10 -2 -10 7 0 12 -15 12 -40 0 -25 5 -40 13 -40 8 0 7 -4
-3 -10 -10 -6 -11 -10 -2 -10 6 0 12 -9 12 -20 0 -11 6 -20 13 -20 8 0 7 -4
-3 -10 -10 -6 -11 -10 -2 -10 6 0 12 -9 12 -21 0 -11 4 -17 10 -14 5 3 7 0 4
-8 -3 -8 2 -21 10 -29 11 -11 12 -18 4 -26 -8 -8 -7 -13 5 -17 9 -4 13 -13 10
-22 -4 -11 -3 -14 6 -9 8 6 11 2 9 -10 -2 -12 2 -18 11 -16 11 2 12 0 3 -11
-10 -11 -9 -17 3 -27 9 -7 14 -19 11 -26 -3 -7 7 -17 22 -23 19 -7 22 -10 8
-10 -16 -1 -16 -3 5 -22 13 -11 18 -18 11 -14 -6 3 -12 1 -12 -4 0 -6 6 -11
14 -11 8 0 18 -9 21 -20 3 -11 11 -20 17 -20 6 0 5 -7 -3 -17 -7 -10 -10 -15
-5 -11 12 10 36 -17 36 -39 0 -15 2 -16 10 -3 8 13 10 12 10 -4 0 -10 8 -26
18 -35 10 -9 21 -24 25 -34 4 -10 11 -16 16 -12 5 3 13 0 17 -6 4 -8 3 -9 -4
-5 -17 10 -15 -3 3 -21 8 -8 12 -20 8 -26 -4 -7 1 -6 10 2 15 12 17 12 11 -4
-6 -14 -4 -16 6 -10 10 6 12 3 7 -14 -5 -19 -3 -20 9 -10 8 7 14 8 12 3 -2 -5
2 -10 7 -12 6 -2 16 -14 23 -28 7 -13 17 -22 22 -19 6 4 10 -2 10 -11 0 -10 3
-14 7 -11 8 8 33 -12 33 -26 0 -6 -6 -3 -13 8 -11 14 -16 15 -22 5 -5 -8 -4
-11 2 -7 6 4 13 0 17 -8 3 -8 12 -12 21 -9 8 3 15 1 15 -6 0 -6 5 -8 10 -5 6
4 10 3 9 -2 -3 -19 2 -33 12 -33 5 0 7 4 4 10 -3 6 1 7 9 4 9 -3 13 -10 10
-15 -3 -5 3 -9 13 -9 15 0 16 -2 3 -10 -12 -8 -11 -10 8 -10 14 0 22 -6 23
-17 0 -10 3 -13 5 -6 3 7 12 9 20 6 11 -4 12 -9 4 -18 -9 -11 -6 -13 14 -11
18 2 27 -3 32 -16 4 -13 12 -18 25 -15 10 3 17 1 14 -3 -3 -5 4 -14 15 -20 11
-6 20 -8 20 -5 0 3 11 -5 25 -19 14 -14 37 -29 50 -32 14 -3 22 -10 19 -15 -3
-5 2 -9 11 -9 10 0 13 -5 9 -12 -5 -9 -2 -9 9 1 13 10 17 10 17 1 0 -7 7 -10
15 -6 8 3 14 2 14 -2 -4 -26 2 -32 22 -22 19 10 20 10 10 -8 -9 -17 -8 -19 8
-15 10 2 25 -3 34 -11 8 -9 21 -16 27 -16 6 0 8 -4 5 -10 -3 -5 -1 -10 4 -10
6 0 11 5 11 10 0 6 5 10 11 10 6 0 8 -7 5 -16 -3 -8 -2 -12 4 -9 6 3 13 -1 16
-10 5 -13 9 -13 23 -3 9 7 13 9 9 4 -3 -4 1 -16 10 -27 12 -14 18 -15 24 -6 6
8 10 6 14 -9 4 -15 11 -20 25 -17 13 4 19 0 19 -11 0 -10 5 -14 10 -11 6 3 10
1 10 -6 0 -6 8 -9 20 -6 11 3 18 2 15 -3 -3 -4 3 -14 12 -21 11 -10 14 -10 9
-2 -5 9 -2 11 7 7 8 -3 17 -14 20 -23 3 -13 12 -18 31 -16 14 2 24 -1 20 -6
-5 -9 36 -30 47 -23 4 2 13 -4 20 -14 13 -16 13 -16 -6 -2 -19 14 -19 14 -6
-2 7 -10 22 -18 32 -18 9 0 24 -6 31 -13 7 -8 25 -20 38 -27 24 -13 24 -12 10
6 -14 19 -14 19 7 0 13 -10 20 -23 17 -28 -4 -6 2 -7 16 -3 17 5 21 4 15 -6
-6 -9 -4 -11 8 -6 11 4 14 2 10 -9 -4 -10 2 -14 20 -14 14 0 29 -5 33 -11 4
-8 9 -7 16 2 7 10 8 8 3 -7 -4 -15 0 -24 10 -28 9 -3 13 -2 10 4 -3 6 1 7 9 4
9 -3 13 -10 10 -15 -4 -8 1 -10 21 -9 3 1 13 -7 22 -15 13 -13 18 -14 24 -3 7
10 9 10 10 -2 1 -8 1 -19 0 -23 -1 -5 3 -6 9 -2 5 3 10 1 10 -4 0 -6 9 -11 20
-11 11 0 20 -4 20 -9 0 -5 7 -12 16 -15 15 -6 15 -4 3 11 -13 16 -12 17 4 4 9
-7 17 -21 17 -30 0 -14 2 -14 10 -1 8 12 10 12 10 -5 0 -17 2 -17 10 -5 8 12
10 10 10 -10 0 -17 3 -21 9 -12 6 11 11 10 25 -3 12 -12 16 -13 16 -3 0 10 3
10 9 -2 6 -8 8 -17 6 -20 -2 -4 2 -7 10 -8 8 -1 22 -3 30 -4 8 -1 16 -7 19
-14 3 -8 12 -11 21 -8 11 4 14 2 10 -9 -4 -8 1 -17 9 -20 9 -4 16 -2 16 3 0 6
5 10 11 10 5 0 7 -4 4 -10 -3 -5 -1 -10 5 -10 6 0 9 -4 6 -9 -4 -5 2 -7 13 -4
12 3 24 -3 34 -17 10 -14 22 -20 31 -17 15 6 21 -4 17 -26 -1 -5 8 -5 20 -2
18 6 20 4 15 -17 -3 -12 -3 -17 0 -10 3 6 10 12 15 12 6 0 7 -5 3 -12 -4 -6
-3 -8 4 -5 15 10 43 -3 35 -16 -4 -6 0 -8 10 -4 10 3 17 2 17 -4 0 -6 5 -7 10
-4 6 3 10 1 10 -4 0 -6 8 -11 18 -11 10 0 27 -7 38 -16 10 -8 12 -13 4 -9 -8
3 -6 0 5 -7 10 -7 32 -25 47 -40 15 -14 28 -23 28 -19 0 4 7 8 15 8 8 0 15 -5
15 -10 0 -5 7 -7 14 -4 10 4 13 1 9 -9 -4 -10 2 -14 22 -14 15 0 24 -4 20 -10
-4 -6 -3 -10 2 -9 22 4 35 -2 30 -14 -3 -8 1 -14 8 -14 8 0 11 7 8 16 -4 10 0
9 10 -4 8 -11 14 -22 12 -26 -2 -3 2 -6 10 -6 8 0 12 5 9 11 -3 6 0 4 8 -5 7
-9 25 -19 41 -23 15 -3 27 -13 27 -21 0 -8 9 -15 20 -15 11 0 20 -5 20 -11 0
-6 9 -9 20 -6 10 3 19 2 18 -2 0 -3 0 -13 1 -21 1 -13 2 -13 11 0 8 13 10 12
10 -4 0 -16 2 -17 17 -5 11 10 14 10 9 2 -4 -7 -2 -13 3 -13 6 0 11 -6 11 -14
0 -9 7 -12 20 -9 12 3 20 0 20 -7 0 -7 7 -10 15 -6 9 3 19 -3 25 -15 6 -11 15
-17 21 -14 5 4 9 1 9 -5 0 -7 7 -10 14 -7 10 4 13 1 10 -7 -3 -7 2 -16 10 -19
9 -4 16 -1 16 5 0 7 4 7 13 -1 8 -6 18 -7 23 -3 4 4 2 -1 -5 -11 -12 -15 -12
-17 4 -10 14 5 17 3 12 -10 -3 -9 -2 -17 3 -17 6 0 10 8 11 18 0 11 5 7 14
-13 8 -16 14 -24 15 -16 0 11 4 10 16 -5 8 -10 13 -13 9 -6 -3 6 -2 12 4 12 5
0 13 -9 16 -21 6 -17 9 -18 22 -7 14 11 15 10 9 -10 -6 -18 -4 -21 10 -15 12
4 15 3 10 -5 -11 -19 5 -14 21 6 8 9 12 12 9 5 -4 -6 -2 -14 4 -18 6 -4 8 -10
5 -15 -3 -4 4 -6 15 -3 11 3 20 0 20 -6 0 -6 10 -11 23 -11 18 0 19 -2 7 -10
-12 -8 -10 -10 8 -10 16 0 21 -4 16 -12 -4 -7 -4 -10 1 -6 4 4 21 -2 36 -13
16 -11 29 -16 29 -10 0 6 5 11 10 11 7 0 7 -7 0 -20 -6 -11 -7 -20 -3 -19 25
4 43 -2 37 -13 -4 -7 -3 -8 5 -4 17 11 51 -3 51 -21 0 -13 3 -13 16 -3 12 11
15 11 12 -1 -2 -8 3 -13 11 -11 8 2 11 -3 8 -11 -4 -11 0 -13 14 -10 11 3 19
0 19 -7 0 -8 8 -10 21 -7 17 4 18 3 8 -9 -10 -12 -9 -13 4 -8 9 3 24 0 34 -6
16 -10 16 -11 1 -6 -10 3 -18 1 -18 -4 0 -5 12 -10 28 -12 15 -2 26 -8 25 -15
-2 -7 4 -10 12 -7 9 4 22 1 30 -6 12 -10 15 -10 15 0 0 8 3 10 6 7 4 -4 2 -12
-4 -20 -8 -10 -6 -13 10 -14 12 -1 24 -7 28 -13 4 -7 10 -11 14 -11 19 3 27 0
22 -8 -3 -5 1 -11 9 -15 10 -3 15 1 15 12 0 14 2 15 9 2 6 -8 7 -18 4 -24 -4
-5 1 -7 10 -3 15 6 21 -3 19 -24 -1 -4 8 -4 20 -1 16 4 19 2 13 -8 -5 -8 -4
-11 3 -7 15 10 43 -3 35 -16 -3 -5 -1 -7 5 -3 6 3 13 2 17 -4 4 -6 11 -7 17
-4 6 4 8 -2 4 -17 -3 -13 -3 -18 0 -11 8 17 17 15 44 -8 24 -21 46 -27 35 -10
-10 15 -2 12 35 -15 19 -14 29 -25 24 -25 -6 0 -15 5 -22 12 -9 9 -12 9 -12 0
0 -7 13 -15 29 -18 16 -3 34 -16 40 -28 10 -18 11 -18 6 -1 -5 15 -3 17 6 8 6
-6 19 -9 28 -6 9 4 13 3 9 -2 -12 -13 11 -45 27 -39 8 4 15 1 15 -6 0 -8 8
-10 21 -7 17 5 18 3 7 -11 -7 -9 -9 -14 -4 -10 5 4 18 3 29 -3 14 -8 18 -8 13
0 -4 6 -2 11 3 11 6 0 11 -5 11 -11 0 -16 26 -39 45 -39 9 0 13 -5 10 -10 -4
-6 -3 -10 2 -9 26 4 44 -2 37 -13 -5 -9 -2 -8 9 1 15 12 17 12 11 -4 -5 -13
-4 -16 4 -11 7 4 12 3 12 -2 0 -6 12 -13 26 -16 22 -6 24 -9 12 -23 -12 -15
-11 -15 9 -5 26 14 36 15 29 3 -3 -5 1 -11 8 -14 8 -3 17 -1 20 6 2 7 5 2 5
-10 1 -13 6 -23 12 -23 5 0 8 4 5 8 -3 5 1 9 8 9 9 0 13 -9 11 -26 -2 -14 -2
-20 1 -13 3 6 12 12 20 12 9 0 12 -4 9 -10 -6 -9 8 -14 28 -11 4 0 7 -4 7 -10
0 -5 5 -7 10 -4 6 3 10 0 10 -8 0 -7 17 -21 37 -31 35 -17 36 -17 22 1 -12 16
-12 16 8 -1 13 -10 20 -23 16 -29 -4 -6 0 -8 11 -4 10 4 19 1 22 -7 3 -8 15
-12 27 -10 12 2 16 2 10 -2 -7 -3 -13 -10 -13 -15 0 -6 10 -5 23 2 12 6 19 8
15 4 -12 -12 12 -49 24 -37 14 14 38 4 38 -17 0 -14 2 -14 10 -1 8 13 10 12
10 -4 0 -11 3 -17 6 -13 4 3 13 -1 21 -9 9 -8 28 -17 43 -21 15 -3 42 -18 60
-35 18 -16 41 -30 51 -31 11 -1 19 -5 19 -9 0 -4 3 -7 8 -7 19 3 33 -2 27 -11
-3 -6 4 -10 17 -10 14 0 33 -7 44 -16 10 -8 12 -13 4 -9 -8 4 -6 -1 5 -9 11
-9 25 -14 33 -11 8 3 10 0 6 -7 -5 -7 0 -9 14 -6 15 4 19 2 15 -8 -4 -10 0
-12 13 -7 12 5 15 3 9 -6 -6 -10 -2 -11 15 -6 15 5 20 4 16 -4 -7 -11 5 -15
31 -12 7 1 10 -5 7 -13 -4 -11 0 -13 15 -9 13 3 21 1 21 -6 0 -7 4 -10 9 -7 4
3 17 -2 27 -10 10 -9 13 -12 5 -8 -10 5 -12 3 -7 -5 6 -9 11 -9 22 0 11 9 15
8 19 -3 4 -9 18 -14 35 -13 16 1 27 -1 25 -5 -2 -3 0 -12 5 -20 8 -13 12 -12
25 5 14 17 16 17 11 3 -3 -10 -1 -18 5 -18 6 0 7 -4 4 -10 -3 -6 1 -7 10 -4 8
4 27 -2 41 -11 15 -9 23 -12 20 -6 -5 7 -1 9 8 5 9 -3 16 -14 16 -23 0 -14 2
-14 10 -1 9 13 10 13 10 0 0 -13 1 -13 10 0 8 13 10 12 10 -2 0 -16 23 -24 53
-19 4 0 7 -4 7 -10 0 -6 7 -9 15 -5 8 3 21 -1 29 -9 7 -8 16 -11 20 -8 3 4 6
-2 7 -13 0 -18 1 -18 8 1 7 18 9 18 36 -9 15 -15 25 -21 22 -13 -4 11 -1 14 9
10 7 -3 14 -9 14 -13 0 -4 7 -11 16 -14 9 -3 12 -2 9 4 -4 6 8 2 26 -9 18 -11
37 -17 42 -14 5 3 12 0 16 -6 4 -7 23 -13 42 -14 19 -1 40 -7 47 -14 7 -6 21
-10 32 -8 11 2 22 0 25 -6 4 -5 16 -9 29 -9 12 0 27 -5 34 -12 7 -7 12 -8 12
-2 0 6 7 11 15 11 11 0 12 -4 4 -13 -7 -9 -6 -12 8 -9 10 1 25 -4 35 -12 12
-11 18 -11 24 -2 5 8 3 10 -6 4 -9 -5 -11 -4 -6 4 4 6 12 9 17 5 5 -3 6 -10 3
-16 -4 -6 1 -8 12 -6 11 3 32 -2 48 -10 19 -9 26 -10 21 -2 -4 7 4 4 19 -5 18
-12 26 -13 26 -5 0 8 8 7 26 -5 15 -9 23 -12 20 -6 -5 7 -1 9 8 5 9 -3 16 -11
16 -17 0 -8 3 -8 11 0 12 12 61 5 53 -8 -3 -5 2 -6 11 -2 10 3 21 0 26 -8 6
-11 9 -11 9 -1 0 9 5 10 18 3 13 -7 23 -6 32 2 10 9 11 9 6 0 -4 -7 -4 -14 1
-14 4 -1 21 -3 37 -5 15 -1 31 -5 34 -8 3 -3 11 -1 19 5 9 9 13 8 13 0 0 -6 7
-11 16 -11 9 0 12 5 8 13 -5 8 -2 8 9 -2 19 -15 23 -26 5 -15 -7 4 -8 3 -4 -4
5 -8 13 -9 25 -2 12 6 22 5 29 -2 9 -9 12 -9 12 -1 0 12 18 12 37 0 7 -5 34
-11 60 -14 27 -3 50 -7 52 -9 2 -2 10 1 18 7 10 9 13 8 13 0 0 -7 4 -9 10 -6
17 11 51 14 45 5 -3 -5 -1 -11 5 -15 5 -3 10 -1 10 6 0 8 4 8 16 -2 18 -15 54
-20 54 -7 0 5 9 4 20 -2 11 -6 20 -7 20 -2 0 10 30 9 47 -1 6 -4 15 -3 18 3 5
8 11 7 21 -1 11 -9 14 -9 14 1 0 10 3 10 14 1 10 -8 16 -9 21 -1 3 6 12 7 18
3 17 -10 47 -11 47 -1 0 5 9 4 20 -2 11 -6 20 -7 20 -2 0 10 36 9 46 -1 4 -4
13 -2 20 4 8 7 14 7 19 -1 5 -8 11 -8 21 1 11 9 14 9 14 -1 0 -9 3 -10 13 -1
8 6 17 8 21 4 10 -10 46 -11 46 -1 0 5 9 4 20 -2 11 -6 20 -7 20 -2 0 10 30 9
47 -1 6 -4 15 -3 18 3 5 8 11 7 21 -1 11 -9 14 -9 14 1 0 10 3 10 14 1 10 -8
16 -9 21 -1 3 6 12 7 18 3 17 -10 47 -11 47 -1 0 5 9 4 20 -2 14 -8 20 -8 20
0 0 8 6 8 20 0 14 -8 20 -8 20 0 0 7 6 8 19 0 14 -7 22 -7 27 2 5 7 3 8 -6 3
-8 -5 -11 -4 -6 3 4 6 14 8 23 5 12 -5 14 -3 8 8 -7 11 -6 12 6 2 9 -7 20 -8
28 -4 8 5 27 5 42 1 16 -5 31 -5 34 0 3 5 14 7 25 5 13 -3 18 0 14 7 -5 7 0 9
14 6 12 -3 23 -1 25 6 3 8 8 7 19 -2 12 -9 18 -10 23 -2 5 8 11 8 21 -1 11 -9
14 -9 14 1 0 7 6 10 14 7 8 -3 17 0 20 8 3 10 14 11 40 5 21 -4 39 -4 42 1 3
5 10 6 16 3 6 -4 14 0 19 7 7 11 9 11 9 1 0 -10 4 -10 16 2 11 11 21 13 33 7
16 -9 44 -1 42 13 -1 7 7 9 17 3 4 -2 0 -2 -8 0 -12 3 -12 2 -3 -8 10 -10 15
-9 28 1 8 7 24 10 35 7 11 -3 18 -1 14 4 -3 5 6 9 20 9 14 0 26 5 26 11 0 8 5
7 15 -1 13 -11 18 -10 31 6 9 10 12 12 8 4 -7 -13 -5 -13 9 -2 9 8 21 11 26 8
5 -4 13 -1 17 5 4 8 9 7 15 -2 7 -11 9 -10 9 3 0 11 5 15 15 12 9 -4 15 -1 15
7 0 10 3 10 11 2 13 -13 42 -6 33 8 -3 5 0 9 5 9 6 0 11 -6 11 -12 0 -9 3 -9
9 1 5 8 18 12 30 8 12 -3 19 -1 15 4 -3 5 7 9 21 9 14 0 24 4 20 9 -3 6 7 6
26 1 26 -8 29 -7 19 5 -10 11 -7 13 14 9 17 -3 28 1 32 9 3 8 17 13 34 12 16
-1 31 4 34 12 3 7 11 13 18 13 9 0 9 -3 -2 -11 -11 -8 -9 -9 10 -3 14 3 29 13
33 21 8 12 11 12 26 -1 15 -14 18 -14 18 -1 0 8 -5 11 -10 8 -6 -3 -7 -1 -3 5
4 6 14 8 23 5 11 -4 14 -2 9 5 -4 7 1 10 14 7 11 -2 20 1 20 7 0 6 3 8 7 5 3
-4 13 -1 21 6 13 10 14 9 7 -3 -7 -11 -2 -10 19 3 15 10 35 16 43 13 13 -5 14
-4 4 8 -10 12 -8 14 13 12 15 -2 26 1 26 7 0 6 3 7 7 4 3 -4 12 -2 19 3 6 6
18 9 25 8 8 -2 13 4 11 12 -2 8 0 12 4 8 4 -4 14 -2 22 5 13 10 15 9 8 -3 -4
-8 0 -6 8 4 9 11 16 16 16 12 0 -5 8 -2 17 5 10 8 14 9 10 2 -4 -6 -3 -14 3
-18 5 -3 10 1 10 9 0 9 5 16 11 16 5 0 7 6 3 13 -5 8 -2 8 9 -2 12 -9 17 -10
17 -2 0 7 5 9 10 6 6 -4 9 -1 8 6 -2 6 3 14 11 17 9 3 11 0 6 -7 -5 -9 -1 -9
14 1 12 7 21 20 21 28 0 12 2 12 9 1 6 -10 10 -10 16 -1 6 9 10 9 16 -1 6 -10
9 -11 9 -1 0 6 5 12 11 12 7 0 18 8 26 18 8 9 12 11 8 5 -4 -9 -1 -11 9 -7 9
3 16 13 16 21 0 12 3 13 14 4 16 -14 32 2 20 20 -4 8 -1 8 13 1 15 -8 22 -7
31 9 10 16 16 17 32 9 16 -9 18 -8 14 5 -4 10 0 15 14 15 12 0 24 5 28 12 5 7
3 8 -6 3 -9 -5 -11 -4 -6 3 5 9 13 9 27 1 18 -9 19 -8 10 9 -9 17 -7 19 15 14
17 -3 24 0 22 8 -2 7 3 15 11 18 10 3 11 0 5 -9 -7 -12 -5 -12 9 0 9 7 14 17
11 22 -3 5 2 6 11 3 9 -4 23 3 36 17 11 13 18 19 15 12 -4 -6 -2 -15 4 -18 6
-4 10 -3 9 2 -3 20 2 33 14 31 6 -2 11 3 9 10 -1 6 2 12 8 12 5 0 10 -5 10
-11 0 -5 5 -7 10 -4 6 4 7 11 4 17 -4 6 -2 8 4 4 6 -3 14 -1 17 5 4 5 13 8 21
5 7 -3 16 -1 19 5 4 5 11 6 17 3 7 -4 8 -2 4 5 -6 9 -12 9 -24 -1 -15 -12 -16
-11 -3 5 7 9 23 17 35 17 26 1 58 24 48 36 -4 4 2 2 12 -6 11 -8 17 -10 13 -4
-4 7 0 15 9 18 9 3 12 11 8 18 -5 8 0 7 11 -2 10 -8 16 -10 13 -5 -3 6 0 16 8
23 11 10 14 10 14 0 0 -8 5 -5 11 5 8 14 14 16 25 6 12 -10 13 -9 8 6 -6 14
-4 16 6 10 10 -6 12 -4 6 11 -5 15 -4 16 5 7 9 -9 16 -6 33 11 11 12 17 15 11
6 -5 -9 0 -6 11 6 17 17 24 20 34 11 9 -8 11 -9 7 -1 -4 7 1 18 10 25 10 8 14
9 10 2 -4 -6 -3 -14 3 -18 5 -3 10 1 10 9 0 9 5 16 11 16 5 0 7 6 3 13 -5 7
-2 7 10 -2 13 -11 16 -11 14 -1 -2 7 3 15 11 18 9 3 11 0 6 -8 -5 -9 -4 -11 4
-6 9 6 9 11 1 21 -9 11 -6 13 15 10 16 -1 29 3 32 11 3 8 15 14 27 14 17 0 18
2 6 10 -12 8 -11 10 8 10 12 0 22 5 22 12 0 6 3 8 7 5 3 -4 12 1 20 11 8 9 12
12 9 5 -4 -7 1 -9 14 -6 11 3 20 10 20 15 0 5 5 6 10 3 6 -4 9 -1 8 6 -2 6 3
14 11 17 9 3 11 0 6 -8 -5 -9 -4 -11 4 -6 6 4 9 11 7 15 -3 4 4 13 16 20 16
10 19 10 13 -1 -3 -7 0 -5 8 5 8 9 19 17 25 17 5 0 13 7 16 15 3 9 14 15 23
13 10 -2 17 2 15 10 -1 7 9 12 29 12 17 0 28 4 24 10 -3 6 3 10 14 10 13 0 21
7 21 18 0 14 2 15 10 2 8 -13 10 -12 10 4 0 15 3 16 14 7 11 -9 15 -8 20 4 4
11 2 14 -6 9 -6 -4 -8 -3 -4 4 3 6 15 9 26 7 14 -3 17 1 13 12 -4 10 -2 14 5
9 6 -3 14 -2 17 4 5 8 12 7 23 -2 10 -7 14 -9 10 -4 -10 12 15 34 31 28 10 -4
12 -1 6 8 -6 10 -4 12 9 7 10 -4 15 -3 11 3 -3 6 -1 10 5 10 6 0 8 5 5 10 -4
6 -3 10 2 8 4 -1 23 2 41 6 27 6 31 10 21 22 -6 8 -9 17 -5 21 3 3 6 2 6 -4 0
-6 7 -14 16 -17 8 -3 12 -2 9 4 -3 6 -1 10 5 10 6 0 8 5 4 13 -5 8 -2 8 9 -2
12 -9 17 -10 17 -2 0 7 10 11 23 9 13 -2 21 2 19 10 -1 6 3 12 9 12 5 0 7 6 3
13 -6 9 -4 9 8 -1 13 -10 18 -10 24 -1 4 8 3 9 -4 5 -7 -4 -12 -2 -12 3 0 6 7
11 16 11 9 0 23 8 31 18 8 9 12 11 8 5 -3 -7 -1 -13 4 -13 6 0 11 5 11 11 0 6
6 9 14 6 16 -6 29 19 20 36 -5 8 -3 8 6 0 11 -10 16 -9 27 5 10 12 12 12 8 2
-4 -8 1 -6 9 4 9 11 16 16 16 11 0 -5 7 0 16 11 8 10 12 13 9 6 -6 -11 -3 -11
13 -1 12 7 18 18 15 24 -4 5 4 1 18 -10 18 -15 20 -16 10 -2 -10 12 -10 17 -2
17 7 0 9 5 5 11 -4 7 1 7 16 -1 15 -8 20 -8 16 -1 -4 6 -4 16 0 22 4 8 9 7 15
-2 7 -11 9 -11 9 -1 0 7 5 10 10 7 6 -4 9 -1 8 7 -2 8 6 13 19 12 16 -1 20 3
16 15 -4 9 -3 13 2 9 4 -4 14 0 22 10 8 9 11 11 7 3 -4 -9 -2 -12 7 -9 8 3 13
11 11 17 -1 7 2 10 7 7 5 -4 15 2 21 11 9 13 10 14 7 2 -3 -9 1 -16 8 -16 7 0
12 7 11 15 -1 9 10 18 24 22 14 3 26 11 26 18 3 22 4 23 24 12 16 -8 20 -8 18
2 -2 7 5 13 15 13 10 0 24 7 30 16 7 9 19 14 27 11 8 -3 12 -1 8 3 -10 10 29
38 41 31 5 -3 14 1 21 9 7 8 16 13 20 10 5 -3 12 0 16 6 4 8 3 9 -4 5 -7 -4
-12 -2 -12 5 0 6 8 9 20 6 11 -3 18 0 17 7 -1 6 5 11 13 11 8 0 21 7 28 15 12
13 13 13 7 0 -4 -8 3 -4 15 10 12 14 19 20 16 13 -10 -20 46 13 67 39 10 13
16 17 12 11 -4 -9 -1 -11 9 -7 9 3 16 13 16 21 0 13 2 13 17 2 11 -10 14 -10
9 -1 -4 7 -2 12 4 12 6 0 8 5 4 13 -5 7 0 6 11 -3 10 -8 16 -10 12 -4 -4 7 1
18 10 25 10 8 14 9 10 2 -4 -6 -3 -14 3 -18 5 -3 10 1 10 9 0 9 5 16 11 16 5
0 7 6 3 13 -5 8 -2 8 9 -2 12 -9 17 -10 17 -2 0 7 5 9 12 5 6 -4 8 -3 4 4 -4
6 8 18 29 28 19 9 32 21 29 26 -4 6 4 5 16 -2 15 -8 20 -8 16 -1 -4 6 -2 11 4
11 6 0 9 4 5 9 -3 5 0 13 6 17 8 4 9 3 5 -4 -9 -15 -1 -15 25 -2 10 6 19 17
19 25 0 8 5 15 10 15 6 0 9 -4 8 -9 -2 -5 2 -9 7 -10 6 -1 10 5 10 12 0 6 9
12 20 12 12 0 20 7 19 16 -1 12 5 15 19 11 12 -3 18 -1 14 5 -3 5 10 17 29 27
24 11 33 12 29 4 -4 -7 0 -5 8 4 8 10 17 15 20 11 4 -3 7 -1 7 6 0 7 5 9 12 5
8 -5 9 -1 4 12 -6 15 -5 16 5 7 9 -9 16 -7 30 12 13 15 26 21 39 18 13 -4 20
0 20 10 0 8 8 21 17 28 11 10 14 10 9 2 -14 -24 15 -13 41 15 18 18 24 21 20
9 -4 -11 -3 -16 3 -12 6 3 10 12 10 20 0 7 12 15 28 17 17 2 26 8 24 17 -3 12
-1 12 13 1 9 -7 15 -9 14 -4 -1 5 -1 16 1 24 1 11 4 9 10 -5 7 -17 9 -17 9 -2
1 15 14 21 48 20 7 -1 11 3 8 7 -3 5 -2 15 1 24 6 15 8 15 21 -1 8 -10 12 -12
8 -5 -4 7 0 12 9 12 9 0 15 6 14 12 -2 7 7 14 20 16 13 2 26 10 29 18 4 12 8
12 22 2 9 -7 13 -9 9 -4 -4 4 -1 14 5 21 9 10 15 10 26 1 12 -9 12 -7 1 14
-12 22 -12 24 2 12 13 -10 17 -10 22 4 3 9 13 14 21 10 8 -3 17 -1 20 5 4 5
11 6 17 3 7 -4 8 -2 4 4 -4 7 -2 12 4 12 6 0 9 4 5 9 -3 5 0 13 6 17 8 4 9 3
5 -4 -4 -7 -3 -12 3 -12 6 0 15 10 22 21 9 17 13 19 20 8 7 -11 10 -9 15 9 5
18 9 20 20 11 11 -9 14 -9 14 0 0 7 5 9 13 5 9 -6 9 -5 -1 8 -10 13 -9 15 14
10 19 -3 25 -1 20 7 -4 6 -1 11 7 11 8 0 17 7 21 15 3 9 12 12 22 8 13 -5 15
-3 9 8 -7 12 -6 12 7 1 14 -11 18 -10 28 8 6 11 15 18 21 15 5 -4 9 -1 9 5 0
6 5 8 10 5 6 -3 10 -1 10 5 0 6 5 8 10 5 7 -4 10 -525 10 -1531 0 -1212 3
-1524 13 -1524 8 0 7 -4 -3 -10 -10 -6 -11 -10 -2 -10 6 0 12 -10 12 -23 0
-13 6 -29 13 -36 10 -11 10 -13 0 -7 -7 4 -13 2 -13 -3 0 -6 5 -11 10 -11 6 0
10 -11 10 -25 0 -14 6 -25 13 -25 8 0 7 -3 -3 -10 -14 -9 -8 -24 11 -26 22 -3
23 -5 9 -14 -11 -7 -12 -12 -3 -18 6 -4 13 -14 15 -22 2 -8 12 -22 23 -32 13
-11 15 -17 7 -18 -10 0 -10 -4 2 -16 9 -8 16 -20 16 -25 0 -5 8 -9 18 -10 14
0 14 -2 -3 -9 -11 -5 -14 -9 -7 -9 19 -1 42 -26 42 -45 0 -10 9 -16 23 -16 18
0 19 -2 7 -11 -12 -9 -10 -10 9 -5 17 3 21 2 13 -6 -14 -14 25 -58 52 -58 18
0 19 -2 6 -11 -12 -9 -11 -10 7 -6 19 4 21 2 13 -13 -8 -15 -6 -17 13 -13 18
4 19 3 7 -7 -12 -10 -11 -11 8 -7 12 3 20 1 16 -4 -3 -5 0 -9 5 -9 6 0 11 -8
12 -17 0 -14 2 -13 9 5 5 12 12 22 15 22 4 0 4 -4 1 -9 -7 -11 33 -57 47 -53
5 2 13 -1 16 -6 8 -12 73 -43 66 -31 -4 5 -2 9 4 9 5 0 12 -6 14 -12 4 -10 6
-10 6 0 1 10 5 9 17 -3 10 -9 25 -14 36 -12 10 3 16 2 13 -3 -3 -4 2 -10 10
-14 8 -3 15 0 15 6 0 7 4 7 13 -1 10 -8 17 -7 25 1 9 9 12 9 12 -1 0 -10 3
-11 14 -2 10 8 16 9 21 1 4 -7 12 -7 25 0 13 7 21 7 25 0 5 -8 11 -8 20 0 10
8 15 8 20 0 5 -8 11 -8 21 1 11 9 14 9 14 0 0 -9 5 -9 20 -1 15 8 20 8 20 -1
0 -9 3 -9 14 0 10 9 16 9 21 1 5 -8 10 -8 20 0 9 8 15 8 20 0 4 -7 17 -3 38
12 17 12 27 17 23 10 -11 -18 5 -14 21 6 9 10 11 11 7 2 -5 -10 1 -8 16 5 15
13 21 15 16 5 -4 -8 1 -5 11 8 15 18 21 20 32 10 11 -10 12 -10 7 0 -4 7 -1
12 8 12 9 0 16 7 16 16 0 14 3 14 15 4 11 -9 15 -9 15 -1 0 7 5 9 13 5 6 -4 9
-4 5 1 -9 10 10 35 26 35 6 0 4 -5 -4 -10 -8 -5 -10 -10 -4 -10 16 0 35 25 26
35 -4 5 1 5 12 1 14 -5 17 -3 12 10 -5 14 -4 15 9 4 13 -11 15 -9 15 11 0 19
2 21 10 9 8 -13 10 -12 10 4 0 11 5 16 13 13 8 -3 14 1 14 8 0 7 -7 11 -16 8
-14 -4 -14 -3 -1 5 10 8 18 8 27 0 11 -8 12 -7 7 7 -5 13 -4 16 4 11 7 -4 12
-2 12 4 0 6 5 8 12 4 7 -4 8 -3 4 4 -4 6 -14 9 -24 6 -14 -5 -15 -4 -2 5 8 6
24 11 34 11 20 0 20 0 0 15 -13 10 -14 13 -3 10 18 -7 44 19 35 34 -4 5 -2 12
4 16 6 4 7 11 4 17 -5 7 -2 8 5 4 13 -8 51 20 51 37 0 5 -8 1 -17 -10 -10 -10
-14 -13 -10 -6 5 6 5 18 1 25 -4 7 -4 10 1 6 4 -4 16 -3 27 3 16 9 17 13 6 27
-10 12 -10 14 0 8 8 -5 12 0 12 16 1 28 24 61 36 50 4 -4 2 1 -5 11 -10 12
-10 17 -2 17 7 0 9 5 6 10 -3 6 -2 10 3 10 6 0 8 10 4 22 -3 12 -1 19 5 15 5
-3 10 0 10 8 0 8 -5 11 -11 8 -6 -3 -5 0 2 8 9 10 12 554 12 2649 0 2095 -3
2639 -12 2649 -10 11 -10 13 0 7 6 -4 12 -2 12 3 0 6 -4 11 -10 11 -5 0 -10 9
-10 20 0 11 -6 20 -12 20 -9 0 -8 4 2 10 11 7 11 10 2 10 -7 0 -10 5 -7 10 3
6 1 10 -5 10 -7 0 -10 7 -6 15 3 8 1 15 -4 15 -6 0 -10 8 -10 18 0 10 -6 24
-12 31 -10 11 -10 13 0 7 22 -13 13 6 -15 32 -16 13 -23 21 -16 18 6 -3 14 -2
17 3 4 5 -3 13 -15 16 -15 5 -18 10 -9 15 8 5 7 9 -5 14 -9 3 -13 10 -10 16 3
5 1 10 -4 10 -6 0 -10 3 -9 8 4 16 -26 61 -36 55 -6 -3 -8 -3 -4 2 4 4 2 15
-5 23 -9 13 -9 14 1 8 6 -4 12 -2 12 3 0 6 -5 11 -11 11 -6 0 -17 7 -25 15
-10 9 -11 15 -4 15 16 0 -15 30 -32 31 -7 0 -4 4 7 9 17 7 17 9 3 9 -10 1 -18
5 -18 11 0 5 -6 8 -12 6 -7 -1 -10 -1 -5 1 13 8 7 23 -10 23 -9 0 -13 3 -10 7
4 3 -1 12 -11 20 -16 12 -16 13 3 7 15 -4 13 -1 -5 10 -16 10 -19 15 -10 16 9
0 4 6 -10 13 -16 8 -25 21 -24 35 1 17 -2 20 -11 12 -10 -8 -15 -8 -21 1 -4 8
-3 9 4 5 7 -4 12 -2 12 3 0 6 -10 11 -22 11 -19 0 -20 2 -8 10 13 8 13 10 -1
10 -9 0 -23 8 -30 18 -13 16 -13 16 6 2 19 -14 19 -14 6 3 -10 13 -17 14 -27
7 -9 -9 -12 -6 -10 14 2 17 -1 23 -10 19 -8 -3 -18 6 -24 22 -6 15 -19 29 -30
32 -11 3 -17 9 -14 14 3 5 0 9 -6 9 -6 0 -9 4 -6 9 3 4 -6 7 -20 5 -19 -2 -23
1 -14 10 7 10 6 17 -7 27 -17 13 -17 13 -3 -6 9 -13 9 -16 1 -8 -7 6 -18 21
-25 33 -6 12 -24 29 -41 38 -16 10 -41 29 -54 45 -13 15 -32 27 -42 27 -11 0
-19 7 -19 16 0 8 -4 12 -10 9 -5 -3 -10 -1 -10 4 0 6 -7 11 -15 11 -8 0 -15 5
-15 10 0 6 -5 10 -11 10 -6 0 -22 14 -36 30 -20 24 -28 28 -39 19 -11 -9 -14
-9 -14 1 0 7 -7 10 -14 7 -10 -4 -13 -1 -9 9 4 10 -2 14 -22 14 -14 0 -24 4
-20 9 3 6 -4 8 -15 6 -15 -3 -24 3 -32 20 -8 17 -15 22 -22 15 -7 -5 -17 -5
-26 2 -12 8 -12 9 3 4 11 -3 16 -2 12 4 -3 6 -14 10 -23 10 -9 0 -24 5 -32 11
-13 9 -12 10 3 5 9 -3 17 -1 17 4 0 6 -11 10 -24 10 -13 0 -26 7 -30 15 -3 8
-12 12 -20 9 -8 -3 -24 4 -35 15 -26 26 -77 59 -68 44 5 -7 4 -13 -2 -13 -6 0
-11 9 -11 20 0 18 -3 19 -21 9 -12 -6 -19 -7 -15 -1 3 5 -1 15 -9 22 -10 9
-15 9 -15 1 0 -6 -5 -11 -11 -11 -6 0 -8 7 -5 16 3 8 2 12 -4 9 -6 -3 -13 1
-16 10 -5 13 -9 13 -22 3 -12 -10 -14 -10 -8 0 4 6 2 12 -3 12 -6 0 -11 6 -11
14 0 8 -9 12 -26 10 -18 -2 -24 2 -20 11 7 20 -5 27 -22 12 -13 -9 -14 -9 -8
1 5 8 0 12 -14 12 -12 0 -18 5 -15 10 6 9 -8 14 -27 11 -5 0 -8 4 -8 10 0 6
-9 9 -19 6 -19 -5 -37 16 -32 37 1 5 -5 4 -13 -4 -12 -9 -16 -9 -16 -1 0 7 -5
9 -10 6 -6 -4 -10 -3 -9 2 1 4 1 15 0 23 -1 13 -2 13 -11 0 -6 -9 -10 -11 -10
-3 0 7 -7 10 -17 6 -11 -4 -14 -3 -9 5 6 11 -5 17 -26 13 -5 0 -8 4 -8 10 0 5
-4 7 -10 4 -5 -3 -10 2 -10 12 0 15 -2 16 -10 3 -8 -13 -10 -12 -10 4 0 12 -5
16 -16 12 -10 -4 -13 -2 -8 6 5 7 0 9 -14 6 -12 -4 -20 -1 -19 5 1 5 -9 14
-23 18 -14 4 -18 8 -10 8 8 1 -3 8 -24 16 -21 7 -42 19 -46 25 -4 6 -11 10
-16 9 -22 -4 -33 2 -39 22 -6 17 -9 18 -23 7 -10 -7 -14 -9 -10 -4 10 12 -20
39 -37 32 -9 -3 -15 1 -15 10 0 8 -13 17 -30 21 -17 3 -33 10 -37 16 -3 6 -1
7 5 3 7 -4 12 -2 12 3 0 14 -12 14 -28 1 -6 -6 -10 -7 -7 -4 3 4 -3 13 -13 21
-10 9 -11 12 -2 7 8 -4 11 -3 7 1 -8 9 -25 14 -61 19 -11 1 -22 9 -24 17 -3
11 -1 11 8 -1 10 -13 11 -13 7 0 -2 8 -11 14 -21 12 -9 -2 -16 2 -16 9 0 7 -9
9 -21 6 -17 -5 -18 -3 -7 11 7 9 9 14 4 10 -5 -4 -18 -3 -29 3 -14 8 -18 8
-13 0 4 -6 2 -11 -3 -11 -6 0 -11 5 -11 11 0 16 -26 39 -45 39 -10 0 -13 5 -9
13 5 7 0 6 -11 -3 -11 -9 -16 -10 -11 -2 4 7 2 12 -7 12 -8 0 -19 10 -25 23
-8 17 -11 18 -11 5 -1 -16 -3 -16 -30 0 -16 9 -28 19 -26 23 7 10 -42 32 -54
24 -7 -4 -10 -1 -9 7 2 8 -6 13 -19 12 -19 0 -21 2 -10 14 10 13 8 15 -11 9
-17 -4 -22 -2 -19 7 7 18 -27 38 -42 23 -8 -8 -11 -8 -11 2 0 8 -6 11 -15 7
-8 -3 -14 -2 -14 2 1 4 1 14 0 22 -1 13 -2 13 -11 0 -8 -12 -10 -12 -10 5 0
17 -2 17 -10 5 -8 -13 -10 -13 -10 2 0 12 -5 15 -17 11 -11 -4 -14 -3 -9 5 4
8 0 12 -11 12 -10 0 -25 9 -33 20 -8 11 -20 20 -28 20 -8 0 -10 5 -6 13 5 9 4
9 -6 0 -11 -10 -16 -9 -27 5 -8 9 -12 11 -8 5 4 -9 1 -11 -10 -7 -9 4 -14 12
-11 19 3 9 -2 11 -16 7 -16 -4 -19 -2 -13 8 6 10 3 12 -14 7 -16 -4 -25 1 -36
21 -8 15 -14 23 -15 18 0 -5 -7 -3 -15 4 -13 11 -15 10 -10 -6 3 -12 1 -10 -7
4 -7 15 -18 22 -30 19 -10 -3 -16 -1 -12 4 3 5 -2 9 -10 9 -8 0 -18 4 -21 10
-3 6 1 7 9 4 9 -3 16 -2 16 4 0 11 -18 11 -37 -1 -7 -5 -17 3 -25 20 -10 20
-20 27 -36 26 -15 -2 -22 3 -22 15 0 14 -2 15 -10 2 -8 -12 -10 -12 -10 5 0
17 -2 17 -10 5 -8 -12 -10 -11 -10 8 0 12 -5 22 -11 22 -5 0 -8 -4 -5 -9 4 -5
-3 -7 -14 -4 -11 3 -18 9 -15 13 3 4 -2 10 -9 13 -8 3 -17 1 -20 -6 -2 -7 -5
-2 -5 11 -1 12 -6 22 -12 22 -5 0 -7 -4 -4 -10 3 -6 -1 -7 -9 -4 -9 3 -13 11
-9 17 4 6 0 8 -10 4 -11 -4 -14 -2 -10 9 4 10 -2 14 -22 14 -18 0 -24 4 -19
13 4 6 4 9 0 5 -13 -11 -66 13 -66 30 0 15 -2 15 -10 2 -8 -13 -10 -13 -10 2
0 12 -5 15 -17 11 -10 -4 -14 -2 -10 4 8 13 -20 26 -35 16 -7 -3 -8 -1 -4 5 4
7 1 12 -9 12 -19 0 -87 44 -80 52 3 3 -1 8 -10 12 -10 4 -14 2 -9 -5 4 -7 0
-7 -15 1 -12 6 -18 16 -15 22 5 7 2 8 -6 3 -8 -5 -18 -1 -27 10 -9 14 -13 15
-13 4 0 -12 -2 -12 -9 1 -6 8 -7 19 -4 25 4 5 2 7 -2 2 -5 -4 -19 0 -33 9 -18
12 -23 12 -17 3 4 -9 2 -9 -7 1 -7 8 -22 16 -33 18 -11 2 -27 11 -35 21 -9 10
-28 21 -43 25 -15 3 -27 13 -27 22 0 14 -3 14 -16 4 -12 -11 -15 -11 -12 1 2
8 -2 13 -9 12 -7 -2 -10 3 -7 11 4 11 0 13 -15 9 -12 -3 -21 -1 -21 5 0 5 -8
12 -17 16 -10 3 -25 9 -33 12 -13 5 -13 4 0 -6 13 -10 13 -11 0 -7 -8 2 -14
12 -12 21 3 14 -1 16 -17 11 -16 -5 -20 -3 -15 9 5 12 0 16 -21 16 -18 0 -24
4 -19 13 6 9 5 9 -7 0 -17 -14 -39 0 -39 25 0 7 -4 10 -10 7 -5 -3 -10 -1 -10
5 0 6 -4 9 -9 5 -5 -3 -16 1 -24 10 -8 8 -21 16 -28 17 -7 2 -21 12 -30 23
-10 11 -25 20 -36 20 -10 0 -18 5 -18 12 0 6 -4 15 -9 20 -5 5 -6 2 -1 -5 5
-10 2 -13 -11 -10 -11 2 -18 10 -16 17 1 7 -2 9 -8 6 -13 -8 -70 14 -70 27 0
5 -4 6 -10 3 -5 -3 -7 0 -5 7 4 9 -4 14 -21 16 -24 2 -79 32 -58 32 5 0 15 -5
22 -12 9 -9 12 -9 12 0 0 7 -13 15 -30 19 -16 3 -30 9 -30 14 0 5 -9 9 -20 9
-11 0 -20 5 -20 11 0 6 -9 9 -19 6 -14 -3 -18 -1 -14 9 3 9 -2 12 -16 9 -13
-2 -18 1 -15 9 5 14 -36 36 -67 36 -13 0 -18 4 -13 12 5 7 0 9 -14 6 -12 -3
-21 -3 -20 1 2 20 -4 30 -16 25 -8 -3 -17 -1 -21 5 -3 6 -1 11 6 11 7 0 9 3 6
6 -4 4 -14 1 -24 -7 -15 -12 -16 -12 -10 3 3 10 3 17 -1 17 -22 -4 -42 2 -37
11 3 6 -3 10 -15 10 -11 0 -23 6 -26 14 -3 9 -12 12 -21 9 -10 -4 -14 -2 -10
4 8 13 -20 26 -35 16 -6 -3 -8 -1 -4 5 3 6 2 13 -4 17 -5 3 -10 -2 -11 -12 0
-11 -6 -6 -15 15 -13 30 -17 32 -31 20 -15 -11 -16 -11 -10 4 4 12 2 15 -8 12
-7 -3 -22 3 -32 13 -26 26 -70 43 -90 36 -15 -5 -15 -3 2 11 11 10 16 15 10
13 -5 -3 -30 3 -55 14 -25 10 -41 18 -37 18 4 1 2 7 -5 15 -10 11 -16 11 -27
2 -12 -8 -13 -8 -7 2 4 6 2 12 -3 12 -6 0 -11 6 -11 14 0 17 -27 29 -35 15 -4
-5 -11 -7 -16 -3 -5 3 -7 9 -4 14 3 5 0 12 -6 16 -8 4 -9 3 -5 -4 11 -19 -5
-14 -21 6 -10 11 -12 12 -8 2 5 -12 4 -12 -7 1 -7 9 -19 14 -27 11 -8 -3 -11
0 -7 6 4 6 -3 16 -14 22 -11 6 -20 8 -20 5 0 -3 -9 -1 -20 5 -11 6 -18 15 -15
21 4 5 1 9 -4 9 -6 0 -11 -6 -11 -12 -1 -7 -6 -3 -13 10 -10 18 -15 20 -26 10
-11 -10 -12 -10 -7 0 4 6 2 12 -3 12 -6 0 -11 8 -12 18 0 14 -2 14 -9 -3 -5
-11 -9 -14 -9 -7 -1 7 -6 10 -13 6 -6 -4 -9 -3 -6 2 3 5 2 18 -3 29 -6 17 -8
17 -8 2 -1 -14 -4 -15 -20 -5 -11 7 -18 15 -15 19 6 11 -34 22 -47 13 -8 -4
-9 -3 -5 4 3 6 -3 16 -15 22 -17 10 -20 9 -14 -2 3 -7 0 -5 -9 6 -8 10 -19 15
-25 12 -5 -3 -18 5 -28 18 -11 13 -28 26 -39 28 -10 2 -18 9 -17 15 1 6 -6 9
-19 5 -14 -3 -19 -1 -14 6 5 8 2 10 -8 6 -10 -4 -16 -1 -16 8 0 8 -17 22 -37
32 -35 17 -36 17 -22 -1 12 -16 12 -16 -8 1 -13 10 -20 23 -17 27 3 5 -2 6
-10 3 -9 -4 -16 -1 -16 6 0 10 -3 10 -14 1 -11 -9 -17 -8 -28 7 -7 10 -25 22
-40 26 -16 3 -28 12 -28 18 0 9 3 9 12 0 7 -7 17 -12 22 -12 18 0 -33 31 -54
33 -11 1 -20 5 -20 9 0 4 -7 4 -17 1 -10 -4 -14 -2 -9 5 3 6 2 13 -4 17 -5 3
-10 2 -10 -3 0 -5 -7 -9 -15 -9 -8 0 -12 4 -10 8 3 4 -2 10 -11 13 -10 4 -13
2 -9 -7 4 -6 -2 -1 -13 12 -10 13 -24 21 -30 17 -6 -3 -16 0 -24 7 -7 8 -19
12 -27 9 -8 -3 -11 0 -7 7 7 10 -7 16 -28 12 -5 -1 -12 2 -15 6 -10 14 -65 36
-84 34 -9 -1 -20 4 -23 12 -3 9 -13 13 -25 10 -10 -3 -19 -1 -19 4 0 5 -13 9
-29 8 -17 -1 -29 3 -28 9 1 6 -6 10 -15 8 -12 -2 -18 4 -19 15 0 16 -1 16 -8
-1 -5 -14 -10 -16 -15 -8 -4 7 -12 10 -17 7 -5 -4 -9 1 -9 9 0 9 -5 16 -11 16
-5 0 -7 -4 -4 -10 3 -6 -1 -7 -9 -4 -9 3 -16 11 -16 18 0 6 -5 4 -10 -4 -7
-12 -10 -12 -10 -1 0 8 -6 11 -16 7 -8 -3 -12 -2 -9 4 3 5 -3 8 -12 8 -31 -1
-78 11 -81 21 -2 6 -12 7 -28 1 -14 -6 -23 -6 -20 -1 3 5 -1 12 -10 15 -8 3
-12 2 -9 -4 3 -6 -1 -7 -9 -4 -9 3 -13 10 -10 15 3 5 -3 6 -12 2 -11 -4 -22 1
-32 13 -12 16 -14 16 -9 2 7 -21 -12 -20 -29 1 -8 10 -13 11 -18 2 -4 -6 -12
-9 -17 -5 -5 3 -7 9 -4 14 3 4 -4 6 -15 3 -13 -3 -20 0 -20 8 0 9 -3 10 -10 3
-15 -15 -78 -5 -83 15 -4 14 -5 14 -6 -1 -1 -22 -8 -23 -28 -3 -11 12 -19 13
-28 5 -10 -8 -15 -8 -20 0 -5 8 -10 8 -20 0 -10 -8 -15 -8 -20 1 -6 8 -10 7
-16 -2 -6 -10 -9 -11 -9 -1 0 6 -7 12 -16 12 -9 0 -12 5 -8 13 5 9 4 9 -5 1
-7 -7 -29 -8 -56 -4 -26 4 -48 3 -55 -4 -7 -7 -10 -6 -10 2 0 9 -5 10 -17 4
-12 -7 -24 -5 -39 5 -13 8 -28 12 -34 8 -5 -3 -10 -1 -10 5 0 8 -6 8 -20 0
-15 -8 -20 -8 -20 1 0 9 -3 9 -14 0 -10 -9 -16 -9 -21 -1 -5 8 -11 8 -19 1 -7
-6 -16 -8 -20 -4 -10 10 -46 11 -46 1 0 -5 -9 -4 -20 2 -14 8 -20 8 -20 0 0
-8 -6 -8 -20 0 -14 8 -20 8 -20 0 0 -8 -6 -8 -20 0 -11 6 -20 7 -20 2 0 -10
-30 -9 -48 2 -7 4 -12 2 -12 -5 0 -9 -3 -9 -14 0 -10 9 -16 9 -21 1 -5 -8 -10
-8 -20 0 -10 8 -15 8 -20 0 -5 -8 -11 -8 -21 1 -11 9 -14 9 -14 -1z m-1625
-518 c-3 -3 -11 0 -18 7 -9 10 -8 11 6 5 10 -3 15 -9 12 -12z m3750 -2 c3 -6
-1 -7 -9 -4 -18 7 -21 14 -7 14 6 0 13 -4 16 -10z m1675 -965 c11 -13 10 -14
-4 -9 -9 3 -16 10 -16 15 0 13 6 11 20 -6z m-7303 -120 c0 -8 -4 -12 -9 -9 -5
3 -6 10 -3 15 9 13 12 11 12 -6z m-42 -33 c-3 -3 -11 0 -18 7 -9 10 -8 11 6 5
10 -3 15 -9 12 -12z m-105 -46 c0 -2 -8 -10 -17 -17 -16 -13 -17 -12 -4 4 13
16 21 21 21 13z m8630 -486 c0 -5 -2 -10 -4 -10 -3 0 -8 5 -11 10 -3 6 -1 10
4 10 6 0 11 -4 11 -10z m-9665 -120 c3 -5 -1 -10 -10 -10 -9 0 -13 5 -10 10 3
6 8 10 10 10 2 0 7 -4 10 -10z m11640 -1039 c-6 -5 -25 10 -25 20 0 5 6 4 14
-3 8 -7 12 -15 11 -17z m360 -191 c16 -17 16 -20 3 -15 -9 4 -19 13 -22 21 -7
19 -2 18 19 -6z m142 -122 c-3 -8 -6 -5 -6 6 -1 11 2 17 5 13 3 -3 4 -12 1
-19z m113 -78 c0 -6 -9 -2 -20 7 -11 10 -20 19 -20 21 0 1 9 -2 20 -8 11 -6
20 -15 20 -20z m115 -111 c11 -16 1 -19 -13 -3 -7 8 -8 14 -3 14 5 0 13 -5 16
-11z m-14909 -101 c4 -7 3 -8 -5 -4 -6 4 -14 0 -17 -8 -3 -9 -11 -16 -17 -16
-5 0 -2 9 8 20 21 23 22 24 31 8z m2224 -3509 c0 -6 -4 -7 -10 -4 -5 3 -10 11
-10 16 0 6 5 7 10 4 6 -3 10 -11 10 -16z m10105 -229 c-3 -5 -12 -10 -18 -10
-7 0 -6 4 3 10 19 12 23 12 15 0z m-920 -540 c3 -6 -1 -7 -9 -4 -18 7 -21 14
-7 14 6 0 13 -4 16 -10z m-6910 -558 c-3 -3 -11 0 -18 7 -9 10 -8 11 6 5 10
-3 15 -9 12 -12z m5765 -96 c0 -2 -7 -7 -16 -10 -8 -3 -12 -2 -9 4 6 10 25 14
25 6z m3823 -1476 c9 -11 13 -20 7 -20 -5 0 -14 9 -20 20 -6 11 -9 20 -8 20 2
0 11 -9 21 -20z"/>
<path d="M12180 17816 c0 -2 7 -9 15 -16 9 -7 15 -8 15 -2 0 5 -7 12 -15 16
-8 3 -15 4 -15 2z"/>
<path d="M7555 17470 c4 -6 11 -8 16 -5 14 9 11 15 -7 15 -8 0 -12 -5 -9 -10z"/>
<path d="M14187 16649 c7 -7 15 -10 18 -7 3 3 -2 9 -12 12 -14 6 -15 5 -6 -5z"/>
<path d="M14456 16495 c10 -8 23 -15 28 -15 6 0 1 7 -10 15 -10 8 -23 15 -28
15 -6 0 -1 -7 10 -15z"/>
<path d="M5730 16416 c0 -2 7 -7 16 -10 8 -3 12 -2 9 4 -6 10 -25 14 -25 6z"/>
<path d="M16135 15520 c3 -5 8 -10 11 -10 2 0 4 5 4 10 0 6 -5 10 -11 10 -5 0
-7 -4 -4 -10z"/>
<path d="M2740 14560 c-8 -5 -10 -10 -5 -10 6 0 17 5 25 10 8 5 11 10 5 10 -5
0 -17 -5 -25 -10z"/>
<path d="M17775 14400 c3 -5 8 -10 11 -10 2 0 4 5 4 10 0 6 -5 10 -11 10 -5 0
-7 -4 -4 -10z"/>
<path d="M2595 14360 c-3 -5 -2 -10 4 -10 5 0 13 5 16 10 3 6 2 10 -4 10 -5 0
-13 -4 -16 -10z"/>
<path d="M4570 11156 c0 -2 7 -7 16 -10 8 -3 12 -2 9 4 -6 10 -25 14 -25 6z"/>
<path d="M15649 11083 c-13 -16 -12 -17 4 -4 9 7 17 15 17 17 0 8 -8 3 -21
-13z"/>
<path d="M4821 11004 c0 -11 3 -14 6 -6 3 7 2 16 -1 19 -3 4 -6 -2 -5 -13z"/>
<path d="M15510 11000 c0 -5 5 -10 11 -10 5 0 7 5 4 10 -3 6 -8 10 -11 10 -2
0 -4 -4 -4 -10z"/>
<path d="M5162 10806 c7 -8 15 -12 17 -11 5 6 -10 25 -20 25 -5 0 -4 -6 3 -14z"/>
<path d="M5390 10685 c0 -5 5 -17 10 -25 5 -8 10 -10 10 -5 0 6 -5 17 -10 25
-5 8 -10 11 -10 5z"/>
<path d="M6545 10000 c-3 -6 1 -7 9 -4 18 7 21 14 7 14 -6 0 -13 -4 -16 -10z"/>
<path d="M7515 9430 c3 -5 8 -10 11 -10 2 0 4 5 4 10 0 6 -5 10 -11 10 -5 0
-7 -4 -4 -10z"/>
<path d="M7701 9324 c0 -11 3 -14 6 -6 3 7 2 16 -1 19 -3 4 -6 -2 -5 -13z"/>
<path d="M15040 9161 c0 -7 -4 -9 -10 -6 -5 3 -10 2 -10 -3 0 -6 -8 -9 -17 -8
-10 0 -17 -4 -16 -11 2 -7 -4 -10 -12 -7 -9 4 -22 1 -29 -5 -11 -9 -15 -9 -19
1 -4 9 -6 7 -6 -4 -1 -18 -34 -33 -51 -23 -6 3 -7 -1 -4 -9 4 -12 0 -16 -15
-16 -12 0 -24 -7 -27 -15 -4 -8 -10 -15 -16 -15 -5 0 -6 5 -2 12 4 7 3 8 -5 4
-6 -4 -8 -12 -5 -18 5 -7 1 -9 -9 -5 -10 4 -16 2 -14 -6 1 -7 -6 -11 -15 -11
-10 1 -18 -2 -18 -7 0 -5 -5 -9 -11 -9 -7 0 -18 -8 -26 -17 -8 -10 -11 -12 -8
-5 5 10 -1 9 -24 -2 -35 -19 -43 -32 -8 -16 21 11 22 11 2 -5 -11 -9 -31 -15
-45 -13 -16 2 -24 -2 -22 -10 1 -6 -2 -12 -8 -12 -5 0 -10 -8 -11 -17 0 -17
-1 -17 -7 -1 -7 17 -34 11 -34 -8 1 -5 -6 -8 -13 -6 -8 1 -19 -7 -25 -18 -7
-13 -18 -19 -26 -16 -8 3 -14 1 -14 -5 0 -6 -5 -7 -12 -3 -6 4 -8 3 -4 -4 4
-6 -8 -18 -29 -28 -19 -9 -35 -20 -35 -24 0 -4 -8 -7 -17 -6 -11 0 -17 -5 -15
-13 2 -11 0 -12 -10 -3 -10 7 -18 8 -28 0 -12 -8 -12 -9 3 -4 11 3 16 2 12 -4
-3 -6 -15 -10 -27 -10 -15 0 -19 -5 -14 -17 6 -17 5 -17 -8 0 -13 16 -14 16
-19 -4 -4 -15 -11 -20 -22 -15 -9 3 -18 0 -21 -9 -4 -8 -16 -15 -28 -15 -17 0
-18 -2 -6 -10 12 -8 11 -10 -7 -10 -13 0 -23 -5 -23 -11 0 -5 -5 -7 -12 -3 -7
5 -9 2 -5 -8 4 -12 1 -14 -15 -10 -16 4 -19 2 -13 -9 7 -12 6 -12 -7 -1 -18
15 -34 0 -22 -20 5 -10 4 -10 -6 -1 -10 9 -17 6 -34 -11 -11 -12 -16 -15 -11
-6 6 9 0 6 -12 -7 -15 -16 -24 -19 -29 -11 -5 7 -10 4 -15 -10 -4 -11 -18 -26
-30 -32 -17 -10 -20 -9 -14 2 3 7 -3 1 -14 -14 -15 -18 -29 -25 -47 -23 -15 1
-28 -3 -31 -11 -3 -8 -15 -14 -27 -14 -17 0 -18 -2 -6 -10 12 -8 11 -10 -7
-10 -12 0 -23 -6 -25 -12 -3 -7 -13 -13 -24 -13 -10 0 -18 -5 -17 -11 1 -6 -4
-11 -12 -11 -8 0 -12 5 -9 11 3 6 -1 3 -9 -6 -8 -10 -23 -18 -33 -18 -16 0
-17 -2 -4 -11 12 -9 11 -10 -8 -6 -12 3 -20 1 -16 -4 3 -5 0 -9 -6 -9 -6 0 -8
-6 -4 -12 6 -10 4 -10 -7 0 -16 14 -33 16 -24 2 3 -5 1 -10 -5 -10 -6 0 -9 -4
-6 -9 4 -5 -4 -7 -16 -4 -17 4 -20 2 -9 -5 11 -8 9 -11 -10 -14 -13 -2 -23 -9
-21 -16 3 -15 -3 -15 -28 -2 -16 9 -18 8 -13 -6 4 -11 1 -15 -13 -12 -12 2
-18 -2 -16 -11 2 -9 -4 -12 -17 -8 -12 3 -18 0 -15 -7 3 -7 -12 -20 -31 -29
-25 -12 -34 -13 -30 -5 3 7 -2 3 -11 -9 -17 -23 -41 -33 -28 -11 4 7 3 8 -5 4
-6 -4 -10 -15 -9 -24 2 -11 -3 -16 -14 -14 -10 2 -18 -2 -18 -9 0 -9 -3 -9
-14 0 -11 10 -15 8 -18 -6 -2 -10 -12 -18 -23 -18 -12 0 -19 -6 -17 -14 3 -12
1 -12 -14 0 -13 10 -16 11 -10 1 6 -9 3 -12 -10 -10 -11 2 -18 -2 -16 -9 1 -7
-3 -13 -9 -13 -5 0 -7 -6 -3 -12 4 -7 4 -10 0 -6 -9 8 -73 -18 -92 -37 -7 -7
-10 -16 -6 -21 4 -5 -1 -3 -10 4 -14 11 -18 10 -27 -5 -6 -10 -11 -14 -11 -9
0 6 -7 1 -16 -10 -8 -10 -13 -12 -9 -4 4 10 2 10 -8 -2 -11 -14 -16 -15 -26
-5 -10 9 -11 8 -5 -6 4 -12 2 -17 -7 -15 -8 2 -13 -3 -11 -11 3 -12 1 -12 -14
0 -12 9 -15 9 -10 2 4 -8 1 -13 -8 -13 -9 0 -16 -7 -16 -16 0 -14 -3 -14 -15
-4 -11 9 -15 9 -15 1 0 -7 -5 -9 -12 -5 -7 4 -10 4 -6 -1 9 -10 -10 -35 -26
-35 -6 0 -4 5 4 10 8 5 10 10 4 10 -16 0 -35 -25 -26 -35 4 -4 -5 -6 -20 -3
-15 3 -25 2 -23 -2 3 -4 -3 -14 -12 -21 -10 -8 -14 -9 -10 -2 4 6 3 14 -3 18
-5 3 -10 -1 -10 -9 0 -9 -7 -16 -15 -16 -8 0 -15 -7 -15 -16 0 -14 -3 -14 -15
-4 -13 11 -14 10 -9 -5 6 -14 4 -16 -6 -10 -9 6 -12 4 -8 -6 4 -10 -1 -15 -12
-15 -10 0 -16 4 -14 8 3 4 1 8 -4 8 -5 0 -12 -8 -15 -19 -3 -13 -12 -18 -31
-16 -23 3 -25 1 -15 -11 10 -12 9 -13 -5 -8 -10 4 -16 1 -16 -7 0 -11 -3 -11
-10 1 -8 12 -10 12 -10 -5 0 -15 -2 -17 -9 -6 -6 9 -11 10 -15 2 -4 -6 -5 -15
-2 -19 2 -4 -4 -8 -14 -8 -10 0 -16 4 -14 8 3 4 0 8 -5 8 -6 0 -11 -7 -11 -16
0 -8 -4 -12 -10 -9 -5 3 -10 1 -10 -6 0 -7 -3 -9 -7 -6 -3 4 -12 -1 -20 -11
-8 -9 -12 -11 -8 -5 4 9 1 11 -9 7 -9 -3 -16 -13 -16 -21 0 -13 -3 -13 -15 -3
-13 11 -19 7 -17 -11 1 -4 -8 -5 -18 -2 -13 3 -20 0 -21 -8 0 -8 -4 -5 -9 6
-7 17 -9 17 -9 3 -1 -10 -6 -18 -12 -18 -5 0 -7 -5 -3 -11 4 -7 -2 -6 -17 2
-21 11 -23 11 -11 -4 11 -13 10 -15 -12 -13 -15 2 -26 -1 -26 -6 0 -5 -4 -6
-10 -3 -5 3 -10 1 -10 -5 0 -6 -4 -8 -10 -5 -5 3 -10 2 -10 -3 0 -6 -8 -9 -17
-8 -10 0 -17 -3 -16 -9 1 -5 -13 -10 -30 -9 -20 0 -39 -7 -50 -20 -10 -12 -16
-15 -12 -8 6 11 3 11 -14 3 -12 -6 -30 -16 -41 -21 -12 -6 -26 -8 -32 -4 -6 4
-17 -1 -24 -11 -8 -11 -21 -16 -34 -12 -13 3 -24 -1 -30 -13 -6 -12 -17 -16
-35 -13 -17 4 -27 0 -31 -11 -5 -13 -9 -14 -20 -5 -11 9 -14 9 -14 0 0 -7 -4
-9 -10 -6 -5 3 -10 1 -10 -4 0 -6 -13 -11 -29 -11 -17 0 -31 -6 -35 -16 -5
-13 -9 -14 -20 -5 -10 8 -16 9 -21 1 -3 -6 -11 -8 -16 -5 -5 4 -9 1 -9 -6 0
-7 -3 -9 -7 -6 -3 4 -13 1 -21 -6 -13 -9 -14 -9 -8 1 4 6 2 12 -3 12 -6 0 -11
-5 -11 -11 0 -6 -6 -9 -14 -6 -8 3 -17 -1 -20 -9 -3 -9 -11 -12 -17 -8 -6 3
-15 0 -20 -7 -7 -11 -9 -11 -9 -1 0 10 -5 10 -20 2 -11 -6 -20 -8 -20 -5 0 4
-7 -1 -16 -10 -12 -11 -20 -13 -29 -5 -10 8 -15 8 -20 0 -4 -6 -13 -9 -21 -6
-8 3 -14 1 -14 -5 0 -6 -4 -8 -8 -5 -4 2 -14 1 -22 -4 -8 -5 -22 -4 -33 2 -15
8 -18 7 -12 -3 6 -9 3 -11 -8 -6 -12 4 -17 1 -17 -11 0 -10 -3 -13 -8 -7 -10
14 -65 12 -69 -2 -3 -7 -11 -9 -19 -6 -8 3 -14 0 -14 -7 0 -10 -3 -10 -15 0
-12 10 -19 10 -33 -2 -9 -8 -27 -13 -40 -12 -12 1 -25 -3 -28 -7 -3 -5 -13 -5
-23 1 -10 5 -21 6 -25 2 -4 -3 -21 -7 -37 -7 -17 0 -34 -7 -38 -14 -6 -10 -10
-10 -16 -2 -5 9 -10 9 -21 0 -11 -9 -14 -9 -14 1 0 9 -3 10 -13 1 -9 -7 -17
-7 -24 0 -7 7 -15 6 -25 -5 -11 -11 -18 -12 -27 -3 -8 8 -11 8 -11 -2 0 -8
-10 -11 -28 -10 -15 2 -33 0 -40 -4 -7 -5 -12 -3 -12 4 0 9 -3 10 -10 3 -6 -6
-33 -7 -66 -4 -40 5 -60 3 -69 -7 -9 -8 -16 -10 -20 -3 -4 7 -14 5 -27 -4 -14
-10 -27 -12 -44 -6 -13 5 -24 6 -24 1 0 -9 -31 -8 -48 3 -7 4 -12 2 -12 -4 0
-6 -5 -8 -12 -4 -16 10 -48 13 -48 4 0 -4 -7 -7 -15 -7 -8 0 -15 4 -15 9 0 5
-8 4 -19 -1 -10 -6 -21 -7 -25 -4 -9 9 -46 11 -46 3 0 -6 -41 -5 -47 0 -8 6
-30 5 -45 -2 -10 -5 -19 -4 -23 2 -5 8 -11 7 -21 -1 -11 -9 -14 -9 -14 0 0 8
-5 9 -19 1 -13 -7 -22 -7 -26 0 -4 7 -12 7 -25 0 -13 -7 -21 -7 -25 0 -5 8
-11 7 -21 -1 -11 -9 -14 -9 -14 0 0 7 -6 11 -12 10 -25 -3 -39 1 -34 10 3 4
-11 5 -32 2 -20 -4 -48 -4 -62 -1 -14 4 -33 3 -42 -2 -12 -6 -18 -5 -18 2 0 7
-6 10 -12 7 -7 -2 -19 3 -26 12 -8 9 -11 10 -7 4 8 -16 -21 -18 -30 -3 -5 8
-11 8 -20 0 -10 -8 -15 -8 -20 0 -5 8 -11 8 -19 1 -8 -7 -16 -7 -22 -1 -12 12
-47 18 -111 19 -40 1 -53 5 -56 19 -4 16 -5 16 -6 0 -1 -19 -17 -25 -23 -8 -4
14 -48 21 -48 8 0 -6 -12 -3 -26 7 -15 9 -23 12 -20 6 5 -7 1 -9 -8 -5 -9 3
-16 11 -16 16 0 7 -5 6 -13 -1 -8 -6 -16 -8 -20 -5 -3 3 -18 7 -33 9 -16 1
-30 8 -32 14 -3 9 -7 9 -18 0 -11 -9 -14 -9 -14 1 0 10 -3 10 -15 0 -13 -11
-19 -8 -17 11 1 3 -12 5 -29 4 -16 -1 -29 2 -29 6 0 5 -6 6 -14 3 -8 -3 -16 2
-19 13 -4 16 -5 16 -6 1 -1 -18 -21 -26 -21 -10 0 5 -12 14 -26 20 -14 7 -23
8 -19 2 3 -5 2 -10 -4 -10 -5 0 -12 6 -14 13 -4 9 -6 9 -6 -1 -1 -10 -5 -9
-17 3 -10 9 -25 14 -36 12 -10 -3 -16 -2 -13 3 3 4 -2 10 -10 14 -8 3 -15 1
-15 -5 0 -6 -7 -3 -16 5 -18 18 -28 21 -18 5 3 -6 -6 -3 -22 7 -15 11 -25 13
-21 7 6 -9 3 -11 -7 -7 -9 3 -13 10 -10 15 3 5 -2 6 -10 3 -9 -3 -16 -2 -16 3
0 5 -11 10 -26 11 -14 1 -34 7 -45 13 -11 6 -28 8 -36 5 -14 -6 -14 -4 -2 10
13 16 12 16 -8 6 -17 -9 -22 -9 -26 2 -4 9 -14 12 -26 9 -14 -3 -23 0 -27 12
-5 13 -9 14 -15 3 -7 -10 -9 -10 -9 2 0 13 -1 13 -10 0 -8 -13 -10 -12 -10 3
0 20 -16 23 -23 5 -4 -10 -6 -10 -6 0 -1 6 -8 12 -17 12 -8 0 -12 5 -9 10 6
10 -6 14 -38 11 -9 -1 -20 4 -23 12 -3 9 -13 13 -25 10 -10 -3 -19 0 -19 6 0
6 -11 11 -25 11 -14 0 -25 5 -25 11 0 8 -6 7 -17 -2 -10 -9 -14 -9 -10 -2 5 7
-2 17 -15 24 -13 7 -24 12 -25 11 -10 -7 -23 1 -23 13 0 8 -5 15 -11 15 -5 0
-8 -4 -5 -8 3 -5 -1 -9 -9 -9 -8 0 -13 5 -12 10 1 5 -11 11 -27 13 -16 1 -33
8 -37 15 -4 7 -14 9 -22 6 -10 -4 -17 2 -22 16 -4 14 -8 17 -12 9 -4 -10 -8
-10 -19 -1 -8 6 -11 15 -8 20 3 5 -2 6 -10 3 -9 -4 -16 -1 -16 6 0 9 -4 9 -13
2 -9 -8 -21 -3 -46 19 -34 29 -58 39 -45 17 4 -7 3 -8 -5 -4 -9 6 -9 11 1 24
12 14 10 14 -11 2 -21 -11 -23 -10 -18 3 4 11 0 13 -14 10 -10 -3 -19 0 -19 6
0 6 -8 11 -18 11 -10 0 -24 9 -31 19 -8 11 -20 17 -28 14 -9 -4 -16 3 -20 16
-4 15 -9 19 -17 12 -12 -10 -72 20 -61 31 3 3 -1 8 -10 12 -10 4 -14 2 -9 -5
4 -7 0 -7 -15 1 -12 6 -18 16 -15 22 5 7 2 8 -6 3 -8 -5 -18 -1 -27 10 -9 14
-13 15 -13 4 0 -12 -2 -12 -9 1 -6 8 -7 19 -4 25 4 5 2 7 -2 2 -5 -4 -19 0
-33 9 -13 9 -21 11 -18 5 5 -7 1 -9 -8 -5 -9 3 -16 14 -17 23 0 9 -3 11 -5 5
-3 -8 -16 -2 -35 16 -19 17 -39 26 -55 24 -20 -2 -23 0 -14 11 9 11 7 12 -9 8
-13 -3 -21 -1 -21 7 0 6 -6 10 -12 7 -20 -7 -48 12 -48 31 0 15 -2 15 -10 2
-8 -12 -10 -10 -11 10 0 23 -1 23 -9 5 -8 -18 -9 -18 -9 5 -1 19 -3 22 -11 10
-8 -12 -10 -12 -16 3 -3 9 -10 15 -14 12 -4 -3 -13 2 -20 10 -7 8 -18 15 -24
15 -6 0 -3 -5 7 -11 9 -5 17 -15 17 -21 0 -7 -16 6 -36 28 -20 21 -33 33 -30
27 4 -7 2 -13 -3 -13 -6 0 -11 10 -12 23 0 21 -1 21 -9 2 -5 -11 -9 -14 -9 -7
-1 7 -6 10 -11 7 -6 -4 -10 -3 -9 2 1 4 1 17 -1 28 l-1 20 -9 -20 c-5 -11 -9
-15 -9 -8 -1 6 -10 9 -23 6 -19 -4 -20 -3 -8 6 11 8 12 11 2 11 -8 0 -10 5 -6
13 5 8 2 8 -9 -2 -15 -12 -17 -11 -17 3 0 10 -4 14 -10 11 -5 -3 -10 -1 -10 5
0 7 -7 10 -15 6 -9 -3 -19 3 -25 14 -6 11 -20 24 -33 30 -20 10 -20 9 3 -10
24 -20 24 -21 2 -10 -13 6 -25 17 -28 25 -3 7 -18 15 -34 18 -15 4 -41 19 -56
34 -16 15 -34 27 -41 25 -7 -2 -13 5 -13 15 0 15 -2 16 -10 3 -7 -12 -10 -12
-10 -1 0 8 -6 11 -16 7 -8 -3 -12 -2 -9 3 3 5 -4 12 -15 16 -11 3 -20 11 -20
16 0 6 -4 7 -10 4 -12 -7 -53 19 -43 28 3 4 -4 7 -16 7 -15 0 -20 4 -15 13 5
7 0 6 -11 -3 -10 -8 -16 -10 -13 -5 3 6 -4 19 -15 30 -11 12 -17 14 -13 5 4
-8 0 -6 -8 4 -12 15 -16 16 -17 5 -1 -8 -5 -3 -9 11 -5 16 -8 19 -9 8 -1 -11
-6 -15 -16 -11 -9 3 -14 8 -11 11 6 5 -32 41 -46 43 -4 1 -12 3 -18 4 -5 1
-14 3 -20 4 -5 0 -10 8 -10 16 0 8 -5 15 -11 15 -5 0 -7 -5 -3 -11 4 -8 0 -8
-15 0 -11 7 -21 17 -21 24 0 7 4 6 10 -3 5 -8 10 -10 10 -4 0 18 -12 24 -26
13 -8 -7 -14 -6 -20 2 -4 8 -3 9 4 5 7 -4 12 -2 12 4 0 6 -8 9 -18 6 -11 -4
-24 3 -36 18 -10 14 -24 22 -31 20 -7 -3 -22 3 -33 14 -21 21 -56 36 -82 37
-8 0 -19 10 -25 22 -9 18 -14 20 -25 10 -8 -8 -11 -8 -7 -1 4 7 -3 14 -18 18
-17 4 -22 11 -18 22 5 14 3 15 -17 4 -19 -10 -22 -10 -18 2 8 20 -26 40 -41
25 -7 -7 -12 -7 -11 -2 4 20 0 35 -11 35 -5 0 -7 -4 -4 -10 3 -6 -1 -7 -9 -4
-9 3 -16 9 -16 13 0 4 -16 15 -36 24 -20 10 -32 22 -28 28 4 8 -1 9 -16 4 -19
-6 -21 -4 -16 17 3 12 3 17 0 11 -3 -7 -10 -13 -15 -13 -6 0 -7 5 -3 12 4 6 3
8 -3 5 -5 -3 -22 1 -37 8 -16 8 -32 12 -37 9 -5 -3 -9 2 -9 10 0 9 -7 16 -15
16 -26 0 -30 1 -46 16 -9 8 -24 12 -33 8 -9 -4 -16 -1 -16 6 0 9 -3 10 -13 1
-8 -6 -17 -8 -21 -4 -9 9 -46 11 -46 3 0 -4 -10 -6 -22 -4 -13 1 -23 3 -23 4
0 1 -8 3 -17 5 -10 2 -18 -1 -18 -6 0 -6 -4 -8 -9 -5 -4 3 -24 -3 -44 -13 -20
-10 -34 -15 -31 -10 12 20 -16 7 -31 -13 -8 -13 -19 -23 -23 -23 -4 0 -6 -4
-4 -9 2 -5 -3 -4 -11 3 -12 9 -16 7 -20 -10 -3 -11 -15 -23 -26 -26 -11 -3
-18 -10 -14 -16 4 -7 0 -8 -11 -4 -13 5 -17 3 -13 -7 6 -14 -66 -89 -76 -79
-3 3 -3 -5 0 -18 4 -13 2 -20 -3 -16 -6 3 -11 -4 -11 -15 -1 -12 -8 -25 -15
-29 -10 -7 -10 -9 2 -9 9 0 11 -3 5 -8 -12 -8 -35 -48 -35 -59 0 -5 5 -1 10 7
6 9 10 10 10 3 0 -6 -5 -15 -10 -18 -16 -10 -14 -1085 3 -1085 8 0 7 -4 -3
-10 -13 -9 -13 -10 0 -10 13 0 13 -1 0 -10 -10 -6 -11 -10 -2 -10 9 0 12 -52
12 -225 0 -173 3 -225 13 -225 8 0 7 -4 -3 -10 -10 -6 -11 -10 -2 -10 9 0 12
-29 12 -110 0 -81 3 -110 13 -110 8 0 7 -4 -3 -10 -10 -6 -11 -10 -2 -10 8 0
12 -23 12 -81 0 -61 3 -78 13 -73 8 5 8 2 -2 -9 -9 -11 -10 -17 -2 -17 7 0 11
-25 11 -71 0 -53 3 -68 13 -63 8 5 8 2 -2 -9 -9 -11 -10 -17 -2 -17 7 0 11
-21 11 -54 0 -30 5 -58 10 -61 6 -3 10 -12 10 -18 0 -7 -4 -6 -10 3 -6 9 -10
10 -10 3 0 -6 4 -15 10 -18 6 -3 10 -26 10 -51 0 -28 4 -44 13 -44 8 0 7 -4
-3 -10 -10 -6 -11 -10 -2 -10 7 0 12 -15 12 -39 0 -22 5 -42 13 -44 9 -4 9 -6
-1 -6 -11 -1 -10 -4 1 -15 8 -9 13 -28 11 -46 -2 -17 0 -29 5 -26 5 3 9 -13 9
-36 1 -22 7 -45 14 -50 10 -6 10 -10 -2 -18 -10 -6 -11 -10 -2 -10 6 0 12 -11
12 -25 0 -14 6 -25 13 -25 8 0 7 -4 -3 -10 -10 -6 -11 -10 -2 -10 7 0 12 -13
12 -30 0 -17 5 -30 13 -30 8 0 7 -4 -3 -10 -10 -6 -11 -10 -2 -10 6 0 12 -9
12 -21 0 -12 4 -17 11 -13 7 4 7 -1 -1 -16 -8 -15 -8 -20 -1 -16 7 5 11 -1 11
-14 0 -14 4 -19 13 -14 9 6 9 4 -1 -8 -7 -9 -9 -18 -5 -20 4 -1 16 -17 25 -34
13 -23 14 -34 6 -42 -8 -8 -7 -13 5 -18 9 -3 17 -10 17 -16 0 -5 -6 -6 -12 -2
-7 4 -6 -1 3 -12 9 -10 15 -27 14 -37 -2 -12 1 -17 9 -14 9 4 11 -2 8 -19 -2
-14 0 -24 7 -24 7 0 10 -4 6 -9 -3 -5 -1 -12 5 -16 6 -4 8 -11 5 -16 -4 -5 -2
-9 4 -9 5 0 8 -11 6 -25 -1 -16 3 -25 11 -25 17 0 19 -20 2 -21 -7 0 -3 -4 10
-9 12 -5 22 -15 22 -22 0 -9 -3 -9 -10 2 -7 11 -10 11 -10 2 0 -7 10 -17 23
-22 13 -5 16 -9 7 -10 -9 0 -11 -3 -5 -8 11 -8 18 -29 17 -54 0 -9 8 -20 19
-23 16 -5 18 -10 8 -21 -9 -11 -7 -16 12 -23 13 -5 18 -10 11 -10 -16 -1 -10
-25 6 -27 25 -3 27 -5 12 -14 -13 -9 -10 -15 15 -38 17 -15 25 -23 18 -18 -10
6 -12 4 -7 -7 3 -9 14 -19 24 -22 11 -4 16 -14 14 -30 -1 -17 3 -25 13 -25 13
0 13 -3 3 -16 -11 -12 -11 -15 1 -12 9 2 13 -4 11 -16 -2 -11 1 -15 7 -11 6 3
11 -1 11 -9 0 -9 6 -16 13 -16 8 0 7 -4 -3 -11 -12 -9 -11 -10 7 -6 20 4 21 3
12 -15 -7 -12 -7 -18 -1 -14 12 7 25 -21 16 -35 -3 -5 0 -8 8 -7 8 2 12 -4 10
-16 -2 -11 1 -15 7 -11 6 3 11 1 11 -5 0 -7 6 -10 13 -7 10 4 12 -3 9 -25 -3
-21 -1 -29 7 -24 6 4 15 -3 21 -18 5 -14 15 -26 21 -26 8 0 7 -6 -2 -17 -10
-11 -10 -14 -1 -9 7 4 12 2 12 -4 0 -6 5 -8 13 -4 7 5 6 0 -3 -11 -9 -11 -10
-16 -2 -11 7 4 12 2 12 -4 0 -6 4 -8 10 -5 6 3 10 -2 10 -12 0 -10 11 -27 25
-37 13 -10 22 -23 19 -28 -3 -5 4 -17 15 -27 23 -20 29 -37 9 -25 -9 5 -9 2 1
-9 7 -9 19 -17 25 -17 6 0 4 5 -4 10 -8 5 -10 10 -4 10 6 0 18 -8 25 -17 10
-11 10 -14 2 -9 -7 4 -13 2 -13 -3 0 -6 5 -11 11 -11 5 0 7 -4 4 -10 -3 -6 1
-10 10 -10 9 0 13 -4 10 -10 -3 -6 -1 -10 5 -10 6 0 18 -7 26 -15 16 -15 6
-21 -12 -7 -5 4 4 -5 19 -20 16 -15 26 -32 22 -37 -3 -7 0 -8 9 -5 9 3 16 1
16 -5 0 -6 -6 -11 -12 -12 -7 0 2 -7 20 -15 17 -8 32 -17 32 -20 0 -3 -6 -2
-12 1 -7 4 -2 -3 12 -14 19 -16 22 -23 12 -30 -11 -7 -11 -9 1 -14 8 -3 19 -1
25 5 7 7 10 3 8 -15 -2 -18 1 -24 10 -20 8 3 18 -5 23 -18 6 -14 10 -18 11 -9
1 10 4 9 9 -5 5 -11 12 -20 18 -20 5 0 17 -8 27 -18 10 -9 13 -17 7 -17 -5 0
-15 8 -20 18 -6 9 -11 12 -11 6 0 -7 13 -22 29 -35 21 -16 26 -26 18 -31 -7
-5 -2 -8 13 -8 20 0 22 -2 10 -10 -12 -8 -10 -10 10 -10 20 0 22 -2 10 -11
-12 -9 -11 -10 8 -6 12 3 20 1 17 -3 -3 -5 3 -14 12 -20 15 -9 14 -10 -7 -5
-19 5 -22 4 -10 -4 8 -6 24 -11 35 -11 17 0 17 -2 5 -10 -12 -8 -10 -10 10
-10 20 0 22 -2 10 -11 -12 -9 -10 -10 8 -6 19 5 21 3 11 -9 -9 -11 -7 -14 12
-14 20 0 21 -2 9 -11 -12 -9 -10 -10 8 -6 18 4 21 2 13 -7 -13 -16 5 -36 32
-36 16 0 17 -3 8 -14 -10 -12 -8 -14 11 -9 18 4 20 3 8 -6 -12 -9 -11 -11 8
-11 12 0 22 -4 22 -10 0 -5 10 -10 23 -10 18 0 19 -2 7 -10 -13 -8 -12 -10 4
-10 12 0 16 -5 13 -14 -4 -10 -1 -13 8 -9 9 3 18 -4 24 -18 11 -28 61 -77 61
-60 0 6 -11 18 -25 27 -14 9 -25 20 -25 25 0 16 70 -53 71 -70 0 -9 3 -11 5
-4 4 8 11 7 24 -4 10 -9 16 -21 13 -26 -3 -5 4 -6 18 -2 24 7 24 7 4 -9 -11
-9 -15 -16 -10 -15 26 4 46 -2 40 -11 -8 -13 17 -8 28 5 5 6 5 0 2 -12 -5 -18
-2 -23 13 -23 11 0 23 -7 26 -16 3 -9 11 -12 18 -8 8 5 9 2 5 -10 -6 -14 -3
-16 13 -11 11 4 20 3 19 -2 -3 -17 1 -33 9 -32 19 3 33 -2 27 -11 -3 -6 -1
-10 5 -10 6 0 8 -5 4 -12 -4 -7 -3 -8 5 -4 6 4 9 12 6 17 -3 5 1 6 9 3 9 -3
13 -10 10 -15 -3 -5 0 -9 6 -9 7 0 20 -10 30 -22 10 -13 26 -23 37 -23 10 0
17 -5 16 -12 -2 -7 4 -10 12 -7 8 4 17 -1 21 -9 3 -9 12 -13 21 -10 10 4 14 2
10 -4 -4 -6 0 -14 9 -17 8 -3 12 -10 9 -16 -3 -5 0 -7 9 -4 15 6 58 -25 51
-36 -2 -4 2 -7 10 -7 11 0 12 4 4 14 -8 9 -8 13 -1 13 6 0 14 -9 17 -21 5 -15
13 -19 27 -16 15 4 17 3 8 -8 -9 -11 -6 -13 14 -11 18 2 30 -4 41 -20 9 -13
22 -24 31 -24 9 0 12 -5 8 -12 -5 -9 -2 -9 9 1 13 10 17 10 17 1 0 -7 7 -10
14 -7 10 4 13 1 9 -9 -4 -10 2 -14 22 -14 14 0 24 -4 21 -8 -2 -4 5 -9 16 -9
12 -1 24 -6 27 -11 3 -5 14 -8 24 -6 15 2 16 0 5 -14 -10 -12 -10 -14 0 -8 6
4 12 3 12 -2 0 -6 9 -8 20 -5 12 3 20 0 20 -6 0 -7 5 -9 12 -5 7 5 9 2 6 -8
-4 -8 0 -15 8 -15 7 0 11 4 8 9 -3 4 0 8 5 8 6 0 11 -5 11 -11 0 -6 7 -9 15
-5 8 3 14 2 14 -2 -4 -22 4 -29 26 -27 14 2 25 0 25 -5 0 -5 11 -7 25 -5 19 2
23 -1 15 -10 -7 -8 -6 -12 3 -12 6 0 19 -3 27 -5 8 -3 12 -3 8 -1 -5 3 -8 10
-8 16 0 6 11 0 24 -13 14 -12 31 -20 39 -17 9 3 14 -1 13 -11 -1 -12 8 -17 34
-17 23 -1 34 -5 32 -14 -1 -7 2 -10 7 -7 5 4 12 0 14 -6 3 -7 6 -4 6 6 1 20 1
20 16 0 8 -10 15 -15 15 -11 0 5 10 1 21 -7 12 -8 28 -12 35 -9 8 3 14 -1 14
-8 0 -12 2 -12 9 -1 7 11 11 11 23 -2 9 -8 19 -12 22 -8 4 3 11 0 16 -8 8 -12
10 -12 10 -1 0 11 3 11 15 1 8 -6 19 -9 25 -5 9 6 15 -8 11 -28 -1 -5 3 -6 9
-2 6 3 8 11 5 16 -3 5 1 6 9 3 9 -3 16 -10 16 -16 0 -5 6 -5 17 0 12 7 21 5
32 -7 9 -9 12 -10 6 -2 -9 12 -7 12 13 2 13 -7 26 -10 29 -7 4 3 12 1 20 -5
10 -9 13 -8 13 0 0 7 5 9 10 6 6 -4 7 -12 3 -18 -4 -8 -1 -7 9 1 13 10 18 10
24 1 5 -8 3 -9 -6 -4 -9 5 -11 4 -6 -3 5 -9 13 -9 26 -2 13 7 21 7 25 0 3 -5
17 -10 31 -10 13 0 24 -5 24 -10 0 -7 6 -7 19 0 14 7 20 7 23 -2 2 -6 20 -12
39 -13 19 -2 36 -3 39 -5 12 -6 36 -5 47 3 6 4 14 3 19 -4 5 -8 3 -9 -6 -4 -8
5 -11 4 -7 -3 4 -5 17 -8 29 -4 14 3 19 2 14 -6 -4 -7 -3 -12 3 -12 5 0 12 4
15 9 3 4 18 6 33 4 16 -2 39 -5 53 -6 14 -1 31 -8 39 -15 9 -9 17 -10 25 -3 9
7 16 7 24 -1 9 -9 12 -9 12 0 0 10 5 10 20 2 14 -8 20 -8 20 0 0 6 7 4 16 -4
19 -19 28 -21 18 -3 -4 6 2 4 13 -6 14 -12 23 -15 28 -7 3 5 11 8 16 4 6 -3
34 -7 63 -8 28 -1 58 -6 66 -11 21 -13 40 -15 40 -4 0 6 8 5 20 -1 11 -6 20
-7 20 -2 0 10 36 9 46 -1 4 -4 18 -4 32 0 19 4 23 3 17 -7 -5 -8 -4 -11 2 -7
6 4 31 3 56 -2 30 -5 49 -5 56 2 8 8 11 7 11 -3 0 -9 3 -11 10 -4 6 6 35 7 70
4 35 -3 64 -2 70 4 7 7 10 6 10 -3 0 -7 5 -9 11 -5 17 10 89 11 89 0 0 -4 7
-6 15 -2 8 3 15 1 15 -4 0 -5 6 -7 14 -4 8 3 24 1 35 -6 16 -8 21 -8 21 2 0 9
3 9 12 0 7 -7 17 -8 29 -2 12 7 20 6 24 0 5 -8 11 -7 21 1 11 9 14 9 14 -1 0
-10 3 -10 14 -1 10 9 16 9 21 1 5 -8 10 -8 20 0 9 8 15 8 20 0 4 -7 12 -7 25
0 13 7 21 7 25 0 5 -8 11 -7 21 1 11 9 14 9 14 -1 0 -10 3 -10 14 -1 10 9 16
9 21 1 5 -8 10 -8 20 0 9 8 15 8 20 0 4 -7 12 -7 25 0 13 7 21 7 25 0 5 -8 11
-7 21 1 11 9 14 9 14 -1 0 -10 3 -10 14 -1 10 9 16 9 21 1 5 -8 10 -8 20 0 9
8 15 8 20 0 4 -7 12 -7 25 0 13 7 21 7 25 0 5 -8 11 -8 20 0 10 8 15 8 20 0 5
-8 11 -8 21 1 11 9 14 9 14 -1 0 -9 3 -10 13 -1 8 6 17 8 21 4 10 -10 46 -11
46 -1 0 5 9 4 20 -2 11 -6 20 -7 20 -2 0 10 30 9 47 -1 6 -4 15 -3 18 3 5 8
12 7 22 -2 17 -13 20 -13 40 3 7 7 14 6 18 -1 4 -6 12 -7 23 -1 11 6 24 6 35
0 11 -7 17 -6 17 1 0 7 6 8 17 1 10 -5 26 -5 40 0 15 5 23 5 23 -2 0 -6 6 -7
13 -2 6 4 21 9 32 10 11 2 22 8 23 13 2 6 8 7 13 4 12 -7 178 -8 186 -1 3 3
16 2 29 -3 16 -6 24 -6 24 1 0 6 7 6 20 -1 16 -8 21 -6 31 11 7 14 14 18 20
12 6 -6 27 -7 50 -3 22 4 42 3 45 -1 3 -5 14 -4 25 1 13 8 19 7 19 0 0 -7 6
-8 19 0 14 7 22 7 26 0 5 -8 11 -8 19 -1 9 7 16 7 24 -1 9 -9 12 -9 12 1 0 7
6 11 14 8 8 -3 17 0 20 8 3 10 14 11 40 5 21 -4 39 -4 42 1 3 6 12 5 22 0 12
-7 22 -5 35 6 14 13 20 14 30 4 9 -10 9 -11 -3 -8 -8 2 -12 2 -8 0 12 -7 23
-4 24 7 1 6 2 12 3 15 0 3 10 1 21 -5 15 -8 20 -8 20 2 0 9 3 9 12 0 7 -7 17
-8 30 -1 13 7 18 6 18 -2 0 -7 9 -4 22 7 12 10 18 13 14 7 -5 -9 -2 -11 8 -7
9 3 13 11 10 16 -4 6 1 6 13 -1 14 -7 23 -7 30 0 7 7 13 7 17 1 4 -7 16 -6 33
3 15 8 30 12 35 9 4 -3 8 0 8 7 0 9 3 10 11 2 7 -7 22 -7 52 2 23 7 52 11 65
10 12 -1 22 2 22 6 0 4 12 6 26 4 15 -1 28 3 31 12 4 9 8 11 12 4 5 -7 15 -6
33 4 15 7 36 11 48 8 11 -3 20 -1 20 5 0 6 9 8 20 5 11 -3 20 0 20 6 0 6 5 11
11 11 5 0 7 -4 4 -10 -3 -6 1 -7 9 -4 9 3 16 10 16 16 0 5 5 6 10 3 6 -3 15
-3 22 1 7 4 26 9 42 9 16 1 32 7 34 14 3 9 7 9 18 0 11 -9 14 -9 14 0 0 7 5 9
10 6 6 -3 10 -1 10 5 0 6 5 8 10 5 6 -3 10 0 10 7 0 9 3 9 10 -2 6 -10 10 -11
10 -2 0 6 9 12 20 12 12 0 20 7 21 18 0 15 1 15 8 -2 6 -16 9 -17 22 -4 8 8
24 14 36 13 13 -1 19 3 16 8 -4 6 0 8 10 4 9 -3 18 1 21 10 5 13 9 13 23 2 12
-10 14 -10 9 -1 -5 8 0 12 14 12 12 0 19 4 15 9 -3 5 0 13 6 17 8 5 9 3 4 -5
-5 -9 -2 -12 11 -9 11 2 19 9 19 16 0 12 10 17 23 9 4 -2 0 -2 -8 0 -12 3 -13
2 -2 -9 11 -11 16 -10 26 4 7 10 16 15 19 11 4 -3 7 -2 7 4 0 6 8 10 18 9 9 0
16 4 15 9 -1 6 13 10 30 9 20 0 39 7 50 20 10 12 15 14 11 6 -7 -13 -5 -13 9
-1 9 7 23 11 31 8 11 -4 13 -1 9 10 -5 12 -2 15 11 10 12 -5 19 0 26 19 6 14
14 22 20 19 5 -3 10 -8 10 -11 0 -3 -5 -2 -12 2 -7 4 -8 3 -4 -4 5 -9 12 -8
26 0 14 9 16 14 7 20 -18 11 1 10 23 -2 16 -8 22 -6 36 15 9 14 21 22 27 18 6
-4 8 0 4 10 -4 11 -1 15 14 12 12 -2 23 4 30 17 9 17 13 18 20 7 7 -11 10 -9
15 9 5 17 10 20 19 12 9 -8 14 -6 19 7 6 15 8 15 16 3 8 -12 10 -9 10 10 0 20
2 22 10 10 8 -13 10 -13 10 1 0 9 9 24 20 34 11 10 20 15 20 10 0 -4 -8 -14
-17 -22 -16 -12 -15 -12 9 -2 15 7 25 16 22 20 -3 5 1 9 9 9 8 0 18 7 21 16 3
8 11 12 17 8 7 -4 18 1 26 12 7 10 21 19 31 19 10 0 16 7 16 17 -1 14 2 15 16
8 24 -13 39 -13 20 0 -13 8 -11 11 8 16 12 4 22 13 22 22 0 12 3 13 12 4 7 -7
17 -12 22 -12 6 0 4 5 -4 10 -12 8 -11 11 8 16 18 5 20 9 10 15 -9 6 -7 9 10
9 14 0 22 6 22 17 0 13 3 14 12 5 7 -7 17 -12 22 -12 6 0 5 4 -3 9 -10 7 -7
12 15 23 16 8 28 21 28 31 -1 13 2 14 17 7 14 -8 21 -6 29 10 6 11 8 26 4 33
-6 9 -4 9 8 -1 13 -10 17 -10 21 2 3 8 16 16 29 18 13 2 28 15 36 31 10 20 19
27 32 24 12 -3 17 0 14 8 -3 6 3 18 12 26 10 8 15 9 11 2 -4 -6 -2 -15 4 -19
7 -4 9 -3 5 4 -3 6 1 17 9 25 8 9 15 20 15 26 0 6 7 8 15 5 11 -5 14 -2 9 12
-4 11 -3 16 1 12 5 -5 13 2 20 15 6 13 20 22 32 21 16 0 20 5 18 23 -2 20 0
21 13 11 13 -11 14 -11 7 1 -6 11 -4 13 10 7 16 -6 16 -4 4 11 -7 10 -10 15
-5 11 9 -8 36 15 36 30 0 5 8 16 18 23 15 13 16 12 3 -4 -7 -9 -9 -17 -4 -17
5 0 16 15 24 33 10 23 20 32 36 31 19 0 21 2 10 15 -9 12 -9 13 1 7 7 -4 12
-2 12 4 0 6 5 8 12 4 8 -5 9 0 5 15 -5 19 -3 20 11 9 12 -10 14 -10 8 0 -4 7
-2 12 4 12 6 0 8 5 5 10 -3 6 1 10 10 10 10 0 13 -5 9 -12 -4 -7 -3 -8 4 -4 9
5 9 13 2 26 -11 21 4 38 16 19 5 -8 3 -9 -6 -4 -9 5 -11 4 -6 -4 4 -6 12 -9
17 -5 5 3 6 10 3 16 -5 8 -1 9 11 4 16 -6 16 -4 4 11 -9 11 -10 14 -1 9 7 -4
12 -2 12 4 0 6 5 8 10 5 6 -3 10 1 10 10 0 10 -5 13 -12 9 -7 -4 -8 -3 -4 5 5
8 12 9 20 2 8 -7 16 -4 24 10 7 11 17 17 22 14 6 -4 7 1 3 11 -4 12 -3 15 5
10 8 -5 10 -2 6 8 -4 11 0 16 12 16 9 0 14 3 11 7 -4 3 -2 12 4 20 9 10 8 13
-1 13 -8 0 -10 3 -7 6 4 4 14 1 23 -7 16 -13 16 -12 5 9 -12 23 -12 23 11 11
20 -11 21 -10 11 3 -15 18 1 38 29 38 10 0 18 5 18 11 0 5 -6 7 -12 4 -7 -4
-5 0 4 8 10 8 14 18 10 22 -4 5 1 5 10 2 12 -4 15 -2 11 9 -4 11 0 15 12 12
11 -2 19 4 20 15 4 19 -11 23 -18 5 -2 -7 -8 -10 -12 -6 -4 4 8 16 26 27 19
12 30 21 25 21 -6 0 -1 6 9 14 11 8 23 13 26 10 3 -2 4 7 2 20 -3 16 2 28 16
38 11 8 18 18 13 23 -4 4 1 5 10 2 20 -7 35 9 16 16 -10 4 -10 6 0 6 7 1 10 6
6 13 -5 7 -2 9 8 5 12 -4 15 0 13 19 -2 18 1 22 10 14 8 -7 12 -5 13 5 1 8 3
22 4 30 1 10 5 12 13 5 9 -8 12 -4 10 14 -2 19 1 23 13 19 10 -4 13 -2 8 5 -4
7 -1 15 8 18 22 8 20 25 -1 18 -17 -5 -17 -5 0 6 9 6 22 8 29 4 7 -4 8 -3 4 5
-4 6 -2 18 4 26 7 8 10 21 7 29 -4 10 -1 13 9 9 13 -5 20 14 15 41 -1 5 6 3
15 -5 13 -10 16 -10 10 -1 -4 7 -2 19 4 27 10 12 10 15 -1 15 -11 0 -11 2 1 9
8 6 17 8 22 5 12 -8 28 32 17 44 -5 7 -6 10 -3 7 4 -3 13 0 21 6 9 8 10 15 3
24 -8 10 -8 15 1 21 8 5 9 3 4 -7 -8 -12 -6 -12 8 0 14 11 15 17 5 30 -7 9 -8
13 -4 9 5 -4 15 -3 23 3 11 10 11 15 1 27 -8 10 -8 13 -2 9 7 -4 18 1 25 10
12 14 12 16 -1 9 -8 -4 -4 3 10 15 19 17 20 21 6 15 -15 -5 -17 -4 -8 7 7 8 8
17 4 21 -4 4 -2 7 3 6 6 -1 17 -2 25 -1 13 1 13 2 0 11 -13 9 -13 10 0 10 13
0 13 1 0 10 -13 9 -13 10 0 11 8 1 18 1 21 1 3 -1 6 5 6 13 0 8 -5 11 -11 8
-6 -4 -5 1 3 10 7 9 18 14 25 10 6 -4 4 2 -4 12 -9 11 -10 16 -2 11 7 -4 12
-1 12 9 0 9 5 13 10 10 6 -4 10 -3 9 2 -1 4 0 11 1 16 1 4 4 15 5 25 5 33 17
62 24 57 4 -2 8 2 8 10 0 8 -5 15 -11 15 -6 1 -1 6 10 13 12 7 20 20 19 30 -2
9 2 17 8 17 5 0 7 3 4 7 -4 3 1 15 10 25 16 18 16 19 -3 13 -12 -4 -10 -1 6 9
16 10 19 15 10 16 -9 0 -11 3 -5 8 15 11 37 53 31 60 -3 3 -6 -1 -6 -8 0 -7
-3 -11 -6 -7 -3 3 3 19 14 35 17 23 19 32 9 42 -9 10 -9 11 1 6 7 -4 12 -1 12
8 0 8 6 17 13 19 9 4 8 6 -2 6 -10 1 -11 4 -2 15 6 8 11 18 10 22 -4 25 2 54
10 49 6 -3 8 4 6 15 -2 11 0 20 5 20 5 0 7 9 5 20 -2 11 0 20 6 20 5 0 9 11 9
24 0 14 5 28 10 31 8 5 7 12 -2 23 -11 13 -11 14 1 7 11 -6 13 -3 9 13 -4 12
-2 22 2 22 5 0 7 9 5 20 -2 13 0 18 7 14 7 -4 9 9 7 38 -3 35 -1 44 10 40 11
-4 11 -1 1 18 -8 15 -8 20 -1 16 7 -5 11 2 11 18 0 14 6 26 13 26 8 0 7 4 -3
10 -11 7 -12 12 -3 18 6 4 13 33 14 65 1 31 6 57 11 57 4 0 8 20 8 44 0 25 5
48 10 51 6 3 10 12 10 18 0 7 -4 6 -10 -3 -6 -9 -10 -10 -10 -3 0 6 5 15 11
19 6 3 9 17 6 30 -2 13 -1 24 3 24 4 0 5 11 2 25 -3 17 0 25 9 25 11 0 11 2
-1 10 -12 8 -13 12 -1 19 9 6 12 25 10 65 -2 31 -1 56 3 56 4 0 5 9 3 20 -2
11 0 20 6 20 5 0 9 40 9 90 0 65 3 90 13 90 8 0 7 4 -3 10 -10 6 -11 10 -2 10
9 0 12 31 12 121 0 66 4 118 8 115 5 -3 9 1 9 9 0 8 -5 15 -11 15 -6 0 -5 4 2
9 10 6 13 35 10 119 -2 61 -1 110 2 110 18 -1 21 4 9 19 -10 11 -10 14 -1 9
18 -11 18 1334 0 1353 -10 11 -10 13 0 7 20 -12 14 5 -10 25 -11 11 -16 19 -9
19 7 0 9 5 6 10 -4 6 -10 8 -15 5 -4 -3 -11 2 -14 11 -3 8 -2 13 2 10 5 -3 9
1 9 9 0 8 -3 13 -6 11 -11 -7 -28 19 -25 37 2 15 0 16 -14 5 -12 -10 -14 -10
-8 0 4 7 1 12 -8 12 -9 0 -16 5 -16 11 0 5 5 7 12 3 7 -4 8 -3 4 4 -4 6 -14 8
-23 5 -12 -5 -14 -3 -8 7 6 10 4 12 -8 7 -11 -4 -14 -2 -10 9 3 9 -1 14 -13
14 -16 0 -17 2 -4 10 13 8 12 10 -3 10 -10 0 -16 4 -13 9 3 5 -1 12 -10 15 -8
3 -12 2 -9 -4 3 -6 -1 -7 -9 -4 -9 3 -14 10 -11 14 3 4 -2 10 -9 13 -8 3 -17
1 -20 -6 -2 -7 -5 -4 -5 6 -1 15 -24 23 -53 18 -5 0 -8 7 -9 17 0 11 -2 12 -6
4 -4 -10 -9 -9 -20 5 -8 10 -12 12 -8 6 6 -14 -17 -18 -29 -6 -9 9 -46 11 -46
3 0 -8 -32 -6 -47 3 -6 4 -15 3 -18 -3 -5 -8 -11 -7 -21 1 -11 9 -14 9 -14 0z
m-415 -239 c-3 -3 -11 0 -18 7 -9 10 -8 11 6 5 10 -3 15 -9 12 -12z m-8351
-320 c3 -5 -1 -9 -9 -9 -8 0 -12 4 -9 9 3 4 7 8 9 8 2 0 6 -4 9 -8z m346 -202
c0 -5 -5 -10 -11 -10 -5 0 -7 5 -4 10 3 6 8 10 11 10 2 0 4 -4 4 -10z m695
-408 c-5 -5 -45 22 -45 31 0 4 11 0 24 -10 13 -10 23 -19 21 -21z m4620 -532
c3 -6 -1 -7 -9 -4 -18 7 -21 14 -7 14 6 0 13 -4 16 -10z m3018 -2537 c-3 -7
-6 -13 -8 -13 -2 0 -5 6 -8 13 -3 8 1 14 8 14 7 0 11 -6 8 -14z m-543 -747 c0
-2 -8 -10 -17 -17 -16 -13 -17 -12 -4 4 13 16 21 21 21 13z m-8065 -314 c-3
-3 -11 0 -18 7 -9 10 -8 11 6 5 10 -3 15 -9 12 -12z m7510 -232 c-3 -5 -11
-10 -16 -10 -6 0 -7 5 -4 10 3 6 11 10 16 10 6 0 7 -4 4 -10z m-6925 -232 c0
-6 -6 -5 -15 2 -8 7 -15 14 -15 16 0 2 7 1 15 -2 8 -4 15 -11 15 -16z m315
-196 c-3 -3 -11 0 -18 7 -9 10 -8 11 6 5 10 -3 15 -9 12 -12z m5877 -64 c-7
-7 -12 -8 -12 -2 0 14 12 26 19 19 2 -3 -1 -11 -7 -17z"/>
<path d="M5060 8990 c-9 -6 -10 -10 -3 -10 6 0 15 5 18 10 8 12 4 12 -15 0z"/>
<path d="M5003 8938 c1 -7 -5 -11 -13 -10 -8 2 -12 0 -8 -4 4 -4 2 -14 -4 -23
-7 -9 0 -5 14 8 15 13 25 28 22 32 -8 13 -14 11 -11 -3z"/>
<path d="M5930 8811 c0 -5 5 -13 10 -16 6 -3 10 -2 10 4 0 5 -4 13 -10 16 -5
3 -10 2 -10 -4z"/>
<path d="M13936 8548 c3 -5 10 -6 15 -3 13 9 11 12 -6 12 -8 0 -12 -4 -9 -9z"/>
<path d="M13875 8510 c4 -6 11 -8 16 -5 14 9 11 15 -7 15 -8 0 -12 -5 -9 -10z"/>
<path d="M17975 8181 c-3 -5 -2 -12 3 -15 5 -3 9 1 9 9 0 17 -3 19 -12 6z"/>
<path d="M7160 8086 c0 -2 7 -7 16 -10 8 -3 12 -2 9 4 -6 10 -25 14 -25 6z"/>
<path d="M7560 7866 c0 -2 7 -7 16 -10 8 -3 12 -2 9 4 -6 10 -25 14 -25 6z"/>
<path d="M5170 5661 c0 -6 4 -13 10 -16 6 -3 7 1 4 9 -7 18 -14 21 -14 7z"/>
<path d="M14675 4509 c-4 -6 -5 -12 -2 -15 2 -3 7 2 10 11 7 17 1 20 -8 4z"/>
<path d="M14505 4290 c-3 -5 -1 -10 4 -10 6 0 11 5 11 10 0 6 -2 10 -4 10 -3
0 -8 -4 -11 -10z"/>
<path d="M14185 3950 c-3 -5 -1 -10 4 -10 6 0 11 5 11 10 0 6 -2 10 -4 10 -3
0 -8 -4 -11 -10z"/>
<path d="M14025 3790 c-3 -5 -1 -10 4 -10 6 0 11 5 11 10 0 6 -2 10 -4 10 -3
0 -8 -4 -11 -10z"/>
<path d="M12170 2806 c0 -2 7 -7 16 -10 8 -3 12 -2 9 4 -6 10 -25 14 -25 6z"/>
</g>
</svg>
