<?xml version="1.0" encoding="UTF-8"?><svg id="uuid-ea5bd5d6-b2f5-4d0f-91c5-e4f5b213ad34" xmlns="http://www.w3.org/2000/svg" xmlns:xlink="http://www.w3.org/1999/xlink" viewBox="0 0 425 300"><defs><mask id="uuid-0b3d06f0-92cb-49c0-9e87-ea76600dbcc7" x="213.14" y="216.51" width="150.14" height="61.12" maskUnits="userSpaceOnUse"><g id="uuid-147731b6-bf1c-4278-b1d2-f499b8b06384"><path d="M350.47,219.01s11.93,31.81,8.11,41.53c-5.16,13.17-14.25,11.29-37.96,11.29-26.27,0-44.49-4.54-53.48-3.91-8.99.64-30.8,9.16-35.86,9.72-5.21-2.34,4.71-6.17,4.71-6.17,0,0-14.44,5.5-16.67,2.77-2.23-2.74,10.94-8.68,10.94-8.68,0,0-7.57,1.84-15.18,3-1.26.19-2.3-1.06-1.82-2.24,1.14-2.83,5.59-6.31,15.73-9.48-6.66.46-11.49.96-14.1,1.26-1.02.11-1.71-1.01-1.14-1.86,1.46-2.24,4.56-5.5,10.48-5.97,11.16-.89,25.69-1.75,25.44-3.66l-1.92-4.72c3.31-2.16,5.23-.18,14.56,3.95,9.61,4.26,28.61,5.04,38.54,4.02,9.93-1.02,23.55-4.33,23.55-4.33l-9.79-20.02c8.06-2.63,25.44-8.16,35.86-6.49h0Z" style="fill:#ffb487; stroke-width:0px;"/></g></mask></defs><path d="M392.9,15.05c0,6.93-5.62,12.55-12.55,12.55s-12.55-5.62-12.55-12.55,5.62-12.55,12.55-12.55,12.55,5.62,12.55,12.55Z" style="fill:none; stroke:#ffd652; stroke-width:5px;"/><path d="M393.39,168.07c4.52-11.04,15.05-21.07,8.03,3.01-7.78,26.66,12.65-14.27,19.07-15.55,5.02-1-16.56,33.11,3.51,19.56" style="fill:none; stroke:#83db83; stroke-linecap:round; stroke-linejoin:round; stroke-width:2px;"/><rect x="153.85" y="70.54" width="16.06" height="16.06" rx="4" ry="4" transform="translate(-8.15 137.45) rotate(-44.99)" style="fill:#70b2ff; stroke-width:0px;"/><path d="M317.18,165.62c-4.46,0-8.87-.9-12.24-2.62l.63-1.23c8,4.1,22.8,3.16,28.01-3.74,8.9-11.77,4.76-26.26-12.64-44.31l.99-.96c17.95,18.62,22.12,33.7,12.75,46.1-3.47,4.59-10.55,6.76-17.51,6.76h0ZM292.92,61.28c-3.88,0-8.36-1.91-12.7-5.52-.29-.24-.33-.67-.09-.97,0,0,0,0,0,0,.24-.29.67-.33.97-.09,0,0,0,0,0,0,5.68,4.73,11.51,6.37,15.61,4.38,2.41-1.17,3.81-3.5,3.73-6.23-.14-4.99-4.76-9.87-12.36-13.06-.35-.15-.51-.55-.37-.9.15-.35.55-.51.9-.37,8.12,3.4,13.05,8.74,13.2,14.29.09,3.29-1.59,6.09-4.5,7.5-1.33.64-2.81.95-4.39.95h0ZM226.54,63.75c-2.52,7.85-5.08,15.93-4.6,24.16.48,8.24,4.68,16.79,12.27,20.04,4.32,1.85,9.25,1.81,13.89,1.05,4.41-5.38,6.58-12.54,5.9-19.46-.68-6.93-4.21-13.52-9.59-17.94" style="fill:#ff5773; stroke-width:0px;"/><path d="M234.97,80.65c-9.13-.02-16.71-5.88-17.63-13.64-.81-6.85,3.9-15.54,19.57-19.35.37-.09.74.14.83.51.09.37-.13.74-.5.83,0,0,0,0,0,0-14.8,3.61-19.27,11.59-18.52,17.85.84,7.06,7.83,12.4,16.26,12.42.38,0,.69.31.69.69s-.31.69-.69.69Z" style="fill:#ff5773; stroke-width:0px;"/><path d="M190.66,195.7l-3.06,6.25s-2.89-24.08-3.21-35.03c-.36-12.29.69-13.07-.7-23.92-1.39-10.84-6.18-25.35-9.09-29.8-1.65-2.53-3.11-5.62-4.05-7.83-.68-1.57-2.8-1.78-3.8-.39-.96,1.35-1.69,3.25-1.18,5.71.61,2.88,3.51,7.29,4.51,10.42,1.83,5.71,1.66,7.43,1.66,7.43,0,0-5.97-3.11-11.41-.03-5.11,2.9-3.88,5.96-3.88,5.96,0,0-5.65,1.74-5.57,5.19-2.97,2.01-4.21,5.89.19,12.43,3.52,5.23,8.24,6.92,8.24,6.92,0,0,3.87,6.7,3.87,14.25,0,21.04-4.49,58.38,3.85,70.21,8.17,11.58,28.55,9.01,50.19-29.56,19.47-34.71-5.63-26.98-5.63-26.98l-20.93,8.74h0Z" style="fill:#ffb487; stroke-width:0px;"/><path d="M262.13,53.69c-2.56-23.86,29.91-23.8,34.17-4.59,4.1,18.51-27.51,22.63-36.85,8.25" style="fill:#ff5773; stroke-width:0px;"/><path d="M265.24,57.93c12.93-4.42,27.8.59,29.93,15.73,3.12,22.09,10.71,26.53,21.17,34.06,19.36,13.95,25.75,54.79-17.91,55.37-55.67.74-51.08-10.77-56-11.82-9.57-2.05-30.42-28.6-3.35-48.55,26.81-19.75,26.16-44.78,26.16-44.78h0Z" style="fill:#ff5773; stroke-width:0px;"/><path d="M229.79,177.6c.54,5.99,8.68-.8,11.47.18,6.95,2.45,29.33-22.36,35.37-30.29-2.02-9.8-1.26-37.1-1.26-37.1l-27.41,15.12-1.5,16.1c-.07,2.35-15.15,5.95-16.01,7-.58,2.49-2.39,28.69-.66,28.99h0Z" style="fill:#ffb487; stroke-width:0px;"/><path d="M272.22,118.53c-.11-.87-.21-1.68-.3-2.42l-10.22,2.13-13.73,6.37-.66,8c13.38-.9,21.64-9.85,24.91-14.09h0Z" style="fill:#d47455; stroke-width:0px;"/><path d="M240.33,70.6c-5.5,5.75-8.96,21.7-9.45,29.36-.44,5.76,2.25,20,15.24,24.87,12.34,4.63,28.6-3.46,32.82-15.85l4.96-13.27s-8.87,3.48-6.94-19.02c-11.53-9.07-29.43-15.11-36.63-6.09h0Z" style="fill:#ffb487; stroke-width:0px;"/><path d="M264.9,96.18c.31-2.24-.7-4.23-2.25-4.45s-3.05,1.43-3.36,3.68c-.31,2.24.7,4.23,2.25,4.45,1.55.21,3.06-1.43,3.36-3.68Z" style="fill:#252833; stroke-width:0px;"/><path d="M269.15,91.42c-.35.53-.76,1.01-1.23,1.43-.48.44-1.01.82-1.58,1.14-.59.33-1.22.58-1.88.75-.67.19-1.36.26-2.06.29-.64.03-1.18-.46-1.22-1.1,0,0,0,0,0,0-.03-.64.46-1.19,1.1-1.22.12,0,.24,0,.36.04h.03c.51.15,1.04.27,1.59.29.56.04,1.12,0,1.67-.11.58-.11,1.14-.29,1.67-.54.55-.25,1.07-.57,1.55-.95h0ZM241.28,92.72c.14-2.26-1.01-4.17-2.57-4.27-1.56-.1-2.94,1.65-3.09,3.91-.14,2.26,1,4.17,2.57,4.27s2.94-1.65,3.09-3.91Z" style="fill:#252833; stroke-width:0px;"/><path d="M233.26,87.13c.3.44.7.79,1.11,1.1.42.3.87.54,1.32.73.46.19.94.33,1.42.43.24.06.49.08.72.12l.73.07h.04c.64.06,1.12.63,1.07,1.27-.06.64-.62,1.12-1.27,1.07-.15-.01-.29-.05-.42-.12l-.79-.39c-.26-.15-.51-.28-.76-.44-.49-.31-.95-.66-1.38-1.06-.42-.39-.79-.82-1.11-1.29-.31-.47-.57-.97-.69-1.49h0Z" style="fill:#252833; stroke-width:0px;"/><path d="M246.29,103.03c-.1,0-.2-.02-.29-.06-.91-.41-3.06-1.56-3.3-3.22-.08-.53.02-1.32.91-2.09,1.56-1.36,4.12-5.21,4.32-9.76.02-.38.34-.67.72-.66s.67.34.66.72c-.22,5.02-2.99,9.17-4.79,10.74-.51.44-.46.75-.45.85.09.64,1.13,1.53,2.51,2.16.35.16.5.57.35.92-.11.24-.36.4-.62.4h0ZM249.27,110.39c-1.96,0-3.71-.59-4.56-1.18-.42-.29-.52-.86-.24-1.28.29-.42.86-.53,1.28-.24.98.67,5.55,2.06,8.33-1.28.33-.39.9-.44,1.3-.12.39.33.44.9.12,1.3-1.76,2.12-4.12,2.8-6.22,2.8h0Z" style="fill:#d47455; stroke-width:0px;"/><path d="M244.37,83.19c-.16,0-.31-.06-.44-.16-3.83-3.13-9-2.26-9.06-2.25-.38.05-.73-.22-.78-.59-.05-.36.19-.69.54-.77.24-.04,5.85-.98,10.16,2.54.29.24.34.68.1.97-.12.17-.32.26-.53.26h0Z" style="fill:#252833; stroke-width:0px;"/><path d="M246.46,141.62c-8.51,4.26-29.97.72-40.87,22.49-10.9,21.77-15.67,33.33-15.67,33.33l24.39,17.06,12.29,30.7,102.73,22.98,21.13-49.16s-12.77-38.68-24.49-52.76c-11.72-14.08-45.23-25.34-49.35-26.02-22.66,13.21-30.17,1.38-30.17,1.38h0Z" style="fill:#2787f5; stroke-width:0px;"/><path d="M314.6,226.18c-.27,0-.52-.16-.63-.41l-15.1-33.63c-.14-.35.04-.75.39-.89.33-.13.7.01.87.33l15.1,33.63c.16.35,0,.75-.35.91-.09.04-.18.07-.28.06ZM214.48,215.44h0c-.38,0-.68-.32-.68-.7,0,0,0,0,0,0,.16-10.73,1.74-16.29,4.13-24.71.61-2.16,1.3-4.6,2.03-7.33.12-.36.51-.56.87-.45.33.11.54.45.46.79-.65,2.46-1.33,4.91-2.04,7.36-2.36,8.32-3.93,13.81-4.08,24.35-.01.38-.32.68-.69.68h0Z" style="fill:#135094; stroke-width:0px;"/><path d="M249.2,206.66c-.33,0-.62-.24-.68-.57-3.4-18.91,1.02-38,5.29-56.46l.25-1.09-.12.07c-1.86,1.01-3.61,1.97-6.59,2.13-5.05.29-7.59-1.78-8.29-3.8-.59-1.72.04-3.53,1.59-4.6,2.52-1.74,7.64-1.56,14.52,4.08.75-.36,1.51-.67,2.3-.94,7.05-2.1,11.66-1.58,13.34,1.51.86,1.59,1,2.88.4,3.83-.67,1.07-2.17,1.56-4.47,1.44-3.54-.17-8.95-1.87-11.28-3.64l-.31,1.33c-4.24,18.32-8.62,37.27-5.28,55.91.07.37-.18.73-.55.8,0,0,0,0,0,0-.04,0-.08,0-.12,0h0ZM256.19,147.46c1.67,1.3,6.78,3.24,10.61,3.42,1.69.08,2.87-.21,3.24-.8.39-.62-.03-1.66-.45-2.43-1.68-3.1-7.29-2.17-11.71-.85-.61.21-1.17.43-1.69.67h0ZM244.19,142.71c-1.15,0-2.07.29-2.75.75-1.05.73-1.46,1.88-1.07,3.02.53,1.55,2.62,3.12,6.9,2.87,2.68-.15,4.22-.99,6.01-1.97.18-.1.36-.2.55-.3-4.03-3.21-7.29-4.38-9.63-4.38h0Z" style="fill:#393b52; stroke-width:0px;"/><path d="M257.11,193.54c-.38,0-.68-.3-.69-.68-.1-7.28-.36-14.85-.62-22.18-.26-7.33-.53-14.92-.62-22.21,0-.38.3-.69.68-.7.38,0,.69.3.7.68.1,7.28.36,14.86.62,22.18.26,7.33.53,14.91.62,22.21,0,.38-.3.69-.68.7h-.01Z" style="fill:#393b52; stroke-width:0px;"/><path d="M165.91,151.95c-.38,0-.81-.08-1.31-.29-3.95-1.67-8.31-15.02-8.79-16.55-.12-.36.08-.75.44-.86,0,0,0,0,0,0,.36-.12.75.08.86.44,0,0,0,0,0,0,1.26,3.96,5.16,14.49,8.02,15.7.81.35,1.18.12,1.3.04.79-.5,1.02-2.17,1.05-2.73.02-.38.34-.67.72-.66.38.02.67.33.66.71,0,.29-.15,2.86-1.68,3.83-.38.24-.82.37-1.26.36Z" style="fill:#d47455; stroke-width:0px;"/><path d="M160.13,154.57c-.27,0-.54-.02-.81-.05-1.94-.21-6.42-4.57-8.5-14.14-.08-.37.15-.73.52-.82,0,0,0,0,0,0,.37-.08.74.15.82.52,0,0,0,0,0,0,2.05,9.43,6.33,12.96,7.3,13.06,2.19.23,3.48-.63,4.04-2.73.1-.37.47-.59.84-.49,0,0,0,0,0,0,.37.1.59.47.49.84,0,0,0,0,0,0-.47,1.77-1.68,3.79-4.71,3.79h0Z" style="fill:#d47455; stroke-width:0px;"/><path d="M156.74,157.51h-.11c-.38,0-.68-.32-.68-.7,0,0,0,0,0,0,0-.38.32-.7.7-.68.49,0,1.21-.07,1.77-.47.46-.34.72-.87.65-1.34-.06-.38.2-.73.58-.78,0,0,0,0,0,0,.38-.05.73.21.78.58.14.97-.34,2.01-1.21,2.65-.66.49-1.52.74-2.5.74h0Z" style="fill:#d47455; stroke-width:0px;"/><path d="M188.15,201.96c1.56,4.07,2.1,8.46,1.6,12.8l-1.6-12.8Z" style="fill:#ffb487; stroke-width:0px;"/><path d="M189.75,215.44s-.06,0-.08,0c-.38-.05-.65-.39-.6-.77,0,0,0,0,0,0,.49-4.22-.04-8.5-1.56-12.47-.13-.36.06-.75.42-.88.34-.12.72.05.86.38,1.6,4.18,2.16,8.68,1.64,13.12-.04.35-.33.61-.68.61h0Z" style="fill:#d47455; stroke-width:0px;"/><path d="M165.58,51.91h-.04c-.51-.02-.9-.45-.88-.96l1.06-23.99c.02-.51.44-.91.95-.89.51.02.91.44.89.95,0,0,0,.01,0,.02l-1.06,23.99c-.02.49-.43.88-.92.88h0ZM184.2,63.47c-.51,0-.92-.41-.92-.92,0-.28.12-.54.34-.71l9.54-7.69c.41-.3.98-.21,1.28.2.28.38.22.92-.13,1.23l-9.54,7.69c-.16.13-.36.2-.57.2h0ZM138.1,61.05c-.22,0-.43-.08-.6-.22l-7.73-6.59c-.39-.33-.43-.91-.1-1.3.33-.39.91-.43,1.3-.1l7.73,6.59c.39.33.43.91.1,1.3-.18.2-.43.32-.7.32Z" style="fill:#252833; stroke-width:0px;"/><path d="M235.16,100.85c-5.14,0-9.32-4.18-9.32-9.32s4.18-9.32,9.32-9.32,9.32,4.18,9.32,9.32-4.18,9.32-9.32,9.32ZM235.16,84.51c-3.88,0-7.02,3.14-7.02,7.02,0,3.87,3.15,7.02,7.02,7.02,3.88,0,7.02-3.14,7.02-7.02,0-3.88-3.15-7.02-7.02-7.02ZM261.34,104.46c-5.14,0-9.32-4.18-9.32-9.32s4.18-9.32,9.32-9.32,9.32,4.18,9.32,9.32-4.18,9.32-9.32,9.32ZM261.34,88.12c-3.88,0-7.02,3.14-7.02,7.02,0,3.88,3.15,7.02,7.02,7.02,3.88,0,7.02-3.15,7.02-7.02,0-3.88-3.15-7.02-7.02-7.02Z" style="fill:#fff; stroke-width:0px;"/><path d="M269.69,95.23c-.61,0-1.11-.48-1.14-1.08-.04-.63.44-1.17,1.08-1.21,0,0,0,0,0,0l14.22-.79c.63-.03,1.17.45,1.21,1.08s-.45,1.17-1.08,1.21h0l-14.22.79h-.06Z" style="fill:#fff; stroke-width:0px;"/><path d="M291.34,63.06c-.72,0-1.39-.33-1.83-.9-4.18-5.46-16.49-12.61-26.27-11.4-1.26.12-2.39-.81-2.5-2.08-.11-1.21.74-2.3,1.94-2.49,11.54-1.42,25.53,6.71,30.48,13.17.77,1.01.58,2.45-.43,3.22-.42.33-.91.48-1.4.48h0Z" style="fill:#ffd54f; stroke-width:0px;"/><path d="M195.43,274.99l-37.99-.43-2.92-10.25,35.89-.52,5.02,11.19h0ZM229.45,211.78c10.07,9.82,18.49,28.23,25.67,50.04l-31.99,3.73c-1.98-16.65-12.72-45.02-28.38-59.57l34.7,5.8h0Z" style="fill:#e5f1ff; stroke-width:0px;"/><path d="M186.35,145.2c-.37,0-.73-.1-1.04-.29l-46.17-27.03c-.98-.58-1.31-1.84-.74-2.83.58-.99,1.85-1.32,2.83-.74l46.17,27.03c.98.58,1.32,1.84.74,2.83-.37.63-1.05,1.02-1.79,1.02h0Z" style="fill:#252833; stroke-width:0px;"/><path d="M134.33,112.35c.83.16,1.62.38,2.42.6l1.18.35c.39.13.77.26,1.15.4.38.14.8.21,1.2.31.39.1.75.3,1.03.6.29.3.53.65.74,1.07.2.43.38.91.45,1.57.01.14-.06.26-.19.32-.51.21-1.05.32-1.6.34-.44.02-.88-.03-1.3-.15-.39-.11-.74-.33-1.01-.63-.28-.3-.54-.64-.84-.91-.3-.27-.6-.54-.89-.83l-.86-.87c-.57-.6-1.13-1.2-1.66-1.86-.07-.08-.06-.21.03-.28.05-.04.1-.06.16-.04h0Z" style="fill:#252833; stroke-width:0px;"/><path d="M174.98,156.83c-6.34-1.5-7.04-10.18-7.88-13.51-.96-3.81-3.32-4.5-4.43-8.27-.48-1.62.42-3.48,1.54-4.67.75-.8,2.03-.75,2.76.07,3.27,3.68,10.02,9.19,12.26,11.6" style="fill:#ffb487; stroke-width:0px;"/><path d="M174.98,156.83c-6.34-1.5-7.04-10.18-7.88-13.51-.96-3.81-3.32-4.5-4.43-8.27-.16-.55-.13-1.6.29-2.8" style="fill:#ffb487; stroke-width:0px;"/><path d="M174.98,157.51c-.05,0-.11,0-.16-.02-5.85-1.38-7.21-8.22-8.02-12.3-.13-.67-.25-1.25-.36-1.71-.46-1.82-1.26-2.87-2.11-3.99-.85-1.13-1.74-2.3-2.32-4.26-.23-.79-.12-2.03.31-3.23.15-.35.56-.51.91-.36.32.14.49.49.39.83-.37,1.04-.4,1.96-.29,2.38.51,1.71,1.28,2.73,2.1,3.81.89,1.18,1.82,2.39,2.34,4.49.12.5.24,1.09.38,1.78.75,3.76,2,10.05,6.99,11.23.37.09.59.46.5.82-.07.31-.35.52-.66.52h0Z" style="fill:#d47455; stroke-width:0px;"/><path d="M277.41,223.23c-5.94,0-11.87-1.6-16.96-4.74-.32-.2-.42-.62-.23-.95s.62-.42.95-.23c8.48,5.24,19.43,6,28.56,1.98.35-.15.76,0,.91.35.15.35,0,.76-.35.91-4.06,1.79-8.47,2.67-12.88,2.67h0Z" style="fill:#135094; stroke-width:0px;"/><path d="M274.6,55.49c-6.83-5.47-28.7-15.96-43.75-4.5-11.67,8.89-8.95,27.37,4.27,33.75,13.21,6.38,43.65-7.92,43.65-7.92l-4.16-21.33h0Z" style="fill:#ff5773; stroke-width:0px;"/><path d="M350.47,219.01s11.93,31.81,8.11,41.53c-5.16,13.16-14.25,11.29-37.96,11.29-26.27,0-44.49-4.55-53.48-3.91-8.99.64-30.8,9.16-35.86,9.72-5.21-2.34,4.71-6.17,4.71-6.17,0,0-14.44,5.5-16.67,2.77-2.23-2.74,10.94-8.68,10.94-8.68,0,0-7.57,1.84-15.18,3-1.26.19-2.3-1.06-1.82-2.24,1.14-2.83,5.59-6.31,15.73-9.48-6.66.46-11.49.96-14.1,1.26-1.02.11-1.71-1.01-1.14-1.87,1.46-2.24,4.56-5.49,10.48-5.97,11.16-.89,25.69-1.75,25.44-3.66l-1.92-4.72c3.31-2.16,5.23-.18,14.56,3.95,9.61,4.26,28.61,5.04,38.54,4.03,9.93-1.02,23.55-4.33,23.55-4.33l-9.79-20.02c8.06-2.63,25.44-8.16,35.86-6.49h0Z" style="fill:#ffb487; stroke-width:0px;"/><g style="mask:url(#uuid-0b3d06f0-92cb-49c0-9e87-ea76600dbcc7);"><path d="M346.71,275.65c-.38,0-.69-.31-.69-.69,0-.18.07-.36.21-.49,7.12-6.98,8.14-12.32,6.86-14.78-.61-1.18-1.77-1.7-3.18-1.44-2.81.52-5.96,3.91-7.74,10.33-.22,1.86-.59,3.89-1.14,6.12l-1.36-.24c.26-2.32.65-4.37,1.14-6.18.88-7.75-1.06-12.04-3.36-13.45-1.37-.84-2.89-.68-4.16.43-2.7,2.36-3.71,8.63.11,17.32l-1.26.56c-1.13-2.51-7.94-6.88-12.08-6.58-1.59.11-2.58.88-3.02,2.33-.02.95.28,1.73.91,2.39,1.35,1.41,3.91,1.92,5.86,1.92.38,0,.69.31.69.69s-.31.69-.69.69c-1.08,0-4.77-.18-6.85-2.35-.91-.95-1.35-2.12-1.29-3.48l.03-.16c.59-2.07,2.06-3.25,4.27-3.41,3.37-.24,7.92,2.02,10.82,4.39-2.57-7.95-.9-13.17,1.6-15.36,1.7-1.49,3.92-1.71,5.79-.57,2.23,1.36,4.08,4.66,4.23,10.25,2.09-4.43,4.89-6.56,7.25-7,2.02-.38,3.76.43,4.66,2.15,1.57,3.02.53,8.91-7.11,16.4-.13.12-.3.19-.48.19h0ZM314.29,257.36c-.2,0-.41-.01-.62-.05-3.17-.47-7.23-4.67-9.13-15.05-.05-.38.22-.73.6-.77.35-.04.67.18.76.52,1.77,9.68,5.4,13.55,7.98,13.93,1.22.18,2.23-.4,2.87-1.64,1.72-3.35.11-10.51-7.46-18.33l.99-.96c9.19,9.5,17.19,11.89,20.73,10.09,1.16-.59,1.68-1.59,1.47-2.82-.45-2.64-4.81-7.58-18.28-9.33l.18-1.37c2.87.37,10.31-2.8,12.31-6.46.73-1.32.62-2.52-.31-3.67-1.09-.76-2.72-1.01-4.6-.68-2.29.39-4.58,1.59-5.44,2.85-.21.31-.64.39-.96.18-.31-.21-.4-.64-.18-.96,1.07-1.57,3.68-2.98,6.35-3.44,2.29-.39,4.32-.04,5.71.98l.12.11c1.35,1.6,1.53,3.43.52,5.28-1.57,2.86-5.76,5.33-9.34,6.49,10.31,2.14,14.7,6.44,15.27,9.76.31,1.82-.51,3.42-2.2,4.28-3.22,1.64-9.14.51-16.23-4.88,3.57,5.72,4.05,10.62,2.58,13.49-.79,1.54-2.14,2.42-3.68,2.42h0Z" style="fill:#5c5e73; stroke-width:0px;"/><path d="M357.06,239.41c-.52,0-1.03-.09-1.51-.27-2.02-.74-3.68-2.82-4.51-5.42-1.07,2.55-3.05,4.16-4.93,4.89-2.65,1.04-5.36.6-7.06-1.16-1.2-1.24-2.76-4.06-.88-9.71-3.42,1.87-6.52,1.47-8.44.32-1.82-1.09-2.75-2.9-2.45-4.73.44-2.63,3.28-4.68,7.79-5.62.38-.06.73.19.8.57.06.35-.16.69-.51.78-3.92.82-6.36,2.46-6.71,4.5-.21,1.26.48,2.53,1.8,3.32,1.87,1.12,5.14,1.33,8.72-1.43.3-.24.73-.18.97.12.16.2.19.47.09.7-1.97,4.58-2.03,8.3-.17,10.22,1.31,1.35,3.44,1.67,5.57.83,2.29-.9,4.77-3.37,4.85-7.58.01-.38.32-.68.7-.68.38,0,.68.32.68.7,0,0,0,0,0,0-.08,4.07,2.06,7.29,4.18,8.06,1.38.5,2.73,0,3.91-1.47.24-.3.67-.34.97-.11,0,0,0,0,0,0,.3.24.35.67.11.97,0,0,0,0,0,0-1.39,1.71-2.82,2.17-3.95,2.17h0ZM348.56,224.47c-1.66,0-3.31-.99-4.01-2.51-.84-1.81-.23-4.15,1.38-5.32.31-.22.74-.16.97.15.22.31.16.74-.15.96-1.08.79-1.5,2.42-.94,3.63s2.08,1.95,3.38,1.64c1.3-.31,2.32-1.65,2.27-2.99-.01-.38.28-.7.67-.71,0,0,0,0,0,0,.39,0,.7.29.71.67.07,1.99-1.39,3.91-3.33,4.37-.31.07-.62.11-.94.11ZM352.36,253.45c-1.08,0-2.13-.24-3.03-.69-1.47-.75-2.56-2.11-2.9-3.65-.39-1.72.21-3.51,1.53-4.55,1.47-1.16,3.68-1.2,5.05-.09.74.6,1.17,1.55,1.13,2.54-.03.93-.46,1.76-1.19,2.26-.72.51-1.65.66-2.43.4-.93-.31-1.56-1.21-1.47-2.1.04-.38.38-.65.76-.61s.65.38.61.76h0c-.03.25.22.54.53.65.37.12.84.04,1.2-.22.36-.26.58-.68.6-1.18.02-.56-.21-1.09-.62-1.43-.86-.69-2.38-.65-3.33.1-.89.7-1.3,1.98-1.04,3.17.26,1.14,1.07,2.16,2.18,2.72,1.23.62,2.88.71,4.42.23,1.34-.42,2.65-1.26,3.88-2.48,1.85-1.84,3.12-4.12,3.68-6.58.08-.37.44-.6.81-.52,0,0,0,0,0,0,.37.08.6.45.52.82,0,0,0,0,0,0-.62,2.72-2.01,5.23-4.05,7.25-1.38,1.38-2.88,2.33-4.43,2.82-.78.25-1.59.37-2.41.38h0ZM302.44,274.57c-2.02,0-4-.4-5.83-1.2-.35-.14-.53-.54-.39-.89.14-.35.54-.53.89-.39.01,0,.03.01.04.02,2.32,1,4.9,1.31,7.48.91,1.71-.27,3.15-.83,4.29-1.67,1.3-.96,2.2-2.34,2.42-3.7.2-1.23-.14-2.49-.91-3.37-.8-.92-2.08-1.33-3.17-1.03-1.16.32-2.1,1.53-2.05,2.63.03.52.32,1.02.79,1.34.41.28.89.35,1.3.21.42-.14.77-.47.88-.84.1-.31,0-.68-.21-.81-.33-.19-.44-.61-.25-.94,0,0,0,0,0,0,.19-.33.61-.44.94-.25,0,0,0,0,0,0,.77.45,1.13,1.49.83,2.42-.25.78-.92,1.44-1.75,1.73-.83.29-1.76.15-2.53-.38-.82-.56-1.34-1.46-1.39-2.41-.09-1.76,1.25-3.52,3.05-4.02,1.62-.45,3.42.12,4.58,1.45,1.04,1.18,1.5,2.86,1.24,4.49-.28,1.74-1.36,3.41-2.96,4.6-1.32.97-2.96,1.61-4.89,1.92-.8.11-1.6.18-2.4.18h0Z" style="fill:#5c5e73; stroke-width:0px;"/></g><path d="M234.62,272.79c-.27,0-.52-.16-.63-.41-.15-.35,0-.76.35-.91,1.09-.48,2.4-.93,3.66-1.38,1.24-.44,2.53-.88,3.57-1.34.35-.15.76,0,.91.35.15.35,0,.76-.35.91-1.09.48-2.4.93-3.66,1.38-1.24.44-2.53.88-3.57,1.34-.09.04-.18.06-.27.06h0ZM230.26,266.23c-.3,0-.56-.19-.66-.48-.12-.36.08-.75.45-.87l10.13-3.26c.36-.12.75.08.87.45s-.08.75-.45.87l-10.13,3.26c-.07.02-.14.03-.21.03Z" style="fill:#d47455; stroke-width:0px;"/><path d="M205.67,300l-20.42-9.09,28.7-7.27,20.42,9.08-28.7,7.27Z" style="fill:#e5f1ff; stroke-width:0px;"/><path d="M212.02,295.14s-.04,0-.05,0l-2.93-.33c-.25-.03-.43-.26-.41-.51.02-.13.09-.26.2-.33l.13-.09c-1.61-.56-3.33-.7-5.01-.39h-.07c-.25.05-.48-.13-.52-.38-.03-.24.12-.46.36-.51.02,0,.04,0,.05-.01.33-.07.64-.29.85-.61.13-.21.22-.43.24-.65l-5.7.84c-.25.02-.47-.17-.49-.42-.02-.23.14-.44.36-.48l6.19-.91c.23-.03.46.11.51.34.14.57.03,1.2-.3,1.73,1.62-.04,3.22.28,4.69.95.15.07.25.22.27.38,0,.1-.02.2-.07.29l1.74.2c.25.03.43.26.41.51,0,0,0,0,0,0-.04.23-.24.4-.47.4h0ZM218.61,292.31h-.01c-.87-.03-1.67-.6-2.03-1.38-1.12.26-2.33.4-3.33-.24-.64-.42-1.03-1.12-1.05-1.82l-2.47.1c-.25.01-.46-.18-.48-.43,0,0,0,0,0-.01,0-.25.19-.47.44-.48l3.01-.12c.15,0,.29.06.38.18.09.12.12.27.07.42-.15.46.12,1.08.59,1.39.81.52,1.93.3,3.02.02.12-.03.25-.01.36.05.11.07.18.17.21.3.12.6.69,1.08,1.3,1.1.25.01.45.22.45.47,0,.25-.21.44-.46.44Z" style="fill:#5c5e73; stroke-width:0px;"/><path d="M229.01,257.87c-.35,0-.64-.26-.68-.61-.05-.38.22-.72.6-.77,0,0,0,0,0,0l10.25-1.27c.37-.06.73.19.79.56.06.37-.19.73-.56.79-.02,0-.04,0-.06,0l-10.25,1.27s-.06,0-.09,0h0Z" style="fill:#d47455; stroke-width:0px;"/><path d="M279.47,95.14c2.29-2.87,5.18-3.03,6.72-2.79,8.29,1.3,3.58,17.49-9.62,14.57.46-4.58.65-7.5,2.9-11.78Z" style="fill:#ffb487; stroke-width:0px;"/><path d="M282.61,99.69c-.38,0-.69-.31-.69-.7,0-.12.03-.24.1-.35.44-.75,2.12-3.06,5.28-1.63.35.16.5.57.35.91s-.57.5-.91.35c-1.98-.9-3.06.28-3.53,1.07-.12.21-.35.34-.6.35h0Z" style="fill:#d47455; stroke-width:0px;"/><path d="M282.21,111.06c1.77,0,3.2-1.64,3.2-3.66s-1.43-3.66-3.2-3.66-3.19,1.64-3.19,3.66,1.43,3.66,3.19,3.66Z" style="fill:#252833; stroke-width:0px;"/><path d="M253.2,96.04c-.36,0-.7-.17-.91-.45-1.99-2.59-4.77-3.2-8.53-1.86-.6.21-1.25-.1-1.46-.69,0,0,0,0,0,0-.21-.6.1-1.25.69-1.46,0,0,0,0,0,0,4.75-1.69,8.49-.81,11.13,2.63.39.5.29,1.22-.21,1.61-.2.16-.45.24-.71.24h0Z" style="fill:#fff; stroke-width:0px;"/><path d="M22.78,93.09c-3.3-.44-5.35-1.23-6.84-2.63-2.3-2.17-3.21-5.7-3.25-12.7v-1.78s.2.02.2.02l.21.02.04.81c.05,1.21.22,2.05.57,2.93.51,1.28,1.64,2.66,2.83,3.46.67.45.96.59,1.57.8,2.02.7,6.13.66,8.02-.08,1.28-.5,2.61-1.58,3.44-2.83.71-1.05,1.1-2.13,1.24-3.46.04-.34.09-.85.12-1.13.04-.28.06-.88.06-1.34,0-.93-.06-1.12-.42-1.31l-.19-.1-.97.56c-.53.31-1.06.62-1.18.69-.11.06-.64.36-1.16.67-1.08.63-1.33.75-2.19,1.05-1.76.61-4.21.61-5.98,0-1.06-.37-1.21-.45-4.85-2.59-.39-.23-.42-.23-.59-.15-.27.14-.41.41-.41.85v.37h-.41v-2.28s.02-2.28.02-2.28l-.14-.11c-.08-.07-.13-.17-.13-.29,0-.17.02-.19.19-.19.19,0,.59.22,3.77,2.08,2.21,1.3,2.91,1.6,4.32,1.85.81.14,2.25.08,3.08-.13,1.25-.32,1.56-.47,4.51-2.19,1.09-.63,2.5-1.45,3.14-1.83.91-.53,1.22-.68,1.39-.68h.22l.02,2.74.02,2.74.18.29c.21.33.56.59.87.65.29.05.74-.21.99-.55l.18-.26.02-4.51v-4.52s-.16-.37-.16-.37c-.11-.24-.33-.54-.6-.82-.46-.49-.34-.41-3.46-2.22-.84-.48-1.86-1.08-2.28-1.32-.42-.24-1.12-.65-1.55-.9-.44-.25-1.12-.65-1.51-.88-1.49-.87-2.09-1.11-3.18-1.25-.54-.07-.7-.07-1.22,0-1.24.17-1.56.32-4.1,1.8-3.92,2.29-4.23,2.47-4.33,2.47-.04,0-.09.02-.1.05-.04.11-.53.36-.7.36-.16,0-.18-.02-.18-.2s.04-.22.26-.36c.15-.08.29-.16.33-.16.16,0,.3-.24.3-.5,0-.41.17-2.15.3-3.02.61-4.18,2.07-6.53,4.9-7.91,1.03-.5,2.38-.89,4.09-1.19.75-.13.88-.14,4.18-.13,6.36.01,9.16.28,11.47,1.1,2.25.79,3.85,2.22,4.83,4.29.86,1.85,1.25,4.15,1.41,8.39.09,2.28.05,16.64-.05,18.01-.33,4.56-1,6.82-2.56,8.68-1.59,1.88-4.01,2.88-7.87,3.26-1.67.16-2.58.2-6.21.22-3.03.02-4.01,0-4.48-.06ZM10.25,69.19c-.13-.07-.17-.13-.17-.29,0-.19.01-.21.18-.21.1,0,.26.04.36.09.15.08.18.13.18.3,0,.2-.01.21-.19.21-.11,0-.27-.05-.36-.1ZM9.44,68.68s-.07-.16-.07-.26c0-.19-.02-.2-.22-.22-.22-.02-.23-.03-.24-.24l-.02-.23.23.02c.22.02.23.03.24.24.02.2.03.22.22.22.24,0,.33.09.33.34,0,.19-.01.2-.2.2-.11,0-.23-.03-.27-.07Z" style="fill:#00eae2; stroke-width:0px;"/><path d="M13.7,93.13c-4.77-.16-7.55-.78-9.52-2.13-.61-.41-1.63-1.45-2.04-2.07-1.22-1.84-1.76-4.03-2.03-8.3-.1-1.54-.14-14.16-.06-16.87.13-4.13.38-6.18,1.02-8.1.94-2.84,2.93-4.72,5.9-5.57,2.65-.76,5.65-.94,14.89-.93,2.98,0,4.28.02,3.55.05-5.08.19-8.48,1.48-10.2,3.87-.32.44-.83,1.38-1.06,1.95-.5,1.22-.88,3.09-1.1,5.34-.12,1.28-.12,1.56,0,1.52.06-.02.09,0,.09.07,0,.11-.07.16-2.51,1.59-1.19.7-1.58,1.15-1.82,2.09-.18.7-.02,1.4.49,2.11.3.43.6.63,2.44,1.7,1.19.69,1.34.79,1.34.93,0,.1-.06.1-.24-.02q-.15-.1-.04.02c.1.12.11.27.09,2.39-.01,1.24,0,2.07.01,1.84.02-.23.06-.47.1-.53.05-.08.07.42.07,1.85,0,1.2-.01,1.86-.04,1.69-.03-.15-.05-.53-.05-.85,0-.32-.02-.59-.05-.6-.07-.04-.04,2.83.04,4.32.23,4.28.94,6.98,2.34,8.83.67.88,1.68,1.71,2.72,2.23,1.73.86,4.32,1.39,7.59,1.53.67.03-1.24.05-5.17.04-3.43,0-6.46,0-6.72-.02ZM10.62,69.08s-.08-.07-.18-.12c-.23-.11-.24-.07-.01.05.19.1.19.11.19.07Z" style="fill:#007bff; stroke-width:0px;"/><path d="M20.38,84.63c-1.21-.08-2.44-.37-3.19-.75-1.54-.78-3.03-2.4-3.66-3.97-.42-1.05-.56-2-.62-4.09-.05-1.67-.03-1.77.35-2,.29-.18.5-.15.97.13,2.86,1.68,3.26,1.9,3.82,2.17,2.06.99,4.58,1.14,6.65.42.86-.3,1.11-.42,2.19-1.05.53-.3,1.05-.61,1.16-.67.11-.07.64-.37,1.17-.68,1.04-.61,1.21-.66,1.56-.44.33.2.38.36.38,1.47,0,.55-.02,1.23-.06,1.51-.03.28-.08.79-.12,1.13-.27,2.49-1.59,4.53-3.79,5.85-1.4.84-3.75,1.17-6.83.97Z" style="fill:#fff; stroke-width:0px;"/><path d="M33.83,75.75c-.23-.05-.6-.35-.78-.65l-.18-.29-.02-2.75c-.02-2.35-.03-2.74-.1-2.71-.08.03-1.93,1.1-5.02,2.9-2.1,1.23-2.62,1.47-3.79,1.77-.82.21-2.58.27-3.43.12-1.39-.24-2.15-.56-4.3-1.82-.85-.5-2.05-1.2-2.66-1.55-2.33-1.33-2.78-1.59-2.9-1.68-.07-.06-.27-.18-.45-.26-.18-.09-.39-.23-.48-.3-.08-.08-.2-.16-.25-.17s-.15-.11-.21-.2c-.05-.09-.18-.26-.27-.38-.26-.34-.42-.81-.45-1.37-.06-.92.2-1.65.8-2.26.26-.26.63-.51,1.5-1.02.63-.37,1.16-.67,1.18-.67.01,0,.14-.07.28-.16.14-.08.4-.24.58-.33s.64-.36,1.02-.58c3.67-2.15,5.1-2.97,5.42-3.11.58-.26,1.09-.4,1.86-.51.66-.09.76-.09,1.43,0,1.18.16,1.74.38,3.26,1.26.39.23,1.08.63,1.51.88.43.25,1.13.66,1.55.9.42.24,1.45.84,2.28,1.32,3.12,1.81,3,1.73,3.46,2.22.27.28.5.59.6.82l.17.36v4.61c0,3.2-.02,4.66-.06,4.78-.24.62-.9.96-1.58.82Z" style="fill:#fff; stroke-width:0px;"/><path d="M57.53,188.05l4.41,15.41c.39,1.37,1.46,2.43,2.83,2.83l15.41,4.41-15.41,4.41c-1.37.39-2.43,1.46-2.83,2.83l-4.41,15.41-4.41-15.41c-.39-1.37-1.46-2.43-2.83-2.83l-15.41-4.41,15.41-4.41c1.37-.39,2.43-1.46,2.83-2.83l4.41-15.41Z" style="fill:#ffa000; stroke-width:0px;"/></svg>