<?xml version="1.0" encoding="UTF-8"?><svg id="uuid-83ca4069-963a-4638-9ba7-9253f3dfa145" xmlns="http://www.w3.org/2000/svg" viewBox="0 0 5560.14 736.45"><path d="M3033.82,678.72c0-1.3-1.3-16.1-3-32.9-1.6-16.8-3-30.8-3-31.2s17.4-.8,38.8-1c36.1-.3,39-.4,43.4-2.3,12.2-5.2,18.2-12.6,26-31.7l4.8-11.7-74.6-174.3c-41-95.9-74.8-174.6-75.1-175.1-.2-.4,17.4-.6,39.2-.5l39.6.3,49.7,119.8,49.6,119.8,5.5-.3,5.6-.3,43-119.5,43-119.5,37.3-.3c20.9-.1,37.2.2,37.2.7,0,1.7-139.9,379.2-143.9,388-8.3,18.9-22,38.7-33.3,48.2-11,9.3-19.7,14.2-33.6,18.9-15.4,5.1-24.4,6.1-61.9,6.7l-34.3.6v-2.4ZM977.82,565.92v-82.8l10.5-.5c9.5-.4,11.1-.8,17.9-4.1,19.1-9.5,31.7-32.4,38.1-69.2,1.2-7.1,19.5-185.3,19.5-190.2,0-1.1,24.3-1.3,123.5-1.3h123.5v265h58v166h-74v-99h-243v99h-74v-82.9h0ZM1236.82,383.32v-99.5h-52.5c-41.7,0-52.5.3-52.5,1.3,0,3.1-11.2,110.4-12.6,120.7-4.5,33.5-11.7,55.1-23.4,70.4l-5.1,6.6h146.1v-99.5ZM3336.82,565.92v-82.8l10.5-.5c9.5-.4,11.1-.8,17.9-4.1,19.1-9.5,31.7-32.4,38.1-69.2,1.2-7.1,19.5-185.3,19.5-190.2,0-1.1,24.3-1.3,123.5-1.3h123.5v265h58v166h-74v-99h-243v99h-74v-82.9ZM3595.82,383.32v-99.5h-52.5c-41.7,0-52.5.3-52.5,1.3,0,3.1-11.2,110.4-12.6,120.7-4.5,33.5-11.7,55.1-23.4,70.4l-5.1,6.6h146.1v-99.5ZM2461.62,554.82c-30.6-3.2-62.2-14.9-85.8-31.7-12.2-8.8-27.7-24.3-36.3-36.3-8.1-11.5-18.6-32.1-22.7-44.8-11.9-37-11.7-81.8.7-118.2,12.9-38.4,38.6-69.3,73.9-89.3,25.2-14.2,52.1-21.4,84.5-22.4,43.1-1.4,78,7.9,110.4,29.5,11.4,7.5,29.5,24.9,36.6,35.2,9,12.8,21,36.3,19.4,37.8-.6.6-63.7,11.1-66.7,11.2-1,0-3.5-2.8-6.2-7-9.4-14.6-24.6-26.4-44.1-34.5-7.6-3.1-20-5.6-31.7-6.2-54.3-2.9-96,29.1-106.5,81.6-2.5,12.6-2.3,37.5.4,50.1,6,27.6,22,51.2,44.2,64.8,23.9,14.6,56,18.8,86,11.1,10.7-2.8,26.2-10.7,35.6-18.2,8.1-6.5,18.4-18.4,21.4-24.5,1.3-2.8,2-3.3,4.1-2.9,1.4.3,17,2.9,34.7,5.7l32.2,5.2-1.9,4.9c-13.8,34.9-40.9,63.6-76.3,80.9-13.7,6.7-34.5,13.3-49.7,16-14.3,2.4-42.2,3.4-56.2,2h0ZM3908.42,554.72c-37.7-4-70.4-17.8-97.8-41.3-20-17.2-38-44.6-46.7-71.4-12-36.7-11.8-81.7.6-118.2,11.5-34,33.6-63.1,62.8-82.6,29.8-19.8,63.2-29.4,102.5-29.4,51.1,0,93.5,16.6,126.6,49.5,16.9,16.8,28.4,34.5,36.9,56.5,8.4,21.5,12.2,47,10.9,71.8l-.6,13.2h-271.9l.6,3.8c6.9,40.4,33,69.5,71.2,79.3,26.9,6.8,60.1,3.7,83.8-8.1,12.4-6.1,22.3-13.5,28.9-21.7,3.2-3.9,5.9-6.3,7.1-6.3,2.7,0,66.5,10.7,67.1,11.2.7.8-8.9,18.9-14.1,26.8-7.2,10.9-25,28.3-37,36.3-36.5,24.1-84.9,35.5-130.9,30.6h0ZM4023.82,345.22c0-2.6-5.7-16.1-9.6-22.7-17.9-30.6-48.3-47.7-84.6-47.7-37.4.1-69.1,19-85.3,51-3.3,6.5-7.5,17.5-7.5,19.5,0,1.3,11.7,1.5,93.5,1.5s93.5-.2,93.5-1.6h0ZM5002.02,554.72c-30.9-3-60.4-13.3-85.7-30-14.7-9.6-34.4-29.2-43.8-43.4-21.4-32.5-31.2-71.8-27.9-112.2,4.5-54.4,29.6-98.4,72.2-126.8,30.5-20.4,66.3-30.5,107.9-30.5,81.9,0,147.3,44.2,170.6,115.4,10.3,31.3,11.2,71.3,2.5,104.1-14.4,54.3-53.1,95.1-107.9,114-25.4,8.7-58.5,12.3-87.9,9.4h0ZM5037.32,488.82c17.8-2,35.8-8.5,48-17.4,7.7-5.5,19.2-17.4,24.1-24.8,16.9-25.4,21.9-61.8,13.3-96.3-8.4-33.2-35.7-60.5-68.9-68.8-17.5-4.4-40.6-4.7-56.9-.7-36.2,8.8-62.9,35.1-72,70.6-8.9,34.8-2.4,74.2,16.3,99,21.5,28.7,56.8,42.8,96.1,38.4ZM1413.42,551.72c-5.4-.4-10.1-1-10.3-1.3-.5-.5-7.2-62.5-7.3-66.8,0-1.7,1.5-1.8,17.8-1.8,19.9,0,28.4-1.4,36.3-5.7,12.1-6.5,18.5-20.2,20.8-44.5.7-6.2,3.6-53.6,6.6-105.3s5.7-97.3,6.1-101.2l.6-7.3h245.8v332h-73l-.2-132.7-.3-132.8h-104l-4.2,75c-4.5,82.5-4.4,80.9-7.8,98.1-8.6,43.1-31.8,74.3-64.8,87.3-18,7.1-36.1,9.1-62.1,7h0ZM1797.82,549.32c0-.3,17.8-26.6,39.5-58.5s39.5-58.4,39.5-58.8-3.5-2.4-7.9-4.4c-29.4-13.8-50.6-38.8-58.8-69.4-2.4-8.9-2.6-11.6-2.7-27.9,0-16.2.3-18.9,2.6-27.5,3.3-12.1,7.3-21.1,14.3-31.6,14.3-21.4,39.1-38.8,67.1-46.9,20.6-6,18.5-5.9,110.7-6.2l84.7-.4v332.1h-74v-107h-30.2l-30.3.1-35.5,53.2-35.5,53.2-41.8.3c-22.9.1-41.7,0-41.7-.3h0ZM2012.82,330.22v-49.5l-44.2.3c-38.2.4-45.1.7-50.3,2.1-18.2,5.3-30.8,16.5-35.6,31.6-2.1,7-2.5,20.6-.8,28,3.3,14.4,15.2,27.3,30.2,32.7,10,3.7,17.4,4.2,59.5,4.3l41.2.1v-49.6h0ZM2776.82,416.82v-133h-117v-66h308v66h-117v266h-74v-133ZM4163.82,383.82v-166h73v131h152v-131h74v332h-74v-135l-75.7.2-75.8.3-.3,67.3-.2,67.2h-73v-166ZM4632.82,416.82v-133h-117v-66h308v66h-117v266h-74v-133ZM5269.82,383.72v-166l90.8.4c95.8.4,94.6.4,113.2,5.2,9.9,2.5,23.6,8.2,32.4,13.4,16.2,9.6,27.2,20.9,34.5,35.6,6.3,12.7,7.6,18.7,7.5,35.5-.1,12.9-.4,15.4-2.7,22.5-6.3,19-19.2,33.4-39.4,44-2.9,1.5-5.3,2.8-5.3,2.9,0,.2,3.2,1.5,7,3,13.7,5.4,28,16.4,36.8,28.4,6.4,8.7,9.6,15,12.8,25.9,2.3,7.6,2.7,10.7,2.7,22.3.1,11.1-.3,14.9-2.1,21.3-11.6,40.9-51.8,67.1-108.7,70.8-7.7.4-51.2.9-96.7.9h-82.8v-166.1h0ZM5455.82,487.42c13.6-4.5,23-12,27.8-22.4,2.4-5.1,2.7-6.9,2.7-16.2s-.3-11.1-2.9-16.7c-3.3-7.3-10.8-14.8-18.4-18.7-10.6-5.3-13.3-5.6-69.9-5.6h-52.3v82.1l53.8-.3c48.6-.4,54.2-.6,59.2-2.2h0ZM5444.62,349.32c12.2-2.9,21.6-9.5,26.7-18.6,2.8-5,3-6.1,3-15.9s-.3-11-2.7-15.6c-5.4-10.3-16.6-17.9-30.2-20.5-2.7-.5-26-.9-51.7-.9h-46.9v73h47.8c38.5,0,48.9-.3,54-1.5h0Z" style="stroke-width:0px;"/><path d="M381.32,735.32c-55.2-7.4-89.5-20.6-114.5-44.1-38.5-36.3-53.7-95.5-54.4-212.7l-.2-29.8,3.6.3,3.5.3.7,13.5c.9,20.2,3.7,34.4,9.5,49,8.5,21.5,27.5,44.6,47.4,58,11.2,7.5,16,9.9,26.3,13.4,33.9,11.7,102.6,11,134.2-1.3,21.5-8.3,43.7-26.5,57.6-47.3,11.9-17.6,18.4-35.7,20.8-57.9.6-5.7,1.5-14.3,2-19,.6-4.7,1-14.8,1-22.5,0-15.6-1-18.8-7-21.9l-3.1-1.6-16.2,9.4c-8.9,5.2-17.8,10.4-19.7,11.5-1.9,1-10.7,6.1-19.5,11.2-18,10.5-22.2,12.5-36.6,17.5-29.4,10.2-70.5,10.2-100.1-.1-17.8-6.2-20.3-7.5-81.2-43.3-6.6-3.8-7-3.9-9.8-2.5-4.6,2.4-6.8,6.9-6.8,14.2v6.2h-6.9l.2-38.1.2-38.1-2.3-1.8c-1.4-1.2-2.2-2.9-2.2-4.9,0-2.8.3-3.1,3.1-3.1,3.2,0,9.8,3.6,63.1,34.8,37,21.7,48.8,26.8,72.3,30.9,13.6,2.3,37.6,1.3,51.5-2.1,20.9-5.3,26.2-7.9,75.5-36.6,18.2-10.6,41.8-24.3,52.6-30.6,15.2-8.8,20.4-11.4,23.2-11.4h3.6l.3,45.8.3,45.9,3,4.9c3.5,5.5,9.4,9.9,14.5,10.8,4.8.8,12.4-3.5,16.5-9.2l3-4.4.3-75.5.2-75.6-2.9-6.2c-1.8-4-5.5-9.1-10.1-13.8-7.7-8.2-5.7-6.9-58-37.2-14-8.1-31.2-18-38.2-22.1-7.1-4.1-18.8-10.9-26-15.1-7.3-4.2-18.7-10.8-25.3-14.7-24.9-14.5-35-18.5-53.3-21-9-1.2-11.8-1.2-20.5,0-20.7,2.8-26.2,5.3-68.7,30.1-65.6,38.3-70.8,41.3-72.5,41.3-.7,0-1.5.4-1.7.9-.7,1.8-8.9,6.1-11.8,6.1-2.7,0-3-.3-3-3.4s.6-3.7,4.4-6c2.5-1.4,4.9-2.6,5.5-2.6,2.6,0,5.1-4.1,5.1-8.3,0-6.9,2.9-36,5.1-50.6,10.2-70,34.6-109.3,82-132.4,17.2-8.3,39.8-14.9,68.4-19.9,12.6-2.2,14.8-2.3,70-2.1,106.4.2,153.3,4.7,192.1,18.4,37.6,13.2,64.5,37.2,80.8,71.9,14.4,31,20.9,69.5,23.6,140.5,1.5,38.2.8,278.6-.9,301.5-5.5,76.3-16.7,114.1-42.9,145.3-26.6,31.5-67.1,48.3-131.7,54.6-27.9,2.7-43.2,3.3-104,3.6-50.7.3-67.2.1-75-1h0ZM171.62,335.22c-2.2-1.2-2.8-2.2-2.8-4.9,0-3.2.2-3.5,3-3.5,1.7,0,4.4.7,6,1.5,2.5,1.3,3,2.2,3,5,0,3.3-.2,3.5-3.2,3.5-1.8-.1-4.5-.8-6-1.6ZM158.02,326.62c-.7-.7-1.2-2.7-1.2-4.4,0-3.1-.3-3.3-3.7-3.6-3.6-.3-3.8-.5-4.1-4.1l-.3-3.8,3.8.3c3.6.3,3.8.5,4.1,4.1.3,3.4.5,3.7,3.6,3.7,4.1,0,5.6,1.5,5.6,5.7,0,3.1-.2,3.3-3.3,3.3-1.8,0-3.8-.5-4.5-1.2h0Z" style="fill:#00eae2; stroke-width:0px;"/><path d="M229.32,736.12c-79.8-2.7-126.4-13.1-159.4-35.6-10.2-6.9-27.3-24.3-34.2-34.7-20.5-30.8-29.4-67.4-34-139C.12,501.12-.68,289.72.72,244.32c2.1-69.1,6.4-103.5,17.1-135.6C33.52,61.22,66.92,29.62,116.52,15.52,160.82,2.82,211.12-.28,365.82.02c49.9.1,71.6.4,59.5.8-85,3.2-142,24.8-170.8,64.8-5.3,7.4-13.9,23.1-17.8,32.7-8.4,20.5-14.8,51.8-18.4,89.4-2,21.5-2,26.2,0,25.5,1-.4,1.5,0,1.5,1.2,0,1.9-1.1,2.6-42.1,26.7-20,11.7-26.5,19.2-30.5,35-3,11.7-.3,23.5,8.2,35.4,5.1,7.2,10.1,10.6,40.9,28.5,20,11.5,22.5,13.3,22.5,15.5,0,1.7-1,1.7-4-.4-1.67-1.13-1.9-1-.7.4,1.7,2,1.8,4.5,1.5,40-.2,20.8-.1,34.7.2,30.8.3-3.8,1-7.8,1.6-8.8.8-1.4,1.1,7,1.1,31,.1,20.1-.2,31.1-.7,28.3-.5-2.5-.9-8.9-.9-14.2-.1-5.3-.4-9.9-.8-10.1-1.1-.7-.7,47.3.6,72.3,3.8,71.7,15.8,116.9,39.1,147.9,11.2,14.8,28.2,28.7,45.5,37.4,29,14.4,72.4,23.2,127,25.6,11.3.5-20.7.8-86.5.7-57.5,0-108.1-.1-112.5-.3h0ZM177.82,333.32c0-.2-1.3-1.1-3-2-3.8-1.9-4-1.1-.2.9,3.1,1.7,3.2,1.8,3.2,1.1Z" style="fill:#007bff; stroke-width:0px;"/><path d="M341.12,593.82c-20.3-1.4-40.9-6.2-53.4-12.5-25.8-13.1-50.7-40.2-61.2-66.5-7-17.6-9.4-33.5-10.3-68.5-.8-28-.5-29.6,5.9-33.5,4.8-3,8.4-2.5,16.2,2.1,47.9,28.1,54.5,31.8,64,36.4,34.5,16.5,76.6,19.1,111.4,7,14.4-5,18.6-7,36.6-17.5,8.8-5.1,17.6-10.2,19.5-11.2,1.9-1.1,10.7-6.2,19.6-11.4,17.4-10.2,20.3-11,26.1-7.4,5.6,3.4,6.3,6,6.3,24.6,0,9.2-.4,20.6-1,25.3-.5,4.7-1.4,13.3-2,19-4.5,41.7-26.7,75.9-63.4,97.9-23.4,14.1-62.8,19.6-114.3,16.2Z" style="fill:#fff; stroke-width:0px;"/><path d="M566.32,445.12c-3.8-.8-10-5.9-13-10.8l-3-4.8-.3-46c-.3-39.3-.5-45.8-1.7-45.3-1.3.5-32.3,18.4-84,48.6-35.2,20.6-43.9,24.6-63.5,29.6-13.8,3.5-43.2,4.5-57.5,2-23.2-4-36-9.4-72-30.5-14.3-8.4-34.3-20.1-44.5-25.9-39-22.2-46.6-26.6-48.5-28.2-1.1-1-4.5-3-7.5-4.4-3-1.5-6.6-3.8-8-5-1.4-1.3-3.3-2.6-4.2-2.9s-2.5-1.9-3.5-3.4c-.9-1.5-3-4.4-4.5-6.3-4.4-5.7-7-13.6-7.5-23-1-15.4,3.4-27.7,13.4-37.8,4.4-4.4,10.6-8.6,25.1-17,10.6-6.2,19.5-11.2,19.8-11.2.2,0,2.3-1.2,4.7-2.7,2.3-1.4,6.7-4,9.7-5.6s10.7-6,17-9.7c61.5-36,85.4-49.7,90.8-52.1,9.7-4.4,18.3-6.7,31.2-8.5,11-1.5,12.8-1.5,24,.1,19.8,2.7,29.1,6.3,54.5,21.1,6.6,3.9,18,10.5,25.3,14.7,7.2,4.2,18.9,11,26,15.1,7,4.1,24.2,14,38.2,22.1,52.3,30.3,50.3,29,58,37.2,4.5,4.7,8.3,9.8,10.1,13.7l2.9,6.1v77.1c0,53.5-.3,78-1,80-4,10.3-15.1,16.1-26.5,13.7h0Z" style="fill:#fff; stroke-width:0px;"/></svg>