<?xml version="1.0" encoding="UTF-8"?><svg id="uuid-9424a81a-186e-4079-8470-b17045cea8b8" xmlns="http://www.w3.org/2000/svg" xmlns:xlink="http://www.w3.org/1999/xlink" viewBox="0 0 308.86 128"><defs><clipPath id="uuid-c03237a5-4f70-4a1a-9f6f-04a9956edbd8"><rect x="98.86" y="0" width="108" height="128" style="fill:none; stroke-width:0px;"/></clipPath><mask id="uuid-4cd8adc1-710a-4fab-bd15-7f48ac0cd75a" x="138.18" y="88.98" width="70.54" height="28.56" maskUnits="userSpaceOnUse"><g id="uuid-2c51a7af-e4ba-4d5a-bafc-ec6d1d5158c8"><path d="M202.7,90.15s5.6,14.86,3.81,19.41c-2.43,6.15-6.69,5.27-17.83,5.27-12.34,0-20.9-2.12-25.13-1.83-4.23.3-14.47,4.28-16.85,4.54-2.45-1.1,2.21-2.88,2.21-2.88,0,0-6.78,2.57-7.83,1.29-1.05-1.28,5.14-4.06,5.14-4.06,0,0-3.55.86-7.13,1.4-.59.09-1.08-.49-.86-1.05.54-1.32,2.63-2.95,7.39-4.43-3.13.21-5.4.45-6.62.59-.48.05-.8-.47-.54-.87.68-1.05,2.15-2.57,4.93-2.79,5.24-.42,12.07-.82,11.95-1.71l-.9-2.21c1.55-1.01,2.46-.08,6.84,1.85,4.51,1.99,13.44,2.36,18.11,1.88,4.67-.48,11.06-2.02,11.06-2.02l-4.6-9.35c3.79-1.23,11.95-3.81,16.85-3.03Z" style="fill:#ffb487; stroke-width:0px;"/></g></mask></defs><path d="M280.95,90.17c-.1.46-.29,1.07-.54,1.82-.31.9-.7,1.93-1.12,3.02-.06.16-.12.33-.19.49-.48,1.27-.98,2.6-1.4,3.86-.41,1.26-.76,2.48-.91,3.54-.08.53-.11,1.04-.07,1.51.04.46.15.94.43,1.36.29.44.73.73,1.27.85.51.11,1.07.05,1.63-.11,1.12-.31,2.57-1.09,4.41-2.36.42-.29.52-.85.23-1.27-.29-.41-.87-.51-1.29-.22-1.79,1.24-3.04,1.87-3.85,2.09-.4.11-.63.11-.74.08-.08-.02-.1-.04-.12-.07-.04-.06-.1-.21-.13-.5-.02-.29,0-.65.06-1.1.13-.9.43-2.01.84-3.23.4-1.22.89-2.52,1.37-3.78.06-.16.12-.33.19-.49.42-1.09.82-2.14,1.14-3.07.36-1.04.65-2.03.72-2.75.03-.33.03-.82-.22-1.22-.15-.24-.38-.43-.67-.53-.28-.09-.55-.08-.77-.03-.48.1-.94.36-1.35.67-.42.31-.85.72-1.29,1.18-.88.92-1.84,2.14-2.83,3.49-1.34,1.83-2.77,3.96-4.1,5.95-.61.91-1.21,1.8-1.76,2.61-.89,1.31-1.69,2.42-2.33,3.22-.07.08-.13.16-.19.23.15-1,.51-2.52,1.13-4.7,1.27-4.47,1.79-7.46,1.73-9.29-.03-.88-.19-1.7-.66-2.24-.26-.3-.61-.5-1.01-.56-.38-.06-.74.02-1.05.14-.6.23-1.2.71-1.74,1.26-.56.57-1.15,1.29-1.71,2.1-1.14,1.62-2.26,3.68-3.1,5.79-.19.47.04.99.52,1.18.47.18,1.01-.05,1.2-.51.79-1.98,1.85-3.91,2.9-5.42.53-.75,1.04-1.39,1.51-1.86.49-.49.86-.75,1.1-.84.01,0,.03,0,.04-.01.06.12.15.42.17,1.04.05,1.53-.39,4.3-1.66,8.74-.7,2.47-1.11,4.21-1.24,5.35-.06.55-.08,1.06.02,1.46.05.21.16.49.41.71.28.25.63.33.94.29.27-.03.5-.15.67-.25.17-.11.34-.24.49-.38.31-.28.64-.65.99-1.08.7-.86,1.53-2.03,2.43-3.34.58-.84,1.18-1.75,1.8-2.67,1.32-1.97,2.71-4.04,4.03-5.84.97-1.32,1.88-2.47,2.67-3.31.39-.41.74-.73,1.04-.96ZM266.5,106.22s0,0,0,0c0,0,0,0,0,0ZM267.28,106.56s0,0,0,0h0Z" style="fill:#83db83; fill-rule:evenodd; stroke-width:0px;"/><path d="M292.86,38c7.73,0,14-6.27,14-14s-6.27-14-14-14-14,6.27-14,14,6.27,14,14,14ZM292.86,40c8.84,0,16-7.16,16-16s-7.16-16-16-16-16,7.16-16,16,7.16,16,16,16Z" style="fill:#ffd652; fill-rule:evenodd; stroke-width:0px;"/><path d="M127.28,50.51l-8.55-5.34c-.88-.55-1.32-.82-1.76-.72-.44.1-.72.54-1.27,1.42l-5.34,8.55c-1.2,1.92-1.79,2.87-1.37,3.47.43.6,1.53.34,3.73-.16l13.89-3.21c2.2-.51,3.3-.76,3.42-1.49.12-.72-.84-1.32-2.75-2.52Z" style="fill:#ff6680; stroke-width:0px;"/><g style="clip-path:url(#uuid-c03237a5-4f70-4a1a-9f6f-04a9956edbd8);"><path d="M110.09,23.21l2.68-2.67c.73-.73,1.92-.73,2.65,0l2.68,2.67c.73.73.73,1.91,0,2.64l-2.68,2.67c-.73.73-1.92.73-2.65,0l-2.68-2.67c-.73-.73-.73-1.91,0-2.64Z" style="fill:#70b2ff; stroke-width:0px;"/><path d="M187.06,65.2c-2.1,0-4.17-.42-5.75-1.23l.3-.57c3.76,1.92,10.71,1.48,13.16-1.75,4.18-5.5,2.24-12.27-5.94-20.71l.47-.45c8.43,8.7,10.39,15.75,5.99,21.54-1.63,2.14-4.96,3.16-8.22,3.16Z" style="fill:#ff5773; stroke-width:0px;"/><path d="M175.66,16.45c-1.82,0-3.93-.89-5.97-2.58-.14-.11-.16-.32-.04-.45.11-.14.32-.15.46-.04,2.67,2.21,5.41,2.98,7.33,2.05,1.13-.55,1.79-1.63,1.75-2.91-.07-2.33-2.24-4.61-5.81-6.1-.16-.07-.24-.26-.17-.42.07-.16.26-.24.42-.17,3.81,1.59,6.13,4.08,6.2,6.68.04,1.54-.75,2.85-2.12,3.51-.62.3-1.32.44-2.06.44Z" style="fill:#ff5773; stroke-width:0px;"/><path d="M144.47,17.6c-1.18,3.67-2.39,7.44-2.16,11.29.22,3.85,2.2,7.84,5.76,9.36,2.03.87,4.35.84,6.53.49,2.07-2.51,3.09-5.86,2.77-9.1-.32-3.24-1.98-6.32-4.5-8.38" style="fill:#ff5773; stroke-width:0px;"/><path d="M148.44,25.5c-4.29-.01-7.85-2.75-8.28-6.37-.38-3.2,1.83-7.26,9.19-9.04.17-.04.35.06.39.24.04.17-.06.35-.24.39-6.95,1.69-9.05,5.42-8.7,8.34.39,3.3,3.68,5.8,7.64,5.8.18,0,.32.15.32.32s-.14.32-.32.32Z" style="fill:#ff5773; stroke-width:0px;"/><path d="M127.62,79.26l-1.44,2.92s-1.36-11.25-1.51-16.37c-.17-5.74.32-6.11-.33-11.18-.65-5.07-2.9-11.85-4.27-13.92-.78-1.18-1.46-2.63-1.9-3.66-.32-.73-1.32-.83-1.78-.18-.45.63-.79,1.52-.55,2.67.28,1.35,1.65,3.41,2.12,4.87.86,2.67.78,3.47.78,3.47,0,0-2.81-1.45-5.36-.01-2.4,1.35-1.83,2.79-1.83,2.79,0,0-2.66.81-2.62,2.43-1.4.94-1.98,2.75.09,5.81,1.65,2.44,3.87,3.23,3.87,3.23,0,0,1.82,3.13,1.82,6.66,0,9.83-2.11,27.28,1.81,32.81,3.84,5.41,13.41,4.21,23.58-13.82,9.15-16.22-2.65-12.61-2.65-12.61l-9.83,4.09Z" style="fill:#ffb487; stroke-width:0px;"/><path d="M161.2,12.9c-1.2-11.15,14.05-11.12,16.05-2.14,1.93,8.65-12.93,10.57-17.31,3.85" style="fill:#ff5773; stroke-width:0px;"/><path d="M162.66,14.88c6.08-2.06,13.06.28,14.06,7.35,1.46,10.32,5.03,12.4,9.94,15.92,9.1,6.52,12.1,25.6-8.41,25.87-26.15.35-24-5.03-26.31-5.52-4.49-.96-14.29-13.37-1.57-22.69,12.59-9.23,12.29-20.93,12.29-20.93Z" style="fill:#ff5773; stroke-width:0px;"/><path d="M146,70.8c.25,2.8,4.08-.38,5.39.08,3.26,1.14,13.78-10.45,16.62-14.16-.95-4.58-.59-17.34-.59-17.34l-12.88,7.07-.71,7.52c-.03,1.1-7.12,2.78-7.52,3.27-.27,1.16-1.12,13.41-.31,13.55Z" style="fill:#ffb487; stroke-width:0px;"/><path d="M165.94,43.2c-.05-.41-.1-.79-.14-1.13l-4.8.99-6.45,2.98-.31,3.74c6.29-.42,10.16-4.6,11.7-6.58Z" style="fill:#d47455; stroke-width:0px;"/><path d="M150.96,20.8c-2.58,2.69-4.21,10.14-4.44,13.72-.2,2.69,1.06,9.35,7.16,11.62,5.8,2.16,13.44-1.61,15.42-7.41l2.33-6.2s-4.17,1.63-3.26-8.89c-5.42-4.24-13.82-7.06-17.21-2.85Z" style="fill:#ffb487; stroke-width:0px;"/><path d="M162.5,32.76c.14-1.05-.33-1.98-1.06-2.08-.73-.1-1.43.67-1.58,1.72-.14,1.05.33,1.98,1.06,2.08.73.1,1.43-.67,1.58-1.72Z" style="fill:#252833; stroke-width:0px;"/><path d="M164.49,30.53c-.16.24-.36.47-.58.67-.22.2-.47.38-.74.53-.27.15-.57.27-.88.35-.31.09-.64.12-.97.14-.3.01-.56-.22-.57-.52-.01-.3.22-.56.52-.57.06,0,.11,0,.16.02h.01c.24.07.49.13.75.14.26.02.52,0,.79-.05.27-.05.53-.14.78-.25.25-.12.5-.26.73-.44Z" style="fill:#252833; stroke-width:0px;"/><path d="M151.4,31.14c.07-1.06-.47-1.95-1.21-2-.73-.05-1.38.77-1.45,1.83-.07,1.06.47,1.95,1.21,2s1.38-.77,1.45-1.83Z" style="fill:#252833; stroke-width:0px;"/><path d="M147.63,28.53c.14.21.33.37.52.51.2.14.41.25.62.34.22.09.44.15.67.2.11.03.23.04.34.06l.34.03h.02c.3.03.53.3.5.6-.03.3-.3.52-.6.49-.07,0-.13-.03-.19-.05l-.37-.18c-.12-.07-.24-.13-.36-.21-.23-.15-.45-.31-.65-.49-.2-.18-.37-.39-.52-.6-.14-.22-.26-.45-.33-.7Z" style="fill:#252833; stroke-width:0px;"/><path d="M153.75,35.96s-.09,0-.13-.03c-.43-.19-1.44-.73-1.55-1.5-.04-.25,0-.62.43-.98.73-.63,1.93-2.43,2.03-4.56,0-.18.16-.32.34-.31.18,0,.32.16.31.33-.1,2.34-1.4,4.29-2.25,5.02-.24.2-.22.35-.21.4.04.3.53.72,1.18,1.01.16.07.24.26.16.43-.05.12-.17.19-.29.19Z" style="fill:#d47455; stroke-width:0px;"/><path d="M155.16,39.4c-.92,0-1.74-.28-2.14-.55-.2-.14-.25-.4-.11-.6s.4-.24.6-.11c.46.31,2.61.96,3.91-.6.15-.18.43-.21.61-.06.18.15.21.42.06.61-.83.99-1.93,1.31-2.92,1.31Z" style="fill:#d47455; stroke-width:0px;"/><path d="M152.85,26.68c-.07,0-.15-.02-.21-.07-1.8-1.46-4.23-1.06-4.25-1.05-.18.03-.34-.09-.38-.26-.03-.18.09-.34.26-.37.11-.02,2.75-.46,4.77,1.19.14.11.16.32.05.45-.06.08-.15.12-.25.12Z" style="fill:#252833; stroke-width:0px;"/><path d="M153.84,53.99c-4,1.99-14.08.33-19.2,10.51-5.12,10.17-7.36,15.57-7.36,15.57l11.46,7.97,5.78,14.34,48.26,10.74,9.93-22.97s-6-18.07-11.51-24.65c-5.51-6.58-21.25-11.84-23.18-12.16-10.64,6.18-14.18.65-14.18.65Z" style="fill:#2787f5; stroke-width:0px;"/><path d="M185.85,93.51c-.12,0-.24-.07-.3-.19l-7.1-15.71c-.07-.16,0-.35.16-.43.16-.07.35,0,.43.16l7.1,15.71c.07.16,0,.35-.16.42-.04.02-.09.03-.13.03Z" style="fill:#135094; stroke-width:0px;"/><path d="M138.81,88.49h0c-.18,0-.32-.15-.32-.33.07-5.01.82-7.61,1.94-11.55.29-1.01.61-2.15.95-3.43.04-.17.23-.27.4-.23.17.05.28.22.23.39-.34,1.28-.67,2.43-.96,3.44-1.11,3.89-1.85,6.45-1.92,11.38,0,.18-.15.32-.33.32Z" style="fill:#135094; stroke-width:0px;"/><path d="M155.12,84.38c-.15,0-.29-.11-.32-.27-1.6-8.84.48-17.76,2.49-26.38l.12-.51s-.04.02-.06.03c-.87.47-1.7.92-3.1,1-2.37.13-3.57-.83-3.89-1.78-.28-.81.02-1.65.75-2.15,1.18-.81,3.59-.73,6.82,1.9.32-.15.68-.3,1.08-.44,3.31-.98,5.48-.74,6.27.71.41.74.47,1.34.19,1.79-.32.5-1.02.73-2.1.67-1.66-.08-4.2-.87-5.3-1.7l-.14.62c-1.99,8.56-4.05,17.42-2.48,26.12.03.18-.09.34-.26.37-.02,0-.04,0-.06,0ZM158.41,56.72c.78.61,3.18,1.51,4.99,1.6.79.04,1.35-.1,1.52-.37.18-.29-.01-.78-.21-1.14-.79-1.45-3.43-1.02-5.5-.4-.29.1-.55.2-.79.31ZM152.77,54.5c-.54,0-.97.13-1.29.35-.49.34-.69.88-.51,1.41.25.72,1.23,1.46,3.24,1.34,1.26-.07,1.98-.46,2.82-.92.08-.05.17-.09.26-.14-1.89-1.5-3.43-2.05-4.52-2.05Z" style="fill:#393b52; stroke-width:0px;"/><path d="M158.84,78.25c-.18,0-.32-.14-.32-.32-.04-3.4-.17-6.94-.29-10.37-.12-3.43-.25-6.97-.29-10.38,0-.18.14-.32.32-.33.18,0,.33.14.33.32.05,3.4.17,6.94.29,10.37.12,3.43.25,6.97.29,10.38,0,.18-.14.32-.32.33h0Z" style="fill:#393b52; stroke-width:0px;"/><path d="M115.99,58.82c-.18,0-.38-.04-.62-.14-1.85-.78-3.9-7.02-4.13-7.73-.05-.17.04-.35.21-.4.17-.05.35.04.41.21.59,1.85,2.43,6.77,3.77,7.33.38.16.55.05.61.02.37-.23.48-1.02.49-1.27,0-.18.16-.32.34-.31.18,0,.32.16.31.33,0,.14-.07,1.34-.79,1.79-.14.09-.33.17-.59.17Z" style="fill:#d47455; stroke-width:0px;"/><path d="M113.27,60.04c-.12,0-.25,0-.38-.02-.91-.1-3.02-2.13-3.99-6.61-.04-.17.07-.35.25-.38.17-.04.35.07.38.25.96,4.41,2.98,6.06,3.43,6.1,1.03.11,1.63-.3,1.9-1.28.05-.17.23-.27.4-.23.17.05.28.22.23.4-.22.83-.79,1.77-2.21,1.77Z" style="fill:#d47455; stroke-width:0px;"/><path d="M111.68,61.42h-.05c-.18,0-.32-.15-.32-.33,0-.18.15-.33.33-.32.23,0,.57-.03.83-.22.22-.16.34-.41.31-.63-.03-.18.1-.34.27-.37.18-.03.34.1.37.27.06.46-.16.94-.57,1.24-.31.23-.71.35-1.17.35Z" style="fill:#d47455; stroke-width:0px;"/><path d="M126.44,82.18c.73,1.89.99,3.97.75,5.98l-.75-5.98Z" style="fill:#ffb487; stroke-width:0px;"/><path d="M127.19,88.49s-.03,0-.04,0c-.18-.02-.3-.18-.28-.36.23-1.96-.02-3.98-.73-5.83-.07-.17.02-.35.18-.42.17-.06.35.02.42.18.75,1.94,1.01,4.06.77,6.13-.02.17-.16.29-.32.29Z" style="fill:#d47455; stroke-width:0px;"/><path d="M115.84,12.07h-.02c-.24-.01-.42-.21-.41-.45l.5-11.21c.01-.24.21-.42.45-.41.24.01.42.21.41.45l-.5,11.21c-.01.23-.2.41-.43.41Z" style="fill:#252833; stroke-width:0px;"/><path d="M124.58,17.47c-.12,0-.25-.05-.34-.16-.15-.18-.12-.46.07-.6l4.48-3.59c.19-.15.46-.12.61.06.15.18.12.46-.07.6l-4.48,3.59c-.08.06-.18.09-.27.09Z" style="fill:#252833; stroke-width:0px;"/><path d="M102.93,16.34c-.1,0-.2-.03-.28-.1l-3.63-3.08c-.18-.15-.2-.43-.05-.61.16-.18.43-.2.61-.05l3.63,3.08c.18.15.2.43.05.61-.09.1-.21.15-.33.15Z" style="fill:#252833; stroke-width:0px;"/><path d="M148.53,34.94c-2.41,0-4.38-1.95-4.38-4.35s1.96-4.35,4.38-4.35,4.38,1.95,4.38,4.35-1.96,4.35-4.38,4.35ZM148.53,27.3c-1.82,0-3.3,1.47-3.3,3.28s1.48,3.28,3.3,3.28,3.3-1.47,3.3-3.28-1.48-3.28-3.3-3.28Z" style="fill:#fff; stroke-width:0px;"/><path d="M160.83,36.62c-2.41,0-4.38-1.95-4.38-4.35s1.97-4.35,4.38-4.35,4.38,1.95,4.38,4.35-1.96,4.35-4.38,4.35ZM160.83,28.99c-1.82,0-3.3,1.47-3.3,3.28s1.48,3.28,3.3,3.28,3.3-1.47,3.3-3.28-1.48-3.28-3.3-3.28Z" style="fill:#fff; stroke-width:0px;"/><path d="M164.75,32.31c-.29,0-.52-.22-.54-.51-.02-.3.21-.55.51-.56l6.68-.37c.29-.02.55.21.57.51.02.3-.21.55-.51.56l-6.68.37h-.03Z" style="fill:#fff; stroke-width:0px;"/><path d="M174.92,17.28c-.32,0-.65-.14-.86-.42-1.97-2.55-7.75-5.89-12.34-5.33-.59.07-1.13-.35-1.21-.93-.07-.59.35-1.13.94-1.2,5.42-.67,11.99,3.13,14.32,6.15.36.47.27,1.14-.2,1.51-.2.15-.43.22-.66.22Z" style="fill:#ffd54f; stroke-width:0px;"/><path d="M129.86,116.32l-17.85-.2-1.37-4.79,16.86-.24,2.36,5.23Z" style="fill:#e5f1ff; stroke-width:0px;"/><path d="M145.84,86.77c4.73,4.59,8.68,13.19,12.06,23.38l-15.03,1.74c-.93-7.78-5.98-21.04-13.33-27.84l16.3,2.71Z" style="fill:#e5f1ff; stroke-width:0px;"/><path d="M125.59,55.66c-.17,0-.34-.04-.49-.13l-21.69-12.63c-.46-.27-.62-.86-.35-1.32.27-.46.87-.61,1.33-.35l21.69,12.63c.46.27.62.86.35,1.32-.18.31-.51.48-.84.48Z" style="fill:#252833; stroke-width:0px;"/><path d="M101.16,40.31c.39.08.76.18,1.14.28l.55.17c.18.06.36.12.54.19.18.07.38.1.56.15.19.05.35.14.48.28.13.14.25.3.35.5.1.2.18.43.21.73,0,.06-.03.12-.09.15-.29.12-.52.15-.75.16-.22,0-.42-.02-.61-.07-.19-.05-.34-.15-.47-.29-.13-.14-.25-.3-.4-.43-.14-.13-.28-.25-.42-.39l-.41-.41c-.27-.28-.53-.56-.78-.87-.03-.04-.03-.1.01-.13.02-.02.05-.03.08-.02Z" style="fill:#252833; stroke-width:0px;"/><path d="M120.25,61.1c-2.98-.7-3.31-4.76-3.7-6.31-.45-1.78-1.56-2.1-2.08-3.87-.22-.76.2-1.63.72-2.18.35-.37.95-.35,1.3.03,1.54,1.72,4.71,4.29,5.76,5.42" style="fill:#ffb487; stroke-width:0px;"/><path d="M120.25,61.09c-2.98-.7-3.31-4.76-3.7-6.31-.45-1.78-1.56-2.1-2.08-3.86-.08-.26-.06-.75.14-1.31" style="fill:#ffb487; stroke-width:0px;"/><path d="M120.25,61.42s-.05,0-.08,0c-2.75-.65-3.39-3.84-3.77-5.75-.06-.31-.12-.58-.17-.8-.21-.85-.59-1.34-.99-1.86-.4-.53-.82-1.07-1.09-1.99-.11-.37-.06-.95.15-1.51.06-.17.25-.26.41-.2.17.06.26.24.2.41-.17.49-.19.91-.13,1.11.24.8.6,1.28.99,1.78.42.55.85,1.12,1.1,2.1.06.23.11.51.18.83.35,1.76.94,4.7,3.28,5.25.17.04.28.21.24.39-.04.14-.17.24-.31.24Z" style="fill:#d47455; stroke-width:0px;"/><path d="M168.38,92.13c-2.79,0-5.57-.75-7.97-2.22-.15-.09-.2-.29-.11-.44.1-.15.29-.2.45-.11,3.99,2.45,9.13,2.8,13.42.93.16-.07.35,0,.43.17.07.16,0,.35-.17.43-1.91.83-3.98,1.25-6.05,1.25Z" style="fill:#135094; stroke-width:0px;"/><path d="M167.05,13.74c-3.21-2.56-13.48-7.46-20.56-2.1-5.48,4.15-4.2,12.79,2,15.77,6.21,2.98,20.51-3.7,20.51-3.7l-1.95-9.97Z" style="fill:#ff5773; stroke-width:0px;"/><path d="M202.7,90.15s5.6,14.86,3.81,19.41c-2.43,6.15-6.69,5.27-17.83,5.27-12.34,0-20.9-2.12-25.13-1.83-4.23.3-14.47,4.28-16.85,4.54-2.45-1.1,2.21-2.88,2.21-2.88,0,0-6.78,2.57-7.83,1.29-1.05-1.28,5.14-4.06,5.14-4.06,0,0-3.55.86-7.13,1.4-.59.09-1.08-.49-.86-1.04.54-1.32,2.63-2.95,7.39-4.43-3.13.22-5.4.45-6.62.59-.48.05-.8-.47-.54-.87.68-1.05,2.15-2.57,4.93-2.79,5.24-.42,12.07-.82,11.95-1.71l-.9-2.21c1.55-1.01,2.46-.09,6.84,1.84,4.51,1.99,13.44,2.36,18.11,1.88,4.67-.48,11.06-2.02,11.06-2.02l-4.6-9.35c3.79-1.23,11.95-3.81,16.85-3.03Z" style="fill:#ffb487; stroke-width:0px;"/><g style="mask:url(#uuid-4cd8adc1-710a-4fab-bd15-7f48ac0cd75a);"><path d="M200.93,116.62c-.09,0-.17-.03-.23-.1-.13-.13-.12-.33,0-.46,3.34-3.26,3.82-5.76,3.22-6.91-.29-.55-.83-.8-1.49-.67-1.32.25-2.8,1.83-3.64,4.83-.1.87-.28,1.82-.54,2.86l-.64-.11c.12-1.08.31-2.04.54-2.89.41-3.62-.5-5.63-1.58-6.28-.64-.39-1.36-.32-1.95.2-1.27,1.1-1.74,4.03.05,8.09l-.59.26c-.53-1.17-3.73-3.22-5.68-3.07-.75.05-1.21.41-1.42,1.09,0,.44.13.81.43,1.12.64.66,1.84.9,2.75.9.18,0,.32.15.32.32s-.15.32-.32.32c-.51,0-2.24-.09-3.22-1.1-.43-.44-.63-.99-.61-1.63v-.07c.29-.97.98-1.52,2.02-1.59,1.58-.11,3.72.94,5.08,2.05-1.21-3.72-.42-6.16.75-7.18.8-.7,1.84-.8,2.72-.26,1.04.63,1.92,2.18,1.99,4.79.98-2.07,2.29-3.06,3.41-3.27.95-.18,1.76.2,2.19,1.01.74,1.41.25,4.16-3.34,7.66-.06.06-.14.09-.22.09Z" style="fill:#5c5e73; stroke-width:0px;"/><path d="M185.7,108.07c-.1,0-.19,0-.29-.02-1.49-.22-3.4-2.18-4.29-7.03-.03-.17.08-.34.26-.38.18-.03.35.08.38.26.83,4.52,2.54,6.33,3.75,6.51.57.08,1.05-.19,1.35-.77.81-1.56.05-4.91-3.51-8.57l.47-.45c4.32,4.44,8.08,5.55,9.74,4.71.54-.28.79-.74.69-1.32-.21-1.24-2.26-3.54-8.59-4.36l.08-.64c1.35.17,4.85-1.31,5.79-3.02.34-.62.29-1.18-.15-1.71-.51-.36-1.28-.47-2.16-.32-1.08.18-2.15.74-2.56,1.33-.1.15-.3.18-.45.09-.15-.1-.19-.3-.09-.45.5-.73,1.73-1.39,2.98-1.61,1.07-.18,2.03-.02,2.68.46l.06.05c.63.75.72,1.6.24,2.47-.74,1.33-2.7,2.49-4.39,3.03,4.85,1,6.91,3.01,7.18,4.56.15.85-.24,1.6-1.03,2-1.51.76-4.29.24-7.63-2.28,1.68,2.67,1.9,4.96,1.21,6.3-.37.72-1,1.13-1.73,1.13Z" style="fill:#5c5e73; stroke-width:0px;"/><path d="M205.79,99.69c-.28,0-.53-.06-.71-.13-.95-.34-1.73-1.32-2.12-2.53-.5,1.19-1.43,1.94-2.32,2.29-1.25.49-2.52.28-3.32-.54-.56-.58-1.3-1.9-.41-4.54-1.61.87-3.06.69-3.97.15-.86-.51-1.29-1.36-1.15-2.21.21-1.23,1.54-2.19,3.66-2.63.18-.04.35.07.38.25.04.17-.07.35-.25.38-1.84.38-2.99,1.15-3.15,2.1-.1.59.22,1.18.84,1.55.88.52,2.42.62,4.1-.67.12-.09.28-.09.4,0,.12.09.16.25.1.38-.93,2.14-.96,3.88-.08,4.78.61.63,1.62.78,2.61.39,1.08-.42,2.24-1.57,2.28-3.54,0-.18.16-.32.33-.31.18,0,.32.15.32.33-.04,1.9.97,3.41,1.96,3.77.65.23,1.28,0,1.84-.69.11-.14.32-.16.46-.05.14.11.16.31.05.45-.65.8-1.32,1.02-1.86,1.02Z" style="fill:#5c5e73; stroke-width:0px;"/><path d="M201.8,92.71c-.78,0-1.55-.46-1.88-1.17-.39-.85-.11-1.94.65-2.49.14-.1.35-.07.45.07.11.14.07.35-.07.45-.51.37-.71,1.13-.44,1.7.26.57.98.91,1.59.77.61-.14,1.09-.77,1.07-1.4,0-.18.13-.33.31-.33.18,0,.33.13.34.31.03.93-.65,1.83-1.57,2.04-.15.03-.29.05-.44.05Z" style="fill:#5c5e73; stroke-width:0px;"/><path d="M203.59,106.25c-.51,0-1-.11-1.43-.32-.69-.35-1.2-.99-1.36-1.71-.18-.81.1-1.64.72-2.13.69-.54,1.73-.56,2.37-.04.35.28.55.73.53,1.19-.01.44-.22.82-.56,1.06-.34.24-.77.31-1.14.19-.44-.14-.73-.57-.69-.98.02-.18.18-.31.36-.29.18.02.31.18.29.35-.01.12.1.25.25.3.17.06.4.02.56-.1.17-.12.27-.32.28-.55,0-.26-.1-.51-.29-.67-.4-.32-1.12-.3-1.56.05-.42.33-.61.92-.49,1.48.12.53.5,1.01,1.03,1.27.58.29,1.35.33,2.07.11.63-.2,1.24-.59,1.82-1.16.87-.86,1.47-1.92,1.73-3.07.04-.17.21-.28.39-.24.17.04.28.21.24.38-.29,1.27-.94,2.44-1.9,3.39-.65.64-1.35,1.09-2.08,1.32-.37.12-.76.18-1.13.18Z" style="fill:#5c5e73; stroke-width:0px;"/><path d="M180.13,116.12c-.95,0-1.88-.19-2.74-.56-.16-.07-.24-.26-.17-.42.07-.16.26-.24.43-.17,1.09.47,2.3.61,3.51.43.8-.13,1.48-.39,2.01-.78.61-.45,1.04-1.09,1.14-1.73.09-.57-.07-1.16-.43-1.57-.38-.43-.98-.62-1.49-.48-.55.15-.99.71-.96,1.23.01.25.15.48.37.63.19.13.42.17.61.1.2-.07.36-.22.41-.39.05-.15,0-.32-.1-.38-.15-.09-.21-.28-.12-.44.09-.15.29-.21.44-.12.36.21.53.7.39,1.13-.12.37-.43.67-.82.81-.39.13-.82.07-1.19-.18-.39-.26-.63-.68-.65-1.13-.04-.82.59-1.65,1.43-1.88.76-.21,1.61.06,2.15.68.49.55.7,1.34.58,2.1-.13.81-.64,1.59-1.39,2.15-.62.45-1.39.75-2.3.9-.38.05-.75.08-1.13.08Z" style="fill:#5c5e73; stroke-width:0px;"/></g><path d="M148.27,115.29c-.13,0-.24-.07-.3-.19-.07-.16,0-.35.17-.43.51-.22,1.12-.44,1.72-.64.59-.2,1.19-.41,1.68-.62.16-.07.35,0,.43.17.07.16,0,.35-.17.43-.51.22-1.12.44-1.72.64-.58.2-1.19.41-1.68.62-.04.02-.09.03-.13.03Z" style="fill:#d47455; stroke-width:0px;"/><path d="M146.22,112.22c-.14,0-.26-.09-.31-.22-.05-.17.04-.35.21-.41l4.76-1.52c.17-.06.35.04.41.21.05.17-.04.35-.21.41l-4.76,1.52s-.07.01-.1.01Z" style="fill:#d47455; stroke-width:0px;"/><path d="M134.67,128l-9.6-4.25,13.49-3.4,9.59,4.24-13.48,3.4Z" style="fill:#e5f1ff; stroke-width:0px;"/><path d="M137.65,125.73s-.02,0-.02,0l-1.38-.15c-.09-.01-.16-.07-.18-.16-.02-.09.01-.18.09-.23l.06-.04c-.75-.26-1.57-.33-2.35-.18-.01,0-.02,0-.03,0-.12.02-.23-.06-.25-.17-.02-.12.06-.23.17-.25,0,0,.02,0,.03,0,.16-.03.3-.13.4-.29.06-.1.1-.2.11-.31l-2.68.39c-.12.02-.23-.06-.24-.18-.02-.12.07-.23.18-.24l2.91-.43c.11-.02.21.05.24.16.06.27.01.56-.14.81.76-.02,1.52.13,2.21.44.07.03.12.1.12.18,0,.05,0,.1-.03.13l.82.09c.12.01.2.12.19.24-.02.11-.11.19-.22.19Z" style="fill:#5c5e73; stroke-width:0px;"/><path d="M140.75,124.41h0c-.41-.01-.79-.28-.95-.64-.52.12-1.1.19-1.56-.11-.3-.2-.49-.52-.49-.85l-1.16.05c-.12,0-.22-.09-.22-.21,0-.12.09-.22.21-.22l1.41-.06c.07,0,.14.03.18.08s.06.13.04.19c-.07.22.05.5.28.65.38.24.91.14,1.42.01.06-.02.12,0,.17.02.05.03.08.08.1.14.06.28.33.5.61.51.12,0,.21.1.21.22,0,.12-.1.21-.22.21Z" style="fill:#5c5e73; stroke-width:0px;"/><path d="M145.64,108.31c-.16,0-.3-.12-.32-.28-.02-.18.1-.34.28-.36l4.82-.59c.18-.02.34.1.36.28.02.18-.1.34-.28.36l-4.82.59s-.03,0-.04,0Z" style="fill:#d47455; stroke-width:0px;"/><path d="M169.34,32.27c1.08-1.34,2.44-1.42,3.16-1.31,3.9.61,1.68,8.17-4.52,6.81.22-2.14.31-3.5,1.37-5.5Z" style="fill:#ffb487; stroke-width:0px;"/><path d="M170.82,34.39c-.06,0-.11-.01-.16-.05-.15-.09-.21-.29-.11-.44.21-.35,1-1.43,2.48-.76.16.07.24.26.16.43-.07.16-.26.23-.43.16-.93-.42-1.44.13-1.66.5-.06.11-.17.16-.28.16Z" style="fill:#d47455; stroke-width:0px;"/><path d="M170.63,39.71c.83,0,1.5-.77,1.5-1.71s-.67-1.71-1.5-1.71-1.5.77-1.5,1.71.67,1.71,1.5,1.71Z" style="fill:#252833; stroke-width:0px;"/><path d="M157,32.69c-.16,0-.32-.07-.43-.21-.93-1.21-2.24-1.49-4.01-.87-.28.1-.59-.05-.69-.33-.1-.28.05-.59.33-.69,2.23-.79,3.99-.38,5.23,1.23.18.24.14.57-.1.75-.1.08-.22.11-.33.11Z" style="fill:#fff; stroke-width:0px;"/></g><path d="M22.05,47.36c-2.71.03-4.45-.37-5.81-1.32-2.1-1.48-3.25-4.22-4.1-9.85l-.22-1.43h.18s.17-.02.17-.02l.13.64c.18.96.42,1.63.8,2.29.56.97,1.63,1.95,2.68,2.46.59.28.84.36,1.36.46,1.71.33,5.01-.19,6.44-1,.98-.55,1.92-1.58,2.44-2.68.45-.93.64-1.84.6-2.93-.01-.28-.03-.7-.04-.93,0-.23-.06-.72-.11-1.09-.11-.75-.18-.9-.49-1l-.16-.06-.71.57c-.39.31-.78.62-.87.69-.08.06-.47.37-.86.67-.79.63-.98.76-1.64,1.1-1.34.7-3.32.98-4.81.69-.9-.17-1.03-.22-4.21-1.51-.34-.14-.36-.14-.49-.05-.2.15-.28.38-.23.73l.04.3-.33.05-.26-1.83-.26-1.83-.12-.07c-.08-.05-.13-.12-.14-.22-.02-.13,0-.15.13-.17.15-.02.5.1,3.28,1.23,1.93.78,2.53.95,3.69.98.67.02,1.82-.2,2.46-.46.97-.4,1.2-.56,3.37-2.29.8-.64,1.84-1.46,2.32-1.84.67-.53.9-.69,1.04-.71l.17-.03.33,2.2.34,2.2.18.21c.21.24.52.41.77.42.24,0,.57-.25.73-.56l.11-.23-.51-3.63-.52-3.64-.18-.28c-.11-.18-.33-.4-.58-.59-.43-.34-.32-.29-3.05-1.38-.73-.29-1.63-.65-1.99-.8-.37-.15-.98-.39-1.36-.54-.38-.15-.97-.39-1.32-.53-1.3-.52-1.81-.64-2.71-.64-.44,0-.58.02-.99.14-.98.28-1.22.44-3.09,1.93-2.89,2.3-3.12,2.48-3.2,2.49-.03,0-.07.03-.08.06-.02.09-.39.36-.52.38-.13.02-.15,0-.17-.14s0-.18.17-.32c.11-.08.22-.16.25-.16.13-.02.22-.23.19-.43-.05-.33-.11-1.75-.11-2.47,0-3.44.9-5.5,3.02-6.94.77-.52,1.81-.99,3.15-1.43.59-.19.7-.21,3.35-.59,5.12-.73,7.4-.84,9.36-.46,1.9.37,3.36,1.34,4.39,2.89.91,1.39,1.49,3.2,2.12,6.59.34,1.83,1.98,13.39,2.06,14.5.27,3.71,0,5.6-1.05,7.29-1.06,1.7-2.89,2.79-5.95,3.55-1.32.32-2.05.46-4.98.9-2.44.37-3.23.47-3.61.48ZM9.17,29.59c-.11-.04-.15-.09-.17-.22-.02-.15-.01-.17.12-.19.08-.01.22,0,.3.03.13.05.16.08.18.22.02.16.01.17-.13.19-.09,0-.22,0-.3-.04ZM8.46,29.27s-.08-.12-.09-.2c-.02-.15-.04-.16-.2-.15-.18.01-.19,0-.23-.17l-.04-.18h.18c.18-.02.19-.01.23.16.04.16.05.17.2.15.2-.03.28.03.31.23.02.15.01.16-.14.18-.09.01-.19,0-.22-.03Z" style="fill:#00eae2; stroke-width:0px;"/><path d="M14.74,48.46c-3.86.43-6.17.25-7.91-.6-.54-.26-1.48-.98-1.89-1.43-1.2-1.34-1.88-3.04-2.61-6.45-.26-1.22-1.77-11.38-2.02-13.58-.38-3.34-.42-5.02-.13-6.64.42-2.39,1.81-4.15,4.09-5.17,2.04-.92,4.44-1.42,11.88-2.49,2.4-.34,3.45-.48,2.87-.38-4.06.75-6.65,2.18-7.76,4.31-.2.39-.51,1.21-.63,1.7-.26,1.04-.35,2.59-.26,4.43.05,1.05.09,1.27.18,1.23.05-.03.07-.01.08.05.01.09-.03.13-1.84,1.58-.88.7-1.14,1.11-1.22,1.9-.06.58.15,1.13.64,1.64.3.31.56.44,2.17,1.08,1.04.41,1.17.48,1.19.59.01.08-.04.09-.2,0q-.13-.06-.03.02c.1.08.12.2.35,1.91.14,1,.24,1.67.22,1.48-.01-.18,0-.38.02-.43.03-.07.1.33.27,1.48.15.97.21,1.5.16,1.37-.04-.12-.11-.42-.14-.68-.04-.25-.09-.47-.11-.48-.06-.03.3,2.28.53,3.47.68,3.42,1.58,5.51,2.91,6.84.64.63,1.56,1.18,2.45,1.48,1.49.49,3.64.61,6.28.34.55-.05-.99.18-4.15.64-2.76.4-5.2.75-5.41.77ZM9.45,29.46s-.07-.04-.16-.08c-.2-.06-.2-.02,0,.04.16.06.17.06.16.03Z" style="fill:#007bff; stroke-width:0px;"/><path d="M19.13,40.84c-.99.07-2.01-.01-2.65-.23-1.33-.45-2.72-1.58-3.41-2.77-.46-.8-.69-1.54-.97-3.22-.23-1.34-.23-1.42.05-1.65.21-.18.39-.18.79-.01,2.5,1.02,2.84,1.15,3.33,1.3,1.77.55,3.82.38,5.4-.44.66-.34.85-.47,1.64-1.1.39-.31.77-.61.86-.67.08-.07.47-.37.86-.69.77-.61.9-.67,1.2-.54.29.12.34.24.47,1.14.06.44.12.99.13,1.22,0,.23.03.65.04.93.07,2.04-.75,3.84-2.36,5.15-1.03.84-2.88,1.38-5.38,1.58Z" style="fill:#fff; stroke-width:0px;"/><path d="M28.91,32.12c-.19-.01-.52-.21-.7-.43l-.18-.21-.34-2.21c-.29-1.89-.34-2.2-.4-2.17-.06.03-1.42,1.11-3.7,2.92-1.55,1.24-1.94,1.49-2.85,1.87-.64.26-2.05.52-2.75.5-1.14-.03-1.8-.2-3.67-.96-.75-.3-1.79-.73-2.32-.93-2.03-.79-2.43-.95-2.53-1.02-.06-.04-.24-.11-.39-.16-.15-.05-.34-.14-.42-.18-.08-.05-.18-.1-.22-.11s-.13-.07-.19-.14c-.05-.07-.17-.19-.26-.27-.25-.24-.43-.6-.52-1.05-.16-.73-.03-1.36.38-1.91.18-.24.45-.49,1.09-.99.47-.37.86-.67.87-.68,0,0,.1-.07.21-.16.1-.08.29-.24.43-.34s.47-.36.75-.59c2.71-2.16,3.76-2.99,4-3.14.44-.28.83-.45,1.44-.63.52-.15.6-.16,1.15-.16.97,0,1.44.1,2.77.63.34.14.94.38,1.32.53.38.15.99.4,1.36.54.37.15,1.26.5,1.99.8,2.73,1.09,2.62,1.04,3.05,1.38.25.19.47.41.58.59l.18.27.54,3.71c.37,2.57.53,3.75.51,3.85-.12.52-.61.88-1.18.84Z" style="fill:#fff; stroke-width:0px;"/><path d="M55.43,83.17l2.14,7.49c.19.66.71,1.18,1.37,1.37l7.49,2.14-7.49,2.14c-.66.19-1.18.71-1.37,1.37l-2.14,7.49-2.14-7.49c-.19-.66-.71-1.18-1.37-1.37l-7.49-2.14,7.49-2.14c.66-.19,1.18-.71,1.37-1.37l2.14-7.49Z" style="fill:#ffa000; stroke-width:0px;"/></svg>