<?xml version="1.0" encoding="UTF-8"?><svg id="uuid-15403c31-3db9-4db0-aaf3-ff760feebed6" xmlns="http://www.w3.org/2000/svg" viewBox="0 0 14976.96 2368"><path d="M14976.81,1478.9v870.9H.81V.07h14976v978.89l-3.99-8-2-10-13.98-33c-27.96-60.99-67.9-112.99-120.82-153.98-57.91-44.99-123.82-72.99-196.71-86.99l-35.95-5-25.96-2-24.96-1c-60.91-1.19-121.71,5.87-180.73,21-57.28,16.16-110.86,43.32-157.77,79.99-39.94,34-66.9,75.99-80.88,126.99-14.8,63.65-13.42,130,3.99,192.98,15.98,48.99,44.93,87.99,86.87,116.99l23.96,15c74.58,40.84,154.61,70.81,237.65,88.99l52.92,12c39.07,9.42,77.18,22.47,113.83,39l23.96,16c7.99,7,14.98,14,19.97,23,4.99,9,8.99,19,8.99,29v15c-1,14-5.99,26-14.98,37l-13.98,13c-5.99,5-13.98,9-20.97,13-19.97,9-39.94,14-60.91,18-41.77,6.74-84.42,5.73-125.82-3-65.61-14.48-120.67-58.88-148.78-119.99l-6.99-15c-1-2-3-3-4.99-3l-23.96,4-92.86,15-92.86,15-24.96,5-8.99,2c-2,1-3.99,4-3,6v4l10.98,39c24.96,74.99,68.9,137.98,131.81,185.98,40.94,31,85.87,53.99,134.8,68.99,39.94,13,81.88,20,123.82,23l8.99,1c81.74,4.2,163.68-2.53,243.64-20,60.54-16.51,116.99-45.45,165.76-84.99,17.97-15,32.95-32,45.93-50.99,23.87-35.89,39.86-76.45,46.93-118.99v-6l3-4ZM10620.21,1041.95V368.02l-1-21v-5c0-2-3-4-3.99-4l-12.98-1h-247.64l-3.99,1-3,4-1,21v452.95c-.22,8.34-.55,16.67-1,25l-3,1c-3.99-2-5.99-5-8.99-8l-36.95-33c-50-40.07-105.92-72.12-165.76-94.99-27.96-10-57.91-17-86.87-22l-37.94-4-40.94-1c-58.15-.98-116.09,7.12-171.75,24-87.87,29-162.76,78.99-222.67,149.98-73.29,91.29-116.54,203.06-123.82,319.96v12l-2,37c.79,51.47,6.81,102.73,17.97,152.98,14.98,60.99,39.94,117.99,73.89,169.98,81.79,127.08,218.81,207.92,369.46,217.98l9.99,1,30.95,2c40.18.87,80.34-2.48,119.82-10,42.94-9,83.88-23,122.82-43,61.11-28.27,115.56-69.16,159.77-119.99l4.99-5,2-1c1-1,3,0,3,1l4.99,12,37.94,128.99,3,11c2,3,3.99,6,6.99,6h7.99c63.24.02,126.48,0,189.72,0h3.99c2-1,4.99-3,4.99-5l1-23v-675.92ZM11515.89,1291.92h410.4c3-1,5.99-3,5.99-6l3-39c3.5-60.51-2.23-121.2-16.98-179.98-32.49-120.8-108.18-225.42-212.69-293.97-67.9-44.99-140.79-72.99-221.67-85.99l-33.95-5-33.95-2-15.98-1c-56.02-1.32-112,4.05-166.76,16-96.45,21.84-185.16,69.54-256.62,137.98-80.15,78.41-132.41,180.97-148.78,291.97l-4.99,39-2,36v25c.08,90.51,20.92,179.8,60.91,260.97,51.77,100.4,135.85,180.37,238.65,226.97,61.91,28,126.81,44.99,193.72,49.99l11.98,1,33.95,2c58.1,1,116.1-5.04,172.75-18,81.01-19.63,157.14-55.71,223.67-105.99,58.94-46.51,103.87-108.46,129.81-178.98l1-4-3-3c-8.99-3-19.97-4-29.96-5l-57.91-10-81.88-13-74.89-13h-3.99l-3.99,1-7.99,11c-29.64,34.66-67.37,61.45-109.84,77.99-30.95,11-62.91,18-95.86,20h-50.93c-24.96-1-49.93-5-73.89-12-81.81-22.24-147.95-82.51-177.74-161.98-5.99-16-10.98-33-13.98-49.99l-1-3c0-3,3-5,4.99-5l20.97-1h389.43ZM5045.4,1221.93l-3-52.99c0-10-2-19-3-29-16.1-141.31-91.2-269.18-206.7-351.96-98.47-70.53-216.43-108.62-337.5-108.99h-61.91c-43.92,1.32-87.52,8.04-129.81,20-66.9,17-128.81,44.99-185.73,84.99-126.47,87.84-206.49,228.24-217.68,381.96l-2,15-1,23c-1.35,55.55,4.7,111.03,17.97,164.98,24.96,96.99,74.89,178.98,146.78,246.97,97.16,85.57,219.47,137.16,348.49,146.98l12.98,1,20.97,2c62.76,2.07,125.52-3.98,186.73-18,66.9-16,128.81-43,185.73-80.99,129.75-85.3,212.72-225.99,224.67-380.96,3-21,3.99-42,3.99-63.99ZM12105.03,1222.93v512.94l1,5c0,2,2,4,3.99,4l12.98,1h248.63c3-1,4.99-3,5.99-5v-573.93c.34-32.68,4.36-65.21,11.98-96.99,18.28-64.51,66.1-116.47,128.81-139.98,37.29-12.47,77.07-15.56,115.83-9,31.95,5,60.91,17,86.87,36,53.69,38.69,86.78,99.82,89.87,165.98l1,46.99v564.94l1,6c0,2,3,4,4.99,5h260.62c3,0,5.99-3,6.99-6v-604.93l-2-55.99c-6.39-85.06-35.34-166.87-83.88-236.97-98.48-138.22-275.11-196.51-436.36-143.98-74.89,26-135.8,69.99-183.73,131.98l-10.98,14-2,3c-2,1-3,0-3.99-1l-3.99-10-19.97-66.99c-6.95-22.34-13.94-44.67-20.97-66.99l-3-2c-3.99-2-8.99-1-12.98-1h-191.72c-2,0-3.99,3-3.99,4l-1,21v498.94ZM9256.21,1223.93v-514.94c0-8-2-10-9.99-10h-258.62l-3.99,4v571.93c-.72,33.31-4.74,66.47-11.98,98.99-8.99,33-24.96,62.99-47.93,87.99-33.71,37.86-81.21,60.56-131.81,62.99h-39.94c-45.79-2.66-89.07-21.84-121.82-53.99-37.94-35-58.91-79.99-67.9-129.99-3-19-3.99-37-3.99-55.99v-580.93c0-3-3-5-4.99-5h-11.98c-82.55-.02-165.09-.02-247.64,0h-3l-3.99,4-1,21v602.93c.03,42.83,5.4,85.49,15.98,126.99,12.98,51.99,34.95,99.99,65.9,144.98,58.17,84.67,147.66,142.61,248.63,160.98,10.98,3,21.97,3,31.95,4l30.95,2c121.55,1.66,236.01-57.15,305.55-156.98l4.99-8,3.99-4,3-1c1,0,2,0,3,2l10.98,38,27.96,91.99c5.99,19,3,18,22.97,18h185.73l3.99-1c2,0,3.99-3,4.99-5v-515.94ZM6481.29,1413.91l-57.91,10-58.91,10-8.99,2c-3,1-4.99,3-3.99,6,18.61,94.92,72.95,179.05,151.78,234.97,31.95,23,66.9,41,103.85,54.99,46.93,17,94.86,27,143.79,31l11.98,1c82.45,4.05,165.07-3.01,245.64-21,55.98-15.16,108.52-40.96,154.77-75.99,50.71-42.74,85.82-101.12,99.85-165.98l4.99-34,2-21c.21-35.87-4.84-71.58-14.98-105.99-15.83-48.95-48.81-90.5-92.86-116.99-79.37-49.31-166.99-83.86-258.62-101.99-50.83-12.23-100.85-27.59-149.78-45.99l-26.96-14c-7.99-5-14.98-11-20.97-17-12.5-12.47-19.67-29.33-19.97-46.99-1.23-18.15,5.3-35.96,17.97-48.99,6.99-7,13.98-13,22.97-18,14.98-9,31.95-15,48.93-20,33.81-8.04,69.04-8.04,102.85,0,57.96,12.34,106.77,51.21,131.81,104.99l6.99,15c1,2,3,3,4.99,3h7.99l25.96-5,90.87-15c38.56-6.65,77.17-12.98,115.83-19l3-1c2-1,3.99-4,3.99-6-24.74-88.46-78.57-165.97-152.78-219.97-55.92-41-118.83-66.99-186.73-79.99l-36.95-5-23.96-2-26.96-1c-55.03-1.4-110.03,3.97-163.76,16-57.29,14.27-111.45,39.02-159.77,72.99-49.93,37-82.88,85.99-96.86,146.98-6.99,26-8.99,52.99-9.99,79.99l2,42c2,22,6.99,43,13.98,63.99,15.98,48.99,44.93,87.99,87.87,116.99,34.75,23.01,71.92,42.12,110.84,56.99,47.93,20,98.85,35,149.78,45.99l66.9,16c35.34,9.17,69.76,21.56,102.85,37,8.99,5,16.98,11,24.96,18,12.98,12,21.97,28,24.96,45.99,1,13,0,25-4.99,36-3.99,11-10.98,20-19.97,28-6.99,6-14.98,11-23.96,15-19.97,9-40.94,15-61.91,19-41.83,6.37-84.47,5.01-125.82-4-69.9-15-121.82-61.99-148.78-116.99l-4.99-12-3-5c0-2-3-3-3.99-3l-24.96,4-92.86,15ZM3549.59,1337.91v-398.95c0-5,3-9,7.99-9h291.57c2-1,4.99-3,4.99-5v-19c-.3-67.99-.63-135.98-1-203.98l-2-2-5.99-1h-274.6l-16.98-1-3-3-1-5v-25l1-25,5.99-24c7.99-18,20.97-31,37.94-39l16.98-5c9.99-2,20.97-4,31.95-3h220.68l7.99-1h1c2,0,3.99-3,3.99-4,1-9-1-18-2-27l-2-23-1-9-5.99-53.99-4.99-52.99-3.99-38-3-17c0-4-3-6-5.99-6h-203.7l-49.93,1-10.98,1-45.93,6c-49.65,8.77-97.13,27.1-139.79,53.99-42.94,29-73.89,66.99-93.86,113.99-13.98,31-20.97,62.99-24.96,95.99l-3,65.99v17c0,3-3,6-5.99,6l-16.98,1h-134.8c-2,0-3.99,3-4.99,5v19c.3,67.66.63,135.32,1,202.98,0,2,1,3,2,3l7.99,1h135.8l11.98,1,3,2,1,4v801.91l2,4,2,2,9.99,1h247.64l6.99-1,3-2,1-4,1-21v-379.96ZM7523.76,1194.93v227.97c.26,43.02,6.65,85.78,18.97,126.99,22.97,66.99,65.9,117.99,128.81,150.98,48.06,22.89,99.78,37.11,152.78,42l68.9,3h202.7c3,0,5.99-3,5.99-6l4.99-40,3.99-45.99,1-2,2-25,2-13,2-21,1-16,2-13,3-29,1-13v-4l-3.99-4h-220.68l-26.96-1c-10.98-1-21.97-4-32.95-9-15.98-7-27.96-19-34.95-36-3-6-4.99-13-5.99-20-2-11-3-21-3-32v-475.95l1-4c0-2,2-5,4.99-5l18.97-1h271.6c4.99,0,8.99-2,8.99-8v-212.98l-1-6-3-4h-289.57c-9.99-1-11.98-2-11.98-11v-281.97c0-4-3-7-5.99-7h-199.71c-1,0-4.99,3-4.99,5l-8.99,39-16.98,82.99-16.98,82.99-16.98,77.99-2,8c-1,1-2,3-3.99,3l-15.98,1h-139.79l-3,4-1,12v204.98c0,7,2,10,8.99,10h143.79l5.99,1c2,0,3.99,2,3.99,5l1,19v239.97ZM13378.16,1193.93v212.98l3,62.99c3,26,7.99,51.99,15.98,76.99,22.97,68.99,65.9,119.99,129.81,153.98,48.7,23.08,101.1,37.3,154.77,42,19.97,2,40.94,3,60.91,3h208.69c2,0,4.99-3,5.99-5l3-31,4.99-50.99,1-6,2-17,2-17,2-23,2-17,2-15,2-25,2-19c0-2-3-6-4.99-6h-239.65c-8.99-1-18.97-2-27.96-5-10.98-3-21.97-8-29.96-16-12.29-11.32-20.38-26.48-22.97-43-2-11-3.99-22-3-33v-481.94c1-2,3-4,5.99-4l18.97-1h269.6l5.99-1c1,0,3.99-2,3.99-4l1-13v-195.98l-1-9v-4l-3.99-4h-289.57l-5.99-1c-2,0-3.99-3-4.99-5v-283.97l-1-6-3.99-4h-200.71c-3,1-4.99,3-5.99,5l-3.99,21-20.97,99.99-29.96,143.98-4.99,23c-1,4-3,6-7.99,6l-16.98,1h-134.8c-2,0-4.99,3-4.99,5v220.97c0,2,3,5,4.99,5h147.78l5.99,1,3.99,4v258.97ZM5234.12,1220.93v494.94l1,19v6c0,2,3,5,4.99,5h241.65c6.99-.24,13.98-.58,20.97-1l3-2,1-4,1-21v-569.93c-.11-26.82,2.23-53.6,6.99-79.99,3-10,5.99-20,10.98-30,12.89-28.24,36.13-50.43,64.9-61.99,30.87-13.42,64.2-20.23,97.86-20h162.76c2,0,3.99-3,4.99-5l-2-29-2-21-4.99-56.99-1-4-2-27-2-15-2-21-1-15c-2-12-3-23-3-35l-3-22-1-2c0-2-3-4-3.99-4h-37.94c-55.61.03-110.87,8.8-163.76,26-24.96,9-47.93,22-67.9,39-23.26,19.14-43.47,41.74-59.91,66.99l-5.99,7c-1,2-3.99,1-4.99,0l-3.99-11-11.98-42c-7.95-27.67-15.94-55.34-23.96-82.99l-3-2-9.99-1h-195.71l-1,1-3,3v21l-1,496.94Z" style="fill:#fff; stroke-width:0px;"/><path d="M14976.81,1393.91l-2-3-1-6c-6.56-63.13-40.52-120.18-92.86-155.98-18.97-12-37.94-24-57.91-34-61.27-32.44-126.83-56.01-194.71-69.99-55.19-13.04-109.54-29.41-162.76-48.99l-18.97-9c-16.72-8.37-31.12-20.73-41.94-36-20.15-31.67-10.84-73.7,20.79-93.88.06-.04.12-.08.18-.11,25.97-17.33,55.81-27.98,86.87-31,17.97-2,34.95-2,51.92,0,67.96,5.78,127.51,47.83,155.77,109.99l6.99,14c1,2,3,3,5.99,3h5.99l55.92-10,54.92-9,60.91-10,52.92-9c3.99-1,8.99-2,12.98,0v398.95Z" style="fill:#fff; stroke-width:0px;"/><path d="M10620.21,1041.95v675.92l-1,23c0,2-3,4-4.99,5h-201.7c-3,0-4.99-2-5.99-6l-3.99-11-37.94-127.99-4.99-13-3-1-2,1-4.99,5c-44.91,50.07-99.19,90.83-159.77,119.99-55.18,28.89-115.65,46.24-177.74,50.99-31.9,2.67-63.96,2.67-95.86,0l-9.99-1c-217.35-15.73-398.11-173.5-443.35-386.96-15.87-62.33-21.26-126.87-15.98-190.98v-11c7.07-117.25,50.34-229.4,123.82-320.96,77.33-92.92,186.78-153.26,306.55-168.98,28.96-4,58.91-6,87.87-5l40.94,1,37.94,4c110.6,16.71,212.49,69.83,289.57,150.98l8.99,7,3-1,1-4v-473.95l1-21,3-4,3.99-1h247.64l12.98,1,3.99,4,1,5v694.92ZM10036.07,1525.89c26.96,0,53.92-3,79.88-8,133.85-27.46,230.13-145.15,230.66-281.97.84-43.09-5.57-86.02-18.97-126.99-26.96-74.99-90.87-141.98-174.74-171.98-91.53-31.08-191.76-23.5-277.59,21-82.59,47.87-136.08,133.65-142.79,228.97-3.49,37.42-1.47,75.15,5.99,111.99,19.06,89.5,80.02,164.32,163.76,200.98,31.95,14,65.9,22,101.85,25l31.95,1ZM11515.89,1291.92h-389.43l-20.97,1c-2,0-4.99,2-4.99,5l1,3c21.96,129.63,134.3,224.36,265.61,223.97h50.93c51.96-3.01,102.38-18.81,146.78-45.99,26.12-16.52,48.83-37.91,66.9-62.99l3.99-1h3l75.89,13,81.88,13,57.91,10c9.99,1,20.97,2,29.96,5,2,1,2,2,2,3v4l-1,5c-33.23,87.64-95.66,161.1-176.74,207.98-73.7,44.81-156.07,73.44-241.65,83.99-46.69,5.94-93.84,7.28-140.79,4l-11.98-1c-110.27-8.56-215.55-49.61-302.56-117.99-94.78-76.11-158.67-184.15-179.74-303.97-7.99-38-11.98-76.99-10.98-115.99v-25l2-36,4.99-38c36.54-239.46,232.25-422.61,473.3-442.95,32.95-4,65.9-5,98.85-4l15.98,1,33.95,2,33.95,5c115.14,18.05,221.69,71.92,304.55,153.98,106.54,106.88,160.3,255.55,146.78,405.95l-3,39c0,3-3,5-5.99,6h-410.4ZM11376.1,1097.94h252.63l4.99-1c2,0,3-2,3-4l-1-4c-19.97-53.99-51.92-98.99-98.85-132.98-39.94-30-84.88-46.99-133.8-49.99-40.89-4.19-82.19.94-120.82,15-59.91,20-132.8,71.99-165.76,168.98l-1,4,3.99,4h256.62ZM5045.4,1221.93c1.6,72.58-11.65,144.72-38.94,211.98-37.99,95.24-104.2,176.55-189.72,232.97-75.26,50.66-161.54,82.55-251.63,92.99-39.94,5-79.88,7-120.82,6l-20.97-2-12.98-1c-129.03-9.75-251.37-61.35-348.49-146.98-87.34-80.43-143.56-189.13-158.77-306.96-4.99-35-6.99-69.99-5.99-104.99l1-23,2-15c11.61-153.59,91.53-293.82,217.68-381.96,92.31-65.83,202.23-102.4,315.54-104.99h61.91c120.89,1.52,238.51,39.5,337.5,108.99,115.5,82.78,190.59,210.65,206.7,351.96,1,10,3,19,3,29l3,52.99ZM4181.67,1215.93c1,34,3,62.99,9.99,90.99,23.7,105.08,107.11,186.25,212.69,206.98,10.98,3,21.97,3,32.95,4,34.34,3.34,68.99,1.66,102.85-5,84.94-16.61,156.68-73.19,192.72-151.98,26.75-61.28,34.75-129.14,22.97-194.98-3.99-29-11.98-56.99-23.96-82.99-40.44-89.66-126.68-149.92-224.67-156.98-30.95-3-62.91-2-93.86,3-72.33,10.68-137.03,50.85-178.74,110.99-28.96,42-44.93,88.99-49.93,138.98l-3,37ZM12105.03,1222.93v-498.94l1-21c0-1,2-4,3.99-4h191.72c3.99,0,8.99-1,12.98,1l3,2,2,5,18.97,61.99,19.97,66.99,3.99,10c1,1,2,2,3,1l3-3,10.98-13c59.18-78.39,145.93-131.3,242.64-147.98,43.7-7.27,88.35-6.6,131.81,2,99.28,18.02,187.5,74.4,245.64,156.98,50.18,69.25,79.31,151.54,83.88,236.97l2,55.99v583.93l-1,21c0,3-3,6-5.99,6h-260.62c-2-1-4.99-3-4.99-5l-1-6v-564.94l-1-46.99c-3.09-66.16-36.18-127.29-89.87-165.98-25.96-19-54.92-31-87.87-36-38.45-6.16-77.81-3.07-114.83,9-33.95,12-61.91,31-84.88,57.99-30.54,34.92-49.09,78.73-52.92,124.99l-3,53.99v573.93c-1,2-3,4-5.99,5h-248.63l-12.98-1c-2,0-3.99-2-3.99-4l-1-5v-512.94ZM9256.21,1223.93v494.94l-1,21c0,2-2,5-3.99,5l-3.99,1h-185.73c-19.97,0-16.98,1-22.97-18l-27.96-91.99-10.98-38c-1-2-2-2-3-2l-3,1-3.99,5-4.99,7c-71.34,97.75-184.65,155.96-305.55,156.98-9.99,0-19.97,0-30.95-2-9.99-1-20.97-1-31.95-4-101.3-18.23-191.15-76.17-249.63-160.98-55.81-79.42-84.21-174.91-80.88-271.97v-602.93l1-21,3.99-4h261.62c3,0,5.99,3,5.99,5v580.93c0,19,1,37,3.99,55.99,8.99,49.99,29.96,94.99,66.9,129.99,33.01,32.37,76.68,51.57,122.82,53.99h39.94c50.6-2.43,98.09-25.13,131.81-62.99,22.97-25,38.94-54.99,47.93-87.99,6.93-32.55,10.61-65.71,10.98-98.99l1-546.94v-25l3.99-4h258.62c7.99,0,9.99,2,9.99,10v514.94ZM6481.29,1413.91l92.86-15,24.96-4c1,0,3.99,1,3.99,3l3,5,5.99,12c25.96,54.99,77.89,101.99,147.78,117.99,62.76,13.68,128.18,8.11,187.72-16,8.99-4,16.98-9,23.96-15,17.92-15.72,26.89-39.32,23.96-62.99-2-19-10.98-35-23.96-46.99-7.99-7-15.98-13-24.96-18l-32.95-15c-22.97-9-45.93-16-69.9-22l-66.9-16c-50.93-11-101.85-26-149.78-45.99-38.78-15.19-75.91-34.29-110.84-56.99-42.94-29-71.89-67.99-87.87-116.99-6.99-21-11.98-42-12.98-63.99l-3-42c1-27,3-53.99,9.99-79.99,14.98-60.99,46.93-109.99,96.86-146.98,64.56-45.48,139.33-74.33,217.68-83.99,34.95-5,70.9-6,105.84-5l26.96,1,24.96,2,35.95,5c67.9,13,130.81,39,186.73,79.99,74.21,54.01,128.04,131.52,152.78,219.97,0,2-1,5-3.99,6l-3,1-20.97,3-94.86,16-90.87,15-25.96,5h-7.99c-2,0-3.99-1-3.99-3l-7.99-15c-31.58-68.81-101.14-112.1-176.74-109.99-19.97-1-38.94,1-57.91,5-16.98,5-33.95,11-48.93,20-12.37,7.2-22.95,17.12-30.95,29-7.99,11-9.99,24-9.99,38,1,18,7.99,34,19.97,46.99,5.99,6,12.98,12,20.97,17l26.96,14c48.9,18.78,98.92,34.47,149.78,46.99l84.88,22c67.81,21.72,132.32,52.67,191.72,91.99,34.95,27,59.91,60.99,74.89,103.99,12.02,41.19,16.75,84.16,13.98,126.99-2,11-3,23-5.99,34-14.03,64.87-49.15,123.24-99.85,165.98-46.47,35.5-99.37,61.65-155.77,76.99-80.57,17.98-163.19,25.05-245.64,21l-10.98-2c-89.29-4.78-175.44-34.57-248.63-85.99-78.45-56.1-132.42-140.21-150.78-234.97-1-3,1-5,3.99-6l8.99-2,58.91-10,57.91-10ZM3549.59,1337.91v379.96l-1,21-1,4-3,2-6.99,1h-247.64l-9.99-1-2-2-2-4v-778.91c-.18-9-.51-18-1-27l-3-2-11.98-1h-135.8l-7.99-1c-1,0-2-1-2-3l-1-3v-218.98c1-2,3-5,4.99-5h134.8l16.98-1c3,0,5.99-3,5.99-6v-17l3-65.99c3.99-33,10.98-64.99,24.96-95.99,19.97-46.99,50.93-84.99,93.86-113.99,42.67-26.89,90.15-45.23,139.79-53.99l45.93-6,10.98-1,49.93-1h203.7c3,0,5.99,2,5.99,6l3,17,3.99,38,4.99,52.99,5.99,53.99,1,9,2,23c1,9,3,18,2,27,0,1-2,4-3.99,4h-1l-7.99,1h-220.68c-16.66-.3-33.23,2.41-48.93,8-16.98,8-29.96,21-37.94,39l-5.99,24-1,25v25l1,5,3,3,16.98,1h255.62c8.33.21,16.65.55,24.96,1l2,2,1,4v218.98c0,2-3,4-4.99,5h-291.57c-4.99,0-7.99,4-7.99,9v398.95ZM7523.76,1194.93v-239.97l-1-19c0-3-2-5-4.99-5l-4.99-1h-143.79c-6.99,0-8.99-3-8.99-10v-204.98l1-12,3-3,3.99-1h135.8l15.98-1c2,0,3-2,3.99-3l2-8,16.98-77.99,16.98-82.99,16.98-82.99,8.99-39c0-2,3-5,4.99-5h199.71c3,0,5.99,3,5.99,7v281.97c0,9,2,10,11.98,11h289.57l3,4,1,6v212.98c0,6-3.99,8-8.99,8h-271.6l-18.97,1c-3,0-4.99,3-4.99,5l-1,4v475.95c0,11,1,21,3,32,1,7,3,14,5.99,20,6.99,17,18.97,29,34.95,36,10.98,5,21.97,8,32.95,9l26.96,1h220.68l3.99,4v4l-1,13-3,29-2,13-1,16-2,21-2,13-2,25-1,2-3.99,45.99-4.99,40c0,3-3,6-5.99,6h-202.7l-68.9-3c-53-4.89-104.71-19.11-152.78-42-62.91-33-105.84-83.99-128.81-150.98l-11.98-47.99c-4.99-26-6.99-51.99-6.99-78.99v-227.97ZM13378.16,1193.93v-258.97l-3.99-4-5.99-1h-147.78c-2,0-4.99-3-4.99-5v-220.97c0-2,3-5,4.99-5h134.8l16.98-1c4.99,0,6.99-2,7.99-6l4.99-23,29.96-143.98,20.97-99.99,3.99-21c1-2,3-4,5.99-5h200.71l3.99,4v6l1,19v264.97c1,2,3,5,4.99,5l5.99,1h289.57l3.99,4v221.97c0,2-3,4-3.99,4l-5.99,1h-269.6l-18.97,1c-3,0-4.99,2-5.99,4v481.94c-1,11,1,22,3,33,3,16,9.99,31,22.97,43,7.99,8,18.97,13,29.96,16,8.99,3,17.97,4,27.96,4l20.97,1h218.68c2,0,4.99,4,4.99,6l-2,19-2,25-2,15-2,17-2,23-2,17-2,17-1,6-4.99,50.99-3.99,31c0,2-3,5-4.99,5h-208.69c-74.49,2.95-148.56-12.5-215.68-44.99-63.91-34-106.84-84.99-129.81-153.98-7.99-25-12.98-50.99-15.98-76.99l-3-62.99v-212.98ZM5234.12,1220.93v-496.94l1-21,3-3,1-1h195.71l9.99,1,2,2c2,2,2,5,3,7l21.97,75.99,11.98,42,3.99,11h4.99l5.99-7c17.32-24.58,37.42-47.06,59.91-66.99,19.97-17,42.94-30,67.9-39,52.89-17.2,108.15-25.97,163.76-26h37.94c1,0,3.99,2,3.99,4l1,1,2,23,3.99,35,1,15,2,21,2,15,2,27,1,4,4.99,56.99,2,21,2,29c-1,2-3,5-4.99,5h-162.76c-33.49,1.26-66.55,8.02-97.86,20l-16.98,8c-20.97,13-36.95,31-47.93,53.99-4.99,10-7.99,20-10.98,30l-4.99,29c-1.29,215.31-2.65,430.62-3.99,645.93l-3,2-3.99,1h-258.62c-2-1-4.99-3-4.99-5l-1-6v-513.94Z" style="stroke-width:0px;"/><path d="M10036.07,1525.89l-31.95-1c-35.95-3-69.9-11-101.85-25-83.74-36.66-144.7-111.48-163.76-200.98-17.77-83.12-4.63-169.87,36.95-243.97,41.96-66.8,109.46-113.43,186.73-128.99,63.43-13.28,129.24-9.49,190.72,11,125.1,43.77,204.77,166.74,193.72,298.97-1.79,69.05-27.16,135.4-71.89,187.98-41.94,47.99-94.86,79.99-158.77,93.99-25.96,5-52.92,8-79.88,8ZM11376.1,1097.94h-256.62l-3.99-4,1-4c39.57-121.85,159.48-198.83,286.58-183.98,48.93,3,93.86,20,133.8,49.99,46.93,34,78.88,78.99,98.85,132.98l1,4c0,2-1,4-3,4l-4.99,1h-252.63ZM4181.67,1215.93l3-37c4.99-49.99,20.97-96.99,49.93-138.98,41.71-60.13,106.4-100.31,178.74-110.99,30.95-5,62.91-6,93.86-3,97.62,8.11,183.38,68.04,224.67,156.98,11.98,26,19.97,53.99,23.96,82.99,4.99,30,4.99,60.99,3,90.99-3,36-10.98,70.99-26.96,103.99-35.84,78.54-107.15,135.08-191.72,151.98-33.86,6.67-68.51,8.35-102.85,5-10.98-1-21.97-1-32.95-4-105.08-21.66-188.07-102.41-212.69-206.98-6.99-28-8.99-56.99-9.99-90.99Z" style="fill:#fff; stroke-width:0px;"/><path d="M1212.39,2364.6c-175.35-24.18-284.95-66.49-363.66-142.05-122.55-116.87-171.37-307.28-173.36-684.07l-1-95.71,11.96,1.01,10.96,1.01,1.99,43.32c2.99,64.48,11.96,110.82,30.89,157.17,44.48,105.18,128.82,187.93,234.14,229.7,107.6,38.28,325.8,35.26,426.43-4.03,137.11-59.44,232.17-188.64,249.08-338.51l6.97-60.45c1.99-15.11,2.99-48.36,2.99-72.54,0-50.37-2.99-60.45-21.92-70.52l-9.96-5.04-51.81,30.22-62.77,37.28-61.77,35.26c-128.94,84.18-288.6,104.92-434.4,56.42-56.79-20.15-64.76-24.18-259.05-139.03-20.92-12.09-21.92-13.1-30.89-8.06-14.94,7.05-21.92,22.16-21.92,45.34v20.15h-21.92l1-122.91,1-121.9-7.97-6.04c-3.99-4.03-6.97-9.07-6.97-16.12,0-9.07,1-10.07,9.96-10.07,9.96,0,31.88,12.09,201.26,111.83,117.57,70.52,154.43,86.64,229.16,99.74,43.84,7.05,119.56,4.03,164.39-7.05,65.76-17.13,82.7-25.19,240.12-116.87l167.38-98.73c47.82-28.21,64.76-37.28,73.73-37.28h10.96l1,148.1,1,147.09,9.96,16.12c10.96,17.13,29.89,31.23,45.83,34.25,14.94,3.02,38.86-11.08,51.81-29.22l9.96-14.1,1-242.8,1-242.8-9.96-20.15c-4.98-13.1-16.94-29.22-31.88-44.33-23.91-26.19-17.93-22.16-184.32-119.89l-121.55-70.52c-54.59-32.03-109.06-64.27-163.4-96.72-78.71-46.34-110.59-59.44-169.38-67.5-27.9-3.02-36.86-3.02-64.76,0-65.76,9.07-83.69,17.13-218.2,97.72-76.21,49.33-155.04,94.4-236.13,135-1.99,6.04-27.9,20.15-37.86,20.15-7.97,0-8.97-1.01-8.97-11.08s1.99-12.09,13.95-19.14l16.94-9.07c8.97,0,16.94-13.1,16.94-26.19,0-22.16,8.97-115.86,15.94-163.21,31.88-224.67,109.6-350.6,261.04-425.15,53.8-27.2,126.53-48.36,217.2-64.48,39.85-7.05,46.83-7.05,222.18-6.04,338.75,0,487.2,15.11,610.75,58.43,113.96,37.49,207.19,121.52,257.05,231.72,45.83,99.74,66.75,223.66,74.72,451.35,4.98,122.91,2.99,895.64-2.99,969.19-16.94,245.82-52.81,366.72-135.5,467.47-84.69,101.75-214.21,155.15-419.45,175.3-88.67,9.07-137.49,11.08-330.78,12.09-160.41,1.01-213.21,0-238.12-3.02ZM545.84,1078.06c-6.97-4.03-8.97-7.05-8.97-16.12,0-10.07,1-11.08,8.97-11.08,5.98,0,14.94,2.01,19.93,5.04,7.97,4.03,8.97,7.05,8.97,16.12,0,10.07,0,11.08-9.96,11.08-5.98,0-13.95-3.02-18.93-5.04ZM502,1049.85c-1.99-2.01-2.99-8.06-2.99-14.1,0-10.07-1-10.07-11.96-11.08-11.96-1.01-11.96-2.01-12.95-13.1l-1-12.09,11.96,1.01c10.96,0,11.96,1.01,12.95,13.1,1,10.07,1.99,11.08,10.96,11.08,13.95,0,17.93,5.04,17.93,19.14,0,9.07,0,10.07-9.96,10.07-5.98,0-11.96-1.01-14.94-4.03Z" style="fill:#00eae2; stroke-width:0px;"/><path d="M729.17,2366.61c-254.06-9.07-401.52-42.31-507.13-113.84-31.88-23.17-86.68-78.58-108.6-111.83-64.76-99.74-93.65-216.61-107.6-447.32C.85,1611.01-2.14,931.98,1.85,785.89c6.97-222.65,20.92-333.47,54.8-436.23C102.31,201.28,221.32,87.82,370.49,50.44,510.97,9.13,671.38-.94,1163.57.07c158.42,0,227.16,1.01,188.31,3.02-270.01,10.07-451.34,79.59-543,207.54-16.94,24.18-43.84,74.55-55.79,105.78-40.58,118.54-60.47,243.31-58.78,368.73,2.99-1.01,4.98,0,4.98,4.03,0,6.04-3.99,9.07-134.5,85.63-62.77,38.28-83.69,62.46-96.64,112.84-9.96,37.28-1,75.56,25.9,113.84,15.94,23.17,31.88,34.25,130.52,91.68,63.77,37.28,70.74,43.32,70.74,50.37,0,5.04-2.99,5.04-11.96-2.01q-5.98-3.02-2.99,2.01c5.98,6.04,5.98,14.1,4.98,127.95,0,67.5,0,111.83,1,98.73,1-12.09,2.99-24.18,4.98-28.21,2.99-4.03,3.99,23.17,3.99,99.74,0,64.48-1,100.75-2.99,91.68-1-8.06-2.99-29.22-2.99-46.34s-1-31.23-1.99-32.24c-3.99-2.01-1.99,152.13,1.99,232.73,11.96,230.71,49.82,375.79,124.54,475.53,34.87,47.35,89.67,91.68,144.47,119.89,91.66,46.34,230.15,74.55,403.51,82.61-210.88,2.31-421.78,2.64-632.67,1.01ZM565.77,1072.02l-9.96-7.05c-11.96-6.04-12.95-3.02-1,3.02,9.96,6.04,10.96,6.04,10.96,4.03Z" style="fill:#007bff; stroke-width:0px;"/><path d="M1084.86,1909.22c-64.76-4.03-130.52-20.15-170.37-40.3-86.53-47.26-154.92-122.45-194.28-213.58-21.92-56.42-29.89-107.8-32.88-220.64-1.99-89.66-1-94.7,18.93-107.8,14.94-9.07,26.9-8.06,51.81,7.05,152.44,90.67,173.36,102.76,203.25,116.87,151.68,73.03,330.11,60.42,470.27-33.25,41.09-24.91,82.61-49.09,124.54-72.54,55.79-33.25,64.76-35.26,82.7-24.18,17.93,11.08,19.93,19.14,19.93,79.59,0,29.22-1,65.49-2.99,80.6l-5.98,61.46c-12.93,131.5-87.9,248.58-201.26,314.33-74.72,45.34-200.26,63.47-363.66,52.39Z" style="fill:#fff; stroke-width:0px;"/><path d="M1800.22,1430.67c-11.96-2.01-30.89-18.13-40.85-34.25l-9.96-15.11-1-148.1c-1-126.94-1-147.09-4.98-146.08l-267.02,156.16c-61.56,43.28-129.95,75.64-202.25,95.71-43.84,11.08-137.49,14.1-182.33,6.04-73.73-13.1-114.58-30.22-229.16-97.72-97.98-59.23-196.62-117.33-295.91-174.29-2.99-3.02-13.95-9.07-23.91-14.1-8.97-5.04-20.92-12.09-24.91-16.12l-13.95-9.07c-2.99-1.01-7.97-6.04-10.96-11.08l-13.95-20.15c-13.95-18.13-21.92-43.32-23.91-73.55-2.99-49.37,10.96-89.66,42.84-121.9,50.25-36.7,102.84-70.02,157.42-99.74l30.89-17.13,53.8-31.23c195.28-115.86,272-160.19,288.94-168.25,55.02-24.65,115.63-33.71,175.35-26.19,62.77,8.06,92.66,20.15,173.36,67.5,54.15,32.45,108.62,64.35,163.4,95.71l121.55,71.53c166.39,96.72,159.41,92.69,184.32,118.88,13.95,15.11,25.9,31.23,31.88,44.33l8.97,19.14v247.84c0,172.28-1,250.86-2.99,257.91-13.74,33.64-49.75,52.06-84.69,43.32Z" style="fill:#fff; stroke-width:0px;"/><path d="M14309.19,1395.25c2.37,4.86,4.95,10.16,7.53,15.45,33.94,69.62,89.26,110.96,165.58,123.61,48.53,8.04,96.89,6.46,144.13-8.25,13.86-4.31,27.63-9.99,40.16-17.25,48.48-28.06,46.29-87.01,10.78-118.19-11.12-9.76-23.67-17.16-36.98-23.36-30.85-14.37-63.1-24.76-96.11-32.78-33.59-8.16-67.42-15.3-100.92-23.78-56.22-14.22-110.83-33.1-162.54-59.61-15.96-8.18-31.52-17.21-46.86-26.5-57.17-34.63-92.43-85.13-106.37-150.16-12.03-56.09-11.74-112.35,3.12-167.92,15.31-57.28,47.62-103.43,95.36-138.62,46.67-34.4,98.88-57.07,154.84-71.34,63.09-16.09,127.29-20.12,192.13-16.72,56.32,2.95,110.85,14.25,162.57,36.79,117.48,51.19,197.48,137.06,237.64,259.19,1.43,4.36,2.39,8.87,3.72,13.9-2.93,1.19-5.24,2.62-7.72,3.05-80.52,13.78-161.06,27.46-242.48,41.31-2.38-4.71-4.51-8.69-6.42-12.76-35.36-75.26-95.04-113.89-177.77-117.35-30.94-1.29-61.03,3.41-89.68,15.68-13.53,5.8-26.08,13.17-37.17,22.97-33.23,29.36-27.56,75.56-4.35,100.06,11.64,12.29,25.62,21.13,40.78,28.21,24.74,11.56,50.26,21.24,76.55,28.51,39.71,10.97,79.62,21.25,119.52,31.53,55.52,14.3,109.65,32.5,160.95,58.25,19.58,9.83,38.58,20.92,57.28,32.36,57.17,34.97,91.42,86.04,103.88,151.55,10.38,54.54,8.1,108.52-10.06,161.34-20.77,60.42-57.39,108.8-109.99,145.38-50.47,35.11-106.06,57.77-166.1,69.82-74.83,15.02-150.27,19.17-226.39,12.82-55.43-4.62-109.51-15.28-160.51-37.53-99.62-43.46-175.64-111.72-217.25-214.05-8.48-20.84-14.05-42.88-20.77-64.42-.94-3.02-.77-6.39-1.11-9.45,18.03-5.82,233.36-41.67,251.02-41.73Z" style="stroke-width:0px;"/></svg>