<?xml version="1.0" encoding="UTF-8"?><svg id="uuid-54aa8b0c-1dd2-4303-b7ee-df37d0ab97c2" xmlns="http://www.w3.org/2000/svg" viewBox="0 0 245.92 275.4"><rect x="194.47" y="223.94" width="44" height="44" rx="4" ry="4" transform="translate(-110.5 225.05) rotate(-44.99)" style="fill:#529ff9; stroke-width:0px;"/><path d="M16,205h40c8.84,0,16,7.16,16,16h0c0,8.84-7.16,16-16,16H16c-8.84,0-16-7.16-16-16h0c0-8.84,7.16-16,16-16Z" style="fill:#f2f3f5; stroke-width:0px;"/><path d="M36,211c-.69,0-1.25.56-1.25,1.25v7.5h-7.5c-.69,0-1.25.56-1.25,1.25s.56,1.25,1.25,1.25h7.5v7.5c0,.69.56,1.25,1.25,1.25s1.25-.56,1.25-1.25v-7.5h7.5c.69,0,1.25-.56,1.25-1.25s-.56-1.25-1.25-1.25h-7.5v-7.5c0-.69-.56-1.25-1.25-1.25Z" style="fill:#3f8ae0; stroke-width:0px;"/><path d="M149,120.52c4.5-11,15-21,8,3-7.75,26.57,12.61-14.22,19-15.5,5-1-16.5,33,3.5,19.5" style="fill:none; stroke:#83db83; stroke-linecap:round; stroke-linejoin:round; stroke-width:2px;"/><path d="M67,33.48h4.9L82.34,0h-4.9l-10.44,33.48ZM78.74,33.48h4.9L94.08,0h-4.9s-10.44,33.48-10.44,33.48Z" style="fill:#393b52; stroke-width:0px;"/></svg>