<?xml version="1.0" encoding="UTF-8"?>
<svg fill="none" version="1.1" viewBox="0 0 428 304" xml:space="preserve" xmlns="http://www.w3.org/2000/svg"><mask id="a" x="215" y="220" width="147" height="60" style="mask-type:alpha" maskUnits="userSpaceOnUse"><path d="M352.471 221.009s11.927 31.806 8.112 41.529c-5.161 13.165-14.248 11.285-37.961 11.285-26.268 0-44.488-4.544-53.483-3.91-8.995.639-30.804 9.162-35.86 9.718-5.212-2.343 4.711-6.171 4.711-6.171s-14.442 5.5-16.671 2.766c-2.229-2.738 10.939-8.684 10.939-8.684s-7.565 1.843-15.177 3.001c-1.259.192-2.298-1.057-1.824-2.238 1.14-2.831 5.593-6.314 15.728-9.48-6.66.46-11.486.961-14.097 1.259-1.02.115-1.705-1.006-1.144-1.865 1.457-2.238 4.564-5.496 10.484-5.969 11.16-.891 25.689-1.746 25.436-3.658l-1.921-4.723c3.309-2.164 5.231-.184 14.557 3.947 9.606 4.255 28.612 5.041 38.54 4.025 9.932-1.02 23.551-4.328 23.551-4.328l-9.785-20.016c8.062-2.633 25.44-8.156 35.865-6.488Z" fill="#FFB487"/></mask><g><path d="m394.9 17.049c0 6.93-5.62 12.549-12.554 12.549s-12.553-5.62-12.553-12.55c0-6.929 5.619-12.548 12.553-12.548s12.554 5.619 12.554 12.549z" stroke="#ffd652" stroke-width="5"/><path d="m395.39 170.07c4.516-11.035 15.054-21.068 8.029 3.01-7.778 26.661 12.652-14.267 19.068-15.55 5.017-1.004-16.559 33.107 3.512 19.563" stroke="#83db83" stroke-linecap="round" stroke-linejoin="round" stroke-width="2"/><rect transform="rotate(-44.991 173.54 -143.88)" width="16.055" height="16.055" rx="4" fill="#70b2ff"/><path d="m319.18 167.62c-4.458 0-8.866-0.896-12.24-2.624l0.63-1.227c8.002 4.099 22.798 3.162 28.014-3.745 8.899-11.767 4.762-26.264-12.639-44.309l0.992-0.956c17.954 18.619 22.123 33.695 12.751 46.097-3.471 4.586-10.549 6.764-17.508 6.764zm-24.268-104.33c-3.879 0-8.365-1.907-12.704-5.523a0.686 0.686 0 0 1-0.087-0.97 0.686 0.686 0 0 1 0.969-0.087c5.677 4.733 11.51 6.369 15.605 4.384 2.408-1.167 3.806-3.497 3.728-6.226-0.138-4.99-4.758-9.87-12.36-13.055a0.69 0.69 0 0 1-0.368-0.9 0.69 0.69 0 0 1 0.901-0.368c8.117 3.4 13.054 8.74 13.205 14.29 0.092 3.286-1.594 6.093-4.504 7.504-1.328 0.639-2.808 0.951-4.385 0.951zm-66.38 2.471c-2.523 7.853-5.079 15.926-4.601 24.16 0.478 8.235 4.684 16.786 12.268 20.039 4.325 1.852 9.248 1.806 13.89 1.048 4.412-5.381 6.582-12.54 5.897-19.464-0.68-6.925-4.21-13.523-9.588-17.939" fill="#ff5773"/><path d="m236.97 82.65c-9.129-0.023-16.708-5.882-17.632-13.638-0.814-6.851 3.898-15.536 19.567-19.354a0.69 0.69 0 0 1 0.832 0.505 0.686 0.686 0 0 1-0.506 0.832c-14.796 3.607-19.268 11.589-18.523 17.852 0.841 7.062 7.832 12.401 16.262 12.42a0.6915 0.6915 0 0 1 0 1.383z" fill="#ff5773"/><path d="m192.66 197.7-3.056 6.249s-2.887-24.078-3.209-35.027c-0.363-12.287 0.69-13.073-0.698-23.917-1.393-10.84-6.182-25.355-9.087-29.798-1.655-2.532-3.107-5.625-4.054-7.826-0.676-1.571-2.804-1.778-3.797-0.386-0.96 1.347-1.691 3.249-1.177 5.712 0.607 2.881 3.512 7.287 4.514 10.421 1.829 5.712 1.659 7.435 1.659 7.435s-5.97-3.111-11.408-0.028c-5.111 2.9-3.884 5.965-3.884 5.965s-5.653 1.736-5.575 5.192c-2.974 2.008-4.215 5.891 0.193 12.429 3.521 5.229 8.241 6.92 8.241 6.92s3.866 6.695 3.866 14.249c0 21.041-4.495 58.379 3.847 70.207 8.172 11.583 28.552 9.006 50.187-29.564 19.47-34.715-5.635-26.977-5.635-26.977z" fill="#ffb487"/><path d="m264.13 55.693c-2.556-23.857 29.913-23.797 34.169-4.586 4.1 18.513-27.514 22.63-36.853 8.248" fill="#ff5773"/><path d="m267.24 59.93c12.934-4.416 27.799 0.592 29.931 15.728 3.117 22.093 10.71 26.527 21.167 34.058 19.364 13.946 25.748 54.79-17.908 55.369-55.67 0.74-51.079-10.766-55.997-11.823-9.565-2.049-30.423-28.603-3.351-48.55 26.806-19.754 26.158-44.782 26.158-44.782z" fill="#ff5773"/><path d="m231.79 179.6c0.537 5.992 8.682-0.804 11.468 0.179 6.945 2.45 29.333-22.359 35.373-30.294-2.022-9.801-1.255-37.1-1.255-37.1l-27.412 15.122-1.503 16.101c-0.065 2.348-15.15 5.95-16.009 7.003-0.58 2.49-2.39 28.691-0.662 28.989z" fill="#ffb487"/><path d="m274.22 120.53c-0.11-0.873-0.211-1.682-0.299-2.417l-10.217 2.127-13.734 6.374-0.662 8.004c13.384-0.896 21.635-9.847 24.912-14.088z" fill="#d47455"/><path d="m242.33 72.595c-5.502 5.753-8.963 21.702-9.45 29.362-0.437 5.762 2.248 20.002 15.237 24.872 12.341 4.632 28.598-3.455 32.822-15.852l4.96-13.266s-8.871 3.479-6.941-19.023c-11.532-9.075-29.425-15.108-36.628-6.093z" fill="#ffb487"/><g fill="#252833"><path d="m266.9 98.18c0.309-2.243-0.697-4.234-2.246-4.447s-3.055 1.433-3.364 3.675c-0.308 2.243 0.697 4.233 2.246 4.447 1.55 0.213 3.056-1.433 3.364-3.675z"/><path d="m271.15 93.416a7.53 7.53 0 0 1-1.228 1.43 8.017 8.017 0 0 1-1.581 1.135 7.684 7.684 0 0 1-1.875 0.749c-0.666 0.188-1.36 0.257-2.064 0.289a1.16 1.16 0 0 1-1.218-1.107 1.16 1.16 0 0 1 1.457-1.181l0.032 9e-3c0.511 0.138 1.044 0.262 1.591 0.28a6.254 6.254 0 0 0 1.673-0.115 7.206 7.206 0 0 0 1.668-0.537 7.401 7.401 0 0 0 1.545-0.951zm-27.865 1.306c0.144-2.259-1.005-4.171-2.566-4.271-1.56-0.1-2.942 1.65-3.085 3.91-0.144 2.259 1.004 4.171 2.565 4.271s2.942-1.65 3.086-3.91z"/><path d="m235.26 89.129c0.303 0.441 0.699 0.795 1.112 1.098 0.419 0.299 0.865 0.538 1.324 0.73 0.464 0.19 0.938 0.327 1.42 0.428 0.239 0.055 0.488 0.083 0.722 0.124l0.731 0.069 0.041 5e-3a1.17 1.17 0 1 1-0.62 2.214l-0.791-0.386c-0.257-0.147-0.515-0.28-0.758-0.44a9.705 9.705 0 0 1-1.379-1.058 7.77 7.77 0 0 1-1.108-1.29c-0.308-0.47-0.565-0.966-0.694-1.494z"/></g><path d="m248.29 105.03a0.694 0.694 0 0 1-0.285-0.059c-0.915-0.414-3.061-1.558-3.305-3.217-0.078-0.528 0.018-1.319 0.906-2.09 1.562-1.356 4.118-5.207 4.315-9.756a0.68815 0.68815 0 0 1 1.375 0.06c-0.221 5.018-2.988 9.172-4.79 10.738-0.505 0.437-0.459 0.749-0.445 0.851 0.092 0.643 1.126 1.534 2.509 2.159a0.694 0.694 0 0 1 0.345 0.915 0.685 0.685 0 0 1-0.625 0.399zm2.987 7.361c-1.962 0-3.709-0.593-4.559-1.181a0.921 0.921 0 0 1-0.239-1.277 0.92 0.92 0 0 1 1.278-0.239c0.979 0.67 5.547 2.058 8.328-1.282a0.924 0.924 0 0 1 1.296-0.12 0.923 0.923 0 0 1 0.12 1.296c-1.761 2.118-4.118 2.803-6.224 2.803z" fill="#d47455"/><path d="m246.37 85.187a0.69 0.69 0 0 1-0.437-0.157c-3.833-3.129-8.999-2.26-9.055-2.251a0.691 0.691 0 0 1-0.239-1.36c0.239-0.042 5.847-0.979 10.163 2.54 0.294 0.24 0.34 0.676 0.096 0.97a0.643 0.643 0 0 1-0.528 0.258z" fill="#252833"/><path d="m248.46 143.62c-8.508 4.26-29.968 0.717-40.87 22.488-10.903 21.771-15.669 33.327-15.669 33.327l24.393 17.056 12.295 30.695 102.73 22.984 21.129-49.157s-12.769-38.676-24.489-52.755c-11.721-14.079-45.228-25.341-49.346-26.021-22.656 13.215-30.171 1.383-30.171 1.383z" fill="#2787f5"/><path d="m316.6 228.18a0.691 0.691 0 0 1-0.63-0.409l-15.103-33.626a0.689 0.689 0 0 1 1.255-0.565l15.103 33.626a0.689 0.689 0 0 1-0.345 0.91 0.596 0.596 0 0 1-0.28 0.064zm-100.12-10.741h-9e-3a0.689 0.689 0 0 1-0.68-0.699c0.156-10.729 1.737-16.289 4.132-24.712 0.611-2.159 1.305-4.604 2.031-7.333a0.69 0.69 0 0 1 1.333 0.349 391.23 391.23 0 0 1-2.036 7.357c-2.362 8.316-3.925 13.807-4.077 24.353a0.704 0.704 0 0 1-0.694 0.685z" fill="#135094"/><path d="m251.2 208.66a0.689 0.689 0 0 1-0.675-0.57c-3.397-18.913 1.02-38 5.29-56.458l0.253-1.094-0.124 0.069c-1.857 1.011-3.608 1.967-6.591 2.132-5.052 0.285-7.593-1.778-8.287-3.8-0.589-1.723 0.036-3.529 1.594-4.604 2.519-1.737 7.644-1.562 14.516 4.076a20.434 20.434 0 0 1 2.298-0.938c7.051-2.104 11.656-1.58 13.338 1.512 0.864 1.59 1.002 2.877 0.405 3.828-0.671 1.07-2.174 1.557-4.472 1.442-3.535-0.174-8.945-1.87-11.28-3.639l-0.308 1.328c-4.238 18.325-8.622 37.275-5.276 55.907a0.687 0.687 0 0 1-0.556 0.8c-0.042 4e-3 -0.083 9e-3 -0.125 9e-3zm6.996-59.206c1.669 1.3 6.78 3.235 10.613 3.423 1.687 0.083 2.868-0.207 3.236-0.8 0.386-0.615-0.032-1.663-0.451-2.435-1.682-3.097-7.294-2.173-11.711-0.855-0.611 0.207-1.168 0.432-1.687 0.667zm-12.006-4.742c-1.149 0-2.073 0.285-2.753 0.753-1.052 0.726-1.461 1.884-1.075 3.024 0.528 1.548 2.624 3.115 6.903 2.872 2.675-0.152 4.22-0.993 6.008-1.967 0.179-0.096 0.363-0.198 0.547-0.299-4.031-3.207-7.295-4.383-9.63-4.383z" fill="#393b52"/><path d="m259.12 195.54a0.69 0.69 0 0 1-0.689-0.68c-0.097-7.283-0.363-14.855-0.625-22.184-0.258-7.334-0.529-14.916-0.625-22.212a0.68957 0.68957 0 1 1 1.379-0.019c0.096 7.283 0.363 14.856 0.625 22.185 0.257 7.333 0.528 14.915 0.625 22.212a0.69 0.69 0 0 1-0.68 0.698z" fill="#393b52"/><g fill="#d47455"><path d="m167.91 153.95c-0.377 0-0.814-0.078-1.31-0.29-3.948-1.668-8.306-15.025-8.793-16.546a0.686 0.686 0 0 1 0.446-0.864 0.686 0.686 0 0 1 0.864 0.446c1.264 3.956 5.162 14.488 8.016 15.696 0.814 0.345 1.177 0.115 1.296 0.037 0.786-0.496 1.025-2.174 1.048-2.725a0.69 0.69 0 0 1 1.379 0.051c-9e-3 0.289-0.152 2.858-1.682 3.832a2.31 2.31 0 0 1-1.264 0.363z"/><path d="m162.13 156.56a7.21 7.21 0 0 1-0.809-0.046c-1.939-0.207-6.421-4.567-8.503-14.143a0.685 0.685 0 0 1 0.529-0.818 0.685 0.685 0 0 1 0.818 0.528c2.05 9.434 6.334 12.963 7.303 13.064 2.193 0.234 3.48-0.634 4.041-2.734a0.687 0.687 0 0 1 0.845-0.487 0.688 0.688 0 0 1 0.488 0.845c-0.474 1.774-1.683 3.791-4.712 3.791z"/><path d="m158.74 159.51h-0.11a0.688 0.688 0 0 1-0.676-0.703c9e-3 -0.381 0.322-0.698 0.703-0.675 0.492 9e-3 1.214-0.065 1.77-0.474 0.459-0.335 0.721-0.873 0.653-1.341a0.688 0.688 0 0 1 0.583-0.781 0.692 0.692 0 0 1 0.782 0.583c0.138 0.974-0.336 2.013-1.209 2.647-0.657 0.487-1.522 0.744-2.496 0.744z"/></g><path d="m190.15 203.96a27.105 27.105 0 0 1 1.6 12.797z" fill="#ffb487"/><path d="m191.75 217.44c-0.028 0-0.056 0-0.083-4e-3a0.689 0.689 0 0 1-0.602-0.768 26.325 26.325 0 0 0-1.558-12.466 0.69 0.69 0 0 1 1.287-0.496 27.748 27.748 0 0 1 1.64 13.123 0.692 0.692 0 0 1-0.684 0.611z" fill="#d47455"/><path d="m167.58 53.91h-0.042a0.92 0.92 0 0 1-0.878-0.96l1.058-23.986a0.92 0.92 0 1 1 1.838 0.083l-1.057 23.985a0.92 0.92 0 0 1-0.919 0.878zm18.615 11.56a0.918 0.918 0 0 1-0.58-1.631l9.538-7.687a0.919 0.919 0 0 1 1.153 1.429l-9.537 7.687a0.894 0.894 0 0 1-0.574 0.203zm-46.097-2.422a0.926 0.926 0 0 1-0.598-0.22l-7.726-6.59a0.91919 0.91919 0 1 1 1.195-1.397l7.726 6.594c0.386 0.331 0.432 0.91 0.101 1.296a0.936 0.936 0 0 1-0.698 0.317z" fill="#252833"/><path d="m237.16 102.85c-5.139 0-9.322-4.181-9.322-9.318s4.183-9.319 9.322-9.319c5.138 0 9.321 4.182 9.321 9.319s-4.178 9.318-9.321 9.318zm0-16.344a7.028 7.028 0 0 0-7.024 7.021c0 3.874 3.149 7.021 7.024 7.021a7.027 7.027 0 0 0 7.023-7.02 7.028 7.028 0 0 0-7.023-7.022zm26.18 19.948c-5.138 0-9.321-4.181-9.321-9.319 0-5.137 4.183-9.318 9.321-9.318 5.139 0 9.322 4.181 9.322 9.318 0 5.138-4.183 9.319-9.322 9.319zm0-16.34a7.028 7.028 0 0 0-7.023 7.021 7.027 7.027 0 0 0 7.023 7.021c3.875 0 7.024-3.147 7.024-7.02a7.028 7.028 0 0 0-7.024-7.022z" fill="#fff"/><path d="m271.69 97.23a1.144 1.144 0 0 1-1.144-1.084 1.144 1.144 0 0 1 1.084-1.209l14.217-0.786a1.1482 1.1482 0 1 1 0.124 2.293l-14.217 0.786z" fill="#fff"/><path d="m293.34 65.061a2.287 2.287 0 0 1-1.825-0.9c-4.182-5.455-16.491-12.61-26.268-11.405a2.3 2.3 0 0 1-0.565-4.563c11.541-1.424 25.533 6.709 30.483 13.17a2.298 2.298 0 0 1-0.428 3.22c-0.418 0.326-0.91 0.478-1.397 0.478z" fill="#ffd54f"/><path d="m197.43 276.99-37.988-0.432-2.919-10.247 35.888-0.515zm34.018-63.218c10.066 9.824 18.486 28.231 25.67 50.039l-31.99 3.726c-1.976-16.652-12.718-45.017-28.382-59.569z" fill="#e5f1ff"/><path d="m188.34 147.2a2.05 2.05 0 0 1-1.043-0.285l-46.166-27.027a2.075 2.075 0 0 1-0.74-2.831 2.07 2.07 0 0 1 2.832-0.739l46.165 27.027a2.073 2.073 0 0 1 0.74 2.831 2.075 2.075 0 0 1-1.788 1.024z" fill="#252833"/><path d="m136.33 114.35c0.828 0.161 1.623 0.381 2.418 0.597l1.177 0.354c0.386 0.129 0.767 0.262 1.149 0.4 0.377 0.142 0.8 0.211 1.2 0.312a2.11 2.11 0 0 1 1.029 0.598c0.285 0.298 0.533 0.652 0.74 1.075 0.202 0.432 0.377 0.91 0.446 1.567a0.315 0.315 0 0 1-0.188 0.317 4.73 4.73 0 0 1-1.595 0.344 4.164 4.164 0 0 1-1.297-0.151 2.114 2.114 0 0 1-1.011-0.63c-0.28-0.303-0.538-0.643-0.841-0.909-0.299-0.272-0.597-0.543-0.892-0.828l-0.864-0.873c-0.565-0.602-1.13-1.199-1.659-1.856a0.197 0.197 0 0 1 0.028-0.276c0.046-0.041 0.105-0.055 0.16-0.041z" fill="#252833"/><path d="m176.98 158.83c-6.338-1.498-7.041-10.178-7.878-13.509-0.956-3.814-3.318-4.503-4.431-8.271-0.478-1.617 0.418-3.478 1.535-4.668 0.75-0.8 2.027-0.749 2.758 0.069 3.273 3.675 10.025 9.189 12.263 11.597" fill="#ffb487"/><path d="m176.98 158.83c-6.338-1.498-7.041-10.178-7.878-13.51-0.956-3.813-3.318-4.503-4.431-8.271-0.165-0.551-0.133-1.599 0.294-2.798" fill="#ffb487"/><path d="m176.98 159.52a0.66 0.66 0 0 1-0.161-0.019c-5.851-1.383-7.211-8.22-8.02-12.3-0.134-0.667-0.248-1.246-0.363-1.71-0.455-1.819-1.255-2.872-2.106-3.988-0.854-1.131-1.742-2.298-2.321-4.255-0.234-0.795-0.119-2.031 0.308-3.226a0.692 0.692 0 0 1 1.301 0.464c-0.368 1.039-0.404 1.958-0.285 2.376 0.506 1.714 1.278 2.734 2.096 3.814 0.892 1.176 1.816 2.394 2.344 4.489 0.124 0.496 0.244 1.089 0.377 1.778 0.749 3.759 1.999 10.049 6.986 11.23a0.683 0.683 0 0 1-0.156 1.347z" fill="#d47455"/><path d="m279.41 225.23c-5.939 0-11.868-1.599-16.961-4.742a0.68827 0.68827 0 0 1 0.722-1.172c8.485 5.239 19.433 6.002 28.562 1.981a0.693 0.693 0 0 1 0.91 0.354 0.694 0.694 0 0 1-0.354 0.91c-4.063 1.787-8.471 2.669-12.879 2.669z" fill="#135094"/><path d="m285.82 187.62c0.087-0.221 0.027-0.391-0.295-0.414l-1.057-0.069c-0.266-0.018-0.4 0.12-0.482 0.267 0 0-0.635 1.277-1.453 2.081-0.262 0.23-0.381 0.304-0.515 0.294-0.073-4e-3 -0.16-0.092-0.142-0.317l0.142-2.104c0.019-0.267-0.055-0.395-0.28-0.409l-1.664-0.11c-0.165-0.01-0.276 0.105-0.285 0.229-0.018 0.258 0.359 0.345 0.354 1.066l-0.106 1.563c-0.023 0.34-0.087 0.395-0.22 0.386-0.359-0.023-1.145-1.406-1.568-2.955-0.082-0.303-0.179-0.423-0.445-0.441l-1.071-0.074c-0.308-0.018-0.368 0.12-0.382 0.276-0.018 0.276 0.248 1.7 1.439 3.635 0.79 1.323 1.985 2.081 3.107 2.159 0.68 0.046 0.772-0.101 0.786-0.358l0.064-0.956c0.019-0.308 0.088-0.354 0.304-0.34 0.156 9e-3 0.427 0.11 1.011 0.758 0.671 0.768 0.772 1.103 1.172 1.131l1.057 0.069c0.308 0.018 0.464-0.124 0.4-0.428-0.074-0.303-0.395-0.758-0.809-1.305-0.225-0.303-0.575-0.648-0.68-0.808-0.143-0.216-0.092-0.294 0.032-0.474-9e-3 -4e-3 1.411-1.746 1.586-2.352z" clip-rule="evenodd" fill="#2787f5" fill-rule="evenodd"/><path d="m276.6 57.489c-6.835-5.468-28.7-15.963-43.753-4.499-11.674 8.891-8.949 27.372 4.266 33.75 13.214 6.378 43.646-7.922 43.646-7.922l-4.159-21.33z" fill="#ff5773"/><path d="m352.47 221.01s11.927 31.807 8.112 41.53c-5.161 13.164-14.248 11.285-37.961 11.285-26.268 0-44.488-4.545-53.483-3.911-8.995 0.639-30.804 9.163-35.86 9.719-5.212-2.344 4.711-6.171 4.711-6.171s-14.442 5.5-16.671 2.766c-2.229-2.739 10.939-8.684 10.939-8.684s-7.565 1.842-15.177 3c-1.259 0.193-2.298-1.057-1.824-2.238 1.14-2.83 5.593-6.313 15.728-9.479-6.66 0.459-11.486 0.96-14.097 1.259-1.02 0.115-1.705-1.006-1.144-1.866 1.457-2.237 4.564-5.495 10.484-5.969 11.16-0.891 25.689-1.746 25.436-3.657l-1.921-4.724c3.309-2.164 5.231-0.184 14.557 3.947 9.606 4.255 28.612 5.041 38.54 4.026 9.932-1.021 23.551-4.329 23.551-4.329l-9.785-20.016c8.062-2.632 25.44-8.156 35.865-6.488z" fill="#ffb487"/><g fill="#5c5e73" mask="url(#a)"><path d="m348.71 277.65a0.69 0.69 0 0 1-0.483-1.181c7.116-6.975 8.141-12.324 6.858-14.782-0.611-1.176-1.774-1.7-3.18-1.438-2.813 0.524-5.957 3.906-7.745 10.334-0.221 1.856-0.593 3.892-1.145 6.116l-1.356-0.244c0.258-2.316 0.653-4.369 1.145-6.18 0.878-7.747-1.057-12.043-3.36-13.449-1.374-0.841-2.891-0.685-4.16 0.427-2.702 2.362-3.714 8.634 0.115 17.318l-1.259 0.561c-1.131-2.509-7.938-6.883-12.084-6.575-1.59 0.114-2.583 0.877-3.02 2.334-0.018 0.946 0.281 1.732 0.91 2.394 1.352 1.41 3.912 1.92 5.856 1.925a0.6895 0.6895 0 1 1 0 1.379c-1.08-5e-3 -4.771-0.184-6.849-2.353-0.91-0.951-1.346-2.123-1.291-3.483l0.027-0.161c0.589-2.068 2.064-3.249 4.27-3.409 3.37-0.244 7.925 2.017 10.82 4.392-2.574-7.953-0.901-13.173 1.6-15.356 1.7-1.489 3.92-1.705 5.786-0.565 2.225 1.36 4.077 4.664 4.229 10.247 2.087-4.43 4.886-6.557 7.253-6.998 2.018-0.377 3.755 0.427 4.656 2.155 1.572 3.018 0.529 8.909-7.115 16.404a0.69 0.69 0 0 1-0.478 0.188zm-32.422-18.292c-0.202 0-0.409-0.014-0.621-0.046-3.171-0.469-7.234-4.668-9.133-15.048a0.693 0.693 0 0 1 1.361-0.249c1.77 9.677 5.405 13.551 7.979 13.932 1.218 0.179 2.234-0.404 2.868-1.64 1.719-3.345 0.115-10.509-7.464-18.334l0.993-0.96c9.192 9.497 17.19 11.887 20.729 10.09 1.158-0.588 1.678-1.585 1.466-2.817-0.455-2.642-4.812-7.577-18.279-9.327l0.179-1.365c2.868 0.368 10.314-2.803 12.314-6.456 0.726-1.323 0.625-2.522-0.308-3.667-1.09-0.762-2.717-1.006-4.597-0.684-2.293 0.39-4.582 1.59-5.442 2.853a0.693 0.693 0 0 1-0.956 0.184 0.69 0.69 0 0 1-0.184-0.956c1.067-1.567 3.677-2.977 6.348-3.437 2.289-0.39 4.316-0.041 5.708 0.984l0.12 0.11c1.347 1.603 1.526 3.432 0.515 5.279-1.568 2.858-5.755 5.331-9.34 6.493 10.314 2.137 14.704 6.442 15.274 9.764 0.312 1.82-0.511 3.419-2.202 4.278-3.222 1.636-9.142 0.515-16.234-4.884 3.571 5.716 4.049 10.623 2.583 13.486-0.791 1.544-2.137 2.417-3.677 2.417z"/><path d="m359.06 241.41a4.411 4.411 0 0 1-1.512-0.272c-2.023-0.735-3.682-2.821-4.514-5.417-1.071 2.546-3.052 4.158-4.927 4.894-2.652 1.043-5.355 0.602-7.06-1.158-1.195-1.236-2.758-4.062-0.878-9.705-3.424 1.87-6.522 1.471-8.444 0.322-1.82-1.089-2.753-2.904-2.445-4.733 0.441-2.628 3.282-4.678 7.786-5.62a0.691 0.691 0 0 1 0.285 1.351c-3.916 0.818-6.361 2.459-6.706 4.499-0.211 1.259 0.478 2.532 1.797 3.322 1.866 1.121 5.139 1.332 8.72-1.429a0.689 0.689 0 0 1 1.057 0.818c-1.967 4.576-2.032 8.303-0.17 10.219 1.31 1.351 3.442 1.668 5.566 0.832 2.289-0.901 4.771-3.368 4.854-7.577a0.698 0.698 0 0 1 0.703-0.676 0.688 0.688 0 0 1 0.675 0.703c-0.082 4.067 2.064 7.292 4.183 8.06 1.384 0.501 2.73-9e-3 3.907-1.471a0.689 0.689 0 0 1 0.97-0.105 0.687 0.687 0 0 1 0.106 0.969c-1.389 1.71-2.818 2.174-3.953 2.174zm-8.499-14.934c-1.659 0-3.309-0.988-4.013-2.509-0.836-1.81-0.229-4.149 1.379-5.325a0.695 0.695 0 0 1 0.966 0.147 0.694 0.694 0 0 1-0.148 0.965c-1.08 0.79-1.503 2.421-0.942 3.634s2.078 1.949 3.379 1.641c1.3-0.308 2.321-1.65 2.275-2.987a0.689 0.689 0 0 1 0.666-0.712c0.386 0 0.699 0.285 0.713 0.666 0.069 1.99-1.393 3.915-3.333 4.374a4.056 4.056 0 0 1-0.942 0.106zm3.805 28.981c-1.084 0-2.132-0.235-3.033-0.694-1.471-0.749-2.556-2.114-2.9-3.649-0.387-1.723 0.211-3.51 1.526-4.553 1.466-1.158 3.681-1.2 5.051-0.092 0.745 0.602 1.167 1.553 1.131 2.541-0.033 0.933-0.465 1.755-1.186 2.261-0.717 0.505-1.646 0.657-2.427 0.399-0.929-0.308-1.563-1.213-1.466-2.1a0.68843 0.68843 0 1 1 1.369 0.147c-0.027 0.249 0.216 0.543 0.529 0.648 0.368 0.12 0.841 0.037 1.2-0.216 0.363-0.257 0.583-0.684 0.597-1.18 0.019-0.561-0.211-1.094-0.62-1.425-0.86-0.694-2.381-0.648-3.328 0.101-0.887 0.703-1.305 1.976-1.039 3.171 0.258 1.139 1.071 2.159 2.183 2.724 1.232 0.625 2.882 0.713 4.417 0.23 1.343-0.422 2.648-1.259 3.875-2.481 1.848-1.843 3.121-4.117 3.677-6.58a0.683 0.683 0 0 1 0.823-0.519 0.687 0.687 0 0 1 0.519 0.822c-0.616 2.716-2.013 5.225-4.049 7.251-1.384 1.379-2.877 2.33-4.435 2.817a8.146 8.146 0 0 1-2.414 0.377zm-49.925 21.114c-2.022 0-4.003-0.405-5.832-1.195a0.689 0.689 0 1 1 0.547-1.264c2.316 1.002 4.904 1.314 7.482 0.91 1.71-0.271 3.153-0.832 4.289-1.668 1.296-0.956 2.201-2.339 2.417-3.703 0.198-1.232-0.142-2.486-0.914-3.369-0.805-0.918-2.082-1.332-3.172-1.029-1.163 0.322-2.1 1.526-2.045 2.629 0.027 0.523 0.322 1.024 0.786 1.341 0.409 0.276 0.887 0.354 1.305 0.212 0.418-0.143 0.768-0.474 0.883-0.841 0.101-0.313 4e-3 -0.685-0.212-0.809a0.685 0.685 0 0 1-0.248-0.942 0.685 0.685 0 0 1 0.942-0.248c0.773 0.45 1.131 1.489 0.832 2.422-0.253 0.781-0.924 1.442-1.751 1.727-0.832 0.285-1.756 0.147-2.528-0.377-0.818-0.556-1.337-1.456-1.388-2.412-0.087-1.76 1.25-3.524 3.052-4.025 1.618-0.45 3.415 0.119 4.578 1.452 1.039 1.185 1.498 2.863 1.236 4.494-0.28 1.737-1.36 3.409-2.964 4.595-1.315 0.969-2.96 1.613-4.891 1.92-0.8 0.115-1.604 0.18-2.404 0.18z"/></g><path d="m236.62 274.79a0.697 0.697 0 0 1-0.635-0.413 0.693 0.693 0 0 1 0.354-0.91c1.085-0.478 2.395-0.933 3.664-1.379 1.245-0.436 2.528-0.882 3.566-1.337a0.693 0.693 0 0 1 0.91 0.354 0.692 0.692 0 0 1-0.353 0.91c-1.085 0.478-2.395 0.933-3.664 1.378-1.245 0.437-2.528 0.883-3.567 1.337a0.648 0.648 0 0 1-0.275 0.06zm-4.362-6.561a0.7 0.7 0 0 1-0.657-0.478 0.692 0.692 0 0 1 0.446-0.868l10.13-3.258a0.6902 0.6902 0 1 1 0.423 1.314l-10.13 3.258a0.864 0.864 0 0 1-0.212 0.032z" fill="#d47455"/><path d="m207.67 302-20.422-9.089 28.704-7.269 20.417 9.084z" fill="#e5f1ff"/><path d="m214.02 297.14c-0.018 0-0.037 0-0.05-5e-3l-2.928-0.331a0.46 0.46 0 0 1-0.203-0.84l0.134-0.088a9.836 9.836 0 0 0-5.01-0.395l-0.065 0.014a0.46 0.46 0 0 1-0.16-0.905c0.018-5e-3 0.036-5e-3 0.055-0.01 0.331-0.068 0.643-0.289 0.855-0.615 0.133-0.207 0.216-0.432 0.243-0.653l-5.699 0.837a0.459 0.459 0 0 1-0.134-0.906l6.192-0.909a0.46 0.46 0 0 1 0.514 0.344c0.138 0.57 0.028 1.195-0.303 1.732a10.695 10.695 0 0 1 4.693 0.952 0.46 0.46 0 0 1 0.267 0.381 0.447 0.447 0 0 1-0.074 0.285l1.737 0.197a0.46 0.46 0 0 1 0.405 0.51 0.486 0.486 0 0 1-0.469 0.405zm6.591-2.835h-0.014c-0.873-0.028-1.673-0.598-2.027-1.379-1.116 0.258-2.334 0.4-3.327-0.243-0.644-0.418-1.034-1.117-1.053-1.815l-2.473 0.101a0.454 0.454 0 0 1-0.478-0.441 0.462 0.462 0 0 1 0.442-0.478l3.01-0.12a0.447 0.447 0 0 1 0.382 0.18 0.47 0.47 0 0 1 0.073 0.418c-0.147 0.464 0.115 1.075 0.593 1.387 0.809 0.524 1.935 0.299 3.02 0.023a0.466 0.466 0 0 1 0.358 0.055c0.106 0.065 0.18 0.175 0.207 0.299 0.12 0.598 0.694 1.08 1.301 1.098 0.253 0.01 0.45 0.221 0.446 0.474a0.458 0.458 0 0 1-0.46 0.441z" fill="#5c5e73"/><path d="m231.01 259.87a0.693 0.693 0 0 1-0.685-0.607 0.688 0.688 0 0 1 0.602-0.767l10.254-1.268a0.688 0.688 0 1 1 0.17 1.364l-10.254 1.269c-0.032 4e-3 -0.06 9e-3 -0.087 9e-3z" fill="#d47455"/><path d="m281.47 97.139c2.293-2.867 5.185-3.033 6.72-2.794 8.292 1.3 3.585 17.489-9.625 14.571 0.46-4.577 0.653-7.499 2.905-11.777z" fill="#ffb487"/><path d="m284.61 101.69a0.692 0.692 0 0 1-0.593-1.043c0.441-0.745 2.123-3.056 5.281-1.627 0.345 0.156 0.501 0.565 0.345 0.91s-0.565 0.501-0.91 0.345c-1.981-0.897-3.061 0.284-3.526 1.07a0.692 0.692 0 0 1-0.597 0.345z" fill="#d47455"/><path d="m284.22 113.06c1.765 0 3.195-1.639 3.195-3.662s-1.43-3.662-3.195-3.662c-1.764 0-3.194 1.639-3.194 3.662s1.43 3.662 3.194 3.662z" fill="#252833"/><path d="m255.2 98.038a1.16 1.16 0 0 1-0.915-0.45c-1.985-2.592-4.775-3.198-8.531-1.861a1.146 1.146 0 0 1-1.466-0.699 1.145 1.145 0 0 1 0.699-1.465c4.752-1.691 8.494-0.81 11.128 2.628a1.147 1.147 0 0 1-0.915 1.847z" fill="#fff"/></g><g transform="translate(49.721 5.3752)"><path d="m-24.899 89.677c-3.3-0.44-5.35-1.23-6.84-2.63-2.3-2.17-3.21-5.7-3.25-12.7v-1.78l0.2 0.02 0.21 0.02 0.04 0.81c0.05 1.21 0.22 2.05 0.57 2.93 0.51 1.28 1.64 2.66 2.83 3.46 0.67 0.45 0.96 0.59 1.57 0.8 2.02 0.7 6.13 0.66 8.02-0.08 1.28-0.5 2.61-1.58 3.44-2.83 0.71-1.05 1.1-2.13 1.24-3.46 0.04-0.34 0.09-0.85 0.12-1.13 0.04-0.28 0.06-0.88 0.06-1.34 0-0.93-0.06-1.12-0.42-1.31l-0.19-0.1-0.97 0.56c-0.53 0.31-1.06 0.62-1.18 0.69-0.11 0.06-0.64 0.36-1.16 0.67-1.08 0.63-1.33 0.75-2.19 1.05-1.76 0.61-4.21 0.61-5.98 0-1.06-0.37-1.21-0.45-4.85-2.59-0.39-0.23-0.42-0.23-0.59-0.15-0.27 0.14-0.41 0.41-0.41 0.85v0.37h-0.41v-2.28l0.02-2.28-0.14-0.11c-0.08-0.07-0.13-0.17-0.13-0.29 0-0.17 0.02-0.19 0.19-0.19 0.19 0 0.59 0.22 3.77 2.08 2.21 1.3 2.91 1.6 4.32 1.85 0.81 0.14 2.25 0.08 3.08-0.13 1.25-0.32 1.56-0.47 4.51-2.19 1.09-0.63 2.5-1.45 3.14-1.83 0.91-0.53 1.22-0.68 1.39-0.68h0.22l0.04 5.48 0.18 0.29c0.21 0.33 0.56 0.59 0.87 0.65 0.29 0.05 0.74-0.21 0.99-0.55l0.18-0.26 0.02-4.51v-4.52l-0.16-0.37c-0.11-0.24-0.33-0.54-0.6-0.82-0.46-0.49-0.34-0.41-3.46-2.22-0.84-0.48-1.86-1.08-2.28-1.32s-1.12-0.65-1.55-0.9c-0.44-0.25-1.12-0.65-1.51-0.88-1.49-0.87-2.09-1.11-3.18-1.25-0.54-0.07-0.7-0.07-1.22 0-1.24 0.17-1.56 0.32-4.1 1.8-3.92 2.29-4.23 2.47-4.33 2.47-0.04 0-0.09 0.02-0.1 0.05-0.04 0.11-0.53 0.36-0.7 0.36-0.16 0-0.18-0.02-0.18-0.2s0.04-0.22 0.26-0.36c0.15-0.08 0.29-0.16 0.33-0.16 0.16 0 0.3-0.24 0.3-0.5 0-0.41 0.17-2.15 0.3-3.02 0.61-4.18 2.07-6.53 4.9-7.91 1.03-0.5 2.38-0.89 4.09-1.19 0.75-0.13 0.88-0.14 4.18-0.13 6.36 0.01 9.16 0.28 11.47 1.1 2.25 0.79 3.85 2.22 4.83 4.29 0.86 1.85 1.25 4.15 1.41 8.39 0.09 2.28 0.05 16.64-0.05 18.01-0.33 4.56-1 6.82-2.56 8.68-1.59 1.88-4.01 2.88-7.87 3.26-1.67 0.16-2.58 0.2-6.21 0.22-3.03 0.02-4.01 0-4.48-0.06zm-12.53-23.9c-0.13-0.07-0.17-0.13-0.17-0.29 0-0.19 0.01-0.21 0.18-0.21 0.1 0 0.26 0.04 0.36 0.09 0.15 0.08 0.18 0.13 0.18 0.3 0 0.2-0.01 0.21-0.19 0.21-0.11 0-0.27-0.05-0.36-0.1zm-0.81-0.51s-0.07-0.16-0.07-0.26c0-0.19-0.02-0.2-0.22-0.22-0.22-0.02-0.23-0.03-0.24-0.24l-0.02-0.23 0.23 0.02c0.22 0.02 0.23 0.03 0.24 0.24 0.02 0.2 0.03 0.22 0.22 0.22 0.24 0 0.33 0.09 0.33 0.34 0 0.19-0.01 0.2-0.2 0.2-0.11 0-0.23-0.03-0.27-0.07z" fill="#00eae2"/><path d="m-33.979 89.717c-4.77-0.16-7.55-0.78-9.52-2.13-0.61-0.41-1.63-1.45-2.04-2.07-1.22-1.84-1.76-4.03-2.03-8.3-0.1-1.54-0.14-14.16-0.06-16.87 0.13-4.13 0.38-6.18 1.02-8.1 0.94-2.84 2.93-4.72 5.9-5.57 2.65-0.76 5.65-0.94 14.89-0.93 2.98 0 4.28 0.02 3.55 0.05-5.08 0.19-8.48 1.48-10.2 3.87-0.32 0.44-0.83 1.38-1.06 1.95-0.5 1.22-0.88 3.09-1.1 5.34-0.12 1.28-0.12 1.56 0 1.52 0.06-0.02 0.09 0 0.09 0.07 0 0.11-0.07 0.16-2.51 1.59-1.19 0.7-1.58 1.15-1.82 2.09-0.18 0.7-0.02 1.4 0.49 2.11 0.3 0.43 0.6 0.63 2.44 1.7 1.19 0.69 1.34 0.79 1.34 0.93 0 0.1-0.06 0.1-0.24-0.02q-0.15-0.1-0.04 0.02c0.1 0.12 0.11 0.27 0.09 2.39-0.01 1.24 0 2.07 0.01 1.84 0.02-0.23 0.06-0.47 0.1-0.53 0.05-0.08 0.07 0.42 0.07 1.85 0 1.2-0.01 1.86-0.04 1.69-0.03-0.15-0.05-0.53-0.05-0.85s-0.02-0.59-0.05-0.6c-0.07-0.04-0.04 2.83 0.04 4.32 0.23 4.28 0.94 6.98 2.34 8.83 0.67 0.88 1.68 1.71 2.72 2.23 1.73 0.86 4.32 1.39 7.59 1.53 0.67 0.03-1.24 0.05-5.17 0.04-3.43 0-6.46 0-6.72-0.02zm-3.08-24.05s-0.08-0.07-0.18-0.12c-0.23-0.11-0.24-0.07-0.01 0.05 0.19 0.1 0.19 0.11 0.19 0.07z" fill="#007bff"/><path d="m-27.299 81.217c-1.21-0.08-2.44-0.37-3.19-0.75-1.54-0.78-3.03-2.4-3.66-3.97-0.42-1.05-0.56-2-0.62-4.09-0.05-1.67-0.03-1.77 0.35-2 0.29-0.18 0.5-0.15 0.97 0.13 2.86 1.68 3.26 1.9 3.82 2.17 2.06 0.99 4.58 1.14 6.65 0.42 0.86-0.3 1.11-0.42 2.19-1.05 0.53-0.3 1.05-0.61 1.16-0.67 0.11-0.07 0.64-0.37 1.17-0.68 1.04-0.61 1.21-0.66 1.56-0.44 0.33 0.2 0.38 0.36 0.38 1.47 0 0.55-0.02 1.23-0.06 1.51-0.03 0.28-0.08 0.79-0.12 1.13-0.27 2.49-1.59 4.53-3.79 5.85-1.4 0.84-3.75 1.17-6.83 0.97z" fill="#fff"/><path d="m-13.849 72.337c-0.23-0.05-0.6-0.35-0.78-0.65l-0.18-0.29-0.02-2.75c-0.02-2.35-0.03-2.74-0.1-2.71-0.08 0.03-1.93 1.1-5.02 2.9-2.1 1.23-2.62 1.47-3.79 1.77-0.82 0.21-2.58 0.27-3.43 0.12-1.39-0.24-2.15-0.56-4.3-1.82-0.85-0.5-2.05-1.2-2.66-1.55-2.33-1.33-2.78-1.59-2.9-1.68-0.07-0.06-0.27-0.18-0.45-0.26-0.18-0.09-0.39-0.23-0.48-0.3-0.08-0.08-0.2-0.16-0.25-0.17s-0.15-0.11-0.21-0.2c-0.05-0.09-0.18-0.26-0.27-0.38-0.26-0.34-0.42-0.81-0.45-1.37-0.06-0.92 0.2-1.65 0.8-2.26 0.26-0.26 0.63-0.51 1.5-1.02 0.63-0.37 1.16-0.67 1.18-0.67 0.01 0 0.14-0.07 0.28-0.16 0.14-0.08 0.4-0.24 0.58-0.33s0.64-0.36 1.02-0.58c3.67-2.15 5.1-2.97 5.42-3.11 0.58-0.26 1.09-0.4 1.86-0.51 0.66-0.09 0.76-0.09 1.43 0 1.18 0.16 1.74 0.38 3.26 1.26 0.39 0.23 1.08 0.63 1.51 0.88s1.13 0.66 1.55 0.9 1.45 0.84 2.28 1.32c3.12 1.81 3 1.73 3.46 2.22 0.27 0.28 0.5 0.59 0.6 0.82l0.17 0.36v4.61c0 3.2-0.02 4.66-0.06 4.78-0.24 0.62-0.9 0.96-1.58 0.82z" fill="#fff"/><path d="m8.9782 183.75 4.41 15.41c0.39 1.37 1.46 2.43 2.83 2.83l15.41 4.41-15.41 4.41c-1.37 0.39-2.43 1.46-2.83 2.83l-4.41 15.41-4.41-15.41c-0.39-1.37-1.46-2.43-2.83-2.83l-15.41-4.41 15.41-4.41c1.37-0.39 2.43-1.46 2.83-2.83z" fill="#ffa000"/></g></svg>
