<?xml version="1.0" encoding="UTF-8"?><svg id="uuid-c4ddddae-8157-475c-b98a-a833cff5d234" xmlns="http://www.w3.org/2000/svg" viewBox="0 0 5560.14 736.45"><path d="M381.32,735.32c-55.2-7.4-89.5-20.6-114.5-44.1-38.5-36.3-53.7-95.5-54.4-212.7l-.2-29.8,3.6.3,3.5.3.7,13.5c.9,20.2,3.7,34.4,9.5,49,8.5,21.5,27.5,44.6,47.4,58,11.2,7.5,16,9.9,26.3,13.4,33.9,11.7,102.6,11,134.2-1.3,21.5-8.3,43.7-26.5,57.6-47.3,11.9-17.6,18.4-35.7,20.8-57.9.6-5.7,1.5-14.3,2-19,.6-4.7,1-14.8,1-22.5,0-15.6-1-18.8-7-21.9l-3.1-1.6-16.2,9.4c-8.9,5.2-17.8,10.4-19.7,11.5-1.9,1-10.7,6.1-19.5,11.2-18,10.5-22.2,12.5-36.6,17.5-29.4,10.2-70.5,10.2-100.1-.1-17.8-6.2-20.3-7.5-81.2-43.3-6.6-3.8-7-3.9-9.8-2.5-4.6,2.4-6.8,6.9-6.8,14.2v6.2h-6.9l.2-38.1.2-38.1-2.3-1.8c-1.4-1.2-2.2-2.9-2.2-4.9,0-2.8.3-3.1,3.1-3.1,3.2,0,9.8,3.6,63.1,34.8,37,21.7,48.8,26.8,72.3,30.9,13.6,2.3,37.6,1.3,51.5-2.1,20.9-5.3,26.2-7.9,75.5-36.6,18.2-10.6,41.8-24.3,52.6-30.6,15.2-8.8,20.4-11.4,23.2-11.4h3.6l.3,45.8.3,45.9,3,4.9c3.5,5.5,9.4,9.9,14.5,10.8,4.8.8,12.4-3.5,16.5-9.2l3-4.4.3-75.5.2-75.6-2.9-6.2c-1.8-4-5.5-9.1-10.1-13.8-7.7-8.2-5.7-6.9-58-37.2-14-8.1-31.2-18-38.2-22.1-7.1-4.1-18.8-10.9-26-15.1-7.3-4.2-18.7-10.8-25.3-14.7-24.9-14.5-35-18.5-53.3-21-9-1.2-11.8-1.2-20.5,0-20.7,2.8-26.2,5.3-68.7,30.1-65.6,38.3-70.8,41.3-72.5,41.3-.7,0-1.5.4-1.7.9-.7,1.8-8.9,6.1-11.8,6.1-2.7,0-3-.3-3-3.4s.6-3.7,4.4-6c2.5-1.4,4.9-2.6,5.5-2.6,2.6,0,5.1-4.1,5.1-8.3,0-6.9,2.9-36,5.1-50.6,10.2-70,34.6-109.3,82-132.4,17.2-8.3,39.8-14.9,68.4-19.9,12.6-2.2,14.8-2.3,70-2.1,106.4.2,153.3,4.7,192.1,18.4,37.6,13.2,64.5,37.2,80.8,71.9,14.4,31,20.9,69.5,23.6,140.5,1.5,38.2.8,278.6-.9,301.5-5.5,76.3-16.7,114.1-42.9,145.3-26.6,31.5-67.1,48.3-131.7,54.6-27.9,2.7-43.2,3.3-104,3.6-50.7.3-67.2.1-75-1h0ZM171.62,335.22c-2.2-1.2-2.8-2.2-2.8-4.9,0-3.2.2-3.5,3-3.5,1.7,0,4.4.7,6,1.5,2.5,1.3,3,2.2,3,5,0,3.3-.2,3.5-3.2,3.5-1.8-.1-4.5-.8-6-1.6ZM158.02,326.62c-.7-.7-1.2-2.7-1.2-4.4,0-3.1-.3-3.3-3.7-3.6-3.6-.3-3.8-.5-4.1-4.1l-.3-3.8,3.8.3c3.6.3,3.8.5,4.1,4.1.3,3.4.5,3.7,3.6,3.7,4.1,0,5.6,1.5,5.6,5.7,0,3.1-.2,3.3-3.3,3.3-1.8,0-3.8-.5-4.5-1.2h0Z" style="fill:#00eae2; stroke-width:0px;"/><path d="M229.32,736.12c-79.8-2.7-126.4-13.1-159.4-35.6-10.2-6.9-27.3-24.3-34.2-34.7-20.5-30.8-29.4-67.4-34-139C.12,501.12-.68,289.72.72,244.32c2.1-69.1,6.4-103.5,17.1-135.6C33.52,61.22,66.92,29.62,116.52,15.52,160.82,2.82,211.12-.28,365.82.02c49.9.1,71.6.4,59.5.8-85,3.2-142,24.8-170.8,64.8-5.3,7.4-13.9,23.1-17.8,32.7-8.4,20.5-14.8,51.8-18.4,89.4-2,21.5-2,26.2,0,25.5,1-.4,1.5,0,1.5,1.2,0,1.9-1.1,2.6-42.1,26.7-20,11.7-26.5,19.2-30.5,35-3,11.7-.3,23.5,8.2,35.4,5.1,7.2,10.1,10.6,40.9,28.5,20,11.5,22.5,13.3,22.5,15.5,0,1.7-1,1.7-4-.4-1.67-1.13-1.9-1-.7.4,1.7,2,1.8,4.5,1.5,40-.2,20.8-.1,34.7.2,30.8.3-3.8,1-7.8,1.6-8.8.8-1.4,1.1,7,1.1,31,.1,20.1-.2,31.1-.7,28.3-.5-2.5-.9-8.9-.9-14.2-.1-5.3-.4-9.9-.8-10.1-1.1-.7-.7,47.3.6,72.3,3.8,71.7,15.8,116.9,39.1,147.9,11.2,14.8,28.2,28.7,45.5,37.4,29,14.4,72.4,23.2,127,25.6,11.3.5-20.7.8-86.5.7-57.5,0-108.1-.1-112.5-.3h0ZM177.82,333.32c0-.2-1.3-1.1-3-2-3.8-1.9-4-1.1-.2.9,3.1,1.7,3.2,1.8,3.2,1.1Z" style="fill:#007bff; stroke-width:0px;"/><path d="M341.12,593.82c-20.3-1.4-40.9-6.2-53.4-12.5-25.8-13.1-50.7-40.2-61.2-66.5-7-17.6-9.4-33.5-10.3-68.5-.8-28-.5-29.6,5.9-33.5,4.8-3,8.4-2.5,16.2,2.1,47.9,28.1,54.5,31.8,64,36.4,34.5,16.5,76.6,19.1,111.4,7,14.4-5,18.6-7,36.6-17.5,8.8-5.1,17.6-10.2,19.5-11.2,1.9-1.1,10.7-6.2,19.6-11.4,17.4-10.2,20.3-11,26.1-7.4,5.6,3.4,6.3,6,6.3,24.6,0,9.2-.4,20.6-1,25.3-.5,4.7-1.4,13.3-2,19-4.5,41.7-26.7,75.9-63.4,97.9-23.4,14.1-62.8,19.6-114.3,16.2Z" style="fill:#fff; stroke-width:0px;"/><path d="M566.32,445.12c-3.8-.8-10-5.9-13-10.8l-3-4.8-.3-46c-.3-39.3-.5-45.8-1.7-45.3-1.3.5-32.3,18.4-84,48.6-35.2,20.6-43.9,24.6-63.5,29.6-13.8,3.5-43.2,4.5-57.5,2-23.2-4-36-9.4-72-30.5-14.3-8.4-34.3-20.1-44.5-25.9-39-22.2-46.6-26.6-48.5-28.2-1.1-1-4.5-3-7.5-4.4-3-1.5-6.6-3.8-8-5-1.4-1.3-3.3-2.6-4.2-2.9s-2.5-1.9-3.5-3.4c-.9-1.5-3-4.4-4.5-6.3-4.4-5.7-7-13.6-7.5-23-1-15.4,3.4-27.7,13.4-37.8,4.4-4.4,10.6-8.6,25.1-17,10.6-6.2,19.5-11.2,19.8-11.2.2,0,2.3-1.2,4.7-2.7,2.3-1.4,6.7-4,9.7-5.6s10.7-6,17-9.7c61.5-36,85.4-49.7,90.8-52.1,9.7-4.4,18.3-6.7,31.2-8.5,11-1.5,12.8-1.5,24,.1,19.8,2.7,29.1,6.3,54.5,21.1,6.6,3.9,18,10.5,25.3,14.7,7.2,4.2,18.9,11,26,15.1,7,4.1,24.2,14,38.2,22.1,52.3,30.3,50.3,29,58,37.2,4.5,4.7,8.3,9.8,10.1,13.7l2.9,6.1v77.1c0,53.5-.3,78-1,80-4,10.3-15.1,16.1-26.5,13.7h0Z" style="fill:#fff; stroke-width:0px;"/><path d="M3249.62,363.85v208.87l-.31,7.11c0,.62-.93,1.24-1.54,1.55h-62.33c-.93,0-1.54-.62-1.85-1.85l-1.23-3.4-11.72-39.55-1.54-4.02-.93-.31-.62.31-1.54,1.55c-13.88,15.47-30.65,28.07-49.37,37.08-17.05,8.93-35.74,14.29-54.93,15.76-9.86.83-19.76.83-29.62,0l-3.09-.31c-67.17-4.86-123.02-53.61-137-119.58-4.9-19.26-6.57-39.21-4.94-59.02v-3.4c2.18-36.23,15.56-70.89,38.26-99.18,23.9-28.71,57.72-47.36,94.73-52.22,8.95-1.24,18.2-1.85,27.15-1.55l12.65.31,11.72,1.24c34.18,5.16,65.66,21.58,89.48,46.66l2.78,2.16.93-.31.31-1.24v-146.46l.31-6.49.93-1.24,1.23-.31h76.53l4.01.31,1.23,1.24.31,1.55v214.74h0ZM3069.11,513.39c8.33,0,16.66-.93,24.68-2.47,41.36-8.49,71.11-44.85,71.28-87.13.26-13.32-1.72-26.58-5.86-39.24-8.33-23.17-28.08-43.87-54-53.15-28.28-9.6-59.26-7.26-85.78,6.49-25.52,14.79-42.05,41.3-44.12,70.76-1.08,11.56-.45,23.22,1.85,34.61,5.89,27.66,24.73,50.78,50.6,62.11,9.87,4.33,20.36,6.8,31.47,7.73l9.87.31ZM3526.4,441.09h-120.34l-6.48.31c-.62,0-1.54.62-1.54,1.55l.31.93c6.79,40.06,41.5,69.33,82.08,69.21h15.74c16.06-.93,31.64-5.81,45.36-14.21,8.07-5.11,15.09-11.71,20.67-19.47l1.23-.31h.93l23.45,4.02,25.3,4.02,17.9,3.09c3.09.31,6.48.62,9.26,1.55.62.31.62.62.62.93v1.24l-.31,1.55c-10.27,27.08-29.56,49.78-54.62,64.27-22.77,13.85-48.23,22.69-74.67,25.95-14.43,1.84-29,2.25-43.51,1.24l-3.7-.31c-34.08-2.65-66.61-15.33-93.5-36.46-29.29-23.52-49.03-56.91-55.54-93.93-2.47-11.74-3.7-23.79-3.39-35.84v-7.73l.62-11.12,1.54-11.74c11.29-74,71.77-130.59,146.26-136.88,10.18-1.24,20.36-1.55,30.55-1.24l4.94.31,10.49.62,10.49,1.55c35.58,5.58,68.51,22.22,94.11,47.58,32.92,33.03,49.54,78.97,45.36,125.45l-.93,12.05c0,.93-.93,1.55-1.85,1.85h-126.82,0ZM3483.2,381.15h78.07l1.54-.31c.62,0,.93-.62.93-1.24l-.31-1.24c-6.17-16.68-16.04-30.59-30.55-41.09-12.34-9.27-26.23-14.52-41.35-15.45-12.64-1.29-25.4.29-37.34,4.64-18.51,6.18-41.04,22.25-51.22,52.22l-.31,1.24,1.23,1.24h79.3,0ZM1526.9,419.47c.49,22.43-3.6,44.72-12.03,65.51-11.74,29.43-32.2,54.56-58.63,71.99-23.26,15.65-49.92,25.51-77.76,28.74-12.34,1.55-24.68,2.16-37.34,1.85l-6.48-.62-4.01-.31c-39.87-3.01-77.68-18.96-107.69-45.42-26.99-24.85-44.36-58.44-49.06-94.86-1.54-10.82-2.16-21.63-1.85-32.44l.31-7.11.62-4.64c3.59-47.46,28.28-90.8,67.27-118.03,28.53-20.34,62.49-31.64,97.51-32.44h19.13c37.36.47,73.7,12.21,104.29,33.68,35.69,25.58,58.9,65.09,63.87,108.76.31,3.09.93,5.87.93,8.96l.93,16.37h0ZM1259.99,417.61c.31,10.51.93,19.47,3.09,28.12,7.32,32.47,33.1,57.55,65.73,63.96,3.39.93,6.79.93,10.18,1.24,10.61,1.03,21.32.51,31.78-1.55,26.25-5.13,48.42-22.62,59.55-46.96,8.27-18.94,10.74-39.91,7.1-60.25-1.23-8.96-3.7-17.61-7.4-25.65-12.5-27.71-39.15-46.33-69.43-48.51-9.56-.93-19.44-.62-29,.93-22.35,3.3-42.34,15.71-55.23,34.3-8.95,12.98-13.88,27.5-15.43,42.95l-.93,11.43h0ZM3708.46,419.77v-154.18l.31-6.49c0-.31.62-1.24,1.23-1.24h59.25c1.23,0,2.78-.31,4.01.31l.93.62.62,1.55,5.86,19.16,6.17,20.7,1.23,3.09c.31.31.62.62.93.31l.93-.93,3.39-4.02c18.29-24.22,45.1-40.57,74.98-45.73,13.5-2.25,27.3-2.04,40.73.62,30.68,5.57,57.94,22.99,75.91,48.51,15.51,21.4,24.51,46.83,25.92,73.23l.62,17.3v180.45l-.31,6.49c0,.93-.93,1.85-1.85,1.85h-80.54c-.62-.31-1.54-.93-1.54-1.55l-.31-1.85v-174.58l-.31-14.52c-.95-20.44-11.18-39.34-27.77-51.29-8.02-5.87-16.97-9.58-27.15-11.12-11.88-1.9-24.04-.95-35.48,2.78-10.49,3.71-19.13,9.58-26.23,17.92-9.44,10.79-15.17,24.33-16.35,38.62l-.93,16.68v177.36c-.31.62-.93,1.24-1.85,1.55h-76.83l-4.01-.31c-.62,0-1.23-.62-1.23-1.24l-.31-1.55v-158.51h0ZM2828.12,420.08v152.95l-.31,6.49c0,.62-.62,1.55-1.23,1.55l-1.23.31h-57.39c-6.17,0-5.25.31-7.1-5.56l-8.64-28.43-3.39-11.74c-.31-.62-.62-.62-.93-.62l-.93.31-1.23,1.55-1.54,2.16c-22.05,30.21-57.06,48.19-94.42,48.51-3.09,0-6.17,0-9.56-.62-3.09-.31-6.48-.31-9.87-1.24-31.3-5.63-59.07-23.54-77.14-49.75-17.25-24.54-26.02-54.05-24.99-84.04v-186.32l.31-6.49,1.23-1.24h80.85c.93,0,1.85.93,1.85,1.55v179.52c0,5.87.31,11.43,1.23,17.3,2.78,15.45,9.26,29.35,20.67,40.17,10.2,10,23.7,15.94,37.95,16.68h12.34c15.64-.75,30.31-7.77,40.73-19.47,7.1-7.73,12.03-16.99,14.81-27.19,2.14-10.06,3.28-20.31,3.39-30.59l.31-169.01v-7.73l1.23-1.24h79.92c2.47,0,3.09.62,3.09,3.09v159.13h0ZM1970.61,478.79l28.7-4.64,7.71-1.24c.31,0,1.23.31,1.23.93l.93,1.55,1.85,3.71c8.02,16.99,24.07,31.52,45.67,36.46,19.39,4.23,39.61,2.51,58.01-4.94,2.78-1.24,5.25-2.78,7.4-4.64,5.54-4.86,8.31-12.15,7.4-19.47-.62-5.87-3.39-10.82-7.4-14.52-2.47-2.16-4.94-4.02-7.71-5.56l-10.18-4.64c-7.1-2.78-14.19-4.94-21.6-6.8l-20.67-4.94c-15.74-3.4-31.47-8.03-46.28-14.21-11.98-4.69-23.46-10.6-34.25-17.61-13.27-8.96-22.22-21.01-27.15-36.15-2.16-6.49-3.7-12.98-4.01-19.77l-.93-12.98c.31-8.34.93-16.68,3.09-24.72,4.63-18.85,14.5-33.99,29.93-45.42,19.95-14.05,43.06-22.97,67.27-25.95,10.8-1.55,21.91-1.85,32.71-1.55l8.33.31,7.71.62,11.11,1.55c20.98,4.02,40.42,12.05,57.7,24.72,22.93,16.69,39.57,40.64,47.21,67.97,0,.62-.31,1.55-1.23,1.85l-.93.31-6.48.93-29.31,4.94-28.08,4.64-8.02,1.55h-2.47c-.62,0-1.23-.31-1.23-.93l-2.47-4.64c-9.76-21.26-31.25-34.64-54.62-33.99-6.17-.31-12.03.31-17.9,1.55-5.25,1.55-10.49,3.4-15.12,6.18-3.82,2.22-7.09,5.29-9.56,8.96-2.47,3.4-3.09,7.42-3.09,11.74.31,5.56,2.47,10.51,6.17,14.52,1.85,1.85,4.01,3.71,6.48,5.25l8.33,4.33c15.11,5.8,30.57,10.65,46.28,14.52l26.23,6.8c20.95,6.71,40.89,16.28,59.25,28.43,10.8,8.34,18.51,18.85,23.14,32.13,3.71,12.73,5.18,26.01,4.32,39.24-.62,3.4-.93,7.11-1.85,10.51-4.34,20.05-15.19,38.08-30.86,51.29-14.36,10.97-30.71,19.05-48.14,23.79-24.9,5.56-50.43,7.74-75.91,6.49l-3.39-.62c-27.59-1.48-54.21-10.68-76.83-26.57-24.24-17.34-40.92-43.33-46.59-72.61-.31-.93.31-1.55,1.23-1.85l2.78-.62,18.2-3.09,17.9-3.09h0ZM1064.66,455.31v117.41l-.31,6.49-.31,1.24-.93.62-2.16.31h-76.53l-3.09-.31-.62-.62-.62-1.24v-240.7c-.06-2.78-.16-5.56-.31-8.34l-.93-.62-3.7-.31h-41.96l-2.47-.31c-.31,0-.62-.31-.62-.93l-.31-.93v-67.67c.31-.62.93-1.55,1.54-1.55h41.66l5.25-.31c.93,0,1.85-.93,1.85-1.85v-5.25l.93-20.39c1.23-10.2,3.39-20.08,7.71-29.66,6.17-14.52,15.74-26.26,29-35.23,13.19-8.31,27.86-13.98,43.2-16.68l14.19-1.85,3.39-.31,15.43-.31h62.95c.93,0,1.85.62,1.85,1.85l.93,5.25,1.23,11.74,1.54,16.37,1.85,16.68.31,2.78.62,7.11c.31,2.78.93,5.56.62,8.34,0,.31-.62,1.24-1.23,1.24h-.31l-2.47.31h-68.19c-5.15-.09-10.27.74-15.12,2.47-5.25,2.47-9.26,6.49-11.72,12.05l-1.85,7.42-.31,7.73v7.73l.31,1.55.93.93,5.25.31h78.99c2.57.06,5.15.17,7.71.31l.62.62.31,1.24v67.67c0,.62-.93,1.24-1.54,1.55h-90.1c-1.54,0-2.47,1.24-2.47,2.78v123.28h0ZM2292.76,411.12v-74.16l-.31-5.87c0-.93-.62-1.55-1.54-1.55l-1.54-.31h-44.43c-2.16,0-2.78-.93-2.78-3.09v-63.34l.31-3.71.93-.93,1.23-.31h41.96l4.94-.31c.62,0,.93-.62,1.23-.93l.62-2.47,5.25-24.1,5.25-25.65,5.25-25.65,2.78-12.05c0-.62.93-1.55,1.54-1.55h61.71c.93,0,1.85.93,1.85,2.16v87.13c0,2.78.62,3.09,3.7,3.4h89.48l.93,1.24.31,1.85v65.81c0,1.85-1.23,2.47-2.78,2.47h-83.93l-5.86.31c-.93,0-1.54.93-1.54,1.55l-.31,1.24v147.08c0,3.4.31,6.49.93,9.89.31,2.16.93,4.33,1.85,6.18,2.16,5.25,5.86,8.96,10.8,11.12,3.39,1.55,6.79,2.47,10.18,2.78l8.33.31h68.19l1.23,1.24v1.24l-.31,4.02-.93,8.96-.62,4.02-.31,4.94-.62,6.49-.62,4.02-.62,7.73-.31.62-1.23,14.21-1.54,12.36c0,.93-.93,1.85-1.85,1.85h-62.64l-21.29-.93c-16.38-1.51-32.36-5.91-47.21-12.98-19.44-10.2-32.71-25.95-39.8-46.66l-3.7-14.83c-1.54-8.03-2.16-16.07-2.16-24.41v-70.45h0ZM4101.88,410.81v-80.03l-1.23-1.24-1.85-.31h-45.67c-.62,0-1.54-.93-1.54-1.55v-68.28c0-.62.93-1.55,1.54-1.55h41.66l5.25-.31c1.54,0,2.16-.62,2.47-1.85l1.54-7.11,9.26-44.49,6.48-30.9,1.23-6.49c.31-.62.93-1.24,1.85-1.55h62.02l1.23,1.24v1.85l.31,5.87v81.88c.31.62.93,1.55,1.54,1.55l1.85.31h89.48l1.23,1.24v68.59c0,.62-.93,1.24-1.23,1.24l-1.85.31h-83.31l-5.86.31c-.93,0-1.54.62-1.85,1.24v148.93c-.31,3.4.31,6.8.93,10.2.93,4.94,3.09,9.58,7.1,13.29,2.47,2.47,5.86,4.02,9.26,4.94,2.78.93,5.55,1.24,8.64,1.24l6.48.31h67.58c.62,0,1.54,1.24,1.54,1.85l-.62,5.87-.62,7.73-.62,4.64-.62,5.25-.62,7.11-.62,5.25-.62,5.25-.31,1.85-1.54,15.76-1.23,9.58c0,.62-.93,1.55-1.54,1.55h-64.49c-23.02.91-45.91-3.86-66.65-13.9-19.75-10.51-33.02-26.26-40.11-47.58-2.47-7.73-4.01-15.76-4.94-23.79l-.93-19.47v-65.81h0ZM1585.21,419.16v-153.56l.31-6.49.93-.93.31-.31h60.48l3.09.31.62.62c.62.62.62,1.55.93,2.16l6.79,23.48,3.7,12.98,1.23,3.4h1.54l1.85-2.16c5.35-7.6,11.56-14.54,18.51-20.7,6.17-5.25,13.27-9.27,20.98-12.05,16.34-5.32,33.42-8.03,50.6-8.03h11.72c.31,0,1.23.62,1.23,1.24l.31.31.62,7.11,1.23,10.82.31,4.64.62,6.49.62,4.64.62,8.34.31,1.24,1.54,17.61.62,6.49.62,8.96c-.31.62-.93,1.55-1.54,1.55h-50.3c-10.35.39-20.57,2.48-30.24,6.18l-5.25,2.47c-6.48,4.02-11.42,9.58-14.81,16.68-1.54,3.09-2.47,6.18-3.39,9.27l-1.54,8.96c-.4,66.53-.82,133.07-1.23,199.6l-.93.62-1.23.31h-79.92c-.62-.31-1.54-.93-1.54-1.55l-.31-1.85v-158.82h0Z" style="stroke-width:0px;"/><path d="M4388.26,467.01c.73,1.5,1.53,3.14,2.33,4.77,10.49,21.51,27.58,34.29,51.17,38.2,15,2.48,29.94,2,44.54-2.55,4.28-1.33,8.54-3.09,12.41-5.33,14.98-8.67,14.3-26.89,3.33-36.52-3.44-3.02-7.31-5.3-11.43-7.22-9.53-4.44-19.5-7.65-29.7-10.13-10.38-2.52-20.83-4.73-31.19-7.35-17.37-4.39-34.25-10.23-50.23-18.42-4.93-2.53-9.74-5.32-14.48-8.19-17.67-10.7-28.56-26.31-32.87-46.4-3.72-17.33-3.63-34.72.96-51.89,4.73-17.7,14.72-31.96,29.47-42.84,14.42-10.63,30.56-17.64,47.85-22.05,19.5-4.97,39.34-6.22,59.37-5.17,17.4.91,34.25,4.4,50.24,11.37,36.3,15.82,61.03,42.35,73.44,80.09.44,1.35.74,2.74,1.15,4.3-.91.37-1.62.81-2.39.94-24.88,4.26-49.77,8.49-74.93,12.77-.74-1.46-1.39-2.69-1.98-3.94-10.93-23.26-29.37-35.19-54.93-36.26-9.56-.4-18.86,1.05-27.71,4.85-4.18,1.79-8.06,4.07-11.49,7.1-10.27,9.07-8.52,23.35-1.34,30.92,3.6,3.8,7.92,6.53,12.6,8.72,7.65,3.57,15.53,6.56,23.66,8.81,12.27,3.39,24.6,6.57,36.93,9.74,17.16,4.42,33.88,10.04,49.74,18,6.05,3.04,11.92,6.46,17.7,10,17.67,10.81,28.25,26.59,32.1,46.83,3.21,16.85,2.5,33.53-3.11,49.86-6.42,18.67-17.73,33.62-33.99,44.93-15.6,10.85-32.77,17.85-51.33,21.58-23.12,4.64-46.44,5.92-69.96,3.96-17.13-1.43-33.84-4.72-49.6-11.6-30.78-13.43-54.28-34.52-67.13-66.15-2.62-6.44-4.34-13.25-6.42-19.91-.29-.93-.24-1.97-.34-2.92,5.57-1.8,72.11-12.88,77.57-12.9h0Z" style="stroke-width:0px;"/></svg>