<svg xmlns="http://www.w3.org/2000/svg" xml:space="preserve" fill="none" viewBox="0 0 360 164"><defs><clipPath id="a"><path fill="#fff" d="M0 0h108v128H0z" transform="translate(126 16)"/></clipPath></defs><g style="display:inline"><path fill="#83db83" fill-rule="evenodd" d="M308.09 106.167c-.1.463-.285 1.075-.543 1.823-.311.901-.702 1.927-1.118 3.017-.062.164-.125.329-.189.495-.482 1.266-.982 2.597-1.398 3.86-.414 1.256-.756 2.483-.91 3.538-.076.527-.11 1.041-.07 1.509.039.463.155.945.43 1.355.294.437.731.732 1.273.847.511.108 1.066.047 1.632-.111 1.124-.313 2.573-1.088 4.409-2.355.418-.288.519-.855.227-1.266-.293-.411-.868-.511-1.286-.223-1.795 1.238-3.036 1.867-3.853 2.094-.404.113-.632.106-.741.083-.077-.016-.098-.038-.122-.073-.042-.063-.105-.21-.13-.502-.024-.285-.006-.652.059-1.101.131-.899.435-2.009.838-3.234.402-1.22.888-2.516 1.371-3.783.062-.164.125-.328.187-.491.415-1.087.818-2.143 1.139-3.074.361-1.045.654-2.029.716-2.754.028-.331.031-.816-.223-1.223-.148-.236-.375-.431-.673-.53-.28-.092-.55-.077-.768-.033-.485.099-.944.364-1.351.667-.419.312-.853.716-1.292 1.178-.878.922-1.842 2.143-2.825 3.486-1.344 1.834-2.768 3.959-4.1 5.946-.613.913-1.206 1.798-1.763 2.611-.892 1.305-1.687 2.422-2.334 3.218-.067.082-.132.16-.194.234.155-1.002.514-2.524 1.135-4.698 1.274-4.465 1.786-7.455 1.73-9.285-.026-.883-.187-1.701-.663-2.243-.263-.299-.61-.497-1.012-.558-.382-.058-.745.018-1.054.138-.602.232-1.197.706-1.745 1.258-.564.568-1.146 1.287-1.714 2.099-1.136 1.625-2.258 3.681-3.1 5.785-.187.467.045.995.52 1.179.474.184 1.01-.046 1.197-.513.792-1.979 1.849-3.912 2.903-5.419.528-.754 1.044-1.386 1.514-1.859.486-.489.861-.746 1.099-.838.014-.005.026-.01.037-.013.059.124.154.424.173 1.038.047 1.533-.394 4.296-1.663 8.739-.705 2.471-1.107 4.214-1.242 5.349-.064.546-.082 1.057.021 1.461.052.206.159.485.406.706.283.252.632.327.944.29.274-.033.503-.148.666-.249.173-.106.338-.24.492-.381.308-.281.643-.655.991-1.083.699-.86 1.53-2.031 2.425-3.339.576-.843 1.181-1.745 1.8-2.668 1.321-1.97 2.707-4.038 4.028-5.842.968-1.321 1.878-2.468 2.675-3.306.391-.411.739-.73 1.039-.956zm-14.455 16.049s.002-.001.005-.003c-.003.002-.005.003-.005.003zm.78.339c.002.006.002.007 0 .001z" clip-rule="evenodd"/><path fill="#ffd652" fill-rule="evenodd" d="M320 54c7.732 0 14-6.268 14-14s-6.268-14-14-14-14 6.268-14 14 6.268 14 14 14zm0 2c8.837 0 16-7.1634 16-16s-7.163-16-16-16-16 7.1634-16 16 7.163 16 16 16z" clip-rule="evenodd"/><path fill="#ff6680" d="m154.411 66.5055-8.547-5.3409c-.879-.549-1.318-.8235-1.762-.7211-.443.1024-.718.5417-1.267 1.4203l-5.34 8.5471c-1.197 1.915-1.795 2.8725-1.369 3.4703.426.5977 1.526.3438 3.727-.1642l13.888-3.2063c2.2-.508 3.3-.7619 3.421-1.4861s-.836-1.3225-2.751-2.5191z"/><g clip-path="url(#a)"><rect width="7.52244" height="7.52244" fill="#70b2ff" rx="1.86919" transform="rotate(-44.838 117.0679851 -144.44323236)"/><path fill="#ff5773" d="M214.197 81.2025c-2.095 0-4.166-.4187-5.751-1.226l.296-.5733c3.759 1.9153 10.711 1.4772 13.161-1.75 4.181-5.499 2.238-12.2735-5.938-20.7056l.467-.4466c8.434 8.7005 10.393 15.7455 5.99 21.5408-1.631 2.1429-4.956 3.1607-8.225 3.1607zm-11.402-48.7543c-1.822 0-3.93-.8911-5.968-2.5809-.138-.1138-.156-.3178-.041-.4531.114-.1374.319-.1546.455-.0408 2.667 2.2117 5.407 2.9761 7.331 2.0485 1.132-.5454 1.788-1.6341 1.752-2.9095-.065-2.3319-2.235-4.6122-5.807-6.1002-.164-.0687-.242-.2577-.173-.4209s.26-.2405.424-.1718c3.813 1.589 6.132 4.084 6.204 6.6779.043 1.5352-.75 2.8472-2.117 3.5064-.624.2984-1.319.4444-2.06.4444zm-31.186 1.1546c-1.185 3.6696-2.386 7.4422-2.161 11.29.224 3.8478 2.2 7.8438 5.763 9.364 2.032.8654 4.345.8439 6.526.4896 2.073-2.5144 3.092-5.8598 2.77-9.0956-.319-3.2359-1.978-6.3193-4.504-8.3827"/><path fill="#ff5773" d="M175.571 41.498c-4.288-.0107-7.849-2.7484-8.283-6.3729-.382-3.2015 1.831-7.2597 9.193-9.0441.174-.0408.349.0645.39.2362.044.174-.064.3479-.237.3887-6.951 1.6855-9.052 5.4153-8.702 8.3419.395 3.3003 3.679 5.7953 7.639 5.8039.18 0 .324.146.324.3221 0 .1804-.144.3242-.324.3242z"/><path fill="#ffb487" d="m154.755 95.262-1.436 2.9202s-1.356-11.2514-1.507-16.3682c-.171-5.7416.324-6.1088-.329-11.1762-.654-5.0653-2.904-11.8484-4.269-13.9247-.777-1.1831-1.459-2.6282-1.904-3.6567-.318-.7344-1.318-.831-1.784-.1804-.451.6291-.795 1.5181-.553 2.669.285 1.3463 1.65 3.4055 2.121 4.8699.859 2.669.779 3.4742.779 3.4742s-2.805-1.4537-5.359-.0129c-2.402 1.3549-1.825 2.7871-1.825 2.7871s-2.656.8116-2.619 2.4263c-1.398.9383-1.981 2.7527.09 5.8082 1.654 2.4435 3.872 3.2337 3.872 3.2337s1.816 3.1285 1.816 6.6585c0 9.8321-2.112 27.28 1.808 32.807 3.839 5.413 13.414 4.209 23.578-13.815 9.147-16.2221-2.647-12.6062-2.647-12.6062z"/><path fill="#ff5773" d="M188.333 28.901c-1.2-11.1483 14.054-11.1204 16.053-2.1429 1.927 8.6511-12.926 10.575-17.314 3.8542"/><path fill="#ff5773" d="M189.791 30.8809c6.077-2.0635 13.06.277 14.062 7.3499 1.464 10.3238 5.032 12.3958 9.944 15.9151 9.098 6.5168 12.097 25.6034-8.413 25.8739-26.154.3457-23.997-5.0309-26.308-5.5247-4.493-.9577-14.293-13.3664-1.574-22.6875 12.594-9.2309 12.289-20.9267 12.289-20.9267z"/><path fill="#ffb487" d="M173.138 86.8042c.253 2.8 4.079-.3758 5.388.0837 3.262 1.1445 13.781-10.4483 16.618-14.1565-.95-4.58-.589-17.3366-.589-17.3366l-12.879 7.0665-.706 7.5238c-.03 1.0972-7.117 2.7806-7.521 3.2723-.272 1.1638-1.123 13.4072-.311 13.5468z"/><path fill="#d47455" d="M193.073 59.1978c-.051-.408-.099-.7859-.14-1.1294l-4.8.9941-6.453 2.9782-.31 3.7404c6.288-.4187 10.164-4.6014 11.703-6.5833z"/><path fill="#ffb487" d="M178.092 36.7998c-2.585 2.6883-4.211 10.1413-4.44 13.7207-.205 2.6926 1.056 9.3468 7.158 11.6228 5.798 2.1644 13.436-1.6147 15.421-7.4079l2.33-6.199s-4.168 1.6255-3.261-8.8894c-5.418-4.2408-13.824-7.0601-17.208-2.8472z"/><path fill="#252833" d="M189.632 48.7555c.145-1.0479-.327-1.9782-1.055-2.0777-.728-.0996-1.435.6692-1.58 1.7172-.145 1.0479.327 1.9782 1.055 2.0778.728.0995 1.435-.6693 1.58-1.7173z"/><path fill="#252833" d="M191.629 46.5295c-.158.2427-.357.466-.577.6678-.22.2019-.471.3822-.743.5304-.272.1503-.568.2727-.881.35-.313.088-.639.1202-.969.1353-.303.015-.56-.2169-.573-.5175-.015-.3006.219-.5561.521-.569.056-.0022.112.0043.164.0171l.015.0043c.24.0645.49.1224.747.131.259.0193.523-.0021.786-.0537.266-.0493.529-.1352.784-.2512.253-.1181.501-.2619.726-.4445zm-13.091.6099c.067-1.0557-.473-1.9493-1.206-1.996-.733-.0467-1.382.7712-1.449 1.8269-.068 1.0557.472 1.9494 1.205 1.9961.733.0467 1.382-.7713 1.45-1.827z"/><path fill="#252833" d="M174.768 44.5256c.143.2062.329.3715.523.5132.196.1396.406.2512.622.3414.218.0881.44.1525.667.1997.112.0258.229.0387.339.058l.343.0322.02.0021c.302.028.525.2942.497.5948-.028.3006-.296.5218-.599.4939-.067-.0065-.131-.0258-.19-.0537l-.371-.1804c-.121-.0687-.242-.1309-.356-.2061-.231-.146-.449-.3113-.648-.4939-.197-.1846-.374-.3865-.521-.6033-.144-.219-.265-.4509-.326-.6979z"/><path fill="#d47455" d="M180.888 51.9572c-.045 0-.091-.0086-.134-.0279-.43-.1933-1.438-.728-1.553-1.5031-.036-.2469.009-.6162.426-.977.734-.6334 1.935-2.4328 2.027-4.5585.009-.1782.162-.3157.337-.3071.18.0086.318.1589.309.335-.104 2.3448-1.403 4.2858-2.25 5.018-.237.204-.216.35-.209.3973.043.3006.529.7171 1.179 1.0092.162.073.235.2641.162.4273-.052.1159-.171.1868-.294.1868zm1.404 3.4396c-.922 0-1.743-.277-2.143-.5518-.196-.1353-.246-.4016-.112-.597.134-.1954.404-.2447.6-.1116.46.3135 2.607.9619 3.913-.5991.154-.1825.426-.2061.609-.0558.184.1524.208.423.056.6055-.827.9899-1.934 1.3098-2.923 1.3098z"/><path fill="#252833" d="M179.99 42.6834c-.072 0-.145-.0236-.205-.073-1.801-1.4623-4.229-1.0564-4.254-1.0521-.175.03-.344-.0859-.376-.262-.03-.1761.086-.3414.263-.3736.113-.0193 2.747-.4574 4.775 1.1874.138.1116.159.3156.045.4531-.06.0816-.153.1202-.248.1202z"/><path fill="#2787f5" d="M180.972 69.9874c-3.997 1.9904-14.079.3349-19.201 10.5084s-7.362 15.5738-7.362 15.5738l11.46 7.9704 5.777 14.343 48.262 10.741 9.927-22.971s-5.999-18.0732-11.505-24.6523c-5.507-6.579-21.249-11.8418-23.183-12.1596-10.644 6.1753-14.175.6463-14.175.6463z"/><path fill="#135094" d="M212.983 109.506c-.123 0-.242-.071-.296-.191l-7.096-15.7131c-.073-.1631 0-.3521.162-.4251.162-.073.354 0 .428.161l7.096 15.7132c.073.163 0 .352-.162.425-.041.022-.087.03-.132.03zm-47.036-5.019h-.004c-.179-.002-.322-.148-.32-.326.074-5.0139.817-7.6121 1.942-11.5479.287-1.0092.613-2.1515.954-3.427.045-.1717.225-.2748.395-.2297.173.0451.277.2212.231.3929-.341 1.2819-.667 2.4285-.956 3.4377-1.11 3.8865-1.845 6.4524-1.916 11.38-.006.178-.151.32-.326.32z"/><path fill="#393b52" d="M182.255 100.383c-.153 0-.289-.109-.317-.266-1.596-8.8381.479-17.7576 2.485-26.3829l.119-.5111c-.02.0108-.039.0215-.059.0322-.872.4724-1.695.919-3.096.9963-2.373.1332-3.567-.8309-3.894-1.7757-.276-.8052.018-1.6491.75-2.1515 1.183-.8117 3.591-.7301 6.819 1.9046.322-.1525.676-.3028 1.08-.4381 3.312-.9834 5.476-.7386 6.266.7065.406.7429.471 1.3441.19 1.7886-.315.5003-1.021.7279-2.101.6742-1.66-.0816-4.202-.8739-5.299-1.7006l-.144.6206c-1.991 8.5631-4.052 17.4182-2.479 26.1249.032.176-.087.344-.262.374-.019.002-.039.004-.058.004zm3.287-27.6667c.783.6076 3.185 1.5116 4.986 1.5997.792.0386 1.347-.0967 1.52-.3737.181-.2877-.015-.7773-.212-1.138-.79-1.4472-3.427-1.0156-5.502-.3994-.287.0967-.548.2019-.792.3114zm-5.641-2.2159c-.54 0-.974.1331-1.293.3521-.495.3393-.687.8804-.506 1.4129.249.7236 1.233 1.4558 3.244 1.342 1.257-.0709 1.982-.4638 2.822-.919.084-.0451.171-.0924.257-.1396-1.894-1.4988-3.427-2.0484-4.524-2.0484z"/><path fill="#393b52" d="M185.976 94.2534c-.177 0-.322-.1418-.324-.3178-.045-3.4034-.171-6.942-.294-10.3668-.121-3.4269-.248-6.9698-.293-10.3796-.003-.1782.14-.3242.319-.3264.177-.0021.326.1396.328.3178.046 3.4033.171 6.9419.294 10.3667.121 3.427.248 6.9699.294 10.3797.002.1782-.141.3242-.32.3264h-.004z"/><path fill="#d47455" d="M143.127 74.8164c-.178 0-.383-.0366-.616-.1353-1.855-.7795-3.902-7.0214-4.131-7.7321-.054-.1697.039-.35.21-.4037.17-.0537.352.0386.406.2083.593 1.8487 2.425 6.7701 3.766 7.3348.382.1611.552.0537.609.0172.369-.2319.481-1.0156.492-1.2733.006-.1782.16-.3178.337-.3092.179.0065.317.1568.311.3328-.005.1353-.072 1.3356-.791 1.7908-.138.0881-.334.1697-.593.1697z"/><path fill="#d47455" d="M140.41 76.0383c-.121 0-.246-.0065-.38-.0215-.911-.0966-3.017-2.1343-3.995-6.6091-.039-.1739.073-.3457.248-.3822.175-.0387.348.073.385.2469.963 4.4082 2.975 6.0573 3.431 6.1045 1.03.1095 1.635-.2963 1.898-1.2776.045-.1717.225-.2748.397-.2276.173.0451.277.2233.229.3951-.222.8288-.79 1.7715-2.213 1.7715z"/><path fill="#d47455" d="M138.817 77.4167h-.052c-.179-.0043-.322-.1503-.318-.3286.005-.1782.152-.3263.331-.3156.231.0043.57-.0301.831-.2212.216-.1567.339-.4079.307-.6269-.026-.1761.097-.3393.274-.3651.175-.0257.341.0967.367.2727.065.4552-.158.9405-.568 1.2368-.309.2276-.715.3479-1.172.3479z"/><path fill="#ffb487" d="M153.574 98.1841c.73 1.8939.989 3.9659.751 5.9799z"/><path fill="#d47455" d="M154.325 104.487c-.013 0-.026 0-.039-.002-.177-.022-.304-.181-.282-.359.233-1.965-.02-3.979-.732-5.8254-.065-.1653.019-.3521.185-.4166.166-.0644.354.0194.419.1847.749 1.9433 1.015 4.0643.771 6.1323-.022.165-.16.286-.322.286z"/><path fill="#252833" d="M142.973 28.0678h-.019c-.238-.0108-.423-.2104-.413-.4488l.497-11.2084c.011-.2362.214-.4209.451-.4102.238.0108.424.2105.413.4488l-.497 11.2085c-.011.2297-.201.4101-.432.4101zm8.746 5.4025c-.125 0-.251-.0537-.337-.1589-.149-.1847-.121-.4552.065-.6034l4.48-3.5923c.186-.1481.458-.1202.607.0645.149.1846.121.4552-.065.6033l-4.48 3.5923c-.078.0644-.175.0945-.27.0945zm-21.657-1.1322c-.099 0-.199-.0343-.281-.103l-3.63-3.0791c-.181-.1546-.203-.4252-.047-.6055.155-.1804.427-.2019.609-.0473l3.63 3.0813c.181.1546.203.4251.047.6055-.086.0966-.207.1481-.328.1481z"/><path fill="#fff" d="M175.662 50.9393c-2.414 0-4.379-1.9539-4.379-4.3545s1.965-4.3546 4.379-4.3546c2.414 0 4.379 1.954 4.379 4.3546s-1.962 4.3545-4.379 4.3545zm0-7.6376c-1.82 0-3.299 1.4708-3.299 3.2809 0 1.8101 1.479 3.281 3.299 3.281 1.821 0 3.3-1.4709 3.3-3.281s-1.479-3.2809-3.3-3.2809zm12.3 9.3215c-2.414 0-4.379-1.954-4.379-4.3546s1.965-4.3545 4.379-4.3545c2.414 0 4.379 1.9539 4.379 4.3545s-1.965 4.3546-4.379 4.3546zm0-7.6355c-1.82 0-3.299 1.4708-3.299 3.2809 0 1.8101 1.479 3.281 3.299 3.281 1.82 0 3.3-1.4709 3.3-3.281s-1.48-3.2809-3.3-3.2809z"/><path fill="#fff" d="M191.882 48.3113c-.286 0-.523-.2211-.538-.5067-.017-.2963.211-.5497.509-.5647l6.679-.3672c.294-.0193.553.2104.568.5068.018.2963-.211.5496-.509.5647l-6.679.3671h-.03z"/><path fill="#ffd54f" d="M202.054 33.2787c-.324 0-.645-.1438-.857-.4208-1.965-2.5488-7.748-5.892-12.341-5.3294-.592.073-1.131-.3457-1.205-.934-.073-.5884.348-1.1252.94-1.1982 5.422-.6656 11.995 3.1349 14.321 6.1539.362.4703.272 1.1445-.201 1.5052-.197.1525-.428.2233-.657.2233z"/><path fill="#e5f1ff" d="m156.996 132.315-17.847-.202-1.371-4.789 16.86-.24zm15.982-29.542c4.729 4.59 8.685 13.192 12.06 23.383l-15.029 1.741c-.928-7.781-5.975-21.036-13.334-27.836z"/><path fill="#252833" d="M152.727 71.6643c-.166 0-.337-.043-.49-.1332l-21.689-12.6299c-.462-.2705-.618-.861-.348-1.3227.272-.4616.866-.6141 1.331-.3457l21.689 12.6299c.462.2706.617.8611.347 1.3227-.181.3071-.507.4789-.84.4789z"/><path fill="#252833" d="M128.292 56.31c.388.0752.762.1783 1.136.2792l.552.1653c.182.0601.361.1224.54.1868.177.0666.376.0988.564.146.188.0473.35.1396.484.2792.133.1395.25.3049.347.5024.095.2018.177.4252.21.7322.006.0644-.033.1245-.089.1482-.287.1159-.525.1481-.749.161-.223.0064-.423-.0172-.609-.0709-.186-.0515-.344-.1503-.475-.2941-.132-.1417-.253-.3006-.395-.4252-.141-.1267-.281-.2533-.419-.3865l-.406-.4079c-.266-.2813-.531-.5605-.78-.8675-.032-.0387-.026-.0966.013-.1288.022-.0194.05-.0258.076-.0194z"/><path fill="#ffb487" d="M147.387 77.0951c-2.978-.7-3.308-4.7561-3.701-6.3128-.449-1.7822-1.559-2.1043-2.082-3.865-.224-.7558.197-1.6254.721-2.1816.352-.3736.953-.35 1.296.0322 1.537 1.7178 4.71 4.2945 5.761 5.4196"/><path fill="#ffb487" d="M147.387 77.0948c-2.978-.7-3.308-4.7561-3.701-6.3128-.449-1.7822-1.559-2.1043-2.082-3.865-.078-.2576-.063-.7472.138-1.3076"/><path fill="#d47455" d="M147.387 77.4168c-.024 0-.05-.0021-.076-.0086-2.749-.6463-3.388-3.8414-3.768-5.7481-.062-.3113-.116-.5819-.17-.7987-.214-.8503-.59-1.3421-.989-1.8638-.402-.5282-.819-1.0736-1.091-1.9883-.11-.3715-.056-.9491.145-1.5074.06-.1675.246-.2555.414-.1954.169.0601.257.2426.197.4123-.173.4852-.19.9147-.134 1.1101.238.8009.6 1.2776.985 1.7822.419.5497.853 1.1187 1.101 2.0978.058.2319.114.5089.177.831.352 1.7564.939 4.6959 3.282 5.2478.175.0408.283.2147.24.3865-.035.1417-.166.2426-.313.2426z"/><path fill="#135094" d="M195.511 108.126c-2.79 0-5.575-.747-7.968-2.216-.153-.094-.199-.292-.106-.442.095-.153.294-.198.445-.105 3.986 2.448 9.13 2.804 13.419.925.164-.071.354.002.427.165.071.164-.002.353-.166.426-1.909.835-3.98 1.247-6.051 1.247z"/><path fill="#2787f5" fill-rule="evenodd" d="M198.519 90.5511c.041-.1031.013-.1825-.138-.1933l-.497-.0322c-.125-.0086-.187.0559-.226.1246 0 0-.298.5969-.683.9726-.123.1074-.179.1418-.241.1375-.035-.0022-.076-.043-.067-.1482l.067-.9834c.008-.1245-.026-.1847-.132-.1911l-.782-.0515c-.078-.0043-.129.0493-.134.1073-.008.1203.169.1611.166.4982l-.049.73c-.011.1589-.041.1847-.104.1804-.168-.0108-.538-.6571-.736-1.3807-.039-.1417-.084-.1975-.21-.2061l-.503-.0344c-.144-.0085-.173.0559-.179.1289-.009.1288.117.7944.676 1.6984.371.6184.933.9727 1.46 1.0092.319.0215.362-.0472.369-.1675l.03-.4466c.009-.1439.041-.1653.143-.1589.073.0043.2.0515.475.3543.315.3586.362.5153.55.5282l.497.0322c.145.0086.218-.058.188-.1997-.035-.1417-.186-.3543-.38-.6098-.106-.1417-.27-.3027-.32-.3779-.067-.1009-.043-.1374.015-.2212-.004-.0021.663-.8159.745-1.0993z" clip-rule="evenodd"/><path fill="#ff5773" d="M194.188 29.7404c-3.211-2.5551-13.484-7.4594-20.556-2.1021-5.484 4.1549-4.204 12.791 2.004 15.7713 6.209 2.9803 20.506-3.7018 20.506-3.7018z"/><path fill="#ffb487" d="M229.835 106.154s5.604 14.863 3.811 19.406c-2.425 6.152-6.694 5.274-17.834 5.274-12.341 0-20.901-2.124-25.127-1.828-4.226.299-14.472 4.282-16.848 4.542-2.448-1.095 2.214-2.884 2.214-2.884s-6.785 2.57-7.832 1.293c-1.048-1.28 5.139-4.059 5.139-4.059s-3.554.861-7.13 1.402c-.592.091-1.08-.493-.858-1.045.536-1.323 2.628-2.95 7.39-4.43-3.129.215-5.396.449-6.623.588-.479.054-.801-.47-.538-.871.685-1.046 2.145-2.568 4.926-2.79 5.243-.416 12.069-.815 11.95-1.709l-.903-2.207c1.555-1.011 2.458-.086 6.839 1.844 4.513 1.989 13.443 2.356 18.107 1.881 4.666-.476 11.065-2.022 11.065-2.022l-4.598-9.354c3.788-1.23 11.952-3.811 16.85-3.031z"/><mask id="b" width="69" height="28" x="165" y="106" maskUnits="userSpaceOnUse"><path fill="#ffb487" d="M229.835 106.153s5.604 14.863 3.811 19.407c-2.425 6.151-6.694 5.273-17.834 5.273-12.341 0-20.901-2.123-25.127-1.827-4.226.298-14.472 4.281-16.848 4.541-2.448-1.095 2.214-2.884 2.214-2.884s-6.785 2.571-7.832 1.293c-1.048-1.28 5.139-4.058 5.139-4.058s-3.554.861-7.13 1.402c-.592.09-1.08-.494-.858-1.046.536-1.322 2.628-2.95 7.39-4.429-3.129.214-5.396.448-6.623.588-.479.054-.801-.47-.538-.872.685-1.046 2.145-2.568 4.926-2.789 5.243-.417 12.069-.816 11.95-1.709l-.903-2.208c1.555-1.011 2.458-.085 6.839 1.845 4.513 1.988 13.443 2.355 18.107 1.881 4.666-.477 11.065-2.023 11.065-2.023l-4.598-9.353c3.788-1.23 11.952-3.811 16.85-3.032z"/></mask><g fill="#5c5e73" mask="url(#b)"><path d="M228.069 132.622c-.085 0-.169-.032-.231-.096-.126-.127-.124-.331.004-.456 3.343-3.259 3.824-5.758 3.222-6.907-.288-.55-.834-.795-1.495-.672-1.321.245-2.798 1.825-3.638 4.829-.104.867-.279 1.819-.538 2.858l-.637-.114c.121-1.082.307-2.042.538-2.888.412-3.62-.497-5.628-1.579-6.285-.645-.393-1.358-.32-1.954.2-1.27 1.103-1.745 4.034.054 8.093l-.592.262c-.531-1.173-3.729-3.217-5.677-3.073-.747.054-1.213.41-1.418 1.091-.009.442.131.809.427 1.118.635.66 1.838.898 2.751.9.179 0 .324.146.324.322 0 .178-.145.322-.324.322-.507-.002-2.241-.086-3.217-1.099-.428-.445-.633-.992-.607-1.628l.013-.075c.276-.966.969-1.518 2.006-1.593 1.583-.114 3.723.943 5.083 2.053-1.209-3.717-.423-6.156.752-7.176.799-.696 1.842-.797 2.718-.264 1.045.635 1.916 2.179 1.987 4.788.98-2.07 2.295-3.064 3.407-3.27.948-.176 1.765.199 2.188 1.007.738 1.41.248 4.163-3.343 7.665-.06.058-.142.088-.224.088zm-15.233-8.548c-.095 0-.192-.006-.291-.021-1.49-.219-3.399-2.182-4.291-7.032-.032-.174.084-.344.261-.376.175-.032.346.084.378.26.832 4.522 2.54 6.332 3.749 6.51.572.084 1.049-.189 1.347-.766.808-1.563.054-4.911-3.506-8.568l.466-.448c4.319 4.438 8.076 5.554 9.739 4.715.544-.275.788-.741.689-1.316-.214-1.235-2.261-3.541-8.588-4.359l.084-.638c1.348.172 4.846-1.31 5.785-3.017.341-.618.294-1.179-.145-1.713-.511-.357-1.276-.47-2.159-.32-1.078.182-2.153.743-2.557 1.333-.101.146-.302.185-.449.086-.149-.101-.186-.3-.086-.446.501-.733 1.727-1.392 2.982-1.607 1.075-.182 2.028-.019 2.682.46l.056.051c.633.75.717 1.604.242 2.468-.737 1.335-2.704 2.49-4.388 3.034 4.846.998 6.908 3.01 7.176 4.562.146.851-.24 1.598-1.035 1.999-1.513.765-4.295.241-7.627-2.282 1.678 2.671 1.903 4.964 1.214 6.302-.372.722-1.004 1.129-1.728 1.129z"/><path d="M232.93 115.685c-.283 0-.527-.06-.711-.127-.95-.344-1.73-1.318-2.12-2.532-.504 1.19-1.434 1.944-2.315 2.287-1.246.488-2.516.282-3.317-.541-.562-.577-1.296-1.898-.413-4.535-1.608.874-3.064.687-3.966.151-.856-.509-1.294-1.357-1.149-2.212.207-1.228 1.542-2.186 3.658-2.626.175-.037.347.075.384.249.037.174-.075.346-.25.382-1.84.382-2.989 1.149-3.151 2.102-.099.589.225 1.183.844 1.553.877.524 2.415.622 4.097-.668.116-.09.278-.09.397 0 .117.09.158.247.1.382-.925 2.139-.955 3.88-.08 4.776.615.631 1.617.779 2.615.388 1.075-.421 2.241-1.574 2.28-3.541.004-.178.155-.317.33-.315.18.004.322.15.318.328-.039 1.901.969 3.408 1.965 3.767.65.234 1.283-.005 1.835-.688.113-.139.316-.161.456-.049s.162.314.05.453c-.653.799-1.324 1.016-1.857 1.016zm-3.993-6.979c-.78 0-1.555-.461-1.885-1.172-.393-.846-.108-1.939.647-2.489.145-.105.348-.073.454.069.106.144.073.346-.069.451-.508.369-.706 1.132-.443 1.699.264.566.976.91 1.587.766.611-.144 1.091-.771 1.069-1.396-.006-.178.134-.326.313-.332.182 0 .329.133.335.311.032.93-.654 1.829-1.566 2.044-.146.034-.293.049-.442.049zm1.788 13.543c-.51 0-1.002-.11-1.426-.324-.691-.35-1.2-.988-1.362-1.705-.182-.805.099-1.641.717-2.128.689-.541 1.729-.561 2.373-.043.35.281.548.726.531 1.187-.015.436-.218.821-.557 1.057-.337.236-.773.307-1.14.187-.436-.144-.734-.567-.689-.982.019-.176.179-.305.356-.285.177.019.307.176.287.354-.013.116.102.253.249.303.173.056.395.017.563-.101.171-.12.275-.32.281-.552.009-.262-.099-.511-.291-.666-.404-.324-1.119-.302-1.564.048-.417.328-.613.923-.488 1.481.121.533.503 1.009 1.026 1.273.579.292 1.354.333 2.075.108.631-.198 1.244-.589 1.82-1.16.869-.861 1.467-1.924 1.728-3.074.039-.174.212-.284.386-.243.175.039.283.212.244.384-.289 1.269-.945 2.442-1.902 3.389-.65.644-1.352 1.088-2.084 1.316-.373.116-.758.176-1.133.176zm-23.456 9.867c-.95 0-1.881-.189-2.74-.559-.164-.07-.24-.259-.168-.423.071-.163.261-.238.425-.167 1.088.468 2.304.614 3.515.425.804-.127 1.482-.389 2.015-.779.609-.447 1.035-1.093 1.136-1.731.093-.575-.067-1.162-.43-1.574-.378-.429-.978-.623-1.49-.481-.546.15-.987.713-.961 1.228.013.245.152.479.37.627.192.129.416.166.613.099.196-.066.361-.221.415-.393.047-.146.002-.32-.1-.378-.155-.09-.207-.285-.116-.44.09-.155.287-.206.442-.116.363.211.531.696.391 1.132-.119.365-.434.674-.823.807-.39.133-.825.069-1.187-.176-.385-.26-.629-.681-.652-1.127-.041-.823.587-1.647 1.433-1.881.761-.211 1.605.056 2.151.678.488.554.704 1.338.581 2.1-.132.812-.639 1.593-1.393 2.147-.617.453-1.39.754-2.297.898-.376.054-.754.084-1.13.084z"/></g><path fill="#d47455" d="M175.408 131.286c-.126 0-.244-.073-.298-.193-.072-.164.002-.353.166-.426.509-.223 1.125-.435 1.721-.644.585-.204 1.188-.412 1.676-.625.164-.07.354.003.427.166.071.163-.002.352-.166.425-.51.223-1.125.436-1.721.644-.585.204-1.188.412-1.676.625-.043.019-.086.028-.129.028zm-2.049-3.066c-.137 0-.264-.088-.309-.224-.054-.169.039-.35.209-.406l4.759-1.522c.171-.056.352.039.409.208.054.17-.039.35-.21.406l-4.759 1.523c-.033.008-.067.015-.099.015z"/><path fill="#e5f1ff" d="m161.806 144-9.595-4.247 13.486-3.397 9.592 4.245z"/><path fill="#5c5e73" d="M164.788 141.73c-.009 0-.018 0-.024-.002l-1.376-.155c-.09-.011-.164-.075-.185-.163-.022-.088.015-.178.09-.23l.063-.041c-.751-.261-1.572-.328-2.354-.184-.011.002-.021.004-.03.006-.117.02-.227-.058-.248-.174-.022-.116.056-.227.172-.249.009-.002.018-.002.026-.004.156-.032.303-.135.402-.288.063-.096.101-.202.114-.305l-2.677.391c-.119.017-.227-.064-.244-.18-.018-.118.065-.226.181-.243l2.909-.425c.11-.017.214.054.242.161.064.266.013.558-.143.81.758-.02 1.518.133 2.205.444.071.032.119.101.125.178.005.047-.008.095-.034.133l.816.093c.119.013.203.12.19.238-.02.107-.112.189-.22.189zm3.096-1.325h-.006c-.411-.013-.786-.279-.953-.644-.524.12-1.097.187-1.563-.114-.302-.195-.486-.521-.494-.848l-1.162.047c-.125.005-.22-.088-.225-.206-.004-.118.089-.219.208-.223l1.414-.056c.073-.002.138.028.179.084.041.056.056.129.035.195-.069.217.054.503.278.649.38.245.909.139 1.419.011.058-.016.119-.005.168.025.05.03.085.082.098.14.056.279.326.504.611.513.118.004.211.103.209.221-.004.116-.099.206-.216.206z"/><path fill="#d47455" d="M172.773 124.314c-.162 0-.3-.12-.322-.283-.021-.177.104-.338.283-.359l4.818-.593c.177-.021.339.103.36.279.022.177-.103.338-.28.359l-4.818.593c-.015.002-.028.004-.041.004z"/><path fill="#ffb487" d="M196.479 48.2688c1.078-1.3398 2.436-1.4171 3.157-1.3055 3.896.6077 1.684 8.1723-4.522 6.8088.216-2.1386.307-3.5042 1.365-5.5033z"/><path fill="#d47455" d="M197.952 50.3947c-.056 0-.112-.015-.164-.0451-.153-.0902-.205-.2877-.115-.4423.208-.3479.998-1.4279 2.482-.7601.161.073.235.2641.161.4251-.073.1611-.265.2341-.427.1611-.931-.4187-1.438.1331-1.656.5003-.063.1052-.171.161-.281.161z"/><path fill="#252833" d="M197.768 55.7085c.829 0 1.501-.7661 1.501-1.7113 0-.9451-.672-1.7113-1.501-1.7113-.829 0-1.501.7662-1.501 1.7113 0 .9452.672 1.7113 1.501 1.7113z"/><path fill="#fff" d="M184.136 48.6889c-.162 0-.322-.073-.43-.2104-.933-1.2111-2.244-1.4945-4.008-.8696-.281.0987-.589-.0451-.689-.3264-.099-.2792.046-.5862.329-.685 2.232-.7902 3.99-.3779 5.228 1.2282.181.2362.136.5733-.1.7515-.101.0752-.216.1117-.33.1117z"/></g><path fill="#ffa000" d="M80 120h1.0872c2.1947 0 3.3222-1.134 3.3222-3.337v-4.064c0-.941.3423-1.476 1.5906-1.476v-2.246c-1.2483 0-1.5906-.535-1.5906-1.455v-4.085c0-2.203-1.1275-3.337-3.3222-3.337H80v2.246h1.0872c.7047 0 1.0068.321 1.0068 1.091v4.085c0 1.583.6845 2.139 1.7516 2.396v.342c-1.0872.257-1.7516.835-1.7516 2.439v4.064c0 .77-.3021 1.091-1.0068 1.091H80Z"/></g><g style="display:inline"><path d="M22.667583 93.127359c-3.3-.44-5.35-1.23-6.84-2.63-2.3-2.17-3.21-5.7-3.25-12.7v-1.78l.2.02.21.02.04.81c.05 1.21.22 2.05.57 2.93.51 1.28 1.64 2.66 2.83 3.46.67.45.96.59 1.57.8 2.02.7 6.13.66 8.02-.08 1.28-.5 2.61-1.58 3.44-2.83.71-1.05 1.1-2.13 1.24-3.46.04-.34.09-.85.12-1.13.04-.28.06-.88.06-1.34 0-.93-.06-1.12-.42-1.31l-.19-.1-.97.56c-.53.31-1.06.62-1.18.69-.11.06-.64.36-1.16.67-1.08.63-1.33.75-2.19 1.05-1.76.61-4.21.61-5.98 0-1.06-.37-1.21-.45-4.85-2.59-.39-.23-.42-.23-.59-.15-.27.14-.41.41-.41.85v.37h-.41v-2.28l.02-2.28-.14-.11c-.08-.07-.13-.17-.13-.29 0-.17.02-.19.19-.19.19 0 .59.22 3.77 2.08 2.21 1.3 2.91 1.6 4.32 1.85.81.14 2.25.08 3.08-.13 1.25-.32 1.56-.47 4.51-2.19 1.09-.63 2.5-1.45 3.14-1.83.91-.53 1.22-.68 1.39-.68h.22l.02 2.74.02 2.74.18.29c.21.33.56.59.87.65.29.05.74-.21.99-.55l.18-.26.02-4.51v-4.52l-.16-.37c-.11-.24-.33-.54-.6-.82-.46-.49-.34-.41-3.46-2.22-.84-.48-1.86-1.08-2.28-1.32-.42-.24-1.12-.65-1.55-.9-.44-.25-1.12-.65-1.51-.88-1.49-.87-2.09-1.11-3.18-1.25-.54-.07-.7-.07-1.22 0-1.24.17-1.56.32-4.1 1.8-3.92 2.29-4.23 2.47-4.33 2.47-.04 0-.09.02-.1.05-.04.11-.53.36-.7.36-.16 0-.18-.02-.18-.2 0-.18.04-.22.26-.36.15-.08.29-.16.33-.16.16 0 .3-.24.3-.5 0-.41.17-2.15.3-3.02.61-4.18 2.07-6.53 4.9-7.91 1.03-.5 2.38-.89 4.09-1.19.75-.13.88-.14 4.18-.13 6.36.01 9.16.28 11.47 1.1 2.25.79 3.85 2.22 4.83 4.29.86 1.85 1.25 4.15 1.41 8.39.09 2.28.05 16.64-.05 18.01-.33 4.56-1 6.82-2.56 8.68-1.59 1.88-4.01 2.88-7.87 3.26-1.67.16-2.58.2-6.21.22-3.03.02-4.01 0-4.48-.06zm-12.53-23.9c-.13-.07-.1699995-.13-.1699995-.29 0-.19.01-.21.1799995-.21.1 0 .26.04.36.09.15.08.18.13.18.3 0 .2-.01.21-.19.21-.11 0-.27-.05-.36-.1zm-.8099995-.51s-.07-.16-.07-.26c0-.19-.02-.2-.22-.22-.22-.02-.23-.03-.24-.24l-.02-.23.23.02c.22.02.23.03.24.24.02.2.03.22.22.22.24 0 .33.09.33.34 0 .19-.01.2-.2.2-.11 0-.23-.03-.27-.07z" style="fill:#00eae2;stroke-width:0" transform="matrix(.8276 -.11043 .11043 .8276 19.861931 -10.595926)"/><path d="M13.587583 93.167359c-4.7699995-.16-7.5499995-.78-9.5199995-2.13-.61-.41-1.63-1.45-2.04-2.07-1.22000003-1.84-1.76000003-4.03-2.03000003-8.3-.1-1.54-.14-14.16-.06-16.87.13-4.13.38-6.18 1.02-8.1.94000003-2.84 2.93000003-4.72 5.90000003-5.57 2.65-.76 5.6499995-.94 14.8899995-.93 2.98 0 4.28.02 3.55.05-5.08.19-8.48 1.48-10.2 3.87-.32.44-.83 1.38-1.06 1.95-.5 1.22-.88 3.09-1.1 5.34-.12 1.28-.12 1.56 0 1.52.06-.02.09 0 .09.07 0 .11-.07.16-2.51 1.59-1.1899995.7-1.5799995 1.15-1.8199995 2.09-.18.7-.02 1.4.49 2.11.3.43.6.63 2.4399995 1.7 1.19.69 1.34.79 1.34.93 0 .1-.06.1-.24-.02q-.15-.1-.04.02c.1.12.11.27.09 2.39-.01 1.24 0 2.07.01 1.84.02-.23.06-.47.1-.53.05-.08.07.42.07 1.85 0 1.2-.01 1.86-.04 1.69-.03-.15-.05-.53-.05-.85 0-.32-.02-.59-.05-.6-.07-.04-.04 2.83.04 4.32.23 4.28.94 6.98 2.34 8.83.67.88 1.68 1.71 2.72 2.23 1.73.86 4.32 1.39 7.59 1.53.67.03-1.24.05-5.17.04-3.43 0-6.46 0-6.72-.02zm-3.08-24.05s-.08-.07-.18-.12c-.23-.11-.24-.07-.01.05.19.1.19.11.19.07z" style="fill:#007bff;stroke-width:0" transform="matrix(.8276 -.11043 .11043 .8276 19.861931 -10.595926)"/><path d="M20.267583 84.667359c-1.21-.08-2.44-.37-3.19-.75-1.54-.78-3.03-2.4-3.66-3.97-.42-1.05-.56-2-.62-4.09-.05-1.67-.03-1.77.35-2 .29-.18.5-.15.97.13 2.86 1.68 3.26 1.9 3.82 2.17 2.06.99 4.58 1.14 6.65.42.86-.3 1.11-.42 2.19-1.05.53-.3 1.05-.61 1.16-.67.11-.07.64-.37 1.17-.68 1.04-.61 1.21-.66 1.56-.44.33.2.38.36.38 1.47 0 .55-.02 1.23-.06 1.51-.03.28-.08.79-.12 1.13-.27 2.49-1.59 4.53-3.79 5.85-1.4.84-3.75 1.17-6.83.97z" style="fill:#fff;stroke-width:0" transform="matrix(.8276 -.11043 .11043 .8276 19.861931 -10.595926)"/><path d="M33.717583 75.787359c-.23-.05-.6-.35-.78-.65l-.18-.29-.02-2.75c-.02-2.35-.03-2.74-.1-2.71-.08.03-1.93 1.1-5.02 2.9-2.1 1.23-2.62 1.47-3.79 1.77-.82.21-2.58.27-3.43.12-1.39-.24-2.15-.56-4.3-1.82-.85-.5-2.05-1.2-2.66-1.55-2.33-1.33-2.78-1.59-2.9-1.68-.07-.06-.27-.18-.45-.26-.1799995-.09-.3899995-.23-.4799995-.3-.08-.08-.2-.16-.25-.17-.05-.01-.15-.11-.21-.2-.05-.09-.18-.26-.27-.38-.26-.34-.42-.81-.45-1.37-.06-.92.2-1.65.8-2.26.26-.26.63-.51 1.4999995-1.02.63-.37 1.16-.67 1.18-.67.01 0 .14-.07.28-.16.14-.08.4-.24.58-.33.18-.09.64-.36 1.02-.58 3.67-2.15 5.1-2.97 5.42-3.11.58-.26 1.09-.4 1.86-.51.66-.09.76-.09 1.43 0 1.18.16 1.74.38 3.26 1.26.39.23 1.08.63 1.51.88.43.25 1.13.66 1.55.9.42.24 1.45.84 2.28 1.32 3.12 1.81 3 1.73 3.46 2.22.27.28.5.59.6.82l.17.36v4.61c0 3.2-.02 4.66-.06 4.78-.24.62-.9.96-1.58.82z" style="fill:#fff;stroke-width:0" transform="matrix(.8276 -.11043 .11043 .8276 19.861931 -10.595926)"/></g></svg>