<svg xmlns="http://www.w3.org/2000/svg" xml:space="preserve" fill="none" viewBox="0 0 428 304"><mask id="a" width="147" height="60" x="215" y="220" maskUnits="userSpaceOnUse"><path fill="#ffb487" d="M352.471 221.009s11.927 31.806 8.112 41.529c-5.161 13.165-14.248 11.285-37.961 11.285-26.268 0-44.488-4.544-53.483-3.91-8.995.639-30.804 9.162-35.86 9.718-5.212-2.343 4.711-6.171 4.711-6.171s-14.442 5.5-16.671 2.766c-2.229-2.738 10.939-8.684 10.939-8.684s-7.565 1.843-15.177 3.001c-1.259.192-2.298-1.057-1.824-2.238 1.14-2.831 5.593-6.314 15.728-9.48-6.66.46-11.486.961-14.097 1.259-1.02.115-1.705-1.006-1.144-1.865 1.457-2.238 4.564-5.496 10.484-5.969 11.16-.891 25.689-1.746 25.436-3.658l-1.921-4.723c3.309-2.164 5.231-.184 14.557 3.947 9.606 4.255 28.612 5.041 38.54 4.025 9.932-1.02 23.551-4.328 23.551-4.328l-9.785-20.016c8.062-2.633 25.44-8.156 35.865-6.488z"/></mask><path stroke="#ffd652" stroke-width="5" d="M394.899 17.049c0 6.93-5.62 12.549-12.554 12.549s-12.553-5.62-12.553-12.55c0-6.929 5.619-12.548 12.553-12.548 6.934 0 12.554 5.619 12.554 12.549z"/><path stroke="#83db83" stroke-linecap="round" stroke-linejoin="round" stroke-width="2" d="M395.391 170.067c4.516-11.035 15.054-21.068 8.029 3.01-7.778 26.661 12.652-14.267 19.068-15.55 5.017-1.004-16.559 33.107 3.512 19.563"/><rect width="16.055" height="16.055" fill="#70b2ff" rx="4" transform="rotate(-44.991 173.542 -143.875)"/><path fill="#ff5773" d="M319.184 167.616c-4.458 0-8.866-.896-12.24-2.624l.63-1.227c8.002 4.099 22.798 3.162 28.014-3.745 8.899-11.767 4.762-26.264-12.639-44.309l.992-.956c17.954 18.619 22.123 33.695 12.751 46.097-3.471 4.586-10.549 6.764-17.508 6.764zM294.916 63.283c-3.879 0-8.365-1.907-12.704-5.523a.686.686 0 0 1-.087-.97.686.686 0 0 1 .969-.087c5.677 4.733 11.51 6.369 15.605 4.384 2.408-1.167 3.806-3.497 3.728-6.226-.138-4.99-4.758-9.87-12.36-13.055a.69.69 0 0 1-.368-.9.69.69 0 0 1 .901-.368c8.117 3.4 13.054 8.74 13.205 14.29.092 3.286-1.594 6.093-4.504 7.504-1.328.639-2.808.951-4.385.951zm-66.38 2.471c-2.523 7.853-5.079 15.926-4.601 24.16.478 8.235 4.684 16.786 12.268 20.039 4.325 1.852 9.248 1.806 13.89 1.048 4.412-5.381 6.582-12.54 5.897-19.464-.68-6.925-4.21-13.523-9.588-17.939"/><path fill="#ff5773" d="M236.97 82.65c-9.129-.023-16.708-5.882-17.632-13.638-.814-6.851 3.898-15.536 19.567-19.354a.69.69 0 0 1 .832.505.686.686 0 0 1-.506.832c-14.796 3.607-19.268 11.589-18.523 17.852.841 7.062 7.832 12.401 16.262 12.42a.6915.6915 0 0 1 0 1.383z"/><path fill="#ffb487" d="m192.661 197.703-3.056 6.249s-2.887-24.078-3.209-35.027c-.363-12.287.69-13.073-.698-23.917-1.393-10.84-6.182-25.355-9.087-29.798-1.655-2.532-3.107-5.625-4.054-7.826-.676-1.571-2.804-1.778-3.797-.386-.96 1.347-1.691 3.249-1.177 5.712.607 2.881 3.512 7.287 4.514 10.421 1.829 5.712 1.659 7.435 1.659 7.435s-5.97-3.111-11.408-.028c-5.111 2.9-3.884 5.965-3.884 5.965s-5.653 1.736-5.575 5.192c-2.974 2.008-4.215 5.891.193 12.429 3.521 5.229 8.241 6.92 8.241 6.92s3.866 6.695 3.866 14.249c0 21.041-4.495 58.379 3.847 70.207 8.172 11.583 28.552 9.006 50.187-29.564 19.47-34.715-5.635-26.977-5.635-26.977z"/><path fill="#ff5773" d="M264.134 55.693c-2.556-23.857 29.913-23.797 34.169-4.586 4.1 18.513-27.514 22.63-36.853 8.248"/><path fill="#ff5773" d="M267.237 59.93c12.934-4.416 27.799.592 29.931 15.728 3.117 22.093 10.71 26.527 21.167 34.058 19.364 13.946 25.748 54.79-17.908 55.369-55.67.74-51.079-10.766-55.997-11.823-9.565-2.049-30.423-28.603-3.351-48.55 26.806-19.754 26.158-44.782 26.158-44.782z"/><path fill="#ffb487" d="M231.79 179.603c.537 5.992 8.682-.804 11.468.179 6.945 2.45 29.333-22.359 35.373-30.294-2.022-9.801-1.255-37.1-1.255-37.1l-27.412 15.122-1.503 16.101c-.065 2.348-15.15 5.95-16.009 7.003-.58 2.49-2.39 28.691-.662 28.989z"/><path fill="#d47455" d="M274.223 120.527c-.11-.873-.211-1.682-.299-2.417l-10.217 2.127-13.734 6.374-.662 8.004c13.384-.896 21.635-9.847 24.912-14.088z"/><path fill="#ffb487" d="M242.334 72.595c-5.502 5.753-8.963 21.702-9.45 29.362-.437 5.762 2.248 20.002 15.237 24.872 12.341 4.632 28.598-3.455 32.822-15.852l4.96-13.266s-8.871 3.479-6.941-19.023c-11.532-9.075-29.425-15.108-36.628-6.093Z"/><path fill="#252833" d="M266.898 98.18c.309-2.243-.697-4.234-2.246-4.447-1.549-.213-3.055 1.433-3.364 3.675-.308 2.243.697 4.233 2.246 4.447 1.55.213 3.056-1.433 3.364-3.675z"/><path fill="#252833" d="M271.148 93.416a7.53 7.53 0 0 1-1.228 1.43 8.017 8.017 0 0 1-1.581 1.135 7.684 7.684 0 0 1-1.875.749c-.666.188-1.36.257-2.064.289a1.16 1.16 0 0 1-1.218-1.107 1.16 1.16 0 0 1 1.457-1.181l.032.009c.511.138 1.044.262 1.591.28a6.254 6.254 0 0 0 1.673-.115 7.206 7.206 0 0 0 1.668-.537 7.401 7.401 0 0 0 1.545-.951zm-27.865 1.306c.144-2.259-1.005-4.171-2.566-4.271-1.56-.1-2.942 1.65-3.085 3.91-.144 2.259 1.004 4.171 2.565 4.271 1.561.1 2.942-1.65 3.086-3.91z"/><path fill="#252833" d="M235.26 89.129c.303.441.699.795 1.112 1.098.419.299.865.538 1.324.73.464.19.938.327 1.42.428.239.055.488.083.722.124l.731.069.041.005a1.17 1.17 0 1 1-.62 2.214l-.791-.386c-.257-.147-.515-.28-.758-.44a9.705 9.705 0 0 1-1.379-1.058 7.77 7.77 0 0 1-1.108-1.29c-.308-.47-.565-.966-.694-1.494z"/><path fill="#d47455" d="M248.286 105.032a.694.694 0 0 1-.285-.059c-.915-.414-3.061-1.558-3.305-3.217-.078-.528.018-1.319.906-2.09 1.562-1.356 4.118-5.207 4.315-9.756a.68815423.68815423 0 0 1 1.375.06c-.221 5.018-2.988 9.172-4.79 10.738-.505.437-.459.749-.445.851.092.643 1.126 1.534 2.509 2.159a.694.694 0 0 1 .345.915.685.685 0 0 1-.625.399zm2.987 7.361c-1.962 0-3.709-.593-4.559-1.181a.921.921 0 0 1-.239-1.277.92.92 0 0 1 1.278-.239c.979.67 5.547 2.058 8.328-1.282a.924.924 0 0 1 1.296-.12.923.923 0 0 1 .12 1.296c-1.761 2.118-4.118 2.803-6.224 2.803z"/><path fill="#252833" d="M246.374 85.187a.69.69 0 0 1-.437-.157c-3.833-3.129-8.999-2.26-9.055-2.251a.691.691 0 0 1-.239-1.36c.239-.042 5.847-.979 10.163 2.54.294.24.34.676.096.97a.643.643 0 0 1-.528.258z"/><path fill="#2787f5" d="M248.465 143.616c-8.508 4.26-29.968.717-40.87 22.488-10.903 21.771-15.669 33.327-15.669 33.327l24.393 17.056 12.295 30.695 102.728 22.984 21.129-49.157s-12.769-38.676-24.489-52.755c-11.721-14.079-45.228-25.341-49.346-26.021-22.656 13.215-30.171 1.383-30.171 1.383z"/><path fill="#135094" d="M316.601 228.185a.691.691 0 0 1-.63-.409l-15.103-33.626a.689.689 0 0 1 1.255-.565l15.103 33.626a.689.689 0 0 1-.345.91.596.596 0 0 1-.28.064zm-100.117-10.741h-.009a.689.689 0 0 1-.68-.699c.156-10.729 1.737-16.289 4.132-24.712.611-2.159 1.305-4.604 2.031-7.333a.69.69 0 0 1 1.333.349 391.228 391.228 0 0 1-2.036 7.357c-2.362 8.316-3.925 13.807-4.077 24.353a.704.704 0 0 1-.694.685z"/><path fill="#393b52" d="M251.195 208.662a.689.689 0 0 1-.675-.57c-3.397-18.913 1.02-38 5.29-56.458l.253-1.094-.124.069c-1.857 1.011-3.608 1.967-6.591 2.132-5.052.285-7.593-1.778-8.287-3.8-.589-1.723.036-3.529 1.594-4.604 2.519-1.737 7.644-1.562 14.516 4.076a20.434 20.434 0 0 1 2.298-.938c7.051-2.104 11.656-1.58 13.338 1.512.864 1.59 1.002 2.877.405 3.828-.671 1.07-2.174 1.557-4.472 1.442-3.535-.174-8.945-1.87-11.28-3.639l-.308 1.328c-4.238 18.325-8.622 37.275-5.276 55.907a.687.687 0 0 1-.556.8c-.042.004-.083.009-.125.009zm6.996-59.206c1.669 1.3 6.78 3.235 10.613 3.423 1.687.083 2.868-.207 3.236-.8.386-.615-.032-1.663-.451-2.435-1.682-3.097-7.294-2.173-11.711-.855-.611.207-1.168.432-1.687.667zm-12.006-4.742c-1.149 0-2.073.285-2.753.753-1.052.726-1.461 1.884-1.075 3.024.528 1.548 2.624 3.115 6.903 2.872 2.675-.152 4.22-.993 6.008-1.967.179-.096.363-.198.547-.299-4.031-3.207-7.295-4.383-9.63-4.383z"/><path fill="#393b52" d="M259.115 195.544a.69.69 0 0 1-.689-.68c-.097-7.283-.363-14.855-.625-22.184-.258-7.334-.529-14.916-.625-22.212a.68956544.68956544 0 1 1 1.379-.019c.096 7.283.363 14.856.625 22.185.257 7.333.528 14.915.625 22.212a.69.69 0 0 1-.68.698z"/><path fill="#d47455" d="M167.91 153.95c-.377 0-.814-.078-1.31-.29-3.948-1.668-8.306-15.025-8.793-16.546a.686.686 0 0 1 .446-.864.686.686 0 0 1 .864.446c1.264 3.956 5.162 14.488 8.016 15.696.814.345 1.177.115 1.296.037.786-.496 1.025-2.174 1.048-2.725a.69.69 0 0 1 1.379.051c-.009.289-.152 2.858-1.682 3.832a2.31 2.31 0 0 1-1.264.363z"/><path fill="#d47455" d="M162.127 156.565a7.21 7.21 0 0 1-.809-.046c-1.939-.207-6.421-4.567-8.503-14.143a.685.685 0 0 1 .529-.818.685.685 0 0 1 .818.528c2.05 9.434 6.334 12.963 7.303 13.064 2.193.234 3.48-.634 4.041-2.734a.687.687 0 0 1 .845-.487.688.688 0 0 1 .488.845c-.474 1.774-1.683 3.791-4.712 3.791z"/><path fill="#d47455" d="M158.736 159.514h-.11a.688.688 0 0 1-.676-.703c.009-.381.322-.698.703-.675.492.009 1.214-.065 1.77-.474.459-.335.721-.873.653-1.341a.688.688 0 0 1 .583-.781.692.692 0 0 1 .782.583c.138.974-.336 2.013-1.209 2.647-.657.487-1.522.744-2.496.744z"/><path fill="#ffb487" d="M190.147 203.957a27.105 27.105 0 0 1 1.6 12.797z"/><path fill="#d47455" d="M191.747 217.443c-.028 0-.056 0-.083-.004a.689.689 0 0 1-.602-.768 26.325 26.325 0 0 0-1.558-12.466.69.69 0 0 1 1.287-.496 27.748 27.748 0 0 1 1.64 13.123.692.692 0 0 1-.684.611z"/><path fill="#252833" d="M167.584 53.91h-.042a.92.92 0 0 1-.878-.96l1.058-23.986a.92.92 0 1 1 1.838.083l-1.057 23.985a.92.92 0 0 1-.919.878zm18.615 11.56a.918.918 0 0 1-.58-1.631l9.538-7.687a.919.919 0 0 1 1.153 1.429l-9.537 7.687a.894.894 0 0 1-.574.203zm-46.097-2.422a.926.926 0 0 1-.598-.22l-7.726-6.59a.91918904.91918904 0 1 1 1.195-1.397l7.726 6.594c.386.331.432.91.101 1.296a.936.936 0 0 1-.698.317z"/><path fill="#fff" d="M237.163 102.853c-5.139 0-9.322-4.181-9.322-9.318s4.183-9.319 9.322-9.319c5.138 0 9.321 4.182 9.321 9.319 0 5.137-4.178 9.318-9.321 9.318zm0-16.344a7.028 7.028 0 0 0-7.024 7.021c0 3.874 3.149 7.021 7.024 7.021a7.027 7.027 0 0 0 7.023-7.02 7.028 7.028 0 0 0-7.023-7.022zm26.18 19.948c-5.138 0-9.321-4.181-9.321-9.319 0-5.137 4.183-9.318 9.321-9.318 5.139 0 9.322 4.181 9.322 9.318 0 5.138-4.183 9.319-9.322 9.319zm0-16.34a7.028 7.028 0 0 0-7.023 7.021 7.027 7.027 0 0 0 7.023 7.021c3.875 0 7.024-3.147 7.024-7.02a7.028 7.028 0 0 0-7.024-7.022z"/><path fill="#fff" d="M271.686 97.23a1.144 1.144 0 0 1-1.144-1.084 1.144 1.144 0 0 1 1.084-1.209l14.217-.786a1.1481752 1.1481752 0 1 1 .124 2.293l-14.217.786Z"/><path fill="#ffd54f" d="M293.339 65.061a2.287 2.287 0 0 1-1.825-.9c-4.182-5.455-16.491-12.61-26.268-11.405a2.3 2.3 0 0 1-.565-4.563c11.541-1.424 25.533 6.709 30.483 13.17a2.298 2.298 0 0 1-.428 3.22c-.418.326-.91.478-1.397.478z"/><path fill="#e5f1ff" d="m197.432 276.994-37.988-.432-2.919-10.247 35.888-.515zm34.018-63.218c10.066 9.824 18.486 28.231 25.67 50.039l-31.99 3.726c-1.976-16.652-12.718-45.017-28.382-59.569z"/><path fill="#252833" d="M188.345 147.204a2.05 2.05 0 0 1-1.043-.285l-46.166-27.027a2.075 2.075 0 0 1-.74-2.831 2.07 2.07 0 0 1 2.832-.739l46.165 27.027a2.073 2.073 0 0 1 .74 2.831 2.075 2.075 0 0 1-1.788 1.024z"/><path fill="#252833" d="M136.333 114.347c.828.161 1.623.381 2.418.597l1.177.354c.386.129.767.262 1.149.4.377.142.8.211 1.2.312a2.11 2.11 0 0 1 1.029.598c.285.298.533.652.74 1.075.202.432.377.91.446 1.567a.315.315 0 0 1-.188.317 4.73 4.73 0 0 1-1.595.344 4.164 4.164 0 0 1-1.297-.151 2.114 2.114 0 0 1-1.011-.63c-.28-.303-.538-.643-.841-.909-.299-.272-.597-.543-.892-.828l-.864-.873c-.565-.602-1.13-1.199-1.659-1.856a.197.197 0 0 1 .028-.276c.046-.041.105-.055.16-.041z"/><path fill="#ffb487" d="M176.978 158.826c-6.338-1.498-7.041-10.178-7.878-13.509-.956-3.814-3.318-4.503-4.431-8.271-.478-1.617.418-3.478 1.535-4.668.75-.8 2.027-.749 2.758.069 3.273 3.675 10.025 9.189 12.263 11.597"/><path fill="#ffb487" d="M176.978 158.826c-6.338-1.498-7.041-10.178-7.878-13.51-.956-3.813-3.318-4.503-4.431-8.271-.165-.551-.133-1.599.294-2.798"/><path fill="#d47455" d="M176.978 159.515a.66.66 0 0 1-.161-.019c-5.851-1.383-7.211-8.22-8.02-12.3-.134-.667-.248-1.246-.363-1.71-.455-1.819-1.255-2.872-2.106-3.988-.854-1.131-1.742-2.298-2.321-4.255-.234-.795-.119-2.031.308-3.226a.692.692 0 0 1 1.301.464c-.368 1.039-.404 1.958-.285 2.376.506 1.714 1.278 2.734 2.096 3.814.892 1.176 1.816 2.394 2.344 4.489.124.496.244 1.089.377 1.778.749 3.759 1.999 10.049 6.986 11.23a.683.683 0 0 1-.156 1.347z"/><path fill="#135094" d="M279.412 225.231c-5.939 0-11.868-1.599-16.961-4.742a.68827102.68827102 0 0 1 .722-1.172c8.485 5.239 19.433 6.002 28.562 1.981a.693.693 0 0 1 .91.354.694.694 0 0 1-.354.91c-4.063 1.787-8.471 2.669-12.879 2.669z"/><path fill="#2787f5" fill-rule="evenodd" d="M285.815 187.622c.087-.221.027-.391-.295-.414l-1.057-.069c-.266-.018-.4.12-.482.267 0 0-.635 1.277-1.453 2.081-.262.23-.381.304-.515.294-.073-.004-.16-.092-.142-.317l.142-2.104c.019-.267-.055-.395-.28-.409l-1.664-.11c-.165-.01-.276.105-.285.229-.018.258.359.345.354 1.066l-.106 1.563c-.023.34-.087.395-.22.386-.359-.023-1.145-1.406-1.568-2.955-.082-.303-.179-.423-.445-.441l-1.071-.074c-.308-.018-.368.12-.382.276-.018.276.248 1.7 1.439 3.635.79 1.323 1.985 2.081 3.107 2.159.68.046.772-.101.786-.358l.064-.956c.019-.308.088-.354.304-.34.156.009.427.11 1.011.758.671.768.772 1.103 1.172 1.131l1.057.069c.308.018.464-.124.4-.428-.074-.303-.395-.758-.809-1.305-.225-.303-.575-.648-.68-.808-.143-.216-.092-.294.032-.474-.009-.004 1.411-1.746 1.586-2.352z" clip-rule="evenodd"/><path fill="#ff5773" d="M276.595 57.489c-6.835-5.468-28.7-15.963-43.753-4.499-11.674 8.891-8.949 27.372 4.266 33.75 13.214 6.378 43.646-7.922 43.646-7.922l-4.159-21.33z"/><path fill="#ffb487" d="M352.471 221.009s11.927 31.807 8.112 41.53c-5.161 13.164-14.248 11.285-37.961 11.285-26.268 0-44.488-4.545-53.483-3.911-8.995.639-30.804 9.163-35.86 9.719-5.212-2.344 4.711-6.171 4.711-6.171s-14.442 5.5-16.671 2.766c-2.229-2.739 10.939-8.684 10.939-8.684s-7.565 1.842-15.177 3c-1.259.193-2.298-1.057-1.824-2.238 1.14-2.83 5.593-6.313 15.728-9.479-6.66.459-11.486.96-14.097 1.259-1.02.115-1.705-1.006-1.144-1.866 1.457-2.237 4.564-5.495 10.484-5.969 11.16-.891 25.689-1.746 25.436-3.657l-1.921-4.724c3.309-2.164 5.231-.184 14.557 3.947 9.606 4.255 28.612 5.041 38.54 4.026 9.932-1.021 23.551-4.329 23.551-4.329l-9.785-20.016c8.062-2.632 25.44-8.156 35.865-6.488z"/><g fill="#5c5e73" mask="url(#a)"><path d="M348.711 277.652a.69.69 0 0 1-.483-1.181c7.116-6.975 8.141-12.324 6.858-14.782-.611-1.176-1.774-1.7-3.18-1.438-2.813.524-5.957 3.906-7.745 10.334-.221 1.856-.593 3.892-1.145 6.116l-1.356-.244c.258-2.316.653-4.369 1.145-6.18.878-7.747-1.057-12.043-3.36-13.449-1.374-.841-2.891-.685-4.16.427-2.702 2.362-3.714 8.634.115 17.318l-1.259.561c-1.131-2.509-7.938-6.883-12.084-6.575-1.59.114-2.583.877-3.02 2.334-.018.946.281 1.732.91 2.394 1.352 1.41 3.912 1.92 5.856 1.925a.6895.6895 0 1 1 0 1.379c-1.08-.005-4.771-.184-6.849-2.353-.91-.951-1.346-2.123-1.291-3.483l.027-.161c.589-2.068 2.064-3.249 4.27-3.409 3.37-.244 7.925 2.017 10.82 4.392-2.574-7.953-.901-13.173 1.6-15.356 1.7-1.489 3.92-1.705 5.786-.565 2.225 1.36 4.077 4.664 4.229 10.247 2.087-4.43 4.886-6.557 7.253-6.998 2.018-.377 3.755.427 4.656 2.155 1.572 3.018.529 8.909-7.115 16.404a.69.69 0 0 1-.478.188zm-32.422-18.292c-.202 0-.409-.014-.621-.046-3.171-.469-7.234-4.668-9.133-15.048a.693.693 0 0 1 1.361-.249c1.77 9.677 5.405 13.551 7.979 13.932 1.218.179 2.234-.404 2.868-1.64 1.719-3.345.115-10.509-7.464-18.334l.993-.96c9.192 9.497 17.19 11.887 20.729 10.09 1.158-.588 1.678-1.585 1.466-2.817-.455-2.642-4.812-7.577-18.279-9.327l.179-1.365c2.868.368 10.314-2.803 12.314-6.456.726-1.323.625-2.522-.308-3.667-1.09-.762-2.717-1.006-4.597-.684-2.293.39-4.582 1.59-5.442 2.853a.693.693 0 0 1-.956.184.69.69 0 0 1-.184-.956c1.067-1.567 3.677-2.977 6.348-3.437 2.289-.39 4.316-.041 5.708.984l.12.11c1.347 1.603 1.526 3.432.515 5.279-1.568 2.858-5.755 5.331-9.34 6.493 10.314 2.137 14.704 6.442 15.274 9.764.312 1.82-.511 3.419-2.202 4.278-3.222 1.636-9.142.515-16.234-4.884 3.571 5.716 4.049 10.623 2.583 13.486-.791 1.544-2.137 2.417-3.677 2.417z"/><path d="M359.058 241.407a4.411 4.411 0 0 1-1.512-.272c-2.023-.735-3.682-2.821-4.514-5.417-1.071 2.546-3.052 4.158-4.927 4.894-2.652 1.043-5.355.602-7.06-1.158-1.195-1.236-2.758-4.062-.878-9.705-3.424 1.87-6.522 1.471-8.444.322-1.82-1.089-2.753-2.904-2.445-4.733.441-2.628 3.282-4.678 7.786-5.62a.691.691 0 0 1 .285 1.351c-3.916.818-6.361 2.459-6.706 4.499-.211 1.259.478 2.532 1.797 3.322 1.866 1.121 5.139 1.332 8.72-1.429a.689.689 0 0 1 1.057.818c-1.967 4.576-2.032 8.303-.17 10.219 1.31 1.351 3.442 1.668 5.566.832 2.289-.901 4.771-3.368 4.854-7.577a.698.698 0 0 1 .703-.676.688.688 0 0 1 .675.703c-.082 4.067 2.064 7.292 4.183 8.06 1.384.501 2.73-.009 3.907-1.471a.689.689 0 0 1 .97-.105.687.687 0 0 1 .106.969c-1.389 1.71-2.818 2.174-3.953 2.174zm-8.499-14.934c-1.659 0-3.309-.988-4.013-2.509-.836-1.81-.229-4.149 1.379-5.325a.695.695 0 0 1 .966.147.694.694 0 0 1-.148.965c-1.08.79-1.503 2.421-.942 3.634.561 1.213 2.078 1.949 3.379 1.641 1.3-.308 2.321-1.65 2.275-2.987a.689.689 0 0 1 .666-.712c.386 0 .699.285.713.666.069 1.99-1.393 3.915-3.333 4.374a4.056 4.056 0 0 1-.942.106zm3.805 28.981c-1.084 0-2.132-.235-3.033-.694-1.471-.749-2.556-2.114-2.9-3.649-.387-1.723.211-3.51 1.526-4.553 1.466-1.158 3.681-1.2 5.051-.092.745.602 1.167 1.553 1.131 2.541-.033.933-.465 1.755-1.186 2.261-.717.505-1.646.657-2.427.399-.929-.308-1.563-1.213-1.466-2.1a.68843482.68843482 0 1 1 1.369.147c-.027.249.216.543.529.648.368.12.841.037 1.2-.216.363-.257.583-.684.597-1.18.019-.561-.211-1.094-.62-1.425-.86-.694-2.381-.648-3.328.101-.887.703-1.305 1.976-1.039 3.171.258 1.139 1.071 2.159 2.183 2.724 1.232.625 2.882.713 4.417.23 1.343-.422 2.648-1.259 3.875-2.481 1.848-1.843 3.121-4.117 3.677-6.58a.683.683 0 0 1 .823-.519.687.687 0 0 1 .519.822c-.616 2.716-2.013 5.225-4.049 7.251-1.384 1.379-2.877 2.33-4.435 2.817a8.146 8.146 0 0 1-2.414.377zm-49.925 21.114c-2.022 0-4.003-.405-5.832-1.195a.689.689 0 1 1 .547-1.264c2.316 1.002 4.904 1.314 7.482.91 1.71-.271 3.153-.832 4.289-1.668 1.296-.956 2.201-2.339 2.417-3.703.198-1.232-.142-2.486-.914-3.369-.805-.918-2.082-1.332-3.172-1.029-1.163.322-2.1 1.526-2.045 2.629.027.523.322 1.024.786 1.341.409.276.887.354 1.305.212.418-.143.768-.474.883-.841.101-.313.004-.685-.212-.809a.685.685 0 0 1-.248-.942.685.685 0 0 1 .942-.248c.773.45 1.131 1.489.832 2.422-.253.781-.924 1.442-1.751 1.727-.832.285-1.756.147-2.528-.377-.818-.556-1.337-1.456-1.388-2.412-.087-1.76 1.25-3.524 3.052-4.025 1.618-.45 3.415.119 4.578 1.452 1.039 1.185 1.498 2.863 1.236 4.494-.28 1.737-1.36 3.409-2.964 4.595-1.315.969-2.96 1.613-4.891 1.92-.8.115-1.604.18-2.404.18z"/></g><path fill="#d47455" d="M236.621 274.792a.697.697 0 0 1-.635-.413.693.693 0 0 1 .354-.91c1.085-.478 2.395-.933 3.664-1.379 1.245-.436 2.528-.882 3.566-1.337a.693.693 0 0 1 .91.354.692.692 0 0 1-.353.91c-1.085.478-2.395.933-3.664 1.378-1.245.437-2.528.883-3.567 1.337a.648.648 0 0 1-.275.06zm-4.362-6.561a.7.7 0 0 1-.657-.478.692.692 0 0 1 .446-.868l10.13-3.258a.69020377.69020377 0 1 1 .423 1.314l-10.13 3.258a.864.864 0 0 1-.212.032z"/><path fill="#e5f1ff" d="m207.669 302-20.422-9.089 28.704-7.269 20.417 9.084z"/><path fill="#5c5e73" d="M214.016 297.143c-.018 0-.037 0-.05-.005l-2.928-.331a.46.46 0 0 1-.203-.84l.134-.088a9.836 9.836 0 0 0-5.01-.395l-.065.014a.46.46 0 0 1-.16-.905c.018-.005.036-.005.055-.01.331-.068.643-.289.855-.615.133-.207.216-.432.243-.653l-5.699.837a.459.459 0 0 1-.134-.906l6.192-.909a.46.46 0 0 1 .514.344c.138.57.028 1.195-.303 1.732a10.695 10.695 0 0 1 4.693.952.46.46 0 0 1 .267.381.447.447 0 0 1-.074.285l1.737.197a.46.46 0 0 1 .405.51.486.486 0 0 1-.469.405zm6.591-2.835h-.014c-.873-.028-1.673-.598-2.027-1.379-1.116.258-2.334.4-3.327-.243-.644-.418-1.034-1.117-1.053-1.815l-2.473.101a.454.454 0 0 1-.478-.441.462.462 0 0 1 .442-.478l3.01-.12a.447.447 0 0 1 .382.18.47.47 0 0 1 .073.418c-.147.464.115 1.075.593 1.387.809.524 1.935.299 3.02.023a.466.466 0 0 1 .358.055c.106.065.18.175.207.299.12.598.694 1.08 1.301 1.098.253.01.45.221.446.474a.458.458 0 0 1-.46.441z"/><path fill="#d47455" d="M231.013 259.873a.693.693 0 0 1-.685-.607.688.688 0 0 1 .602-.767l10.254-1.268a.688.688 0 1 1 .17 1.364l-10.254 1.269c-.032.004-.06.009-.087.009z"/><path fill="#ffb487" d="M281.472 97.139c2.293-2.867 5.185-3.033 6.72-2.794 8.292 1.3 3.585 17.489-9.625 14.571.46-4.577.653-7.499 2.905-11.777z"/><path fill="#d47455" d="M284.607 101.688a.692.692 0 0 1-.593-1.043c.441-.745 2.123-3.056 5.281-1.627.345.156.501.565.345.91-.156.345-.565.501-.91.345-1.981-.897-3.061.284-3.526 1.07a.692.692 0 0 1-.597.345z"/><path fill="#252833" d="M284.215 113.06c1.765 0 3.195-1.639 3.195-3.662 0-2.023-1.43-3.662-3.195-3.662-1.764 0-3.194 1.639-3.194 3.662 0 2.023 1.43 3.662 3.194 3.662z"/><path fill="#fff" d="M255.199 98.038a1.16 1.16 0 0 1-.915-.45c-1.985-2.592-4.775-3.198-8.531-1.861a1.146 1.146 0 0 1-1.466-.699 1.145 1.145 0 0 1 .699-1.465c4.752-1.691 8.494-.81 11.128 2.628a1.147 1.147 0 0 1-.915 1.847z"/><path fill="#00eae2" d="M24.772557 95.430388c-3.3-.44-5.35-1.23-6.84-2.63-2.3-2.17-3.21-5.7-3.25-12.7v-1.78l.2.02.21.02.04.81c.05 1.21.22 2.05.57 2.93.51 1.28 1.64 2.66 2.83 3.46.67.45.96.59 1.57.8 2.02.7 6.13.66 8.02-.08 1.28-.5 2.61-1.58 3.44-2.83.71-1.05 1.1-2.13 1.24-3.46.04-.34.09-.85.12-1.13.04-.28.06-.88.06-1.34 0-.93-.06-1.12-.42-1.31l-.19-.1-.97.56c-.53.31-1.06.62-1.18.69-.11.06-.64.36-1.16.67-1.08.63-1.33.75-2.19 1.05-1.76.61-4.21.61-5.98 0-1.06-.37-1.21-.45-4.85-2.59-.39-.23-.42-.23-.59-.15-.27.14-.41.41-.41.85v.37h-.41v-2.28l.02-2.28-.14-.11c-.08-.07-.13-.17-.13-.29 0-.17.02-.19.19-.19.19 0 .59.22 3.77 2.08 2.21 1.3 2.91 1.6 4.32 1.85.81.14 2.25.08 3.08-.13 1.25-.32 1.56-.47 4.51-2.19 1.09-.63 2.5-1.45 3.14-1.83.91-.53 1.22-.68 1.39-.68h.22l.02 2.74.02 2.74.18.29c.21.33.56.59.87.65.29.05.74-.21.99-.55l.18-.26.02-4.51v-4.52l-.16-.37c-.11-.24-.33-.54-.6-.82-.46-.49-.34-.41-3.46-2.22-.84-.48-1.86-1.08-2.28-1.32-.42-.24-1.12-.65-1.55-.9-.44-.25-1.12-.65-1.51-.88-1.49-.87-2.09-1.11-3.18-1.25-.54-.07-.7-.07-1.22 0-1.24.17-1.56.32-4.1 1.8-3.92 2.29-4.23 2.47-4.33 2.47-.04 0-.09.02-.1.05-.04.11-.53.36-.7.36-.16 0-.18-.02-.18-.2 0-.18.04-.22.26-.36.15-.08.29-.16.33-.16.16 0 .3-.24.3-.5 0-.41.17-2.15.3-3.02.61-4.18 2.07-6.53 4.9-7.91 1.03-.5 2.38-.89 4.09-1.19.75-.13.88-.14 4.18-.13 6.36.01 9.16.28 11.47 1.1 2.25.79 3.85 2.22 4.83 4.29.86 1.85 1.25 4.15 1.41 8.39.09 2.28.05 16.64-.05 18.01-.33 4.56-1 6.82-2.56 8.68-1.59 1.88-4.01 2.88-7.87 3.26-1.67.16-2.58.2-6.21.22-3.03.02-4.01 0-4.48-.06zm-12.53-23.9c-.13-.07-.17-.13-.17-.29 0-.19.01-.21.18-.21.1 0 .26.04.36.09.15.08.18.13.18.3 0 .2-.01.21-.19.21-.11 0-.27-.05-.36-.1zm-.81-.51s-.07-.16-.07-.26c0-.19-.02-.2-.22-.22-.22-.02-.23-.03-.24-.24l-.02-.23.23.02c.22.02.23.03.24.24.02.2.03.22.22.22.24 0 .33.09.33.34 0 .19-.01.2-.2.2-.11 0-.23-.03-.27-.07z"/><path fill="#007bff" d="M15.692557 95.470388c-4.77-.16-7.5499992-.78-9.5199992-2.13-.61-.41-1.63-1.45-2.04-2.07-1.22-1.84-1.76-4.03-2.03-8.3-.1-1.54-.14-14.16-.06-16.87.13-4.13.38-6.18 1.02-8.1.94-2.84 2.93-4.72 5.9-5.57 2.6499992-.76 5.6499992-.94 14.8899992-.93 2.98 0 4.28.02 3.55.05-5.08.19-8.48 1.48-10.2 3.87-.32.44-.83 1.38-1.06 1.95-.5 1.22-.88 3.09-1.1 5.34-.12 1.28-.12 1.56 0 1.52.06-.02.09 0 .09.07 0 .11-.07.16-2.51 1.59-1.19.7-1.58 1.15-1.82 2.09-.179999.7-.02 1.4.49 2.11.3.43.6.63 2.44 1.7 1.19.69 1.34.79 1.34.93 0 .1-.06.1-.24-.02q-.15-.1-.04.02c.1.12.11.27.09 2.39-.01 1.24 0 2.07.01 1.84.02-.23.06-.47.1-.53.05-.08.07.42.07 1.85 0 1.2-.01 1.86-.04 1.69-.03-.15-.05-.53-.05-.85 0-.32-.02-.59-.05-.6-.07-.04-.04 2.83.04 4.32.23 4.28.94 6.98 2.34 8.83.67.88 1.68 1.71 2.72 2.23 1.73.86 4.32 1.39 7.59 1.53.67.03-1.24.05-5.17.04-3.43 0-6.46 0-6.72-.02zm-3.08-24.05s-.08-.07-.18-.12c-.23-.11-.24-.07-.01.05.19.1.19.11.19.07z"/><path fill="#fff" d="M22.372557 86.970388c-1.21-.08-2.44-.37-3.19-.75-1.54-.78-3.03-2.4-3.66-3.97-.42-1.05-.56-2-.62-4.09-.05-1.67-.03-1.77.35-2 .29-.18.5-.15.97.13 2.86 1.68 3.26 1.9 3.82 2.17 2.06.99 4.58 1.14 6.65.42.86-.3 1.11-.42 2.19-1.05.53-.3 1.05-.61 1.16-.67.11-.07.64-.37 1.17-.68 1.04-.61 1.21-.66 1.56-.44.33.2.38.36.38 1.47 0 .55-.02 1.23-.06 1.51-.03.28-.08.79-.12 1.13-.27 2.49-1.59 4.53-3.79 5.85-1.4.84-3.75 1.17-6.83.97z"/><path fill="#fff" d="M35.822557 78.090388c-.23-.05-.6-.35-.78-.65l-.18-.29-.02-2.75c-.02-2.35-.03-2.74-.1-2.71-.08.03-1.93 1.1-5.02 2.9-2.1 1.23-2.62 1.47-3.79 1.77-.82.21-2.58.27-3.43.12-1.39-.24-2.15-.56-4.3-1.82-.85-.5-2.05-1.2-2.66-1.55-2.33-1.33-2.78-1.59-2.9-1.68-.07-.06-.27-.18-.45-.26-.18-.09-.39-.23-.48-.3-.08-.08-.2-.16-.25-.17-.05-.01-.15-.11-.21-.2-.05-.09-.18-.26-.27-.38-.259999-.34-.419999-.81-.449999-1.37-.06-.92.199999-1.65.799999-2.26.26-.26.63-.51 1.5-1.02.63-.37 1.16-.67 1.18-.67.01 0 .14-.07.28-.16.14-.08.4-.24.58-.33.18-.09.64-.36 1.02-.58 3.67-2.15 5.1-2.97 5.42-3.11.58-.26 1.09-.4 1.86-.51.66-.09.76-.09 1.43 0 1.18.16 1.74.38 3.26 1.26.39.23 1.08.63 1.51.88.43.25 1.13.66 1.55.9.42.24 1.45.84 2.28 1.32 3.12 1.81 3 1.73 3.46 2.22.27.28.5.59.6.82l.17.36v4.61c0 3.2-.02 4.66-.06 4.78-.24.62-.9.96-1.58.82z"/><path fill="#ffa000" d="m58.65 189.5 4.41 15.41c.39 1.37 1.46 2.43 2.83 2.83l15.41 4.41-15.41 4.41c-1.37.39-2.43 1.46-2.83 2.83l-4.41 15.41-4.41-15.41c-.39-1.37-1.46-2.43-2.83-2.83L36 212.15l15.41-4.41c1.37-.39 2.43-1.46 2.83-2.83z"/></svg>