<?xml version="1.0" encoding="UTF-8"?><svg id="uuid-2fd4fb00-c220-43f4-b85e-4b2e504442cb" xmlns="http://www.w3.org/2000/svg" xmlns:xlink="http://www.w3.org/1999/xlink" viewBox="0 0 304 115.66"><defs><clipPath id="uuid-beaa2a5f-efb0-489a-a08c-32fdd5eb1d20"><path d="M152,24h0c19.88,0,36,16.12,36,36h0c0,19.88-16.12,36-36,36h0c-19.88,0-36-16.12-36-36h0c0-19.88,16.12-36,36-36Z" style="fill:none; stroke-width:0px;"/></clipPath></defs><path d="M0,20h2.89L9.06,0h-2.89L0,20ZM6.94,20h2.89L16,0h-2.89l-6.17,20Z" style="fill:#393b52; stroke-width:0px;"/><path d="M72.09,22.17c-.1.46-.29,1.08-.54,1.82-.31.9-.7,1.93-1.12,3.02l-.19.49c-.48,1.27-.98,2.6-1.4,3.86-.41,1.26-.76,2.48-.91,3.54-.08.5-.1,1.01-.07,1.51.04.46.15.94.43,1.35.29.44.73.73,1.27.85.51.11,1.07.05,1.63-.11,1.12-.31,2.57-1.09,4.41-2.35.41-.28.52-.84.24-1.25,0,0,0-.01-.01-.02-.3-.41-.87-.51-1.29-.22-1.79,1.24-3.04,1.87-3.85,2.09-.4.11-.63.11-.74.08-.08-.02-.1-.04-.12-.07-.04-.06-.11-.21-.13-.5-.02-.37,0-.74.06-1.1.13-.9.43-2.01.84-3.24.4-1.22.89-2.52,1.37-3.78l.19-.49c.42-1.09.82-2.14,1.14-3.07.36-1.04.65-2.03.72-2.75.03-.33.03-.82-.22-1.22-.16-.25-.39-.44-.67-.53-.25-.08-.51-.09-.77-.03-.49.1-.94.37-1.35.67-.42.31-.85.72-1.29,1.18-.88.92-1.84,2.14-2.82,3.49-1.34,1.83-2.77,3.96-4.1,5.95-.61.91-1.21,1.8-1.76,2.61-.89,1.31-1.69,2.42-2.33,3.22-.07.08-.13.16-.19.23.16-1,.51-2.52,1.14-4.7,1.27-4.47,1.79-7.46,1.73-9.28-.03-.88-.19-1.7-.66-2.24-.26-.3-.62-.5-1.01-.56-.36-.05-.72,0-1.05.14-.6.23-1.2.71-1.75,1.26-.56.57-1.15,1.29-1.71,2.1-1.14,1.62-2.26,3.68-3.1,5.78-.18.46.04.99.51,1.18,0,0,0,0,.01,0,.47.18,1.01-.04,1.2-.51.79-1.98,1.85-3.91,2.9-5.42.53-.75,1.04-1.38,1.51-1.86.49-.49.86-.75,1.1-.84.01,0,.02,0,.04-.01.06.12.15.42.17,1.04.05,1.53-.39,4.3-1.66,8.74-.71,2.47-1.11,4.21-1.24,5.35-.06.55-.08,1.06.02,1.46.05.21.16.49.41.71.28.25.63.33.94.29.24-.03.46-.12.67-.25.18-.11.34-.24.49-.38.31-.28.64-.66.99-1.08.7-.86,1.53-2.03,2.43-3.34.58-.84,1.18-1.74,1.8-2.67,1.32-1.97,2.71-4.04,4.03-5.84.97-1.32,1.88-2.47,2.68-3.31.39-.41.74-.73,1.04-.96h0ZM58.42,38.56s0,0,0,0Z" style="fill:#83db83; fill-rule:evenodd; stroke-width:0px;"/><path d="M284,41.5c9.67,0,17.5-7.83,17.5-17.5s-7.83-17.5-17.5-17.5-17.5,7.83-17.5,17.5,7.83,17.5,17.5,17.5ZM284,44c11.05,0,20-8.95,20-20s-8.95-20-20-20-20,8.95-20,20,8.95,20,20,20Z" style="fill:#ffd652; fill-rule:evenodd; stroke-width:0px;"/><g style="clip-path:url(#uuid-beaa2a5f-efb0-489a-a08c-32fdd5eb1d20);"><path d="M152,24h0c19.88,0,36,16.12,36,36h0c0,19.88-16.12,36-36,36h0c-19.88,0-36-16.12-36-36h0c0-19.88,16.12-36,36-36Z" style="fill:rgba(255,160,0,.16); stroke-width:0px;"/><path d="M158.16,36.31s-3.68-3.09-7.6-3.09c-5.06,0-10.87,3.33-12.09,10.63-.88,5.28,2.27,6.05-5.73,13.56-4.93,4.63-2.95,7.25-2.95,7.25,14.26,6.74,28.99,7.61,44.16,2.96,0,0,1.9-3.81-4.32-11.87-1.57-2.03-1.43-9.37-1.61-12.11-.35-4.86-4.23-7.88-9.85-7.33h0Z" style="fill:#3f8ae0; stroke-width:0px;"/><path d="M186.13,105.86c-.46-2.18-5.67-16.12-6.12-17.7-1.26-4.34-4.67-7.73-9.02-8.97l-13.34-3.8-5.72,1.17-6.82-1.17-12.24,3.8c-2.14.61-4.09,1.75-5.68,3.32-1.58,1.57-2.73,3.51-3.35,5.65-.46,1.57-5.8,16.68-6.26,18.87,10.22,5.02,41.74,9.2,68.56-1.17h0Z" style="fill:#73b4ff; stroke-width:0px;"/><path d="M156.71,65.58c-1.47-1.89-3.26-3.5-5.29-4.76-2.03,1.26-3.83,2.88-5.29,4.76-.06,4.01.63,9.13-3,10.42,1.8,2.04,5.03,7.44,8.29,7.41,3.26.03,6.49-5.37,8.3-7.41-3.63-1.29-2.94-6.41-3-10.42h0Z" style="fill:#ffb487; stroke-width:0px;"/><path d="M145.96,69.99c3.4.58,8.97.29,10.79-2.4-.14-.37-.24-.75-.31-1.13-.97-1.38-2.1-2.62-3.38-3.71-.35.19-.72.4-1.1.62l-2.65,1.82c-1.06.83-2.12,1.4-3.13,2.48,0,.15-.03.34-.05.54-.05.6-.1,1.21-.15,1.8h0Z" style="fill:#d47455; stroke-width:0px;"/><path d="M142.96,53.6c-4.95-3.85-6.73,4.66-.54,5.33.4-1.74.84-3.48.54-5.33Z" style="fill:#ffb487; stroke-width:0px;"/><path d="M141.51,55.65c-.12,0-.23-.09-.25-.21-.08-.54-.58-.92-1.12-.85-.02,0-.04,0-.05,0-.14.01-.27-.09-.29-.24-.01-.14.09-.27.23-.29.82-.13,1.6.43,1.73,1.25.03.14-.06.28-.2.31h-.06s0,0,0,0Z" style="fill:#393b52; stroke-width:0px;"/><path d="M142.29,59.17c-.04-1.79.18-9.3,1.32-11.01,4.47-6.71,11.43-1.43,15-1.33.95.02,1.52-.12,1.85-.58.49,6.77.42,14.43.35,14.43-.8,4.41-3.68,8.76-9.99,8.59-.24,0-.48-.01-.72-.04-5.88-.47-7.84-6.66-7.81-10.06Z" style="fill:#ffb487; stroke-width:0px;"/><path d="M159.05,53.28s-.09,0-.12-.03c-1.26-.69-2.76-.82-4.12-.36-.13.05-.29-.01-.34-.14-.05-.13.01-.28.15-.34,1.51-.53,3.17-.39,4.57.4.12.07.17.23.1.35-.05.08-.14.12-.23.12h0ZM149.21,52.43s-.07,0-.1,0c-1.32-.58-2.78-.74-4.19-.46-.14.04-.28-.04-.32-.18-.04-.14.04-.28.18-.32,1.53-.33,3.12-.16,4.54.48.06.03.11.08.14.14.01.03.02.07.02.1,0,.03,0,.07-.02.1-.05.09-.14.14-.24.14h0ZM157.5,56.14c.06-.88-.38-1.62-.99-1.66s-1.15.63-1.21,1.51c-.06.88.38,1.62.99,1.66s1.15-.63,1.21-1.51Z" style="fill:#393b52; stroke-width:0px;"/><path d="M159.05,54.14c-.11.23-.24.44-.4.63-.17.2-.36.39-.57.54-.22.16-.47.3-.73.4-.27.11-.55.19-.84.23h-.03c-.39.07-.76-.19-.83-.58-.07-.39.19-.76.59-.83.12-.02.24-.01.35.02.18.07.38.11.57.13.21.03.42.03.63,0,.22-.03.44-.1.65-.19.22-.09.43-.22.61-.36h0ZM148.06,55.36c.06-.88-.38-1.62-.99-1.67s-1.15.63-1.21,1.51c-.06.88.38,1.62.99,1.66s1.15-.63,1.21-1.51h0Z" style="fill:#393b52; stroke-width:0px;"/><path d="M144.89,52.68c.26.38.61.7,1.03.91.37.18.77.27,1.18.26.4,0,.72.32.72.72h0c0,.29-.17.56-.44.67-.2.08-.42.07-.61-.03h-.03c-.26-.13-.5-.29-.73-.48-.21-.18-.41-.38-.57-.61-.15-.22-.28-.45-.37-.69-.09-.24-.16-.48-.18-.74ZM151.2,60.59h-.07c-.29-.08-1.26-.4-1.46-1.02-.08-.3,0-.62.22-.85.83-1.16,1.2-2.59,1.04-4.01,0-.03,0-.07,0-.1.03-.1.11-.18.22-.19.14-.02.27.08.29.23,0,0,0,0,0,0,.17,1.56-.24,3.13-1.16,4.41-.17.21-.13.32-.12.36.08.25.53.52,1.1.67.14.04.22.18.18.32-.04.11-.14.18-.25.18h0Z" style="fill:#393b52; stroke-width:0px;"/><path d="M150.93,63.98c-.81,0-1.61-.2-2.31-.6-.24-.15-.32-.47-.16-.72.07-.12.19-.2.33-.23.13-.03.28,0,.39.07.08.05,1.86,1.11,4.04-.28.18-.12.41-.11.58.01.24.17.29.49.12.73-.04.05-.09.1-.14.14-.85.56-1.84.87-2.85.88h0Z" style="fill:#e34450; stroke-width:0px;"/><path d="M160.75,55.05c5.51-3,5.88,5.69-.34,5.35-.11-1.78-.26-3.57.34-5.35h0Z" style="fill:#ffb487; stroke-width:0px;"/><path d="M161.89,57.32s-.07,0-.1-.02c-.13-.05-.2-.2-.15-.33,0,0,0,0,0,0,.27-.79,1.12-1.21,1.91-.95.14.04.22.18.18.32-.04.14-.18.22-.32.18-.51-.19-1.08.06-1.27.57,0,.02-.01.04-.02.06-.04.1-.13.17-.24.17Z" style="fill:#393b52; stroke-width:0px;"/><path d="M146.5,58.14h-.32c-1-.08-1.94-.56-2.59-1.33-1.36-1.6-1.16-3.99.43-5.35,0,0,0,0,0,0,1.6-1.36,4-1.16,5.36.44.99,1.17,1.19,2.82.49,4.19-.65,1.26-1.96,2.06-3.38,2.05h0ZM146.5,51.06c-.82,0-1.62.31-2.22.87-.61.56-.98,1.32-1.05,2.14-.14,1.8,1.2,3.39,3.01,3.53.87.08,1.74-.2,2.41-.77,1.38-1.17,1.55-3.23.39-4.61,0,0,0,0,0-.01-.63-.74-1.56-1.16-2.53-1.16h0ZM156.9,58.99h-.31c-1.01-.08-1.94-.56-2.59-1.33-.66-.76-.98-1.76-.89-2.76.08-1,.56-1.93,1.33-2.59.77-.65,1.77-.97,2.77-.89,2.09.17,3.65,2,3.48,4.09,0,0,0,0,0,0-.08.95-.52,1.83-1.22,2.47-.7.64-1.62,1-2.57,1h0ZM156.9,51.92c-1.82,0-3.29,1.48-3.29,3.29,0,.34.05.67.16,1,.13.41.35.79.63,1.12.56.67,1.37,1.08,2.24,1.15.87.07,1.73-.21,2.39-.77.66-.56,1.08-1.36,1.15-2.23.14-1.8-1.2-3.39-3.01-3.53-.09-.02-.18-.03-.27-.03h0,0Z" style="fill:#fff; stroke-width:0px;"/><path d="M153.33,55.16c-1.26-1.68-3.24-.58-3.32-.54l-.26-.45s2.46-1.37,4.01.68l-.44.31h0Z" style="fill:#fff; stroke-width:0px;"/><path d="M151.91,85.12c9.36,0,17.31-2.31,20.22-5.52-.38-.15-.77-.28-1.16-.4l-13.34-3.8-5.72,1.17-6.82-1.17-12.24,3.8c-.4.11-.78.24-1.16.4,2.91,3.21,10.86,5.52,20.22,5.52h0Z" style="fill:#ffb487; stroke-width:0px;"/><path d="M157.75,38.02v-.32c0-.11,0-.23-.02-.34-.02-.23-.05-.46-.1-.69-.09-.46-.22-.9-.4-1.33-.34-.87-.9-1.63-1.63-2.21-.77-.59-1.66-.99-2.62-1.15-.98-.18-1.98-.22-2.98-.12.99-.22,2.01-.29,3.03-.22,1.05.07,2.07.38,2.97.93.46.28.87.63,1.24,1.02.36.4.68.84.94,1.32.39.72.67,1.49.83,2.29.03.13.05.26.08.4.02.14.04.26.05.44h-1.38Z" style="fill:#3f8ae0; stroke-width:0px;"/></g><path d="M126.41,46.5l-8.55-5.34c-.88-.55-1.32-.82-1.76-.72-.44.1-.72.54-1.27,1.42l-5.34,8.55c-1.2,1.92-1.79,2.87-1.37,3.47s1.53.34,3.73-.16l13.89-3.21c2.2-.51,3.3-.76,3.42-1.49.12-.72-.84-1.32-2.75-2.52h0Z" style="fill:#ff6680; stroke-width:0px;"/><path d="M224,31c0-.93,0-1.4.15-1.76.2-.49.59-.88,1.08-1.08.37-.15.83-.15,1.76-.15s1.4,0,1.76.15c.49.2.88.59,1.08,1.08.15.37.15.83.15,1.76s0,1.4-.15,1.76c-.2.49-.59.88-1.08,1.08-.37.15-.83.15-1.76.15s-1.4,0-1.76-.15c-.49-.2-.88-.59-1.08-1.08-.15-.37-.15-.83-.15-1.76Z" style="fill:#70b2ff; stroke-width:0px;"/><rect x="37.67" y="98" width="16" height="16" rx="4" ry="4" transform="translate(-61.57 63.32) rotate(-44.99)" style="fill:#70b2ff; stroke-width:0px;"/><path d="M250,64c-.69,0-1.25.56-1.25,1.25v7.5h-7.5c-.69,0-1.25.56-1.25,1.25s.56,1.25,1.25,1.25h7.5v7.5c0,.69.56,1.25,1.25,1.25s1.25-.56,1.25-1.25v-7.5h7.5c.69,0,1.25-.56,1.25-1.25s-.56-1.25-1.25-1.25h-7.5v-7.5c0-.69-.56-1.25-1.25-1.25Z" style="fill:#3f8ae0; stroke-width:0px;"/></svg>